%TF.GenerationSoftware,KiCad,Pcbnew,7.0.5*%
%TF.CreationDate,2023-06-20T08:34:55-05:00*%
%TF.ProjectId,Single.Channel.Amp,53696e67-6c65-42e4-9368-616e6e656c2e,rev?*%
%TF.SameCoordinates,Original*%
%TF.FileFunction,Copper,L1,Top*%
%TF.FilePolarity,Positive*%
%FSLAX46Y46*%
G04 Gerber Fmt 4.6, Leading zero omitted, Abs format (unit mm)*
G04 Created by KiCad (PCBNEW 7.0.5) date 2023-06-20 08:34:55*
%MOMM*%
%LPD*%
G01*
G04 APERTURE LIST*
G04 Aperture macros list*
%AMRoundRect*
0 Rectangle with rounded corners*
0 $1 Rounding radius*
0 $2 $3 $4 $5 $6 $7 $8 $9 X,Y pos of 4 corners*
0 Add a 4 corners polygon primitive as box body*
4,1,4,$2,$3,$4,$5,$6,$7,$8,$9,$2,$3,0*
0 Add four circle primitives for the rounded corners*
1,1,$1+$1,$2,$3*
1,1,$1+$1,$4,$5*
1,1,$1+$1,$6,$7*
1,1,$1+$1,$8,$9*
0 Add four rect primitives between the rounded corners*
20,1,$1+$1,$2,$3,$4,$5,0*
20,1,$1+$1,$4,$5,$6,$7,0*
20,1,$1+$1,$6,$7,$8,$9,0*
20,1,$1+$1,$8,$9,$2,$3,0*%
G04 Aperture macros list end*
%TA.AperFunction,NonConductor*%
%ADD10C,0.250000*%
%TD*%
%TA.AperFunction,NonConductor*%
%ADD11C,0.200000*%
%TD*%
%TA.AperFunction,EtchedComponent*%
%ADD12C,0.100000*%
%TD*%
%TA.AperFunction,ComponentPad*%
%ADD13O,1.800000X1.800000*%
%TD*%
%TA.AperFunction,SMDPad,CuDef*%
%ADD14RoundRect,0.250000X0.350000X0.450000X-0.350000X0.450000X-0.350000X-0.450000X0.350000X-0.450000X0*%
%TD*%
%TA.AperFunction,SMDPad,CuDef*%
%ADD15RoundRect,0.250000X0.650000X-0.412500X0.650000X0.412500X-0.650000X0.412500X-0.650000X-0.412500X0*%
%TD*%
%TA.AperFunction,SMDPad,CuDef*%
%ADD16RoundRect,0.250000X-0.450000X0.350000X-0.450000X-0.350000X0.450000X-0.350000X0.450000X0.350000X0*%
%TD*%
%TA.AperFunction,ComponentPad*%
%ADD17C,1.800000*%
%TD*%
%TA.AperFunction,SMDPad,CuDef*%
%ADD18RoundRect,0.250000X-0.650000X0.412500X-0.650000X-0.412500X0.650000X-0.412500X0.650000X0.412500X0*%
%TD*%
%TA.AperFunction,ComponentPad*%
%ADD19C,1.000000*%
%TD*%
%TA.AperFunction,Conductor*%
%ADD20C,0.000000*%
%TD*%
%TA.AperFunction,Conductor*%
%ADD21C,0.250000*%
%TD*%
G04 APERTURE END LIST*
D10*
X40780000Y-45742855D02*
X43600000Y-45742855D01*
X38815000Y-39630270D02*
X39635000Y-38810270D01*
X56395000Y-44007500D02*
X56395000Y-45842500D01*
X38815000Y-39630270D02*
X38815000Y-41755000D01*
D11*
X45220000Y-39560000D02*
X45220000Y-38835000D01*
D10*
X56402486Y-40027514D02*
X56402486Y-42120000D01*
X44317500Y-48067500D02*
X47412500Y-44972500D01*
X58182820Y-43117179D02*
X62507179Y-38792820D01*
X38872985Y-43835840D02*
X40780000Y-45742855D01*
X56402486Y-40027514D02*
X57547514Y-38882486D01*
X40442130Y-42817870D02*
X44415000Y-38845000D01*
X55890000Y-48250000D02*
X52665904Y-45025904D01*
D12*
%TO.C,MMBT3904*%
X39055000Y-41580000D02*
X38615000Y-41580000D01*
X38615000Y-41580000D02*
X38615000Y-42060000D01*
X38615000Y-42060000D02*
X39055000Y-42060000D01*
X39055000Y-42060000D02*
X39055000Y-41580000D01*
G36*
X39055000Y-41580000D02*
G01*
X38615000Y-41580000D01*
X38615000Y-42060000D01*
X39055000Y-42060000D01*
X39055000Y-41580000D01*
G37*
X40715000Y-42530000D02*
X40235000Y-42530000D01*
X40235000Y-42530000D02*
X40235000Y-43010000D01*
X40235000Y-43010000D02*
X40715000Y-43010000D01*
X40715000Y-43010000D02*
X40715000Y-42530000D01*
G36*
X40715000Y-42530000D02*
G01*
X40235000Y-42530000D01*
X40235000Y-43010000D01*
X40715000Y-43010000D01*
X40715000Y-42530000D01*
G37*
X39055000Y-43480000D02*
X38615000Y-43480000D01*
X38615000Y-43480000D02*
X38615000Y-43960000D01*
X38615000Y-43960000D02*
X39055000Y-43960000D01*
X39055000Y-43960000D02*
X39055000Y-43480000D01*
G36*
X39055000Y-43480000D02*
G01*
X38615000Y-43480000D01*
X38615000Y-43960000D01*
X39055000Y-43960000D01*
X39055000Y-43480000D01*
G37*
%TO.C,MMBT3906*%
X56620000Y-41855000D02*
X56180000Y-41855000D01*
X56180000Y-41855000D02*
X56180000Y-42335000D01*
X56180000Y-42335000D02*
X56620000Y-42335000D01*
X56620000Y-42335000D02*
X56620000Y-41855000D01*
G36*
X56620000Y-41855000D02*
G01*
X56180000Y-41855000D01*
X56180000Y-42335000D01*
X56620000Y-42335000D01*
X56620000Y-41855000D01*
G37*
X58280000Y-42805000D02*
X57800000Y-42805000D01*
X57800000Y-42805000D02*
X57800000Y-43285000D01*
X57800000Y-43285000D02*
X58280000Y-43285000D01*
X58280000Y-43285000D02*
X58280000Y-42805000D01*
G36*
X58280000Y-42805000D02*
G01*
X57800000Y-42805000D01*
X57800000Y-43285000D01*
X58280000Y-43285000D01*
X58280000Y-42805000D01*
G37*
X56620000Y-43755000D02*
X56180000Y-43755000D01*
X56180000Y-43755000D02*
X56180000Y-44235000D01*
X56180000Y-44235000D02*
X56620000Y-44235000D01*
X56620000Y-44235000D02*
X56620000Y-43755000D01*
G36*
X56620000Y-43755000D02*
G01*
X56180000Y-43755000D01*
X56180000Y-44235000D01*
X56620000Y-44235000D01*
X56620000Y-43755000D01*
G37*
%TD*%
D13*
%TO.P,,Output*%
%TO.N,N/C*%
X38185000Y-58057500D03*
%TD*%
D14*
%TO.P,1.0k\u03A9,1*%
%TO.N,N/C*%
X60035000Y-38915000D03*
%TO.P,1.0k\u03A9,2*%
X58035000Y-38915000D03*
%TD*%
D15*
%TO.P,10 uF,1*%
%TO.N,N/C*%
X58740000Y-34632500D03*
%TO.P,10 uF,2*%
%TO.N,GND*%
X58740000Y-31507500D03*
%TD*%
D16*
%TO.P,4.7\u03A9,1*%
%TO.N,N/C*%
X44040000Y-45900000D03*
%TO.P,4.7\u03A9,2*%
X44040000Y-47900000D03*
%TD*%
D17*
%TO.P,1N4XXX (7.5 V),1*%
%TO.N,N/C*%
X36550000Y-38835000D03*
D13*
%TO.P,1N4XXX (7.5 V),2*%
%TO.N,GND*%
X36550000Y-28675000D03*
%TD*%
D18*
%TO.P,10 uF,1*%
%TO.N,N/C*%
X52625000Y-44747500D03*
%TO.P,10 uF,2*%
X52625000Y-47872500D03*
%TD*%
D13*
%TO.P,,-*%
%TO.N,N/C*%
X53111459Y-22545000D03*
%TD*%
D14*
%TO.P,1.0k\u03A9,1*%
%TO.N,N/C*%
X42070000Y-38805000D03*
%TO.P,1.0k\u03A9,2*%
X40070000Y-38805000D03*
%TD*%
D13*
%TO.P,,GND*%
%TO.N,GND*%
X49685000Y-22545000D03*
%TD*%
%TO.P,,+*%
%TO.N,N/C*%
X46258541Y-22545000D03*
%TD*%
D15*
%TO.P,10 uF,1*%
%TO.N,N/C*%
X40960000Y-34202500D03*
%TO.P,10 uF,2*%
%TO.N,GND*%
X40960000Y-31077500D03*
%TD*%
D17*
%TO.P,1N4148,1*%
%TO.N,N/C*%
X45270000Y-38835000D03*
D13*
%TO.P,1N4148,2*%
X45270000Y-28675000D03*
%TD*%
D19*
%TO.P,REF\u002A\u002A,+V*%
%TO.N,N/C*%
X45875000Y-52550000D03*
%TO.P,REF\u002A\u002A,-V*%
X48415000Y-52550000D03*
%TO.P,REF\u002A\u002A,GND*%
%TO.N,GND*%
X56035000Y-52550000D03*
X53495000Y-52550000D03*
X50955000Y-52550000D03*
X43335000Y-52550000D03*
%TO.P,REF\u002A\u002A,input*%
%TO.N,N/C*%
X58575000Y-52550000D03*
%TO.P,REF\u002A\u002A,output*%
X40795000Y-52550000D03*
%TD*%
D17*
%TO.P,1N4XXX (7.5 V),1*%
%TO.N,GND*%
X54495000Y-28755000D03*
D13*
%TO.P,1N4XXX (7.5 V),2*%
%TO.N,N/C*%
X54495000Y-38915000D03*
%TD*%
D17*
%TO.P,1N4148,1*%
%TO.N,N/C*%
X63210000Y-28765000D03*
D13*
%TO.P,1N4148,2*%
X63210000Y-38925000D03*
%TD*%
D18*
%TO.P,10 uF,1*%
%TO.N,N/C*%
X47625000Y-44747500D03*
%TO.P,10 uF,2*%
X47625000Y-47872500D03*
%TD*%
D13*
%TO.P,,Input*%
%TO.N,N/C*%
X61185000Y-58057500D03*
%TD*%
D16*
%TO.P,4.7\u03A9,1*%
%TO.N,N/C*%
X56165000Y-46000000D03*
%TO.P,4.7\u03A9,2*%
X56165000Y-48000000D03*
%TD*%
D20*
%TO.N,*%
X40960000Y-34202500D02*
X40960000Y-34610000D01*
X58740000Y-34632500D02*
X58740000Y-34875000D01*
X40040000Y-38835000D02*
X40055000Y-38820000D01*
D21*
X42100000Y-38835000D02*
X42070000Y-38805000D01*
X56990000Y-22545000D02*
X63210000Y-28765000D01*
X40795000Y-55447500D02*
X38185000Y-58057500D01*
X54495000Y-38915000D02*
X58035000Y-38915000D01*
X40040000Y-38835000D02*
X36550000Y-38835000D01*
X60045000Y-38925000D02*
X63210000Y-38925000D01*
X58575000Y-55447500D02*
X61185000Y-58057500D01*
X58740000Y-34875000D02*
X57975000Y-35640000D01*
X60105000Y-38985000D02*
X60035000Y-38915000D01*
X53111459Y-22545000D02*
X56990000Y-22545000D01*
X46258541Y-22545000D02*
X46258541Y-27686459D01*
X52625000Y-48340000D02*
X48415000Y-52550000D01*
X40960000Y-34610000D02*
X40045000Y-35525000D01*
X45270000Y-38835000D02*
X42100000Y-38835000D01*
D20*
X40070000Y-38805000D02*
X40040000Y-38835000D01*
D21*
X40795000Y-52550000D02*
X40795000Y-55447500D01*
X46258541Y-27686459D02*
X45270000Y-28675000D01*
D20*
X58035000Y-38915000D02*
X58005000Y-38945000D01*
D21*
X40045000Y-35525000D02*
X40045000Y-38780000D01*
X45875000Y-49622500D02*
X45875000Y-52550000D01*
D20*
X57975000Y-38855000D02*
X58035000Y-38915000D01*
D21*
X60035000Y-38915000D02*
X60045000Y-38925000D01*
X57975000Y-35640000D02*
X57975000Y-38855000D01*
X58575000Y-52550000D02*
X58575000Y-55447500D01*
X52625000Y-47872500D02*
X52625000Y-48340000D01*
D20*
X40045000Y-38780000D02*
X40070000Y-38805000D01*
D21*
X47625000Y-47872500D02*
X45875000Y-49622500D01*
%TD*%
%TA.AperFunction,Conductor*%
%TO.N,GND*%
G36*
X72687018Y-20545633D02*
G01*
X72768796Y-20550993D01*
X72897221Y-20560177D01*
X72900794Y-20560537D01*
X72999836Y-20573455D01*
X73003874Y-20574120D01*
X73074439Y-20588156D01*
X73147448Y-20604038D01*
X73218656Y-20619529D01*
X73225390Y-20621398D01*
X73343646Y-20661540D01*
X73345198Y-20662093D01*
X73476750Y-20711160D01*
X73482483Y-20713635D01*
X73596830Y-20770024D01*
X73599042Y-20771173D01*
X73719913Y-20837173D01*
X73724641Y-20840037D01*
X73831649Y-20911537D01*
X73834358Y-20913454D01*
X73943652Y-20995271D01*
X73947345Y-20998265D01*
X74044502Y-21083469D01*
X74047448Y-21086228D01*
X74128579Y-21167359D01*
X74143755Y-21182535D01*
X74146529Y-21185497D01*
X74201759Y-21248474D01*
X74231726Y-21282645D01*
X74234742Y-21286366D01*
X74316545Y-21395643D01*
X74318462Y-21398352D01*
X74355071Y-21453139D01*
X74357477Y-21457045D01*
X74478077Y-21670105D01*
X74479728Y-21673225D01*
X74498619Y-21711533D01*
X74501467Y-21718288D01*
X74617734Y-22047042D01*
X74619867Y-22054543D01*
X74641843Y-22155561D01*
X74648203Y-22187539D01*
X74649030Y-22192924D01*
X74680008Y-22477370D01*
X74680240Y-22480026D01*
X74684367Y-22542966D01*
X74684500Y-22547024D01*
X74684500Y-62292976D01*
X74684367Y-62297033D01*
X74679021Y-62378585D01*
X74666015Y-62560432D01*
X74664980Y-62568112D01*
X74641845Y-62684426D01*
X74610470Y-62828653D01*
X74608595Y-62835408D01*
X74582020Y-62913696D01*
X74581599Y-62914896D01*
X74535307Y-63042600D01*
X74518843Y-63086738D01*
X74516357Y-63092496D01*
X74459992Y-63206795D01*
X74458794Y-63209100D01*
X74456670Y-63212989D01*
X74455589Y-63214887D01*
X74342878Y-63404946D01*
X74341101Y-63407767D01*
X74318472Y-63441634D01*
X74316554Y-63444345D01*
X74234740Y-63553634D01*
X74231720Y-63557360D01*
X74146530Y-63654501D01*
X74143755Y-63657463D01*
X74047464Y-63753755D01*
X74044502Y-63756529D01*
X73947357Y-63841723D01*
X73943631Y-63844744D01*
X73834359Y-63926543D01*
X73831649Y-63928461D01*
X73724641Y-63999961D01*
X73719907Y-64002828D01*
X73599086Y-64068802D01*
X73596794Y-64069992D01*
X73482499Y-64126356D01*
X73476740Y-64128842D01*
X73345271Y-64177878D01*
X73343533Y-64178497D01*
X73225402Y-64218597D01*
X73218646Y-64220472D01*
X73074408Y-64251848D01*
X72958118Y-64274980D01*
X72950438Y-64276015D01*
X72768585Y-64289021D01*
X72712608Y-64292690D01*
X72687025Y-64294367D01*
X72682976Y-64294500D01*
X40453021Y-64294500D01*
X40134453Y-64294395D01*
X26710000Y-64290000D01*
X26709115Y-64290000D01*
X26700900Y-64289451D01*
X26138996Y-64214234D01*
X26115591Y-64208750D01*
X26026461Y-64178495D01*
X26024723Y-64177876D01*
X25900485Y-64131538D01*
X25897522Y-64130345D01*
X25883107Y-64124105D01*
X25880314Y-64122813D01*
X25773221Y-64070000D01*
X25770930Y-64068810D01*
X25690659Y-64024980D01*
X25675507Y-64015213D01*
X25308770Y-63739130D01*
X25302217Y-63733437D01*
X25275321Y-63706541D01*
X25271147Y-63701927D01*
X25022255Y-63397310D01*
X25018713Y-63392525D01*
X24980029Y-63334631D01*
X24977180Y-63329925D01*
X24911173Y-63209042D01*
X24910005Y-63206791D01*
X24897630Y-63181697D01*
X24853635Y-63092483D01*
X24851156Y-63086740D01*
X24851155Y-63086738D01*
X24802103Y-62955224D01*
X24801531Y-62953618D01*
X24761395Y-62835383D01*
X24759531Y-62828666D01*
X24728158Y-62684451D01*
X24705015Y-62568102D01*
X24703985Y-62560459D01*
X24690978Y-62378585D01*
X24685632Y-62297019D01*
X24685500Y-62292993D01*
X24685500Y-58057500D01*
X37079785Y-58057500D01*
X37098602Y-58260582D01*
X37154417Y-58456747D01*
X37154422Y-58456760D01*
X37245327Y-58639321D01*
X37368237Y-58802081D01*
X37518958Y-58939480D01*
X37518960Y-58939482D01*
X37618141Y-59000892D01*
X37692363Y-59046848D01*
X37882544Y-59120524D01*
X38083024Y-59158000D01*
X38083026Y-59158000D01*
X38286974Y-59158000D01*
X38286976Y-59158000D01*
X38487456Y-59120524D01*
X38677637Y-59046848D01*
X38851041Y-58939481D01*
X39001764Y-58802079D01*
X39124673Y-58639321D01*
X39215582Y-58456750D01*
X39271397Y-58260583D01*
X39290215Y-58057500D01*
X39271397Y-57854417D01*
X39215582Y-57658250D01*
X39198505Y-57623954D01*
X39186244Y-57555169D01*
X39213117Y-57490674D01*
X39221814Y-57481011D01*
X41013210Y-55689615D01*
X41017172Y-55685984D01*
X41048194Y-55659955D01*
X41068444Y-55624878D01*
X41071333Y-55620345D01*
X41094553Y-55587184D01*
X41094555Y-55587176D01*
X41096816Y-55582328D01*
X41103754Y-55565579D01*
X41105583Y-55560552D01*
X41105588Y-55560545D01*
X41112622Y-55520647D01*
X41113779Y-55515429D01*
X41124263Y-55476307D01*
X41120735Y-55435989D01*
X41120500Y-55430586D01*
X41120500Y-53245242D01*
X41140185Y-53178203D01*
X41186875Y-53135445D01*
X41195852Y-53130734D01*
X41323183Y-53017929D01*
X41419818Y-52877930D01*
X41480140Y-52718872D01*
X41500645Y-52550000D01*
X42330161Y-52550000D01*
X42349468Y-52746030D01*
X42406652Y-52934538D01*
X42472922Y-53058522D01*
X42950096Y-52581349D01*
X42950051Y-52581898D01*
X42981266Y-52705162D01*
X43050813Y-52811612D01*
X43151157Y-52889713D01*
X43271422Y-52931000D01*
X43307553Y-52931000D01*
X42826476Y-53412076D01*
X42950466Y-53478350D01*
X43138969Y-53535531D01*
X43138965Y-53535531D01*
X43334999Y-53554838D01*
X43531032Y-53535531D01*
X43719537Y-53478348D01*
X43843522Y-53412076D01*
X43362448Y-52931000D01*
X43366569Y-52931000D01*
X43460421Y-52915339D01*
X43572251Y-52854820D01*
X43658371Y-52761269D01*
X43709448Y-52644823D01*
X43715105Y-52576551D01*
X44197077Y-53058523D01*
X44263348Y-52934539D01*
X44320531Y-52746032D01*
X44339838Y-52550000D01*
X44339838Y-52549999D01*
X45169355Y-52549999D01*
X45189859Y-52718869D01*
X45189860Y-52718874D01*
X45250182Y-52877931D01*
X45312475Y-52968177D01*
X45346817Y-53017929D01*
X45452505Y-53111560D01*
X45474150Y-53130736D01*
X45575686Y-53184026D01*
X45624775Y-53209790D01*
X45789944Y-53250500D01*
X45960056Y-53250500D01*
X46125225Y-53209790D01*
X46204692Y-53168081D01*
X46275849Y-53130736D01*
X46275850Y-53130734D01*
X46275852Y-53130734D01*
X46403183Y-53017929D01*
X46499818Y-52877930D01*
X46560140Y-52718872D01*
X46580645Y-52550000D01*
X47709355Y-52550000D01*
X47729859Y-52718869D01*
X47729860Y-52718874D01*
X47790182Y-52877931D01*
X47852475Y-52968177D01*
X47886817Y-53017929D01*
X47992505Y-53111560D01*
X48014150Y-53130736D01*
X48115686Y-53184026D01*
X48164775Y-53209790D01*
X48329944Y-53250500D01*
X48500056Y-53250500D01*
X48665225Y-53209790D01*
X48744692Y-53168081D01*
X48815849Y-53130736D01*
X48815850Y-53130734D01*
X48815852Y-53130734D01*
X48943183Y-53017929D01*
X49039818Y-52877930D01*
X49100140Y-52718872D01*
X49120645Y-52550000D01*
X49120645Y-52549999D01*
X49950161Y-52549999D01*
X49969468Y-52746030D01*
X50026652Y-52934538D01*
X50092922Y-53058522D01*
X50570096Y-52581348D01*
X50570051Y-52581898D01*
X50601266Y-52705162D01*
X50670813Y-52811612D01*
X50771157Y-52889713D01*
X50891422Y-52931000D01*
X50927553Y-52931000D01*
X50446476Y-53412076D01*
X50570466Y-53478350D01*
X50758969Y-53535531D01*
X50758965Y-53535531D01*
X50955000Y-53554838D01*
X51151032Y-53535531D01*
X51339537Y-53478348D01*
X51463522Y-53412076D01*
X50982448Y-52931000D01*
X50986569Y-52931000D01*
X51080421Y-52915339D01*
X51192251Y-52854820D01*
X51278371Y-52761269D01*
X51329448Y-52644823D01*
X51335105Y-52576552D01*
X51817076Y-53058522D01*
X51883348Y-52934537D01*
X51940531Y-52746032D01*
X51959838Y-52549999D01*
X52490161Y-52549999D01*
X52509468Y-52746030D01*
X52566652Y-52934538D01*
X52632922Y-53058522D01*
X53110096Y-52581349D01*
X53110051Y-52581898D01*
X53141266Y-52705162D01*
X53210813Y-52811612D01*
X53311157Y-52889713D01*
X53431422Y-52931000D01*
X53467553Y-52931000D01*
X52986476Y-53412076D01*
X53110466Y-53478350D01*
X53298969Y-53535531D01*
X53298965Y-53535531D01*
X53495000Y-53554838D01*
X53691032Y-53535531D01*
X53879537Y-53478348D01*
X54003522Y-53412076D01*
X53522448Y-52931000D01*
X53526569Y-52931000D01*
X53620421Y-52915339D01*
X53732251Y-52854820D01*
X53818371Y-52761269D01*
X53869448Y-52644823D01*
X53875105Y-52576551D01*
X54357077Y-53058523D01*
X54423348Y-52934539D01*
X54480531Y-52746032D01*
X54499838Y-52550000D01*
X55030161Y-52550000D01*
X55049468Y-52746030D01*
X55106652Y-52934538D01*
X55172922Y-53058522D01*
X55650096Y-52581348D01*
X55650051Y-52581898D01*
X55681266Y-52705162D01*
X55750813Y-52811612D01*
X55851157Y-52889713D01*
X55971422Y-52931000D01*
X56007553Y-52931000D01*
X55526476Y-53412076D01*
X55650466Y-53478350D01*
X55838969Y-53535531D01*
X55838965Y-53535531D01*
X56034999Y-53554838D01*
X56231032Y-53535531D01*
X56419537Y-53478348D01*
X56543522Y-53412076D01*
X56062448Y-52931000D01*
X56066569Y-52931000D01*
X56160421Y-52915339D01*
X56272251Y-52854820D01*
X56358371Y-52761269D01*
X56409448Y-52644823D01*
X56415105Y-52576552D01*
X56897076Y-53058522D01*
X56963348Y-52934537D01*
X57020531Y-52746032D01*
X57039838Y-52550000D01*
X57869355Y-52550000D01*
X57889859Y-52718869D01*
X57889860Y-52718874D01*
X57950182Y-52877931D01*
X58012475Y-52968177D01*
X58046817Y-53017929D01*
X58174148Y-53130734D01*
X58183124Y-53135445D01*
X58233336Y-53184026D01*
X58249499Y-53245241D01*
X58249499Y-55430577D01*
X58249263Y-55435983D01*
X58245735Y-55476305D01*
X58245735Y-55476309D01*
X58256212Y-55515410D01*
X58257383Y-55520690D01*
X58264411Y-55560543D01*
X58266235Y-55565555D01*
X58273197Y-55582361D01*
X58275445Y-55587181D01*
X58275446Y-55587184D01*
X58275447Y-55587185D01*
X58298655Y-55620331D01*
X58301561Y-55624892D01*
X58321806Y-55659955D01*
X58352815Y-55685975D01*
X58356805Y-55689631D01*
X60148175Y-57481002D01*
X60181660Y-57542325D01*
X60176676Y-57612017D01*
X60171495Y-57623953D01*
X60154418Y-57658250D01*
X60147290Y-57683301D01*
X60098602Y-57854417D01*
X60079785Y-58057499D01*
X60079785Y-58057500D01*
X60098602Y-58260582D01*
X60154417Y-58456747D01*
X60154422Y-58456760D01*
X60245327Y-58639321D01*
X60368237Y-58802081D01*
X60518958Y-58939480D01*
X60518960Y-58939482D01*
X60618141Y-59000892D01*
X60692363Y-59046848D01*
X60882544Y-59120524D01*
X61083024Y-59158000D01*
X61083026Y-59158000D01*
X61286974Y-59158000D01*
X61286976Y-59158000D01*
X61487456Y-59120524D01*
X61677637Y-59046848D01*
X61851041Y-58939481D01*
X62001764Y-58802079D01*
X62124673Y-58639321D01*
X62215582Y-58456750D01*
X62271397Y-58260583D01*
X62290215Y-58057500D01*
X62271397Y-57854417D01*
X62215582Y-57658250D01*
X62198504Y-57623953D01*
X62158737Y-57544089D01*
X62124673Y-57475679D01*
X62001764Y-57312921D01*
X62001762Y-57312918D01*
X61851041Y-57175519D01*
X61851039Y-57175517D01*
X61677642Y-57068155D01*
X61677635Y-57068151D01*
X61582546Y-57031314D01*
X61487456Y-56994476D01*
X61286976Y-56957000D01*
X61083024Y-56957000D01*
X60882544Y-56994476D01*
X60882542Y-56994476D01*
X60882540Y-56994477D01*
X60741480Y-57049124D01*
X60671856Y-57054986D01*
X60610116Y-57022276D01*
X60609005Y-57021178D01*
X58936819Y-55348992D01*
X58903334Y-55287669D01*
X58900500Y-55261311D01*
X58900500Y-53245242D01*
X58920185Y-53178203D01*
X58966875Y-53135445D01*
X58975852Y-53130734D01*
X59103183Y-53017929D01*
X59199818Y-52877930D01*
X59260140Y-52718872D01*
X59280645Y-52550000D01*
X59260140Y-52381128D01*
X59199818Y-52222070D01*
X59103183Y-52082071D01*
X58975852Y-51969266D01*
X58975849Y-51969263D01*
X58825226Y-51890210D01*
X58660056Y-51849500D01*
X58489944Y-51849500D01*
X58324773Y-51890210D01*
X58174150Y-51969263D01*
X58046816Y-52082072D01*
X57950182Y-52222068D01*
X57889860Y-52381125D01*
X57889859Y-52381130D01*
X57869355Y-52550000D01*
X57039838Y-52550000D01*
X57020531Y-52353967D01*
X56963350Y-52165466D01*
X56897076Y-52041476D01*
X56419903Y-52518649D01*
X56419949Y-52518102D01*
X56388734Y-52394838D01*
X56319187Y-52288388D01*
X56218843Y-52210287D01*
X56098578Y-52169000D01*
X56062447Y-52169000D01*
X56543522Y-51687922D01*
X56543522Y-51687921D01*
X56419538Y-51621652D01*
X56231030Y-51564468D01*
X56034999Y-51545161D01*
X55838969Y-51564468D01*
X55650461Y-51621652D01*
X55526476Y-51687922D01*
X56007554Y-52169000D01*
X56003431Y-52169000D01*
X55909579Y-52184661D01*
X55797749Y-52245180D01*
X55711629Y-52338731D01*
X55660552Y-52455177D01*
X55654894Y-52523446D01*
X55172923Y-52041475D01*
X55172922Y-52041476D01*
X55106652Y-52165461D01*
X55049468Y-52353969D01*
X55030161Y-52550000D01*
X54499838Y-52550000D01*
X54480531Y-52353967D01*
X54423350Y-52165466D01*
X54357076Y-52041476D01*
X53879903Y-52518646D01*
X53879949Y-52518102D01*
X53848734Y-52394838D01*
X53779187Y-52288388D01*
X53678843Y-52210287D01*
X53558578Y-52169000D01*
X53522447Y-52169000D01*
X54003522Y-51687922D01*
X54003522Y-51687921D01*
X53879538Y-51621652D01*
X53691030Y-51564468D01*
X53495000Y-51545161D01*
X53298969Y-51564468D01*
X53110461Y-51621652D01*
X52986476Y-51687922D01*
X53467554Y-52169000D01*
X53463431Y-52169000D01*
X53369579Y-52184661D01*
X53257749Y-52245180D01*
X53171629Y-52338731D01*
X53120552Y-52455177D01*
X53114894Y-52523447D01*
X52632922Y-52041476D01*
X52566652Y-52165461D01*
X52509468Y-52353969D01*
X52490161Y-52549999D01*
X51959838Y-52549999D01*
X51940531Y-52353967D01*
X51883350Y-52165466D01*
X51817076Y-52041476D01*
X51339903Y-52518648D01*
X51339949Y-52518102D01*
X51308734Y-52394838D01*
X51239187Y-52288388D01*
X51138843Y-52210287D01*
X51018578Y-52169000D01*
X50982447Y-52169000D01*
X51463522Y-51687922D01*
X51463522Y-51687921D01*
X51339538Y-51621652D01*
X51151030Y-51564468D01*
X50955000Y-51545161D01*
X50758969Y-51564468D01*
X50570461Y-51621652D01*
X50446476Y-51687922D01*
X50927554Y-52169000D01*
X50923431Y-52169000D01*
X50829579Y-52184661D01*
X50717749Y-52245180D01*
X50631629Y-52338731D01*
X50580552Y-52455177D01*
X50574894Y-52523446D01*
X50092923Y-52041475D01*
X50092922Y-52041476D01*
X50026652Y-52165461D01*
X49969468Y-52353969D01*
X49950161Y-52549999D01*
X49120645Y-52549999D01*
X49101360Y-52391176D01*
X49112820Y-52322253D01*
X49136772Y-52288552D01*
X52653506Y-48771819D01*
X52714830Y-48738334D01*
X52741188Y-48735500D01*
X53329270Y-48735500D01*
X53359699Y-48732646D01*
X53359701Y-48732646D01*
X53423790Y-48710219D01*
X53487882Y-48687793D01*
X53597150Y-48607150D01*
X53677793Y-48497882D01*
X53700219Y-48433790D01*
X53722646Y-48369701D01*
X53722646Y-48369699D01*
X53725500Y-48339269D01*
X53725500Y-47405730D01*
X53722646Y-47375300D01*
X53722646Y-47375298D01*
X53677824Y-47247207D01*
X53677793Y-47247118D01*
X53597150Y-47137850D01*
X53487882Y-47057207D01*
X53487880Y-47057206D01*
X53359700Y-47012353D01*
X53329270Y-47009500D01*
X53329266Y-47009500D01*
X51920734Y-47009500D01*
X51920730Y-47009500D01*
X51890300Y-47012353D01*
X51890298Y-47012353D01*
X51762119Y-47057206D01*
X51762117Y-47057207D01*
X51652850Y-47137850D01*
X51572207Y-47247117D01*
X51572206Y-47247119D01*
X51527353Y-47375298D01*
X51527353Y-47375300D01*
X51524500Y-47405730D01*
X51524500Y-48339269D01*
X51527353Y-48369699D01*
X51527353Y-48369701D01*
X51572206Y-48497880D01*
X51572207Y-48497882D01*
X51652850Y-48607150D01*
X51677691Y-48625483D01*
X51719941Y-48681130D01*
X51725400Y-48750786D01*
X51692332Y-48812336D01*
X51691738Y-48812934D01*
X48673953Y-51830719D01*
X48612630Y-51864204D01*
X48556599Y-51863435D01*
X48500059Y-51849500D01*
X48500056Y-51849500D01*
X48329944Y-51849500D01*
X48164773Y-51890210D01*
X48014150Y-51969263D01*
X47886816Y-52082072D01*
X47790182Y-52222068D01*
X47729860Y-52381125D01*
X47729859Y-52381130D01*
X47709355Y-52550000D01*
X46580645Y-52550000D01*
X46560140Y-52381128D01*
X46499818Y-52222070D01*
X46403183Y-52082071D01*
X46275852Y-51969266D01*
X46275850Y-51969265D01*
X46275849Y-51969264D01*
X46275844Y-51969260D01*
X46266871Y-51964551D01*
X46216659Y-51915965D01*
X46200499Y-51854756D01*
X46200499Y-51545161D01*
X46200499Y-49808683D01*
X46220184Y-49741648D01*
X46236813Y-49721011D01*
X47186006Y-48771819D01*
X47247330Y-48738334D01*
X47273688Y-48735500D01*
X48329270Y-48735500D01*
X48359699Y-48732646D01*
X48359701Y-48732646D01*
X48423790Y-48710219D01*
X48487882Y-48687793D01*
X48597150Y-48607150D01*
X48677793Y-48497882D01*
X48700219Y-48433790D01*
X48722646Y-48369701D01*
X48722646Y-48369699D01*
X48725500Y-48339269D01*
X48725500Y-47405730D01*
X48722646Y-47375300D01*
X48722646Y-47375298D01*
X48677824Y-47247207D01*
X48677793Y-47247118D01*
X48597150Y-47137850D01*
X48487882Y-47057207D01*
X48487880Y-47057206D01*
X48359700Y-47012353D01*
X48329270Y-47009500D01*
X48329266Y-47009500D01*
X46920734Y-47009500D01*
X46920730Y-47009500D01*
X46890300Y-47012353D01*
X46890298Y-47012353D01*
X46762119Y-47057206D01*
X46762117Y-47057207D01*
X46652850Y-47137850D01*
X46572207Y-47247117D01*
X46572206Y-47247119D01*
X46527353Y-47375298D01*
X46527353Y-47375300D01*
X46524500Y-47405730D01*
X46524500Y-48339269D01*
X46527353Y-48369699D01*
X46527353Y-48369700D01*
X46537941Y-48399958D01*
X46541502Y-48469737D01*
X46508580Y-48528592D01*
X45656803Y-49380370D01*
X45652814Y-49384025D01*
X45621805Y-49410045D01*
X45601562Y-49445106D01*
X45598656Y-49449666D01*
X45575446Y-49482813D01*
X45573206Y-49487617D01*
X45566229Y-49504461D01*
X45564410Y-49509459D01*
X45557383Y-49549311D01*
X45556212Y-49554591D01*
X45545735Y-49593691D01*
X45549264Y-49634013D01*
X45549500Y-49639420D01*
X45549500Y-51854757D01*
X45529815Y-51921796D01*
X45483131Y-51964551D01*
X45474149Y-51969265D01*
X45474148Y-51969266D01*
X45392640Y-52041476D01*
X45346816Y-52082072D01*
X45250182Y-52222068D01*
X45189860Y-52381125D01*
X45189859Y-52381130D01*
X45169355Y-52549999D01*
X44339838Y-52549999D01*
X44320531Y-52353967D01*
X44263350Y-52165466D01*
X44197076Y-52041476D01*
X43719903Y-52518647D01*
X43719949Y-52518102D01*
X43688734Y-52394838D01*
X43619187Y-52288388D01*
X43518843Y-52210287D01*
X43398578Y-52169000D01*
X43362447Y-52169000D01*
X43843522Y-51687922D01*
X43843522Y-51687921D01*
X43719538Y-51621652D01*
X43531030Y-51564468D01*
X43334999Y-51545161D01*
X43138969Y-51564468D01*
X42950461Y-51621652D01*
X42826476Y-51687922D01*
X43307554Y-52169000D01*
X43303431Y-52169000D01*
X43209579Y-52184661D01*
X43097749Y-52245180D01*
X43011629Y-52338731D01*
X42960552Y-52455177D01*
X42954894Y-52523447D01*
X42472922Y-52041476D01*
X42406652Y-52165461D01*
X42349468Y-52353969D01*
X42330161Y-52550000D01*
X41500645Y-52550000D01*
X41480140Y-52381128D01*
X41419818Y-52222070D01*
X41323183Y-52082071D01*
X41195852Y-51969266D01*
X41195849Y-51969263D01*
X41045226Y-51890210D01*
X40880056Y-51849500D01*
X40709944Y-51849500D01*
X40544773Y-51890210D01*
X40394150Y-51969263D01*
X40266816Y-52082072D01*
X40170182Y-52222068D01*
X40109860Y-52381125D01*
X40109859Y-52381130D01*
X40089355Y-52549999D01*
X40109859Y-52718869D01*
X40109860Y-52718874D01*
X40170182Y-52877931D01*
X40232475Y-52968177D01*
X40266817Y-53017929D01*
X40394148Y-53130734D01*
X40403124Y-53135445D01*
X40453337Y-53184027D01*
X40469500Y-53245242D01*
X40469500Y-55261310D01*
X40449815Y-55328349D01*
X40433181Y-55348991D01*
X38760994Y-57021178D01*
X38699671Y-57054663D01*
X38629979Y-57049679D01*
X38628557Y-57049138D01*
X38487456Y-56994476D01*
X38286976Y-56957000D01*
X38083024Y-56957000D01*
X37882544Y-56994476D01*
X37882541Y-56994476D01*
X37882541Y-56994477D01*
X37692364Y-57068151D01*
X37692357Y-57068155D01*
X37518960Y-57175517D01*
X37518958Y-57175519D01*
X37368237Y-57312918D01*
X37245327Y-57475678D01*
X37154422Y-57658239D01*
X37154417Y-57658252D01*
X37098602Y-57854417D01*
X37079785Y-58057499D01*
X37079785Y-58057500D01*
X24685500Y-58057500D01*
X24685500Y-48304269D01*
X43139500Y-48304269D01*
X43142353Y-48334699D01*
X43142353Y-48334701D01*
X43187206Y-48462880D01*
X43187207Y-48462882D01*
X43267850Y-48572150D01*
X43377118Y-48652793D01*
X43419845Y-48667744D01*
X43505299Y-48697646D01*
X43535730Y-48700500D01*
X43535734Y-48700500D01*
X44544270Y-48700500D01*
X44574699Y-48697646D01*
X44574701Y-48697646D01*
X44638790Y-48675219D01*
X44702882Y-48652793D01*
X44812150Y-48572150D01*
X44892793Y-48462882D01*
X44915219Y-48398790D01*
X44937646Y-48334701D01*
X44937646Y-48334699D01*
X44940500Y-48304269D01*
X44940500Y-47956188D01*
X44960185Y-47889149D01*
X44976819Y-47868507D01*
X47198507Y-45646819D01*
X47259830Y-45613334D01*
X47286188Y-45610500D01*
X48329270Y-45610500D01*
X48359699Y-45607646D01*
X48359701Y-45607646D01*
X48423790Y-45585219D01*
X48487882Y-45562793D01*
X48597150Y-45482150D01*
X48677793Y-45372882D01*
X48708818Y-45284218D01*
X48722646Y-45244701D01*
X48722646Y-45244699D01*
X48725500Y-45214269D01*
X51524500Y-45214269D01*
X51527353Y-45244699D01*
X51527353Y-45244701D01*
X51572206Y-45372880D01*
X51572207Y-45372882D01*
X51652850Y-45482150D01*
X51762118Y-45562793D01*
X51804845Y-45577743D01*
X51890299Y-45607646D01*
X51920730Y-45610500D01*
X51920734Y-45610500D01*
X52738812Y-45610500D01*
X52805851Y-45630185D01*
X52826493Y-45646819D01*
X55228181Y-48048507D01*
X55261666Y-48109830D01*
X55264500Y-48136188D01*
X55264499Y-48404269D01*
X55267353Y-48434699D01*
X55267353Y-48434701D01*
X55300208Y-48528592D01*
X55312207Y-48562882D01*
X55392850Y-48672150D01*
X55502118Y-48752793D01*
X55544845Y-48767744D01*
X55630299Y-48797646D01*
X55660730Y-48800500D01*
X55660734Y-48800500D01*
X56669270Y-48800500D01*
X56699699Y-48797646D01*
X56699701Y-48797646D01*
X56763790Y-48775219D01*
X56827882Y-48752793D01*
X56937150Y-48672150D01*
X57017793Y-48562882D01*
X57050386Y-48469737D01*
X57062646Y-48434701D01*
X57062646Y-48434699D01*
X57065500Y-48404269D01*
X57065500Y-47595730D01*
X57062646Y-47565300D01*
X57062646Y-47565298D01*
X57017793Y-47437119D01*
X57017792Y-47437117D01*
X56937150Y-47327850D01*
X56827882Y-47247207D01*
X56827880Y-47247206D01*
X56699700Y-47202353D01*
X56669270Y-47199500D01*
X56669266Y-47199500D01*
X55660734Y-47199500D01*
X55660730Y-47199500D01*
X55630303Y-47202353D01*
X55502116Y-47247207D01*
X55499032Y-47249484D01*
X55495071Y-47250930D01*
X55493903Y-47251548D01*
X55493818Y-47251388D01*
X55433403Y-47273454D01*
X55365233Y-47258136D01*
X55337720Y-47237393D01*
X54504596Y-46404269D01*
X55264500Y-46404269D01*
X55267353Y-46434699D01*
X55267353Y-46434701D01*
X55312206Y-46562880D01*
X55312207Y-46562882D01*
X55392850Y-46672150D01*
X55502118Y-46752793D01*
X55544845Y-46767744D01*
X55630299Y-46797646D01*
X55660730Y-46800500D01*
X55660734Y-46800500D01*
X56669270Y-46800500D01*
X56699699Y-46797646D01*
X56699701Y-46797646D01*
X56763790Y-46775219D01*
X56827882Y-46752793D01*
X56937150Y-46672150D01*
X57017793Y-46562882D01*
X57040219Y-46498790D01*
X57062646Y-46434701D01*
X57062646Y-46434699D01*
X57065500Y-46404269D01*
X57065500Y-45595730D01*
X57062646Y-45565300D01*
X57062646Y-45565298D01*
X57017793Y-45437119D01*
X57017792Y-45437117D01*
X56988679Y-45397670D01*
X56937150Y-45327850D01*
X56827882Y-45247207D01*
X56827880Y-45247206D01*
X56803542Y-45238689D01*
X56746767Y-45197966D01*
X56721022Y-45133013D01*
X56720500Y-45121649D01*
X56720500Y-44535401D01*
X56740185Y-44468362D01*
X56775610Y-44432298D01*
X56800601Y-44415601D01*
X56855966Y-44332740D01*
X56866312Y-44280730D01*
X56871689Y-44253700D01*
X56871690Y-44253689D01*
X56875408Y-44235000D01*
X56875408Y-44234999D01*
X56872883Y-44222306D01*
X56870500Y-44198114D01*
X56870500Y-43791885D01*
X56872883Y-43767691D01*
X56875077Y-43756666D01*
X56875408Y-43755000D01*
X56875408Y-43754998D01*
X56875408Y-43754997D01*
X56855966Y-43657261D01*
X56855966Y-43657260D01*
X56800601Y-43574399D01*
X56742384Y-43535500D01*
X56717739Y-43519033D01*
X56717736Y-43519032D01*
X56644675Y-43504500D01*
X56620001Y-43499592D01*
X56619999Y-43499592D01*
X56607306Y-43502117D01*
X56583114Y-43504500D01*
X56216886Y-43504500D01*
X56192694Y-43502117D01*
X56180001Y-43499592D01*
X56179999Y-43499592D01*
X56155325Y-43504500D01*
X56082263Y-43519032D01*
X56082260Y-43519033D01*
X55999399Y-43574399D01*
X55944033Y-43657261D01*
X55924592Y-43754997D01*
X55924592Y-43754998D01*
X55924592Y-43755000D01*
X55924923Y-43756666D01*
X55927117Y-43767691D01*
X55929500Y-43791885D01*
X55929500Y-44198114D01*
X55927117Y-44222306D01*
X55924592Y-44234999D01*
X55924592Y-44235001D01*
X55928499Y-44254642D01*
X55928506Y-44254680D01*
X55944032Y-44332735D01*
X55944033Y-44332739D01*
X55944034Y-44332740D01*
X55999399Y-44415601D01*
X56014388Y-44425616D01*
X56059194Y-44479227D01*
X56069500Y-44528720D01*
X56069500Y-45075500D01*
X56049815Y-45142539D01*
X55997011Y-45188294D01*
X55945500Y-45199500D01*
X55660730Y-45199500D01*
X55630300Y-45202353D01*
X55630298Y-45202353D01*
X55502119Y-45247206D01*
X55502117Y-45247207D01*
X55392850Y-45327850D01*
X55312207Y-45437117D01*
X55312206Y-45437119D01*
X55267353Y-45565298D01*
X55267353Y-45565300D01*
X55264500Y-45595730D01*
X55264500Y-46404269D01*
X54504596Y-46404269D01*
X53666374Y-45566048D01*
X53632889Y-45504725D01*
X53637873Y-45435033D01*
X53654283Y-45404735D01*
X53677793Y-45372882D01*
X53708818Y-45284218D01*
X53722646Y-45244701D01*
X53722646Y-45244699D01*
X53725500Y-45214269D01*
X53725500Y-44280730D01*
X53722646Y-44250300D01*
X53722646Y-44250298D01*
X53677793Y-44122119D01*
X53677792Y-44122117D01*
X53597150Y-44012850D01*
X53487882Y-43932207D01*
X53487880Y-43932206D01*
X53359700Y-43887353D01*
X53329270Y-43884500D01*
X53329266Y-43884500D01*
X51920734Y-43884500D01*
X51920730Y-43884500D01*
X51890300Y-43887353D01*
X51890298Y-43887353D01*
X51762119Y-43932206D01*
X51762117Y-43932207D01*
X51652850Y-44012850D01*
X51572207Y-44122117D01*
X51572206Y-44122119D01*
X51527353Y-44250298D01*
X51527353Y-44250300D01*
X51524500Y-44280730D01*
X51524500Y-45214269D01*
X48725500Y-45214269D01*
X48725500Y-44280730D01*
X48722646Y-44250300D01*
X48722646Y-44250298D01*
X48677793Y-44122119D01*
X48677792Y-44122117D01*
X48597150Y-44012850D01*
X48487882Y-43932207D01*
X48487880Y-43932206D01*
X48359700Y-43887353D01*
X48329270Y-43884500D01*
X48329266Y-43884500D01*
X46920734Y-43884500D01*
X46920730Y-43884500D01*
X46890300Y-43887353D01*
X46890298Y-43887353D01*
X46762119Y-43932206D01*
X46762117Y-43932207D01*
X46652850Y-44012850D01*
X46572207Y-44122117D01*
X46572206Y-44122119D01*
X46527353Y-44250298D01*
X46527353Y-44250300D01*
X46524500Y-44280730D01*
X46524500Y-45214269D01*
X46527353Y-45244699D01*
X46527353Y-45244700D01*
X46541181Y-45284218D01*
X46544742Y-45353997D01*
X46511820Y-45412852D01*
X44813226Y-47111446D01*
X44751903Y-47144931D01*
X44684590Y-47140806D01*
X44574701Y-47102354D01*
X44574699Y-47102353D01*
X44544270Y-47099500D01*
X44544266Y-47099500D01*
X43535734Y-47099500D01*
X43535730Y-47099500D01*
X43505300Y-47102353D01*
X43505298Y-47102353D01*
X43377119Y-47147206D01*
X43377117Y-47147207D01*
X43267850Y-47227850D01*
X43187207Y-47337117D01*
X43187206Y-47337119D01*
X43142353Y-47465298D01*
X43142353Y-47465300D01*
X43139500Y-47495730D01*
X43139500Y-48304269D01*
X24685500Y-48304269D01*
X24685500Y-43960001D01*
X38359592Y-43960001D01*
X38363499Y-43979642D01*
X38363506Y-43979680D01*
X38379032Y-44057735D01*
X38379033Y-44057739D01*
X38379034Y-44057740D01*
X38434399Y-44140601D01*
X38517260Y-44195966D01*
X38528059Y-44198114D01*
X38614998Y-44215408D01*
X38615000Y-44215408D01*
X38615001Y-44215408D01*
X38627694Y-44212883D01*
X38651886Y-44210500D01*
X38735957Y-44210500D01*
X38802996Y-44230185D01*
X38823637Y-44246818D01*
X39698467Y-45121649D01*
X40537868Y-45961050D01*
X40541523Y-45965039D01*
X40567541Y-45996045D01*
X40567542Y-45996046D01*
X40567545Y-45996049D01*
X40596387Y-46012700D01*
X40602604Y-46016290D01*
X40607154Y-46019188D01*
X40640316Y-46042408D01*
X40640318Y-46042408D01*
X40640319Y-46042409D01*
X40645168Y-46044670D01*
X40661947Y-46051620D01*
X40666952Y-46053442D01*
X40666953Y-46053442D01*
X40666955Y-46053443D01*
X40706829Y-46060473D01*
X40712092Y-46061641D01*
X40723907Y-46064806D01*
X40751193Y-46072118D01*
X40791510Y-46068590D01*
X40796912Y-46068355D01*
X43015500Y-46068355D01*
X43082539Y-46088040D01*
X43128294Y-46140844D01*
X43139500Y-46192355D01*
X43139500Y-46304269D01*
X43142353Y-46334699D01*
X43142353Y-46334701D01*
X43187206Y-46462880D01*
X43187207Y-46462882D01*
X43267850Y-46572150D01*
X43377118Y-46652793D01*
X43419845Y-46667744D01*
X43505299Y-46697646D01*
X43535730Y-46700500D01*
X43535734Y-46700500D01*
X44544270Y-46700500D01*
X44574699Y-46697646D01*
X44574701Y-46697646D01*
X44638790Y-46675219D01*
X44702882Y-46652793D01*
X44812150Y-46572150D01*
X44892793Y-46462882D01*
X44915219Y-46398790D01*
X44937646Y-46334701D01*
X44937646Y-46334699D01*
X44940500Y-46304269D01*
X44940500Y-45495730D01*
X44937646Y-45465300D01*
X44937646Y-45465298D01*
X44892793Y-45337119D01*
X44892792Y-45337117D01*
X44853751Y-45284218D01*
X44812150Y-45227850D01*
X44702882Y-45147207D01*
X44702880Y-45147206D01*
X44574700Y-45102353D01*
X44544270Y-45099500D01*
X44544266Y-45099500D01*
X43535734Y-45099500D01*
X43535730Y-45099500D01*
X43505300Y-45102353D01*
X43505298Y-45102353D01*
X43377119Y-45147206D01*
X43377117Y-45147207D01*
X43267850Y-45227850D01*
X43187207Y-45337117D01*
X43182867Y-45345331D01*
X43180994Y-45344341D01*
X43147472Y-45391083D01*
X43082520Y-45416833D01*
X43071149Y-45417355D01*
X40966189Y-45417355D01*
X40899150Y-45397670D01*
X40878508Y-45381036D01*
X39341819Y-43844347D01*
X39308334Y-43783024D01*
X39305500Y-43756666D01*
X39305500Y-43516885D01*
X39307883Y-43492691D01*
X39310408Y-43479998D01*
X39310408Y-43479997D01*
X39290966Y-43382261D01*
X39290966Y-43382260D01*
X39235601Y-43299399D01*
X39214052Y-43285001D01*
X57544592Y-43285001D01*
X57548499Y-43304642D01*
X57548506Y-43304680D01*
X57564032Y-43382735D01*
X57564033Y-43382739D01*
X57564034Y-43382740D01*
X57619399Y-43465601D01*
X57702260Y-43520966D01*
X57734839Y-43527446D01*
X57799998Y-43540408D01*
X57800000Y-43540408D01*
X57800001Y-43540408D01*
X57812694Y-43537883D01*
X57836886Y-43535500D01*
X58243114Y-43535500D01*
X58267306Y-43537883D01*
X58279999Y-43540408D01*
X58280000Y-43540408D01*
X58280002Y-43540408D01*
X58328870Y-43530687D01*
X58377740Y-43520966D01*
X58460601Y-43465601D01*
X58515966Y-43382740D01*
X58516061Y-43382260D01*
X58531689Y-43303700D01*
X58531690Y-43303689D01*
X58535408Y-43285000D01*
X58535407Y-43284994D01*
X58535407Y-43276284D01*
X58555088Y-43209244D01*
X58571717Y-43188607D01*
X62162329Y-39597994D01*
X62223650Y-39564511D01*
X62293342Y-39569495D01*
X62348962Y-39610951D01*
X62393234Y-39669577D01*
X62393236Y-39669580D01*
X62543958Y-39806980D01*
X62543960Y-39806982D01*
X62620996Y-39854680D01*
X62717363Y-39914348D01*
X62907544Y-39988024D01*
X63108024Y-40025500D01*
X63108026Y-40025500D01*
X63311974Y-40025500D01*
X63311976Y-40025500D01*
X63512456Y-39988024D01*
X63702637Y-39914348D01*
X63876041Y-39806981D01*
X64026764Y-39669579D01*
X64149673Y-39506821D01*
X64240582Y-39324250D01*
X64296397Y-39128083D01*
X64315215Y-38925000D01*
X64306875Y-38835000D01*
X64296397Y-38721917D01*
X64261566Y-38599500D01*
X64240582Y-38525750D01*
X64235597Y-38515739D01*
X64149673Y-38343180D01*
X64149673Y-38343179D01*
X64081708Y-38253179D01*
X64026762Y-38180418D01*
X63876041Y-38043019D01*
X63876039Y-38043017D01*
X63702642Y-37935655D01*
X63702635Y-37935651D01*
X63586085Y-37890500D01*
X63512456Y-37861976D01*
X63311976Y-37824500D01*
X63108024Y-37824500D01*
X62907544Y-37861976D01*
X62907541Y-37861976D01*
X62907541Y-37861977D01*
X62717364Y-37935651D01*
X62717357Y-37935655D01*
X62543960Y-38043017D01*
X62543958Y-38043019D01*
X62393237Y-38180418D01*
X62270325Y-38343180D01*
X62176917Y-38530771D01*
X62129414Y-38582009D01*
X62065917Y-38599500D01*
X60959500Y-38599500D01*
X60892461Y-38579815D01*
X60846706Y-38527011D01*
X60835500Y-38475500D01*
X60835500Y-38410730D01*
X60832646Y-38380300D01*
X60832646Y-38380298D01*
X60794154Y-38270298D01*
X60787793Y-38252118D01*
X60707150Y-38142850D01*
X60597882Y-38062207D01*
X60597880Y-38062206D01*
X60469700Y-38017353D01*
X60439270Y-38014500D01*
X60439266Y-38014500D01*
X59630734Y-38014500D01*
X59630730Y-38014500D01*
X59600300Y-38017353D01*
X59600298Y-38017353D01*
X59472119Y-38062206D01*
X59472117Y-38062207D01*
X59362850Y-38142850D01*
X59282207Y-38252117D01*
X59282206Y-38252119D01*
X59237353Y-38380298D01*
X59237353Y-38380300D01*
X59234500Y-38410730D01*
X59234500Y-39419269D01*
X59237353Y-39449699D01*
X59237353Y-39449701D01*
X59281951Y-39577150D01*
X59282207Y-39577882D01*
X59362850Y-39687150D01*
X59472118Y-39767793D01*
X59514845Y-39782744D01*
X59600299Y-39812646D01*
X59630730Y-39815500D01*
X59630734Y-39815500D01*
X60439270Y-39815500D01*
X60469699Y-39812646D01*
X60469701Y-39812646D01*
X60542134Y-39787300D01*
X60597882Y-39767793D01*
X60707150Y-39687150D01*
X60787793Y-39577882D01*
X60814241Y-39502299D01*
X60832646Y-39449701D01*
X60832646Y-39449699D01*
X60835500Y-39419269D01*
X60835500Y-39374500D01*
X60855185Y-39307461D01*
X60907989Y-39261706D01*
X60959500Y-39250500D01*
X61289811Y-39250500D01*
X61356850Y-39270185D01*
X61402605Y-39322989D01*
X61412549Y-39392147D01*
X61383524Y-39455703D01*
X61377492Y-39462181D01*
X58321491Y-42518181D01*
X58260168Y-42551666D01*
X58233810Y-42554500D01*
X57836886Y-42554500D01*
X57812694Y-42552117D01*
X57800001Y-42549592D01*
X57799999Y-42549592D01*
X57775325Y-42554500D01*
X57702263Y-42569032D01*
X57702260Y-42569033D01*
X57619399Y-42624399D01*
X57564033Y-42707261D01*
X57544592Y-42804997D01*
X57544592Y-42804998D01*
X57544592Y-42805000D01*
X57544828Y-42806187D01*
X57547117Y-42817691D01*
X57549500Y-42841885D01*
X57549500Y-43248114D01*
X57547117Y-43272306D01*
X57544592Y-43284999D01*
X57544592Y-43285001D01*
X39214052Y-43285001D01*
X39177123Y-43260326D01*
X39152739Y-43244033D01*
X39152736Y-43244032D01*
X39079675Y-43229500D01*
X39055001Y-43224592D01*
X39054999Y-43224592D01*
X39042306Y-43227117D01*
X39018114Y-43229500D01*
X38651886Y-43229500D01*
X38627694Y-43227117D01*
X38615001Y-43224592D01*
X38614999Y-43224592D01*
X38590325Y-43229500D01*
X38517263Y-43244032D01*
X38517260Y-43244033D01*
X38434399Y-43299399D01*
X38379033Y-43382261D01*
X38359592Y-43479997D01*
X38359592Y-43479998D01*
X38362117Y-43492691D01*
X38364500Y-43516885D01*
X38364500Y-43923114D01*
X38362117Y-43947306D01*
X38359592Y-43959999D01*
X38359592Y-43960001D01*
X24685500Y-43960001D01*
X24685500Y-43010001D01*
X39979592Y-43010001D01*
X39983499Y-43029642D01*
X39983506Y-43029680D01*
X39999032Y-43107735D01*
X39999033Y-43107739D01*
X39999034Y-43107740D01*
X40054399Y-43190601D01*
X40137260Y-43245966D01*
X40148059Y-43248114D01*
X40234998Y-43265408D01*
X40235000Y-43265408D01*
X40235001Y-43265408D01*
X40247694Y-43262883D01*
X40271886Y-43260500D01*
X40678114Y-43260500D01*
X40702306Y-43262883D01*
X40714999Y-43265408D01*
X40715000Y-43265408D01*
X40715002Y-43265408D01*
X40763870Y-43255687D01*
X40812740Y-43245966D01*
X40895601Y-43190601D01*
X40950966Y-43107740D01*
X40950967Y-43107735D01*
X40966689Y-43028700D01*
X40966690Y-43028689D01*
X40970408Y-43010000D01*
X40970408Y-43009999D01*
X40967883Y-42997306D01*
X40965500Y-42973114D01*
X40965500Y-42806187D01*
X40985185Y-42739148D01*
X41001819Y-42718506D01*
X42450750Y-41269575D01*
X44218027Y-39502297D01*
X44279348Y-39468814D01*
X44349040Y-39473798D01*
X44404658Y-39515252D01*
X44453236Y-39579579D01*
X44453238Y-39579581D01*
X44603958Y-39716980D01*
X44603960Y-39716982D01*
X44681666Y-39765095D01*
X44777363Y-39824348D01*
X44967544Y-39898024D01*
X45168024Y-39935500D01*
X45168026Y-39935500D01*
X45371974Y-39935500D01*
X45371976Y-39935500D01*
X45572456Y-39898024D01*
X45762637Y-39824348D01*
X45936041Y-39716981D01*
X46064122Y-39600219D01*
X46086762Y-39579581D01*
X46086764Y-39579579D01*
X46209673Y-39416821D01*
X46300582Y-39234250D01*
X46356397Y-39038083D01*
X46367802Y-38915000D01*
X53389785Y-38915000D01*
X53408602Y-39118082D01*
X53464417Y-39314247D01*
X53464422Y-39314260D01*
X53555327Y-39496821D01*
X53678237Y-39659581D01*
X53828958Y-39796980D01*
X53828960Y-39796982D01*
X53873152Y-39824344D01*
X54002363Y-39904348D01*
X54192544Y-39978024D01*
X54393024Y-40015500D01*
X54393026Y-40015500D01*
X54596974Y-40015500D01*
X54596976Y-40015500D01*
X54797456Y-39978024D01*
X54987637Y-39904348D01*
X55161041Y-39796981D01*
X55300792Y-39669581D01*
X55311762Y-39659581D01*
X55311764Y-39659579D01*
X55434673Y-39496821D01*
X55456555Y-39452876D01*
X55528083Y-39309229D01*
X55575586Y-39257991D01*
X55639083Y-39240500D01*
X56429812Y-39240500D01*
X56496851Y-39260185D01*
X56542606Y-39312989D01*
X56552550Y-39382147D01*
X56523525Y-39445703D01*
X56517511Y-39452161D01*
X56346540Y-39623133D01*
X56184288Y-39785384D01*
X56180300Y-39789039D01*
X56149291Y-39815059D01*
X56129048Y-39850120D01*
X56126142Y-39854680D01*
X56102932Y-39887827D01*
X56100692Y-39892631D01*
X56093715Y-39909475D01*
X56091896Y-39914473D01*
X56084869Y-39954325D01*
X56083698Y-39959606D01*
X56073221Y-39998706D01*
X56076749Y-40039024D01*
X56076985Y-40044430D01*
X56076985Y-41556277D01*
X56057300Y-41623316D01*
X56021878Y-41659378D01*
X55999399Y-41674398D01*
X55944033Y-41757261D01*
X55924592Y-41854997D01*
X55924592Y-41854998D01*
X55927117Y-41867691D01*
X55929500Y-41891885D01*
X55929500Y-42298114D01*
X55927117Y-42322306D01*
X55924592Y-42334999D01*
X55924592Y-42335001D01*
X55928499Y-42354642D01*
X55928506Y-42354680D01*
X55944032Y-42432735D01*
X55944033Y-42432739D01*
X55944034Y-42432740D01*
X55999399Y-42515601D01*
X56082260Y-42570966D01*
X56114839Y-42577446D01*
X56179998Y-42590408D01*
X56180000Y-42590408D01*
X56180001Y-42590408D01*
X56192694Y-42587883D01*
X56216886Y-42585500D01*
X56583114Y-42585500D01*
X56607306Y-42587883D01*
X56619999Y-42590408D01*
X56620000Y-42590408D01*
X56620002Y-42590408D01*
X56668870Y-42580687D01*
X56717740Y-42570966D01*
X56800601Y-42515601D01*
X56855966Y-42432740D01*
X56856061Y-42432260D01*
X56871689Y-42353700D01*
X56871690Y-42353689D01*
X56872544Y-42349399D01*
X56875408Y-42335000D01*
X56872883Y-42322306D01*
X56870500Y-42298114D01*
X56870500Y-41891885D01*
X56872883Y-41867691D01*
X56875408Y-41854998D01*
X56875408Y-41854997D01*
X56855966Y-41757261D01*
X56855966Y-41757260D01*
X56800601Y-41674399D01*
X56783095Y-41662702D01*
X56738290Y-41609089D01*
X56727986Y-41559600D01*
X56727986Y-41269575D01*
X56727986Y-40213697D01*
X56747670Y-40146662D01*
X56764295Y-40126029D01*
X57195525Y-39694799D01*
X57256846Y-39661316D01*
X57326538Y-39666300D01*
X57356838Y-39682712D01*
X57362848Y-39687147D01*
X57362850Y-39687150D01*
X57472118Y-39767793D01*
X57514845Y-39782744D01*
X57600299Y-39812646D01*
X57630730Y-39815500D01*
X57630734Y-39815500D01*
X58439270Y-39815500D01*
X58469699Y-39812646D01*
X58469701Y-39812646D01*
X58542134Y-39787300D01*
X58597882Y-39767793D01*
X58707150Y-39687150D01*
X58787793Y-39577882D01*
X58814241Y-39502299D01*
X58832646Y-39449701D01*
X58832646Y-39449699D01*
X58835500Y-39419269D01*
X58835500Y-38410730D01*
X58832646Y-38380300D01*
X58832646Y-38380298D01*
X58794154Y-38270298D01*
X58787793Y-38252118D01*
X58707150Y-38142850D01*
X58597882Y-38062207D01*
X58597880Y-38062206D01*
X58469700Y-38017353D01*
X58439270Y-38014500D01*
X58439266Y-38014500D01*
X58424500Y-38014500D01*
X58357461Y-37994815D01*
X58311706Y-37942011D01*
X58300500Y-37890500D01*
X58300500Y-35826188D01*
X58320185Y-35759149D01*
X58336819Y-35738507D01*
X58543507Y-35531819D01*
X58604830Y-35498334D01*
X58631188Y-35495500D01*
X59444270Y-35495500D01*
X59474699Y-35492646D01*
X59474701Y-35492646D01*
X59553864Y-35464945D01*
X59602882Y-35447793D01*
X59712150Y-35367150D01*
X59792793Y-35257882D01*
X59815219Y-35193790D01*
X59837646Y-35129701D01*
X59837646Y-35129699D01*
X59840500Y-35099269D01*
X59840500Y-34165730D01*
X59837646Y-34135300D01*
X59837646Y-34135298D01*
X59792793Y-34007119D01*
X59792792Y-34007117D01*
X59712150Y-33897850D01*
X59602882Y-33817207D01*
X59602880Y-33817206D01*
X59474700Y-33772353D01*
X59444270Y-33769500D01*
X59444266Y-33769500D01*
X58035734Y-33769500D01*
X58035730Y-33769500D01*
X58005300Y-33772353D01*
X58005298Y-33772353D01*
X57877119Y-33817206D01*
X57877117Y-33817207D01*
X57767850Y-33897850D01*
X57687207Y-34007117D01*
X57687206Y-34007119D01*
X57642353Y-34135298D01*
X57642353Y-34135300D01*
X57639500Y-34165730D01*
X57639500Y-35099269D01*
X57642353Y-35129699D01*
X57642353Y-35129701D01*
X57687206Y-35257880D01*
X57687207Y-35257882D01*
X57708346Y-35286525D01*
X57713369Y-35293330D01*
X57737340Y-35358959D01*
X57722024Y-35427130D01*
X57720984Y-35428967D01*
X57701562Y-35462605D01*
X57698656Y-35467166D01*
X57675446Y-35500313D01*
X57673206Y-35505117D01*
X57666229Y-35521961D01*
X57664410Y-35526959D01*
X57657383Y-35566811D01*
X57656212Y-35572091D01*
X57645735Y-35611191D01*
X57649264Y-35651513D01*
X57649500Y-35656920D01*
X57649500Y-37912155D01*
X57629815Y-37979194D01*
X57577011Y-38024949D01*
X57566456Y-38029196D01*
X57472117Y-38062207D01*
X57362850Y-38142850D01*
X57282207Y-38252117D01*
X57282206Y-38252119D01*
X57237353Y-38380298D01*
X57237353Y-38380300D01*
X57234500Y-38410730D01*
X57234500Y-38465500D01*
X57214815Y-38532539D01*
X57162011Y-38578294D01*
X57110500Y-38589500D01*
X55639083Y-38589500D01*
X55572044Y-38569815D01*
X55528083Y-38520771D01*
X55434674Y-38333180D01*
X55311762Y-38170418D01*
X55161041Y-38033019D01*
X55161039Y-38033017D01*
X54987642Y-37925655D01*
X54987635Y-37925651D01*
X54868383Y-37879453D01*
X54797456Y-37851976D01*
X54596976Y-37814500D01*
X54393024Y-37814500D01*
X54192544Y-37851976D01*
X54192541Y-37851976D01*
X54192541Y-37851977D01*
X54002364Y-37925651D01*
X54002357Y-37925655D01*
X53828960Y-38033017D01*
X53828958Y-38033019D01*
X53678237Y-38170418D01*
X53555327Y-38333178D01*
X53464422Y-38515739D01*
X53464417Y-38515752D01*
X53408602Y-38711917D01*
X53389785Y-38914999D01*
X53389785Y-38915000D01*
X46367802Y-38915000D01*
X46375215Y-38835000D01*
X46356397Y-38631917D01*
X46300582Y-38435750D01*
X46272971Y-38380300D01*
X46254487Y-38343178D01*
X46209673Y-38253179D01*
X46147175Y-38170418D01*
X46086762Y-38090418D01*
X45936041Y-37953019D01*
X45936039Y-37953017D01*
X45762642Y-37845655D01*
X45762635Y-37845651D01*
X45618744Y-37789908D01*
X45572456Y-37771976D01*
X45371976Y-37734500D01*
X45168024Y-37734500D01*
X44967544Y-37771976D01*
X44967541Y-37771976D01*
X44967541Y-37771977D01*
X44777364Y-37845651D01*
X44777357Y-37845655D01*
X44603960Y-37953017D01*
X44603958Y-37953019D01*
X44453237Y-38090418D01*
X44330325Y-38253180D01*
X44236917Y-38440771D01*
X44189414Y-38492009D01*
X44125917Y-38509500D01*
X42994500Y-38509500D01*
X42927461Y-38489815D01*
X42881706Y-38437011D01*
X42870500Y-38385500D01*
X42870500Y-38300730D01*
X42867646Y-38270300D01*
X42867646Y-38270298D01*
X42822793Y-38142119D01*
X42822792Y-38142117D01*
X42742150Y-38032850D01*
X42632882Y-37952207D01*
X42632880Y-37952206D01*
X42504700Y-37907353D01*
X42474270Y-37904500D01*
X42474266Y-37904500D01*
X41665734Y-37904500D01*
X41665730Y-37904500D01*
X41635300Y-37907353D01*
X41635298Y-37907353D01*
X41507119Y-37952206D01*
X41507117Y-37952207D01*
X41397850Y-38032850D01*
X41317207Y-38142117D01*
X41317206Y-38142119D01*
X41272353Y-38270298D01*
X41272353Y-38270300D01*
X41269500Y-38300730D01*
X41269500Y-39309269D01*
X41272353Y-39339699D01*
X41272353Y-39339701D01*
X41315212Y-39462181D01*
X41317207Y-39467882D01*
X41397850Y-39577150D01*
X41507118Y-39657793D01*
X41549845Y-39672744D01*
X41635299Y-39702646D01*
X41665730Y-39705500D01*
X41665734Y-39705500D01*
X42474270Y-39705500D01*
X42504699Y-39702646D01*
X42504701Y-39702646D01*
X42568790Y-39680219D01*
X42632882Y-39657793D01*
X42742150Y-39577150D01*
X42822793Y-39467882D01*
X42849417Y-39391796D01*
X42867646Y-39339701D01*
X42867646Y-39339699D01*
X42870500Y-39309269D01*
X42870500Y-39284500D01*
X42890185Y-39217461D01*
X42942989Y-39171706D01*
X42994500Y-39160500D01*
X43339812Y-39160500D01*
X43406851Y-39180185D01*
X43452606Y-39232989D01*
X43462550Y-39302147D01*
X43433525Y-39365703D01*
X43427493Y-39372181D01*
X40556493Y-42243181D01*
X40495170Y-42276666D01*
X40468812Y-42279500D01*
X40271886Y-42279500D01*
X40247694Y-42277117D01*
X40235001Y-42274592D01*
X40234999Y-42274592D01*
X40210325Y-42279500D01*
X40137263Y-42294032D01*
X40137260Y-42294033D01*
X40054399Y-42349399D01*
X39999033Y-42432261D01*
X39979592Y-42529997D01*
X39979592Y-42529998D01*
X39982117Y-42542691D01*
X39984500Y-42566885D01*
X39984500Y-42973114D01*
X39982117Y-42997306D01*
X39979592Y-43009999D01*
X39979592Y-43010001D01*
X24685500Y-43010001D01*
X24685500Y-38835000D01*
X35444785Y-38835000D01*
X35463602Y-39038082D01*
X35519417Y-39234247D01*
X35519422Y-39234260D01*
X35610327Y-39416821D01*
X35733237Y-39579581D01*
X35883958Y-39716980D01*
X35883960Y-39716982D01*
X35961666Y-39765095D01*
X36057363Y-39824348D01*
X36247544Y-39898024D01*
X36448024Y-39935500D01*
X36448026Y-39935500D01*
X36651974Y-39935500D01*
X36651976Y-39935500D01*
X36852456Y-39898024D01*
X37042637Y-39824348D01*
X37216041Y-39716981D01*
X37344122Y-39600219D01*
X37366762Y-39579581D01*
X37366764Y-39579579D01*
X37489673Y-39416821D01*
X37503953Y-39388142D01*
X37583083Y-39229229D01*
X37630586Y-39177991D01*
X37694083Y-39160500D01*
X38525081Y-39160500D01*
X38592120Y-39180185D01*
X38637875Y-39232989D01*
X38647819Y-39302147D01*
X38618794Y-39365703D01*
X38612759Y-39372184D01*
X38596800Y-39388142D01*
X38592813Y-39391796D01*
X38561805Y-39417815D01*
X38541562Y-39452876D01*
X38538656Y-39457436D01*
X38515446Y-39490583D01*
X38513206Y-39495387D01*
X38506229Y-39512231D01*
X38504410Y-39517229D01*
X38497383Y-39557081D01*
X38496212Y-39562361D01*
X38485735Y-39601461D01*
X38489264Y-39641783D01*
X38489500Y-39647190D01*
X38489500Y-41296302D01*
X38469815Y-41363341D01*
X38442954Y-41390687D01*
X38443033Y-41390766D01*
X38434397Y-41399401D01*
X38379033Y-41482261D01*
X38359592Y-41579997D01*
X38359592Y-41579998D01*
X38362117Y-41592691D01*
X38364500Y-41616885D01*
X38364500Y-42023114D01*
X38362117Y-42047306D01*
X38359592Y-42059999D01*
X38359592Y-42060001D01*
X38363499Y-42079642D01*
X38363506Y-42079680D01*
X38379032Y-42157735D01*
X38379033Y-42157739D01*
X38379034Y-42157740D01*
X38434399Y-42240601D01*
X38517260Y-42295966D01*
X38528059Y-42298114D01*
X38614998Y-42315408D01*
X38615000Y-42315408D01*
X38615001Y-42315408D01*
X38627694Y-42312883D01*
X38651886Y-42310500D01*
X39018114Y-42310500D01*
X39042306Y-42312883D01*
X39054999Y-42315408D01*
X39055000Y-42315408D01*
X39055002Y-42315408D01*
X39103870Y-42305687D01*
X39152740Y-42295966D01*
X39235601Y-42240601D01*
X39290966Y-42157740D01*
X39290967Y-42157735D01*
X39306689Y-42078700D01*
X39306690Y-42078689D01*
X39310408Y-42060000D01*
X39310408Y-42059999D01*
X39307883Y-42047306D01*
X39305500Y-42023114D01*
X39305500Y-41616885D01*
X39307883Y-41592691D01*
X39310408Y-41579998D01*
X39310408Y-41579997D01*
X39290966Y-41482261D01*
X39290966Y-41482260D01*
X39235601Y-41399399D01*
X39222078Y-41390363D01*
X39195609Y-41372677D01*
X39150804Y-41319064D01*
X39140500Y-41269575D01*
X39140500Y-39816457D01*
X39160185Y-39749418D01*
X39176813Y-39728781D01*
X39282464Y-39623130D01*
X39343783Y-39589648D01*
X39413475Y-39594632D01*
X39443772Y-39611041D01*
X39507118Y-39657793D01*
X39549845Y-39672744D01*
X39635299Y-39702646D01*
X39665730Y-39705500D01*
X39665734Y-39705500D01*
X40474270Y-39705500D01*
X40504699Y-39702646D01*
X40504701Y-39702646D01*
X40568790Y-39680219D01*
X40632882Y-39657793D01*
X40742150Y-39577150D01*
X40822793Y-39467882D01*
X40849417Y-39391796D01*
X40867646Y-39339701D01*
X40867646Y-39339699D01*
X40870500Y-39309269D01*
X40870500Y-38300730D01*
X40867646Y-38270300D01*
X40867646Y-38270298D01*
X40822793Y-38142119D01*
X40822792Y-38142117D01*
X40742150Y-38032850D01*
X40632882Y-37952207D01*
X40632880Y-37952206D01*
X40504700Y-37907353D01*
X40482921Y-37905311D01*
X40418013Y-37879453D01*
X40377388Y-37822607D01*
X40370500Y-37781853D01*
X40370500Y-35711188D01*
X40390185Y-35644149D01*
X40406819Y-35623507D01*
X40928508Y-35101819D01*
X40989831Y-35068334D01*
X41016189Y-35065500D01*
X41664270Y-35065500D01*
X41694699Y-35062646D01*
X41694701Y-35062646D01*
X41758790Y-35040219D01*
X41822882Y-35017793D01*
X41932150Y-34937150D01*
X42012793Y-34827882D01*
X42035219Y-34763790D01*
X42057646Y-34699701D01*
X42057646Y-34699699D01*
X42060500Y-34669269D01*
X42060500Y-33735730D01*
X42057646Y-33705300D01*
X42057646Y-33705298D01*
X42012793Y-33577119D01*
X42012792Y-33577117D01*
X41932150Y-33467850D01*
X41822882Y-33387207D01*
X41822880Y-33387206D01*
X41694700Y-33342353D01*
X41664270Y-33339500D01*
X41664266Y-33339500D01*
X40255734Y-33339500D01*
X40255730Y-33339500D01*
X40225300Y-33342353D01*
X40225298Y-33342353D01*
X40097119Y-33387206D01*
X40097117Y-33387207D01*
X39987850Y-33467850D01*
X39907207Y-33577117D01*
X39907206Y-33577119D01*
X39862353Y-33705298D01*
X39862353Y-33705300D01*
X39859500Y-33735730D01*
X39859500Y-34669269D01*
X39862353Y-34699699D01*
X39862353Y-34699701D01*
X39907206Y-34827880D01*
X39907207Y-34827882D01*
X39987849Y-34937149D01*
X39987851Y-34937151D01*
X39992505Y-34941805D01*
X40025990Y-35003128D01*
X40021006Y-35072820D01*
X39992505Y-35117167D01*
X39826803Y-35282870D01*
X39822814Y-35286525D01*
X39791805Y-35312545D01*
X39771562Y-35347606D01*
X39768656Y-35352166D01*
X39745446Y-35385313D01*
X39743206Y-35390117D01*
X39736229Y-35406961D01*
X39734410Y-35411959D01*
X39727383Y-35451811D01*
X39726212Y-35457091D01*
X39715735Y-35496191D01*
X39719264Y-35536513D01*
X39719500Y-35541920D01*
X39719500Y-37789908D01*
X39699815Y-37856947D01*
X39647011Y-37902702D01*
X39636456Y-37906949D01*
X39507117Y-37952207D01*
X39397850Y-38032850D01*
X39317207Y-38142117D01*
X39317206Y-38142119D01*
X39272353Y-38270298D01*
X39272353Y-38270300D01*
X39269500Y-38300730D01*
X39269500Y-38385500D01*
X39249815Y-38452539D01*
X39197011Y-38498294D01*
X39145500Y-38509500D01*
X37694083Y-38509500D01*
X37627044Y-38489815D01*
X37583083Y-38440771D01*
X37489674Y-38253180D01*
X37366762Y-38090418D01*
X37216041Y-37953019D01*
X37216039Y-37953017D01*
X37042642Y-37845655D01*
X37042635Y-37845651D01*
X36898744Y-37789908D01*
X36852456Y-37771976D01*
X36651976Y-37734500D01*
X36448024Y-37734500D01*
X36247544Y-37771976D01*
X36247541Y-37771976D01*
X36247541Y-37771977D01*
X36057364Y-37845651D01*
X36057357Y-37845655D01*
X35883960Y-37953017D01*
X35883958Y-37953019D01*
X35733237Y-38090418D01*
X35610327Y-38253178D01*
X35519422Y-38435739D01*
X35519417Y-38435752D01*
X35463602Y-38631917D01*
X35444785Y-38834999D01*
X35444785Y-38835000D01*
X24685500Y-38835000D01*
X24685500Y-31327500D01*
X39560001Y-31327500D01*
X39560001Y-31539986D01*
X39570494Y-31642697D01*
X39625641Y-31809119D01*
X39625643Y-31809124D01*
X39717684Y-31958345D01*
X39841654Y-32082315D01*
X39990875Y-32174356D01*
X39990880Y-32174358D01*
X40157302Y-32229505D01*
X40157309Y-32229506D01*
X40260019Y-32239999D01*
X40709999Y-32239999D01*
X40710000Y-32239998D01*
X40710000Y-31327500D01*
X41210000Y-31327500D01*
X41210000Y-32239999D01*
X41659972Y-32239999D01*
X41659986Y-32239998D01*
X41762697Y-32229505D01*
X41929119Y-32174358D01*
X41929124Y-32174356D01*
X42078345Y-32082315D01*
X42202315Y-31958345D01*
X42294356Y-31809124D01*
X42294358Y-31809119D01*
X42311463Y-31757500D01*
X57340001Y-31757500D01*
X57340001Y-31969986D01*
X57350494Y-32072697D01*
X57405641Y-32239119D01*
X57405643Y-32239124D01*
X57497684Y-32388345D01*
X57621654Y-32512315D01*
X57770875Y-32604356D01*
X57770880Y-32604358D01*
X57937302Y-32659505D01*
X57937309Y-32659506D01*
X58040019Y-32669999D01*
X58489999Y-32669999D01*
X58490000Y-32669998D01*
X58490000Y-31757500D01*
X58990000Y-31757500D01*
X58990000Y-32669999D01*
X59439972Y-32669999D01*
X59439986Y-32669998D01*
X59542697Y-32659505D01*
X59709119Y-32604358D01*
X59709124Y-32604356D01*
X59858345Y-32512315D01*
X59982315Y-32388345D01*
X60074356Y-32239124D01*
X60074358Y-32239119D01*
X60129505Y-32072697D01*
X60129506Y-32072690D01*
X60139999Y-31969986D01*
X60140000Y-31969973D01*
X60140000Y-31757500D01*
X58990000Y-31757500D01*
X58490000Y-31757500D01*
X57340001Y-31757500D01*
X42311463Y-31757500D01*
X42349505Y-31642697D01*
X42349506Y-31642690D01*
X42359999Y-31539986D01*
X42360000Y-31539973D01*
X42360000Y-31327500D01*
X41210000Y-31327500D01*
X40710000Y-31327500D01*
X39560001Y-31327500D01*
X24685500Y-31327500D01*
X24685500Y-31257500D01*
X57340000Y-31257500D01*
X58490000Y-31257500D01*
X58490000Y-30345000D01*
X58990000Y-30345000D01*
X58990000Y-31257500D01*
X60139999Y-31257500D01*
X60139999Y-31045028D01*
X60139998Y-31045013D01*
X60129505Y-30942302D01*
X60074358Y-30775880D01*
X60074356Y-30775875D01*
X59982315Y-30626654D01*
X59858345Y-30502684D01*
X59709124Y-30410643D01*
X59709119Y-30410641D01*
X59542697Y-30355494D01*
X59542690Y-30355493D01*
X59439986Y-30345000D01*
X58990000Y-30345000D01*
X58490000Y-30345000D01*
X58040028Y-30345000D01*
X58040012Y-30345001D01*
X57937302Y-30355494D01*
X57770880Y-30410641D01*
X57770875Y-30410643D01*
X57621654Y-30502684D01*
X57497684Y-30626654D01*
X57405643Y-30775875D01*
X57405641Y-30775880D01*
X57350494Y-30942302D01*
X57350493Y-30942309D01*
X57340000Y-31045013D01*
X57340000Y-31257500D01*
X24685500Y-31257500D01*
X24685500Y-30827500D01*
X39560000Y-30827500D01*
X40710000Y-30827500D01*
X40710000Y-29915000D01*
X41210000Y-29915000D01*
X41210000Y-30827500D01*
X42359999Y-30827500D01*
X42359999Y-30615028D01*
X42359998Y-30615013D01*
X42349505Y-30512302D01*
X42294358Y-30345880D01*
X42294356Y-30345875D01*
X42202315Y-30196654D01*
X42078345Y-30072684D01*
X41929124Y-29980643D01*
X41929119Y-29980641D01*
X41762697Y-29925494D01*
X41762690Y-29925493D01*
X41659986Y-29915000D01*
X41210000Y-29915000D01*
X40710000Y-29915000D01*
X40260028Y-29915000D01*
X40260012Y-29915001D01*
X40157302Y-29925494D01*
X39990880Y-29980641D01*
X39990875Y-29980643D01*
X39841654Y-30072684D01*
X39717684Y-30196654D01*
X39625643Y-30345875D01*
X39625641Y-30345880D01*
X39570494Y-30512302D01*
X39570493Y-30512309D01*
X39560000Y-30615013D01*
X39560000Y-30827500D01*
X24685500Y-30827500D01*
X24685500Y-28925000D01*
X35169117Y-28925000D01*
X35221317Y-29131135D01*
X35314516Y-29343609D01*
X35441414Y-29537842D01*
X35598558Y-29708545D01*
X35598562Y-29708548D01*
X35781644Y-29851047D01*
X35781648Y-29851050D01*
X35985697Y-29961476D01*
X35985706Y-29961479D01*
X36205139Y-30036811D01*
X36299999Y-30052640D01*
X36300000Y-30052639D01*
X36300000Y-29049189D01*
X36352547Y-29085016D01*
X36482173Y-29125000D01*
X36583724Y-29125000D01*
X36684138Y-29109865D01*
X36800000Y-29054068D01*
X36800000Y-30052640D01*
X36894860Y-30036811D01*
X37114293Y-29961479D01*
X37114302Y-29961476D01*
X37318351Y-29851050D01*
X37318355Y-29851047D01*
X37501437Y-29708548D01*
X37501441Y-29708545D01*
X37658585Y-29537842D01*
X37785483Y-29343609D01*
X37878682Y-29131135D01*
X37930883Y-28925000D01*
X36925278Y-28925000D01*
X36973625Y-28841260D01*
X37003810Y-28709008D01*
X37001262Y-28675000D01*
X44164785Y-28675000D01*
X44183602Y-28878082D01*
X44239417Y-29074247D01*
X44239422Y-29074260D01*
X44330327Y-29256821D01*
X44453237Y-29419581D01*
X44582964Y-29537842D01*
X44599189Y-29552633D01*
X44603958Y-29556980D01*
X44603960Y-29556982D01*
X44703141Y-29618392D01*
X44777363Y-29664348D01*
X44967544Y-29738024D01*
X45168024Y-29775500D01*
X45168026Y-29775500D01*
X45371974Y-29775500D01*
X45371976Y-29775500D01*
X45572456Y-29738024D01*
X45762637Y-29664348D01*
X45936041Y-29556981D01*
X46086764Y-29419579D01*
X46209673Y-29256821D01*
X46300582Y-29074250D01*
X46356397Y-28878083D01*
X46367802Y-28755005D01*
X53090202Y-28755005D01*
X53109361Y-28986218D01*
X53166317Y-29211135D01*
X53259516Y-29423609D01*
X53343811Y-29552633D01*
X54050549Y-28845895D01*
X54051327Y-28856265D01*
X54100887Y-28982541D01*
X54185465Y-29088599D01*
X54297547Y-29165016D01*
X54405299Y-29198253D01*
X53696199Y-29907351D01*
X53726650Y-29931050D01*
X53930697Y-30041476D01*
X53930706Y-30041479D01*
X54150139Y-30116811D01*
X54378993Y-30155000D01*
X54611007Y-30155000D01*
X54839860Y-30116811D01*
X55059293Y-30041479D01*
X55059302Y-30041476D01*
X55263350Y-29931050D01*
X55293798Y-29907351D01*
X54583231Y-29196784D01*
X54629138Y-29189865D01*
X54751357Y-29131007D01*
X54850798Y-29038740D01*
X54918625Y-28921260D01*
X54936499Y-28842947D01*
X55646186Y-29552634D01*
X55730484Y-29423606D01*
X55823682Y-29211135D01*
X55880638Y-28986218D01*
X55899798Y-28755005D01*
X55899798Y-28754994D01*
X55880638Y-28523781D01*
X55823682Y-28298864D01*
X55730483Y-28086390D01*
X55646186Y-27957364D01*
X54939449Y-28664101D01*
X54938673Y-28653735D01*
X54889113Y-28527459D01*
X54804535Y-28421401D01*
X54692453Y-28344984D01*
X54584699Y-28311746D01*
X55293799Y-27602647D01*
X55263349Y-27578949D01*
X55059302Y-27468523D01*
X55059293Y-27468520D01*
X54839860Y-27393188D01*
X54611007Y-27355000D01*
X54378993Y-27355000D01*
X54150139Y-27393188D01*
X53930706Y-27468520D01*
X53930698Y-27468523D01*
X53726644Y-27578952D01*
X53696200Y-27602646D01*
X53696200Y-27602647D01*
X54406767Y-28313215D01*
X54360862Y-28320135D01*
X54238643Y-28378993D01*
X54139202Y-28471260D01*
X54071375Y-28588740D01*
X54053500Y-28667053D01*
X53343812Y-27957365D01*
X53259516Y-28086391D01*
X53259514Y-28086395D01*
X53166317Y-28298864D01*
X53109361Y-28523781D01*
X53090202Y-28754994D01*
X53090202Y-28755005D01*
X46367802Y-28755005D01*
X46375215Y-28675000D01*
X46356397Y-28471917D01*
X46300582Y-28275750D01*
X46283503Y-28241452D01*
X46271243Y-28172669D01*
X46298116Y-28108174D01*
X46306813Y-28098511D01*
X46476745Y-27928579D01*
X46480707Y-27924948D01*
X46511735Y-27898914D01*
X46531979Y-27863849D01*
X46534876Y-27859300D01*
X46558095Y-27826143D01*
X46558095Y-27826140D01*
X46560360Y-27821283D01*
X46567288Y-27804558D01*
X46569125Y-27799509D01*
X46569129Y-27799504D01*
X46576160Y-27759621D01*
X46577318Y-27754399D01*
X46587805Y-27715266D01*
X46584274Y-27674915D01*
X46584040Y-27669560D01*
X46584040Y-23684037D01*
X46603725Y-23616999D01*
X46656529Y-23571244D01*
X46663235Y-23568416D01*
X46751178Y-23534348D01*
X46924582Y-23426981D01*
X47075305Y-23289579D01*
X47198214Y-23126821D01*
X47289123Y-22944250D01*
X47331589Y-22795000D01*
X48304117Y-22795000D01*
X48356317Y-23001135D01*
X48449516Y-23213609D01*
X48576414Y-23407842D01*
X48733558Y-23578545D01*
X48733562Y-23578548D01*
X48916644Y-23721047D01*
X48916648Y-23721050D01*
X49120697Y-23831476D01*
X49120706Y-23831479D01*
X49340139Y-23906811D01*
X49434999Y-23922640D01*
X49435000Y-23922639D01*
X49435000Y-22919189D01*
X49487547Y-22955016D01*
X49617173Y-22995000D01*
X49718724Y-22995000D01*
X49819138Y-22979865D01*
X49935000Y-22924068D01*
X49935000Y-23922640D01*
X50029860Y-23906811D01*
X50249293Y-23831479D01*
X50249302Y-23831476D01*
X50453351Y-23721050D01*
X50453355Y-23721047D01*
X50636437Y-23578548D01*
X50636441Y-23578545D01*
X50793585Y-23407842D01*
X50920483Y-23213609D01*
X51013682Y-23001135D01*
X51065883Y-22795000D01*
X50060278Y-22795000D01*
X50108625Y-22711260D01*
X50138810Y-22579008D01*
X50136262Y-22545000D01*
X52006244Y-22545000D01*
X52025061Y-22748082D01*
X52080876Y-22944247D01*
X52080881Y-22944260D01*
X52171786Y-23126821D01*
X52294696Y-23289581D01*
X52445417Y-23426980D01*
X52445419Y-23426982D01*
X52544600Y-23488392D01*
X52618822Y-23534348D01*
X52809003Y-23608024D01*
X53009483Y-23645500D01*
X53009485Y-23645500D01*
X53213433Y-23645500D01*
X53213435Y-23645500D01*
X53413915Y-23608024D01*
X53604096Y-23534348D01*
X53777500Y-23426981D01*
X53928223Y-23289579D01*
X54051132Y-23126821D01*
X54116771Y-22995000D01*
X54144542Y-22939229D01*
X54192045Y-22887991D01*
X54255542Y-22870500D01*
X56803812Y-22870500D01*
X56870851Y-22890185D01*
X56891493Y-22906819D01*
X62173175Y-28188502D01*
X62206660Y-28249825D01*
X62201676Y-28319517D01*
X62196495Y-28331453D01*
X62179418Y-28365750D01*
X62175650Y-28378993D01*
X62123602Y-28561917D01*
X62104785Y-28764999D01*
X62104785Y-28765000D01*
X62123602Y-28968082D01*
X62179417Y-29164247D01*
X62179422Y-29164260D01*
X62270327Y-29346821D01*
X62393237Y-29509581D01*
X62543958Y-29646980D01*
X62543960Y-29646982D01*
X62643141Y-29708392D01*
X62717363Y-29754348D01*
X62907544Y-29828024D01*
X63108024Y-29865500D01*
X63108026Y-29865500D01*
X63311974Y-29865500D01*
X63311976Y-29865500D01*
X63512456Y-29828024D01*
X63702637Y-29754348D01*
X63876041Y-29646981D01*
X64026764Y-29509579D01*
X64149673Y-29346821D01*
X64240582Y-29164250D01*
X64296397Y-28968083D01*
X64315215Y-28765000D01*
X64306875Y-28675000D01*
X64296397Y-28561917D01*
X64270789Y-28471917D01*
X64240582Y-28365750D01*
X64223504Y-28331453D01*
X64183737Y-28251589D01*
X64149673Y-28183179D01*
X64081708Y-28093179D01*
X64026762Y-28020418D01*
X63876041Y-27883019D01*
X63876039Y-27883017D01*
X63702642Y-27775655D01*
X63702635Y-27775651D01*
X63607546Y-27738814D01*
X63512456Y-27701976D01*
X63311976Y-27664500D01*
X63108024Y-27664500D01*
X62907544Y-27701976D01*
X62907542Y-27701976D01*
X62907540Y-27701977D01*
X62766480Y-27756624D01*
X62696856Y-27762486D01*
X62635116Y-27729776D01*
X62634005Y-27728678D01*
X58589364Y-23684038D01*
X57232119Y-22326793D01*
X57228474Y-22322814D01*
X57202456Y-22291807D01*
X57202455Y-22291806D01*
X57191058Y-22285226D01*
X57167392Y-22271561D01*
X57162831Y-22268655D01*
X57149687Y-22259452D01*
X57129684Y-22245446D01*
X57129681Y-22245445D01*
X57124861Y-22243197D01*
X57108055Y-22236235D01*
X57103043Y-22234411D01*
X57063190Y-22227383D01*
X57057910Y-22226212D01*
X57018808Y-22215735D01*
X56983892Y-22218790D01*
X56978481Y-22219264D01*
X56973078Y-22219500D01*
X54255542Y-22219500D01*
X54188503Y-22199815D01*
X54144542Y-22150771D01*
X54051133Y-21963180D01*
X53928221Y-21800418D01*
X53777500Y-21663019D01*
X53777498Y-21663017D01*
X53604101Y-21555655D01*
X53604094Y-21555651D01*
X53474274Y-21505359D01*
X53413915Y-21481976D01*
X53213435Y-21444500D01*
X53009483Y-21444500D01*
X52809003Y-21481976D01*
X52809000Y-21481976D01*
X52809000Y-21481977D01*
X52618823Y-21555651D01*
X52618816Y-21555655D01*
X52445419Y-21663017D01*
X52445417Y-21663019D01*
X52294696Y-21800418D01*
X52171786Y-21963178D01*
X52080881Y-22145739D01*
X52080876Y-22145752D01*
X52025061Y-22341917D01*
X52006244Y-22544999D01*
X52006244Y-22545000D01*
X50136262Y-22545000D01*
X50128673Y-22443735D01*
X50079113Y-22317459D01*
X50061203Y-22295000D01*
X51065883Y-22295000D01*
X51013682Y-22088864D01*
X50920483Y-21876390D01*
X50793585Y-21682157D01*
X50636441Y-21511454D01*
X50636437Y-21511451D01*
X50453355Y-21368952D01*
X50453351Y-21368949D01*
X50249302Y-21258523D01*
X50249293Y-21258520D01*
X50029861Y-21183188D01*
X49935000Y-21167359D01*
X49935000Y-22170810D01*
X49882453Y-22134984D01*
X49752827Y-22095000D01*
X49651276Y-22095000D01*
X49550862Y-22110135D01*
X49435000Y-22165931D01*
X49435000Y-21167359D01*
X49434999Y-21167359D01*
X49340138Y-21183188D01*
X49120706Y-21258520D01*
X49120697Y-21258523D01*
X48916648Y-21368949D01*
X48916644Y-21368952D01*
X48733562Y-21511451D01*
X48733558Y-21511454D01*
X48576414Y-21682157D01*
X48449516Y-21876390D01*
X48356317Y-22088864D01*
X48304117Y-22295000D01*
X49309722Y-22295000D01*
X49261375Y-22378740D01*
X49231190Y-22510992D01*
X49241327Y-22646265D01*
X49290887Y-22772541D01*
X49308797Y-22795000D01*
X48304117Y-22795000D01*
X47331589Y-22795000D01*
X47344938Y-22748083D01*
X47363756Y-22545000D01*
X47352129Y-22419527D01*
X47344938Y-22341917D01*
X47316418Y-22241682D01*
X47289123Y-22145750D01*
X47283762Y-22134984D01*
X47198214Y-21963180D01*
X47198214Y-21963179D01*
X47075305Y-21800421D01*
X47075303Y-21800418D01*
X46924582Y-21663019D01*
X46924580Y-21663017D01*
X46751183Y-21555655D01*
X46751176Y-21555651D01*
X46621356Y-21505359D01*
X46560997Y-21481976D01*
X46360517Y-21444500D01*
X46156565Y-21444500D01*
X45956085Y-21481976D01*
X45956082Y-21481976D01*
X45956082Y-21481977D01*
X45765905Y-21555651D01*
X45765898Y-21555655D01*
X45592501Y-21663017D01*
X45592499Y-21663019D01*
X45441778Y-21800418D01*
X45318868Y-21963178D01*
X45227963Y-22145739D01*
X45227958Y-22145752D01*
X45172143Y-22341917D01*
X45153326Y-22544999D01*
X45153326Y-22545000D01*
X45172143Y-22748082D01*
X45227958Y-22944247D01*
X45227963Y-22944260D01*
X45318868Y-23126821D01*
X45441778Y-23289581D01*
X45592499Y-23426980D01*
X45592501Y-23426982D01*
X45691682Y-23488392D01*
X45765904Y-23534348D01*
X45853835Y-23568412D01*
X45909236Y-23610983D01*
X45932827Y-23676750D01*
X45933041Y-23684038D01*
X45933041Y-27500269D01*
X45913356Y-27567308D01*
X45896722Y-27587950D01*
X45845994Y-27638678D01*
X45784671Y-27672163D01*
X45714979Y-27667179D01*
X45713557Y-27666638D01*
X45572456Y-27611976D01*
X45371976Y-27574500D01*
X45168024Y-27574500D01*
X44967544Y-27611976D01*
X44967541Y-27611976D01*
X44967541Y-27611977D01*
X44777364Y-27685651D01*
X44777357Y-27685655D01*
X44603960Y-27793017D01*
X44603958Y-27793019D01*
X44453237Y-27930418D01*
X44330327Y-28093178D01*
X44239422Y-28275739D01*
X44239417Y-28275752D01*
X44183602Y-28471917D01*
X44164785Y-28674999D01*
X44164785Y-28675000D01*
X37001262Y-28675000D01*
X36993673Y-28573735D01*
X36944113Y-28447459D01*
X36926203Y-28425000D01*
X37930883Y-28425000D01*
X37878682Y-28218864D01*
X37785483Y-28006390D01*
X37658585Y-27812157D01*
X37501441Y-27641454D01*
X37501437Y-27641451D01*
X37318355Y-27498952D01*
X37318351Y-27498949D01*
X37114302Y-27388523D01*
X37114293Y-27388520D01*
X36894861Y-27313188D01*
X36800000Y-27297359D01*
X36800000Y-28300810D01*
X36747453Y-28264984D01*
X36617827Y-28225000D01*
X36516276Y-28225000D01*
X36415862Y-28240135D01*
X36300000Y-28295931D01*
X36300000Y-27297359D01*
X36299999Y-27297359D01*
X36205138Y-27313188D01*
X35985706Y-27388520D01*
X35985697Y-27388523D01*
X35781648Y-27498949D01*
X35781644Y-27498952D01*
X35598562Y-27641451D01*
X35598558Y-27641454D01*
X35441414Y-27812157D01*
X35314516Y-28006390D01*
X35221317Y-28218864D01*
X35169117Y-28425000D01*
X36174722Y-28425000D01*
X36126375Y-28508740D01*
X36096190Y-28640992D01*
X36106327Y-28776265D01*
X36155887Y-28902541D01*
X36173797Y-28925000D01*
X35169117Y-28925000D01*
X24685500Y-28925000D01*
X24685500Y-22547024D01*
X24685633Y-22542981D01*
X24687921Y-22508052D01*
X24690993Y-22461181D01*
X24692279Y-22443202D01*
X24693562Y-22425281D01*
X24694244Y-22419527D01*
X24763673Y-22002957D01*
X24768559Y-21983514D01*
X24801546Y-21886336D01*
X24802109Y-21884757D01*
X24818381Y-21841130D01*
X24820127Y-21836934D01*
X24934075Y-21589314D01*
X24935967Y-21585547D01*
X24977177Y-21510078D01*
X24980021Y-21505381D01*
X25051575Y-21398293D01*
X25053415Y-21395693D01*
X25135291Y-21286321D01*
X25138244Y-21282678D01*
X25223503Y-21185459D01*
X25226198Y-21182581D01*
X25322581Y-21086198D01*
X25325459Y-21083503D01*
X25422678Y-20998244D01*
X25426321Y-20995291D01*
X25535676Y-20913428D01*
X25538311Y-20911563D01*
X25645368Y-20840029D01*
X25650066Y-20837184D01*
X25770996Y-20771152D01*
X25773129Y-20770044D01*
X25887530Y-20713628D01*
X25893242Y-20711162D01*
X26024817Y-20662087D01*
X26026335Y-20661547D01*
X26144625Y-20621392D01*
X26151325Y-20619533D01*
X26295521Y-20588164D01*
X26397138Y-20567951D01*
X26403896Y-20566991D01*
X26532420Y-20555912D01*
X26590029Y-20551791D01*
X26601203Y-20550993D01*
X26682982Y-20545633D01*
X26687038Y-20545500D01*
X72682962Y-20545500D01*
X72687018Y-20545633D01*
G37*
%TD.AperFunction*%
%TD*%
M02*
