%TF.GenerationSoftware,KiCad,Pcbnew,7.0.5*%
%TF.CreationDate,2023-06-22T18:40:59-05:00*%
%TF.ProjectId,Single.Channel.Amp,53696e67-6c65-42e4-9368-616e6e656c2e,rev?*%
%TF.SameCoordinates,Original*%
%TF.FileFunction,Drillmap*%
%TF.FilePolarity,Positive*%
%FSLAX45Y45*%
G04 Gerber Fmt 4.5, Leading zero omitted, Abs format (unit mm)*
G04 Created by KiCad (PCBNEW 7.0.5) date 2023-06-22 18:40:59*
%MOMM*%
%LPD*%
G01*
G04 APERTURE LIST*
%ADD10C,0.100000*%
%ADD11C,0.200000*%
%ADD12C,0.076200*%
%ADD13C,0.090000*%
%ADD14C,0.150000*%
%ADD15C,0.170000*%
G04 APERTURE END LIST*
D10*
X2668500Y-2054500D02*
X7268500Y-2054500D01*
X7468500Y-2254500D02*
G75*
G03*
X7268500Y-2054500I-200000J0D01*
G01*
X2468500Y-6229500D02*
G75*
G03*
X2668500Y-6429500I200000J0D01*
G01*
X2668500Y-2054500D02*
G75*
G03*
X2468500Y-2254500I0J-200000D01*
G01*
X7268500Y-6429500D02*
G75*
G03*
X7468500Y-6229500I0J200000D01*
G01*
X7468500Y-6229500D02*
X7468500Y-2254500D01*
X2668500Y-6429500D02*
X7268500Y-6429500D01*
X2468500Y-2254500D02*
X2468500Y-6229500D01*
D11*
D12*
X4041400Y-5216900D02*
X4117600Y-5293100D01*
X4117600Y-5216900D02*
X4041400Y-5293100D01*
X4295400Y-5216900D02*
X4371600Y-5293100D01*
X4371600Y-5216900D02*
X4295400Y-5293100D01*
X4549400Y-5216900D02*
X4625600Y-5293100D01*
X4625600Y-5216900D02*
X4549400Y-5293100D01*
X4803400Y-5216900D02*
X4879600Y-5293100D01*
X4879600Y-5216900D02*
X4803400Y-5293100D01*
X5057400Y-5216900D02*
X5133600Y-5293100D01*
X5133600Y-5216900D02*
X5057400Y-5293100D01*
X5311400Y-5216900D02*
X5387600Y-5293100D01*
X5387600Y-5216900D02*
X5311400Y-5293100D01*
X5565400Y-5216900D02*
X5641600Y-5293100D01*
X5641600Y-5216900D02*
X5565400Y-5293100D01*
X5819400Y-5216900D02*
X5895600Y-5293100D01*
X5895600Y-5216900D02*
X5819400Y-5293100D01*
D13*
X3700000Y-2867500D02*
G75*
G03*
X3700000Y-2867500I-45000J0D01*
G01*
X3700000Y-3883500D02*
G75*
G03*
X3700000Y-3883500I-45000J0D01*
G01*
X4572000Y-2867500D02*
G75*
G03*
X4572000Y-2867500I-45000J0D01*
G01*
X4572000Y-3883500D02*
G75*
G03*
X4572000Y-3883500I-45000J0D01*
G01*
X4670854Y-2254500D02*
G75*
G03*
X4670854Y-2254500I-45000J0D01*
G01*
X5013500Y-2254500D02*
G75*
G03*
X5013500Y-2254500I-45000J0D01*
G01*
X5356146Y-2254500D02*
G75*
G03*
X5356146Y-2254500I-45000J0D01*
G01*
X5494500Y-2875500D02*
G75*
G03*
X5494500Y-2875500I-45000J0D01*
G01*
X5494500Y-3891500D02*
G75*
G03*
X5494500Y-3891500I-45000J0D01*
G01*
X6366000Y-2876500D02*
G75*
G03*
X6366000Y-2876500I-45000J0D01*
G01*
X6366000Y-3892500D02*
G75*
G03*
X6366000Y-3892500I-45000J0D01*
G01*
D14*
X3818500Y-5831000D02*
X3818500Y-5981000D01*
X3743500Y-5906000D02*
X3893500Y-5906000D01*
X6118500Y-5831000D02*
X6118500Y-5981000D01*
X6043500Y-5906000D02*
X6193500Y-5906000D01*
D15*
X3624605Y-5712105D02*
X3624605Y-5591895D01*
X3504395Y-5591895D01*
X3504395Y-5712105D01*
X3624605Y-5712105D01*
X3624605Y-6220105D02*
X3624605Y-6099895D01*
X3504395Y-6099895D01*
X3504395Y-6220105D01*
X3624605Y-6220105D01*
X4132605Y-5712105D02*
X4132605Y-5591895D01*
X4012395Y-5591895D01*
X4012395Y-5712105D01*
X4132605Y-5712105D01*
X4132605Y-6220105D02*
X4132605Y-6099895D01*
X4012395Y-6099895D01*
X4012395Y-6220105D01*
X4132605Y-6220105D01*
X5924605Y-5712105D02*
X5924605Y-5591895D01*
X5804395Y-5591895D01*
X5804395Y-5712105D01*
X5924605Y-5712105D01*
X5924605Y-6220105D02*
X5924605Y-6099895D01*
X5804395Y-6099895D01*
X5804395Y-6220105D01*
X5924605Y-6220105D01*
X6432605Y-5712105D02*
X6432605Y-5591895D01*
X6312395Y-5591895D01*
X6312395Y-5712105D01*
X6432605Y-5712105D01*
X6432605Y-6220105D02*
X6432605Y-6099895D01*
X6312395Y-6099895D01*
X6312395Y-6220105D01*
X6432605Y-6220105D01*
D11*
X2724277Y-6745984D02*
X2724277Y-6545984D01*
X2724277Y-6545984D02*
X2771896Y-6545984D01*
X2771896Y-6545984D02*
X2800467Y-6555508D01*
X2800467Y-6555508D02*
X2819515Y-6574555D01*
X2819515Y-6574555D02*
X2829039Y-6593603D01*
X2829039Y-6593603D02*
X2838562Y-6631698D01*
X2838562Y-6631698D02*
X2838562Y-6660269D01*
X2838562Y-6660269D02*
X2829039Y-6698365D01*
X2829039Y-6698365D02*
X2819515Y-6717412D01*
X2819515Y-6717412D02*
X2800467Y-6736460D01*
X2800467Y-6736460D02*
X2771896Y-6745984D01*
X2771896Y-6745984D02*
X2724277Y-6745984D01*
X2924277Y-6745984D02*
X2924277Y-6612650D01*
X2924277Y-6650746D02*
X2933801Y-6631698D01*
X2933801Y-6631698D02*
X2943324Y-6622174D01*
X2943324Y-6622174D02*
X2962372Y-6612650D01*
X2962372Y-6612650D02*
X2981420Y-6612650D01*
X3048086Y-6745984D02*
X3048086Y-6612650D01*
X3048086Y-6545984D02*
X3038562Y-6555508D01*
X3038562Y-6555508D02*
X3048086Y-6565031D01*
X3048086Y-6565031D02*
X3057610Y-6555508D01*
X3057610Y-6555508D02*
X3048086Y-6545984D01*
X3048086Y-6545984D02*
X3048086Y-6565031D01*
X3171896Y-6745984D02*
X3152848Y-6736460D01*
X3152848Y-6736460D02*
X3143324Y-6717412D01*
X3143324Y-6717412D02*
X3143324Y-6545984D01*
X3276658Y-6745984D02*
X3257610Y-6736460D01*
X3257610Y-6736460D02*
X3248086Y-6717412D01*
X3248086Y-6717412D02*
X3248086Y-6545984D01*
X3505229Y-6745984D02*
X3505229Y-6545984D01*
X3505229Y-6545984D02*
X3571896Y-6688841D01*
X3571896Y-6688841D02*
X3638562Y-6545984D01*
X3638562Y-6545984D02*
X3638562Y-6745984D01*
X3819515Y-6745984D02*
X3819515Y-6641222D01*
X3819515Y-6641222D02*
X3809991Y-6622174D01*
X3809991Y-6622174D02*
X3790943Y-6612650D01*
X3790943Y-6612650D02*
X3752848Y-6612650D01*
X3752848Y-6612650D02*
X3733801Y-6622174D01*
X3819515Y-6736460D02*
X3800467Y-6745984D01*
X3800467Y-6745984D02*
X3752848Y-6745984D01*
X3752848Y-6745984D02*
X3733801Y-6736460D01*
X3733801Y-6736460D02*
X3724277Y-6717412D01*
X3724277Y-6717412D02*
X3724277Y-6698365D01*
X3724277Y-6698365D02*
X3733801Y-6679317D01*
X3733801Y-6679317D02*
X3752848Y-6669793D01*
X3752848Y-6669793D02*
X3800467Y-6669793D01*
X3800467Y-6669793D02*
X3819515Y-6660269D01*
X3914753Y-6612650D02*
X3914753Y-6812650D01*
X3914753Y-6622174D02*
X3933801Y-6612650D01*
X3933801Y-6612650D02*
X3971896Y-6612650D01*
X3971896Y-6612650D02*
X3990943Y-6622174D01*
X3990943Y-6622174D02*
X4000467Y-6631698D01*
X4000467Y-6631698D02*
X4009991Y-6650746D01*
X4009991Y-6650746D02*
X4009991Y-6707888D01*
X4009991Y-6707888D02*
X4000467Y-6726936D01*
X4000467Y-6726936D02*
X3990943Y-6736460D01*
X3990943Y-6736460D02*
X3971896Y-6745984D01*
X3971896Y-6745984D02*
X3933801Y-6745984D01*
X3933801Y-6745984D02*
X3914753Y-6736460D01*
X4095705Y-6726936D02*
X4105229Y-6736460D01*
X4105229Y-6736460D02*
X4095705Y-6745984D01*
X4095705Y-6745984D02*
X4086182Y-6736460D01*
X4086182Y-6736460D02*
X4095705Y-6726936D01*
X4095705Y-6726936D02*
X4095705Y-6745984D01*
X4095705Y-6622174D02*
X4105229Y-6631698D01*
X4105229Y-6631698D02*
X4095705Y-6641222D01*
X4095705Y-6641222D02*
X4086182Y-6631698D01*
X4086182Y-6631698D02*
X4095705Y-6622174D01*
X4095705Y-6622174D02*
X4095705Y-6641222D01*
D12*
X2387300Y-7036400D02*
X2463500Y-7112600D01*
X2463500Y-7036400D02*
X2387300Y-7112600D01*
D11*
X2762372Y-6965984D02*
X2781420Y-6965984D01*
X2781420Y-6965984D02*
X2800467Y-6975508D01*
X2800467Y-6975508D02*
X2809991Y-6985031D01*
X2809991Y-6985031D02*
X2819515Y-7004079D01*
X2819515Y-7004079D02*
X2829039Y-7042174D01*
X2829039Y-7042174D02*
X2829039Y-7089793D01*
X2829039Y-7089793D02*
X2819515Y-7127888D01*
X2819515Y-7127888D02*
X2809991Y-7146936D01*
X2809991Y-7146936D02*
X2800467Y-7156460D01*
X2800467Y-7156460D02*
X2781420Y-7165984D01*
X2781420Y-7165984D02*
X2762372Y-7165984D01*
X2762372Y-7165984D02*
X2743324Y-7156460D01*
X2743324Y-7156460D02*
X2733801Y-7146936D01*
X2733801Y-7146936D02*
X2724277Y-7127888D01*
X2724277Y-7127888D02*
X2714753Y-7089793D01*
X2714753Y-7089793D02*
X2714753Y-7042174D01*
X2714753Y-7042174D02*
X2724277Y-7004079D01*
X2724277Y-7004079D02*
X2733801Y-6985031D01*
X2733801Y-6985031D02*
X2743324Y-6975508D01*
X2743324Y-6975508D02*
X2762372Y-6965984D01*
X2914753Y-7146936D02*
X2924277Y-7156460D01*
X2924277Y-7156460D02*
X2914753Y-7165984D01*
X2914753Y-7165984D02*
X2905229Y-7156460D01*
X2905229Y-7156460D02*
X2914753Y-7146936D01*
X2914753Y-7146936D02*
X2914753Y-7165984D01*
X2990943Y-6965984D02*
X3124277Y-6965984D01*
X3124277Y-6965984D02*
X3038562Y-7165984D01*
X3286182Y-6965984D02*
X3248086Y-6965984D01*
X3248086Y-6965984D02*
X3229039Y-6975508D01*
X3229039Y-6975508D02*
X3219515Y-6985031D01*
X3219515Y-6985031D02*
X3200467Y-7013603D01*
X3200467Y-7013603D02*
X3190943Y-7051698D01*
X3190943Y-7051698D02*
X3190943Y-7127888D01*
X3190943Y-7127888D02*
X3200467Y-7146936D01*
X3200467Y-7146936D02*
X3209991Y-7156460D01*
X3209991Y-7156460D02*
X3229039Y-7165984D01*
X3229039Y-7165984D02*
X3267134Y-7165984D01*
X3267134Y-7165984D02*
X3286182Y-7156460D01*
X3286182Y-7156460D02*
X3295705Y-7146936D01*
X3295705Y-7146936D02*
X3305229Y-7127888D01*
X3305229Y-7127888D02*
X3305229Y-7080269D01*
X3305229Y-7080269D02*
X3295705Y-7061222D01*
X3295705Y-7061222D02*
X3286182Y-7051698D01*
X3286182Y-7051698D02*
X3267134Y-7042174D01*
X3267134Y-7042174D02*
X3229039Y-7042174D01*
X3229039Y-7042174D02*
X3209991Y-7051698D01*
X3209991Y-7051698D02*
X3200467Y-7061222D01*
X3200467Y-7061222D02*
X3190943Y-7080269D01*
X3381420Y-6985031D02*
X3390943Y-6975508D01*
X3390943Y-6975508D02*
X3409991Y-6965984D01*
X3409991Y-6965984D02*
X3457610Y-6965984D01*
X3457610Y-6965984D02*
X3476658Y-6975508D01*
X3476658Y-6975508D02*
X3486182Y-6985031D01*
X3486182Y-6985031D02*
X3495705Y-7004079D01*
X3495705Y-7004079D02*
X3495705Y-7023127D01*
X3495705Y-7023127D02*
X3486182Y-7051698D01*
X3486182Y-7051698D02*
X3371896Y-7165984D01*
X3371896Y-7165984D02*
X3495705Y-7165984D01*
X3581420Y-7165984D02*
X3581420Y-7032650D01*
X3581420Y-7051698D02*
X3590943Y-7042174D01*
X3590943Y-7042174D02*
X3609991Y-7032650D01*
X3609991Y-7032650D02*
X3638563Y-7032650D01*
X3638563Y-7032650D02*
X3657610Y-7042174D01*
X3657610Y-7042174D02*
X3667134Y-7061222D01*
X3667134Y-7061222D02*
X3667134Y-7165984D01*
X3667134Y-7061222D02*
X3676658Y-7042174D01*
X3676658Y-7042174D02*
X3695705Y-7032650D01*
X3695705Y-7032650D02*
X3724277Y-7032650D01*
X3724277Y-7032650D02*
X3743324Y-7042174D01*
X3743324Y-7042174D02*
X3752848Y-7061222D01*
X3752848Y-7061222D02*
X3752848Y-7165984D01*
X3848086Y-7165984D02*
X3848086Y-7032650D01*
X3848086Y-7051698D02*
X3857610Y-7042174D01*
X3857610Y-7042174D02*
X3876658Y-7032650D01*
X3876658Y-7032650D02*
X3905229Y-7032650D01*
X3905229Y-7032650D02*
X3924277Y-7042174D01*
X3924277Y-7042174D02*
X3933801Y-7061222D01*
X3933801Y-7061222D02*
X3933801Y-7165984D01*
X3933801Y-7061222D02*
X3943324Y-7042174D01*
X3943324Y-7042174D02*
X3962372Y-7032650D01*
X3962372Y-7032650D02*
X3990943Y-7032650D01*
X3990943Y-7032650D02*
X4009991Y-7042174D01*
X4009991Y-7042174D02*
X4019515Y-7061222D01*
X4019515Y-7061222D02*
X4019515Y-7165984D01*
X4409991Y-6956460D02*
X4238563Y-7213603D01*
X4667134Y-6965984D02*
X4686182Y-6965984D01*
X4686182Y-6965984D02*
X4705229Y-6975508D01*
X4705229Y-6975508D02*
X4714753Y-6985031D01*
X4714753Y-6985031D02*
X4724277Y-7004079D01*
X4724277Y-7004079D02*
X4733801Y-7042174D01*
X4733801Y-7042174D02*
X4733801Y-7089793D01*
X4733801Y-7089793D02*
X4724277Y-7127888D01*
X4724277Y-7127888D02*
X4714753Y-7146936D01*
X4714753Y-7146936D02*
X4705229Y-7156460D01*
X4705229Y-7156460D02*
X4686182Y-7165984D01*
X4686182Y-7165984D02*
X4667134Y-7165984D01*
X4667134Y-7165984D02*
X4648087Y-7156460D01*
X4648087Y-7156460D02*
X4638563Y-7146936D01*
X4638563Y-7146936D02*
X4629039Y-7127888D01*
X4629039Y-7127888D02*
X4619515Y-7089793D01*
X4619515Y-7089793D02*
X4619515Y-7042174D01*
X4619515Y-7042174D02*
X4629039Y-7004079D01*
X4629039Y-7004079D02*
X4638563Y-6985031D01*
X4638563Y-6985031D02*
X4648087Y-6975508D01*
X4648087Y-6975508D02*
X4667134Y-6965984D01*
X4819515Y-7146936D02*
X4829039Y-7156460D01*
X4829039Y-7156460D02*
X4819515Y-7165984D01*
X4819515Y-7165984D02*
X4809991Y-7156460D01*
X4809991Y-7156460D02*
X4819515Y-7146936D01*
X4819515Y-7146936D02*
X4819515Y-7165984D01*
X4952848Y-6965984D02*
X4971896Y-6965984D01*
X4971896Y-6965984D02*
X4990944Y-6975508D01*
X4990944Y-6975508D02*
X5000468Y-6985031D01*
X5000468Y-6985031D02*
X5009991Y-7004079D01*
X5009991Y-7004079D02*
X5019515Y-7042174D01*
X5019515Y-7042174D02*
X5019515Y-7089793D01*
X5019515Y-7089793D02*
X5009991Y-7127888D01*
X5009991Y-7127888D02*
X5000468Y-7146936D01*
X5000468Y-7146936D02*
X4990944Y-7156460D01*
X4990944Y-7156460D02*
X4971896Y-7165984D01*
X4971896Y-7165984D02*
X4952848Y-7165984D01*
X4952848Y-7165984D02*
X4933801Y-7156460D01*
X4933801Y-7156460D02*
X4924277Y-7146936D01*
X4924277Y-7146936D02*
X4914753Y-7127888D01*
X4914753Y-7127888D02*
X4905229Y-7089793D01*
X4905229Y-7089793D02*
X4905229Y-7042174D01*
X4905229Y-7042174D02*
X4914753Y-7004079D01*
X4914753Y-7004079D02*
X4924277Y-6985031D01*
X4924277Y-6985031D02*
X4933801Y-6975508D01*
X4933801Y-6975508D02*
X4952848Y-6965984D01*
X5086182Y-6965984D02*
X5209991Y-6965984D01*
X5209991Y-6965984D02*
X5143325Y-7042174D01*
X5143325Y-7042174D02*
X5171896Y-7042174D01*
X5171896Y-7042174D02*
X5190944Y-7051698D01*
X5190944Y-7051698D02*
X5200468Y-7061222D01*
X5200468Y-7061222D02*
X5209991Y-7080269D01*
X5209991Y-7080269D02*
X5209991Y-7127888D01*
X5209991Y-7127888D02*
X5200468Y-7146936D01*
X5200468Y-7146936D02*
X5190944Y-7156460D01*
X5190944Y-7156460D02*
X5171896Y-7165984D01*
X5171896Y-7165984D02*
X5114753Y-7165984D01*
X5114753Y-7165984D02*
X5095706Y-7156460D01*
X5095706Y-7156460D02*
X5086182Y-7146936D01*
X5333801Y-6965984D02*
X5352849Y-6965984D01*
X5352849Y-6965984D02*
X5371896Y-6975508D01*
X5371896Y-6975508D02*
X5381420Y-6985031D01*
X5381420Y-6985031D02*
X5390944Y-7004079D01*
X5390944Y-7004079D02*
X5400468Y-7042174D01*
X5400468Y-7042174D02*
X5400468Y-7089793D01*
X5400468Y-7089793D02*
X5390944Y-7127888D01*
X5390944Y-7127888D02*
X5381420Y-7146936D01*
X5381420Y-7146936D02*
X5371896Y-7156460D01*
X5371896Y-7156460D02*
X5352849Y-7165984D01*
X5352849Y-7165984D02*
X5333801Y-7165984D01*
X5333801Y-7165984D02*
X5314753Y-7156460D01*
X5314753Y-7156460D02*
X5305229Y-7146936D01*
X5305229Y-7146936D02*
X5295706Y-7127888D01*
X5295706Y-7127888D02*
X5286182Y-7089793D01*
X5286182Y-7089793D02*
X5286182Y-7042174D01*
X5286182Y-7042174D02*
X5295706Y-7004079D01*
X5295706Y-7004079D02*
X5305229Y-6985031D01*
X5305229Y-6985031D02*
X5314753Y-6975508D01*
X5314753Y-6975508D02*
X5333801Y-6965984D01*
X5524277Y-6965984D02*
X5543325Y-6965984D01*
X5543325Y-6965984D02*
X5562372Y-6975508D01*
X5562372Y-6975508D02*
X5571896Y-6985031D01*
X5571896Y-6985031D02*
X5581420Y-7004079D01*
X5581420Y-7004079D02*
X5590944Y-7042174D01*
X5590944Y-7042174D02*
X5590944Y-7089793D01*
X5590944Y-7089793D02*
X5581420Y-7127888D01*
X5581420Y-7127888D02*
X5571896Y-7146936D01*
X5571896Y-7146936D02*
X5562372Y-7156460D01*
X5562372Y-7156460D02*
X5543325Y-7165984D01*
X5543325Y-7165984D02*
X5524277Y-7165984D01*
X5524277Y-7165984D02*
X5505229Y-7156460D01*
X5505229Y-7156460D02*
X5495706Y-7146936D01*
X5495706Y-7146936D02*
X5486182Y-7127888D01*
X5486182Y-7127888D02*
X5476658Y-7089793D01*
X5476658Y-7089793D02*
X5476658Y-7042174D01*
X5476658Y-7042174D02*
X5486182Y-7004079D01*
X5486182Y-7004079D02*
X5495706Y-6985031D01*
X5495706Y-6985031D02*
X5505229Y-6975508D01*
X5505229Y-6975508D02*
X5524277Y-6965984D01*
X5667134Y-6965984D02*
X5667134Y-7004079D01*
X5743325Y-6965984D02*
X5743325Y-7004079D01*
X6038563Y-7242174D02*
X6029039Y-7232650D01*
X6029039Y-7232650D02*
X6009991Y-7204079D01*
X6009991Y-7204079D02*
X6000468Y-7185031D01*
X6000468Y-7185031D02*
X5990944Y-7156460D01*
X5990944Y-7156460D02*
X5981420Y-7108841D01*
X5981420Y-7108841D02*
X5981420Y-7070746D01*
X5981420Y-7070746D02*
X5990944Y-7023127D01*
X5990944Y-7023127D02*
X6000468Y-6994555D01*
X6000468Y-6994555D02*
X6009991Y-6975508D01*
X6009991Y-6975508D02*
X6029039Y-6946936D01*
X6029039Y-6946936D02*
X6038563Y-6937412D01*
X6143325Y-7051698D02*
X6124277Y-7042174D01*
X6124277Y-7042174D02*
X6114753Y-7032650D01*
X6114753Y-7032650D02*
X6105229Y-7013603D01*
X6105229Y-7013603D02*
X6105229Y-7004079D01*
X6105229Y-7004079D02*
X6114753Y-6985031D01*
X6114753Y-6985031D02*
X6124277Y-6975508D01*
X6124277Y-6975508D02*
X6143325Y-6965984D01*
X6143325Y-6965984D02*
X6181420Y-6965984D01*
X6181420Y-6965984D02*
X6200468Y-6975508D01*
X6200468Y-6975508D02*
X6209991Y-6985031D01*
X6209991Y-6985031D02*
X6219515Y-7004079D01*
X6219515Y-7004079D02*
X6219515Y-7013603D01*
X6219515Y-7013603D02*
X6209991Y-7032650D01*
X6209991Y-7032650D02*
X6200468Y-7042174D01*
X6200468Y-7042174D02*
X6181420Y-7051698D01*
X6181420Y-7051698D02*
X6143325Y-7051698D01*
X6143325Y-7051698D02*
X6124277Y-7061222D01*
X6124277Y-7061222D02*
X6114753Y-7070746D01*
X6114753Y-7070746D02*
X6105229Y-7089793D01*
X6105229Y-7089793D02*
X6105229Y-7127888D01*
X6105229Y-7127888D02*
X6114753Y-7146936D01*
X6114753Y-7146936D02*
X6124277Y-7156460D01*
X6124277Y-7156460D02*
X6143325Y-7165984D01*
X6143325Y-7165984D02*
X6181420Y-7165984D01*
X6181420Y-7165984D02*
X6200468Y-7156460D01*
X6200468Y-7156460D02*
X6209991Y-7146936D01*
X6209991Y-7146936D02*
X6219515Y-7127888D01*
X6219515Y-7127888D02*
X6219515Y-7089793D01*
X6219515Y-7089793D02*
X6209991Y-7070746D01*
X6209991Y-7070746D02*
X6200468Y-7061222D01*
X6200468Y-7061222D02*
X6181420Y-7051698D01*
X6457610Y-7165984D02*
X6457610Y-6965984D01*
X6543325Y-7165984D02*
X6543325Y-7061222D01*
X6543325Y-7061222D02*
X6533801Y-7042174D01*
X6533801Y-7042174D02*
X6514753Y-7032650D01*
X6514753Y-7032650D02*
X6486182Y-7032650D01*
X6486182Y-7032650D02*
X6467134Y-7042174D01*
X6467134Y-7042174D02*
X6457610Y-7051698D01*
X6667134Y-7165984D02*
X6648087Y-7156460D01*
X6648087Y-7156460D02*
X6638563Y-7146936D01*
X6638563Y-7146936D02*
X6629039Y-7127888D01*
X6629039Y-7127888D02*
X6629039Y-7070746D01*
X6629039Y-7070746D02*
X6638563Y-7051698D01*
X6638563Y-7051698D02*
X6648087Y-7042174D01*
X6648087Y-7042174D02*
X6667134Y-7032650D01*
X6667134Y-7032650D02*
X6695706Y-7032650D01*
X6695706Y-7032650D02*
X6714753Y-7042174D01*
X6714753Y-7042174D02*
X6724277Y-7051698D01*
X6724277Y-7051698D02*
X6733801Y-7070746D01*
X6733801Y-7070746D02*
X6733801Y-7127888D01*
X6733801Y-7127888D02*
X6724277Y-7146936D01*
X6724277Y-7146936D02*
X6714753Y-7156460D01*
X6714753Y-7156460D02*
X6695706Y-7165984D01*
X6695706Y-7165984D02*
X6667134Y-7165984D01*
X6848087Y-7165984D02*
X6829039Y-7156460D01*
X6829039Y-7156460D02*
X6819515Y-7137412D01*
X6819515Y-7137412D02*
X6819515Y-6965984D01*
X7000468Y-7156460D02*
X6981420Y-7165984D01*
X6981420Y-7165984D02*
X6943325Y-7165984D01*
X6943325Y-7165984D02*
X6924277Y-7156460D01*
X6924277Y-7156460D02*
X6914753Y-7137412D01*
X6914753Y-7137412D02*
X6914753Y-7061222D01*
X6914753Y-7061222D02*
X6924277Y-7042174D01*
X6924277Y-7042174D02*
X6943325Y-7032650D01*
X6943325Y-7032650D02*
X6981420Y-7032650D01*
X6981420Y-7032650D02*
X7000468Y-7042174D01*
X7000468Y-7042174D02*
X7009991Y-7061222D01*
X7009991Y-7061222D02*
X7009991Y-7080269D01*
X7009991Y-7080269D02*
X6914753Y-7099317D01*
X7086182Y-7156460D02*
X7105230Y-7165984D01*
X7105230Y-7165984D02*
X7143325Y-7165984D01*
X7143325Y-7165984D02*
X7162372Y-7156460D01*
X7162372Y-7156460D02*
X7171896Y-7137412D01*
X7171896Y-7137412D02*
X7171896Y-7127888D01*
X7171896Y-7127888D02*
X7162372Y-7108841D01*
X7162372Y-7108841D02*
X7143325Y-7099317D01*
X7143325Y-7099317D02*
X7114753Y-7099317D01*
X7114753Y-7099317D02*
X7095706Y-7089793D01*
X7095706Y-7089793D02*
X7086182Y-7070746D01*
X7086182Y-7070746D02*
X7086182Y-7061222D01*
X7086182Y-7061222D02*
X7095706Y-7042174D01*
X7095706Y-7042174D02*
X7114753Y-7032650D01*
X7114753Y-7032650D02*
X7143325Y-7032650D01*
X7143325Y-7032650D02*
X7162372Y-7042174D01*
X7238563Y-7242174D02*
X7248087Y-7232650D01*
X7248087Y-7232650D02*
X7267134Y-7204079D01*
X7267134Y-7204079D02*
X7276658Y-7185031D01*
X7276658Y-7185031D02*
X7286182Y-7156460D01*
X7286182Y-7156460D02*
X7295706Y-7108841D01*
X7295706Y-7108841D02*
X7295706Y-7070746D01*
X7295706Y-7070746D02*
X7286182Y-7023127D01*
X7286182Y-7023127D02*
X7276658Y-6994555D01*
X7276658Y-6994555D02*
X7267134Y-6975508D01*
X7267134Y-6975508D02*
X7248087Y-6946936D01*
X7248087Y-6946936D02*
X7238563Y-6937412D01*
D13*
X2463500Y-7338500D02*
G75*
G03*
X2463500Y-7338500I-45000J0D01*
G01*
D11*
X2762372Y-7229984D02*
X2781420Y-7229984D01*
X2781420Y-7229984D02*
X2800467Y-7239508D01*
X2800467Y-7239508D02*
X2809991Y-7249031D01*
X2809991Y-7249031D02*
X2819515Y-7268079D01*
X2819515Y-7268079D02*
X2829039Y-7306174D01*
X2829039Y-7306174D02*
X2829039Y-7353793D01*
X2829039Y-7353793D02*
X2819515Y-7391888D01*
X2819515Y-7391888D02*
X2809991Y-7410936D01*
X2809991Y-7410936D02*
X2800467Y-7420460D01*
X2800467Y-7420460D02*
X2781420Y-7429984D01*
X2781420Y-7429984D02*
X2762372Y-7429984D01*
X2762372Y-7429984D02*
X2743324Y-7420460D01*
X2743324Y-7420460D02*
X2733801Y-7410936D01*
X2733801Y-7410936D02*
X2724277Y-7391888D01*
X2724277Y-7391888D02*
X2714753Y-7353793D01*
X2714753Y-7353793D02*
X2714753Y-7306174D01*
X2714753Y-7306174D02*
X2724277Y-7268079D01*
X2724277Y-7268079D02*
X2733801Y-7249031D01*
X2733801Y-7249031D02*
X2743324Y-7239508D01*
X2743324Y-7239508D02*
X2762372Y-7229984D01*
X2914753Y-7410936D02*
X2924277Y-7420460D01*
X2924277Y-7420460D02*
X2914753Y-7429984D01*
X2914753Y-7429984D02*
X2905229Y-7420460D01*
X2905229Y-7420460D02*
X2914753Y-7410936D01*
X2914753Y-7410936D02*
X2914753Y-7429984D01*
X3019515Y-7429984D02*
X3057610Y-7429984D01*
X3057610Y-7429984D02*
X3076658Y-7420460D01*
X3076658Y-7420460D02*
X3086182Y-7410936D01*
X3086182Y-7410936D02*
X3105229Y-7382365D01*
X3105229Y-7382365D02*
X3114753Y-7344269D01*
X3114753Y-7344269D02*
X3114753Y-7268079D01*
X3114753Y-7268079D02*
X3105229Y-7249031D01*
X3105229Y-7249031D02*
X3095705Y-7239508D01*
X3095705Y-7239508D02*
X3076658Y-7229984D01*
X3076658Y-7229984D02*
X3038562Y-7229984D01*
X3038562Y-7229984D02*
X3019515Y-7239508D01*
X3019515Y-7239508D02*
X3009991Y-7249031D01*
X3009991Y-7249031D02*
X3000467Y-7268079D01*
X3000467Y-7268079D02*
X3000467Y-7315698D01*
X3000467Y-7315698D02*
X3009991Y-7334746D01*
X3009991Y-7334746D02*
X3019515Y-7344269D01*
X3019515Y-7344269D02*
X3038562Y-7353793D01*
X3038562Y-7353793D02*
X3076658Y-7353793D01*
X3076658Y-7353793D02*
X3095705Y-7344269D01*
X3095705Y-7344269D02*
X3105229Y-7334746D01*
X3105229Y-7334746D02*
X3114753Y-7315698D01*
X3238562Y-7229984D02*
X3257610Y-7229984D01*
X3257610Y-7229984D02*
X3276658Y-7239508D01*
X3276658Y-7239508D02*
X3286182Y-7249031D01*
X3286182Y-7249031D02*
X3295705Y-7268079D01*
X3295705Y-7268079D02*
X3305229Y-7306174D01*
X3305229Y-7306174D02*
X3305229Y-7353793D01*
X3305229Y-7353793D02*
X3295705Y-7391888D01*
X3295705Y-7391888D02*
X3286182Y-7410936D01*
X3286182Y-7410936D02*
X3276658Y-7420460D01*
X3276658Y-7420460D02*
X3257610Y-7429984D01*
X3257610Y-7429984D02*
X3238562Y-7429984D01*
X3238562Y-7429984D02*
X3219515Y-7420460D01*
X3219515Y-7420460D02*
X3209991Y-7410936D01*
X3209991Y-7410936D02*
X3200467Y-7391888D01*
X3200467Y-7391888D02*
X3190943Y-7353793D01*
X3190943Y-7353793D02*
X3190943Y-7306174D01*
X3190943Y-7306174D02*
X3200467Y-7268079D01*
X3200467Y-7268079D02*
X3209991Y-7249031D01*
X3209991Y-7249031D02*
X3219515Y-7239508D01*
X3219515Y-7239508D02*
X3238562Y-7229984D01*
X3429039Y-7229984D02*
X3448086Y-7229984D01*
X3448086Y-7229984D02*
X3467134Y-7239508D01*
X3467134Y-7239508D02*
X3476658Y-7249031D01*
X3476658Y-7249031D02*
X3486182Y-7268079D01*
X3486182Y-7268079D02*
X3495705Y-7306174D01*
X3495705Y-7306174D02*
X3495705Y-7353793D01*
X3495705Y-7353793D02*
X3486182Y-7391888D01*
X3486182Y-7391888D02*
X3476658Y-7410936D01*
X3476658Y-7410936D02*
X3467134Y-7420460D01*
X3467134Y-7420460D02*
X3448086Y-7429984D01*
X3448086Y-7429984D02*
X3429039Y-7429984D01*
X3429039Y-7429984D02*
X3409991Y-7420460D01*
X3409991Y-7420460D02*
X3400467Y-7410936D01*
X3400467Y-7410936D02*
X3390943Y-7391888D01*
X3390943Y-7391888D02*
X3381420Y-7353793D01*
X3381420Y-7353793D02*
X3381420Y-7306174D01*
X3381420Y-7306174D02*
X3390943Y-7268079D01*
X3390943Y-7268079D02*
X3400467Y-7249031D01*
X3400467Y-7249031D02*
X3409991Y-7239508D01*
X3409991Y-7239508D02*
X3429039Y-7229984D01*
X3581420Y-7429984D02*
X3581420Y-7296650D01*
X3581420Y-7315698D02*
X3590943Y-7306174D01*
X3590943Y-7306174D02*
X3609991Y-7296650D01*
X3609991Y-7296650D02*
X3638563Y-7296650D01*
X3638563Y-7296650D02*
X3657610Y-7306174D01*
X3657610Y-7306174D02*
X3667134Y-7325222D01*
X3667134Y-7325222D02*
X3667134Y-7429984D01*
X3667134Y-7325222D02*
X3676658Y-7306174D01*
X3676658Y-7306174D02*
X3695705Y-7296650D01*
X3695705Y-7296650D02*
X3724277Y-7296650D01*
X3724277Y-7296650D02*
X3743324Y-7306174D01*
X3743324Y-7306174D02*
X3752848Y-7325222D01*
X3752848Y-7325222D02*
X3752848Y-7429984D01*
X3848086Y-7429984D02*
X3848086Y-7296650D01*
X3848086Y-7315698D02*
X3857610Y-7306174D01*
X3857610Y-7306174D02*
X3876658Y-7296650D01*
X3876658Y-7296650D02*
X3905229Y-7296650D01*
X3905229Y-7296650D02*
X3924277Y-7306174D01*
X3924277Y-7306174D02*
X3933801Y-7325222D01*
X3933801Y-7325222D02*
X3933801Y-7429984D01*
X3933801Y-7325222D02*
X3943324Y-7306174D01*
X3943324Y-7306174D02*
X3962372Y-7296650D01*
X3962372Y-7296650D02*
X3990943Y-7296650D01*
X3990943Y-7296650D02*
X4009991Y-7306174D01*
X4009991Y-7306174D02*
X4019515Y-7325222D01*
X4019515Y-7325222D02*
X4019515Y-7429984D01*
X4409991Y-7220460D02*
X4238563Y-7477603D01*
X4667134Y-7229984D02*
X4686182Y-7229984D01*
X4686182Y-7229984D02*
X4705229Y-7239508D01*
X4705229Y-7239508D02*
X4714753Y-7249031D01*
X4714753Y-7249031D02*
X4724277Y-7268079D01*
X4724277Y-7268079D02*
X4733801Y-7306174D01*
X4733801Y-7306174D02*
X4733801Y-7353793D01*
X4733801Y-7353793D02*
X4724277Y-7391888D01*
X4724277Y-7391888D02*
X4714753Y-7410936D01*
X4714753Y-7410936D02*
X4705229Y-7420460D01*
X4705229Y-7420460D02*
X4686182Y-7429984D01*
X4686182Y-7429984D02*
X4667134Y-7429984D01*
X4667134Y-7429984D02*
X4648087Y-7420460D01*
X4648087Y-7420460D02*
X4638563Y-7410936D01*
X4638563Y-7410936D02*
X4629039Y-7391888D01*
X4629039Y-7391888D02*
X4619515Y-7353793D01*
X4619515Y-7353793D02*
X4619515Y-7306174D01*
X4619515Y-7306174D02*
X4629039Y-7268079D01*
X4629039Y-7268079D02*
X4638563Y-7249031D01*
X4638563Y-7249031D02*
X4648087Y-7239508D01*
X4648087Y-7239508D02*
X4667134Y-7229984D01*
X4819515Y-7410936D02*
X4829039Y-7420460D01*
X4829039Y-7420460D02*
X4819515Y-7429984D01*
X4819515Y-7429984D02*
X4809991Y-7420460D01*
X4809991Y-7420460D02*
X4819515Y-7410936D01*
X4819515Y-7410936D02*
X4819515Y-7429984D01*
X4952848Y-7229984D02*
X4971896Y-7229984D01*
X4971896Y-7229984D02*
X4990944Y-7239508D01*
X4990944Y-7239508D02*
X5000468Y-7249031D01*
X5000468Y-7249031D02*
X5009991Y-7268079D01*
X5009991Y-7268079D02*
X5019515Y-7306174D01*
X5019515Y-7306174D02*
X5019515Y-7353793D01*
X5019515Y-7353793D02*
X5009991Y-7391888D01*
X5009991Y-7391888D02*
X5000468Y-7410936D01*
X5000468Y-7410936D02*
X4990944Y-7420460D01*
X4990944Y-7420460D02*
X4971896Y-7429984D01*
X4971896Y-7429984D02*
X4952848Y-7429984D01*
X4952848Y-7429984D02*
X4933801Y-7420460D01*
X4933801Y-7420460D02*
X4924277Y-7410936D01*
X4924277Y-7410936D02*
X4914753Y-7391888D01*
X4914753Y-7391888D02*
X4905229Y-7353793D01*
X4905229Y-7353793D02*
X4905229Y-7306174D01*
X4905229Y-7306174D02*
X4914753Y-7268079D01*
X4914753Y-7268079D02*
X4924277Y-7249031D01*
X4924277Y-7249031D02*
X4933801Y-7239508D01*
X4933801Y-7239508D02*
X4952848Y-7229984D01*
X5086182Y-7229984D02*
X5209991Y-7229984D01*
X5209991Y-7229984D02*
X5143325Y-7306174D01*
X5143325Y-7306174D02*
X5171896Y-7306174D01*
X5171896Y-7306174D02*
X5190944Y-7315698D01*
X5190944Y-7315698D02*
X5200468Y-7325222D01*
X5200468Y-7325222D02*
X5209991Y-7344269D01*
X5209991Y-7344269D02*
X5209991Y-7391888D01*
X5209991Y-7391888D02*
X5200468Y-7410936D01*
X5200468Y-7410936D02*
X5190944Y-7420460D01*
X5190944Y-7420460D02*
X5171896Y-7429984D01*
X5171896Y-7429984D02*
X5114753Y-7429984D01*
X5114753Y-7429984D02*
X5095706Y-7420460D01*
X5095706Y-7420460D02*
X5086182Y-7410936D01*
X5390944Y-7229984D02*
X5295706Y-7229984D01*
X5295706Y-7229984D02*
X5286182Y-7325222D01*
X5286182Y-7325222D02*
X5295706Y-7315698D01*
X5295706Y-7315698D02*
X5314753Y-7306174D01*
X5314753Y-7306174D02*
X5362372Y-7306174D01*
X5362372Y-7306174D02*
X5381420Y-7315698D01*
X5381420Y-7315698D02*
X5390944Y-7325222D01*
X5390944Y-7325222D02*
X5400468Y-7344269D01*
X5400468Y-7344269D02*
X5400468Y-7391888D01*
X5400468Y-7391888D02*
X5390944Y-7410936D01*
X5390944Y-7410936D02*
X5381420Y-7420460D01*
X5381420Y-7420460D02*
X5362372Y-7429984D01*
X5362372Y-7429984D02*
X5314753Y-7429984D01*
X5314753Y-7429984D02*
X5295706Y-7420460D01*
X5295706Y-7420460D02*
X5286182Y-7410936D01*
X5571896Y-7296650D02*
X5571896Y-7429984D01*
X5524277Y-7220460D02*
X5476658Y-7363317D01*
X5476658Y-7363317D02*
X5600467Y-7363317D01*
X5667134Y-7229984D02*
X5667134Y-7268079D01*
X5743325Y-7229984D02*
X5743325Y-7268079D01*
X6038563Y-7506174D02*
X6029039Y-7496650D01*
X6029039Y-7496650D02*
X6009991Y-7468079D01*
X6009991Y-7468079D02*
X6000468Y-7449031D01*
X6000468Y-7449031D02*
X5990944Y-7420460D01*
X5990944Y-7420460D02*
X5981420Y-7372841D01*
X5981420Y-7372841D02*
X5981420Y-7334746D01*
X5981420Y-7334746D02*
X5990944Y-7287127D01*
X5990944Y-7287127D02*
X6000468Y-7258555D01*
X6000468Y-7258555D02*
X6009991Y-7239508D01*
X6009991Y-7239508D02*
X6029039Y-7210936D01*
X6029039Y-7210936D02*
X6038563Y-7201412D01*
X6219515Y-7429984D02*
X6105229Y-7429984D01*
X6162372Y-7429984D02*
X6162372Y-7229984D01*
X6162372Y-7229984D02*
X6143325Y-7258555D01*
X6143325Y-7258555D02*
X6124277Y-7277603D01*
X6124277Y-7277603D02*
X6105229Y-7287127D01*
X6409991Y-7429984D02*
X6295706Y-7429984D01*
X6352848Y-7429984D02*
X6352848Y-7229984D01*
X6352848Y-7229984D02*
X6333801Y-7258555D01*
X6333801Y-7258555D02*
X6314753Y-7277603D01*
X6314753Y-7277603D02*
X6295706Y-7287127D01*
X6648087Y-7429984D02*
X6648087Y-7229984D01*
X6733801Y-7429984D02*
X6733801Y-7325222D01*
X6733801Y-7325222D02*
X6724277Y-7306174D01*
X6724277Y-7306174D02*
X6705230Y-7296650D01*
X6705230Y-7296650D02*
X6676658Y-7296650D01*
X6676658Y-7296650D02*
X6657610Y-7306174D01*
X6657610Y-7306174D02*
X6648087Y-7315698D01*
X6857610Y-7429984D02*
X6838563Y-7420460D01*
X6838563Y-7420460D02*
X6829039Y-7410936D01*
X6829039Y-7410936D02*
X6819515Y-7391888D01*
X6819515Y-7391888D02*
X6819515Y-7334746D01*
X6819515Y-7334746D02*
X6829039Y-7315698D01*
X6829039Y-7315698D02*
X6838563Y-7306174D01*
X6838563Y-7306174D02*
X6857610Y-7296650D01*
X6857610Y-7296650D02*
X6886182Y-7296650D01*
X6886182Y-7296650D02*
X6905230Y-7306174D01*
X6905230Y-7306174D02*
X6914753Y-7315698D01*
X6914753Y-7315698D02*
X6924277Y-7334746D01*
X6924277Y-7334746D02*
X6924277Y-7391888D01*
X6924277Y-7391888D02*
X6914753Y-7410936D01*
X6914753Y-7410936D02*
X6905230Y-7420460D01*
X6905230Y-7420460D02*
X6886182Y-7429984D01*
X6886182Y-7429984D02*
X6857610Y-7429984D01*
X7038563Y-7429984D02*
X7019515Y-7420460D01*
X7019515Y-7420460D02*
X7009991Y-7401412D01*
X7009991Y-7401412D02*
X7009991Y-7229984D01*
X7190944Y-7420460D02*
X7171896Y-7429984D01*
X7171896Y-7429984D02*
X7133801Y-7429984D01*
X7133801Y-7429984D02*
X7114753Y-7420460D01*
X7114753Y-7420460D02*
X7105230Y-7401412D01*
X7105230Y-7401412D02*
X7105230Y-7325222D01*
X7105230Y-7325222D02*
X7114753Y-7306174D01*
X7114753Y-7306174D02*
X7133801Y-7296650D01*
X7133801Y-7296650D02*
X7171896Y-7296650D01*
X7171896Y-7296650D02*
X7190944Y-7306174D01*
X7190944Y-7306174D02*
X7200468Y-7325222D01*
X7200468Y-7325222D02*
X7200468Y-7344269D01*
X7200468Y-7344269D02*
X7105230Y-7363317D01*
X7276658Y-7420460D02*
X7295706Y-7429984D01*
X7295706Y-7429984D02*
X7333801Y-7429984D01*
X7333801Y-7429984D02*
X7352849Y-7420460D01*
X7352849Y-7420460D02*
X7362372Y-7401412D01*
X7362372Y-7401412D02*
X7362372Y-7391888D01*
X7362372Y-7391888D02*
X7352849Y-7372841D01*
X7352849Y-7372841D02*
X7333801Y-7363317D01*
X7333801Y-7363317D02*
X7305230Y-7363317D01*
X7305230Y-7363317D02*
X7286182Y-7353793D01*
X7286182Y-7353793D02*
X7276658Y-7334746D01*
X7276658Y-7334746D02*
X7276658Y-7325222D01*
X7276658Y-7325222D02*
X7286182Y-7306174D01*
X7286182Y-7306174D02*
X7305230Y-7296650D01*
X7305230Y-7296650D02*
X7333801Y-7296650D01*
X7333801Y-7296650D02*
X7352849Y-7306174D01*
X7429039Y-7506174D02*
X7438563Y-7496650D01*
X7438563Y-7496650D02*
X7457611Y-7468079D01*
X7457611Y-7468079D02*
X7467134Y-7449031D01*
X7467134Y-7449031D02*
X7476658Y-7420460D01*
X7476658Y-7420460D02*
X7486182Y-7372841D01*
X7486182Y-7372841D02*
X7486182Y-7334746D01*
X7486182Y-7334746D02*
X7476658Y-7287127D01*
X7476658Y-7287127D02*
X7467134Y-7258555D01*
X7467134Y-7258555D02*
X7457611Y-7239508D01*
X7457611Y-7239508D02*
X7438563Y-7210936D01*
X7438563Y-7210936D02*
X7429039Y-7201412D01*
D14*
X2388500Y-7527500D02*
X2388500Y-7677500D01*
X2313500Y-7602500D02*
X2463500Y-7602500D01*
D11*
X2829039Y-7693984D02*
X2714753Y-7693984D01*
X2771896Y-7693984D02*
X2771896Y-7493984D01*
X2771896Y-7493984D02*
X2752848Y-7522555D01*
X2752848Y-7522555D02*
X2733801Y-7541603D01*
X2733801Y-7541603D02*
X2714753Y-7551127D01*
X2914753Y-7674936D02*
X2924277Y-7684460D01*
X2924277Y-7684460D02*
X2914753Y-7693984D01*
X2914753Y-7693984D02*
X2905229Y-7684460D01*
X2905229Y-7684460D02*
X2914753Y-7674936D01*
X2914753Y-7674936D02*
X2914753Y-7693984D01*
X3105229Y-7493984D02*
X3009991Y-7493984D01*
X3009991Y-7493984D02*
X3000467Y-7589222D01*
X3000467Y-7589222D02*
X3009991Y-7579698D01*
X3009991Y-7579698D02*
X3029039Y-7570174D01*
X3029039Y-7570174D02*
X3076658Y-7570174D01*
X3076658Y-7570174D02*
X3095705Y-7579698D01*
X3095705Y-7579698D02*
X3105229Y-7589222D01*
X3105229Y-7589222D02*
X3114753Y-7608269D01*
X3114753Y-7608269D02*
X3114753Y-7655888D01*
X3114753Y-7655888D02*
X3105229Y-7674936D01*
X3105229Y-7674936D02*
X3095705Y-7684460D01*
X3095705Y-7684460D02*
X3076658Y-7693984D01*
X3076658Y-7693984D02*
X3029039Y-7693984D01*
X3029039Y-7693984D02*
X3009991Y-7684460D01*
X3009991Y-7684460D02*
X3000467Y-7674936D01*
X3238562Y-7493984D02*
X3257610Y-7493984D01*
X3257610Y-7493984D02*
X3276658Y-7503508D01*
X3276658Y-7503508D02*
X3286182Y-7513031D01*
X3286182Y-7513031D02*
X3295705Y-7532079D01*
X3295705Y-7532079D02*
X3305229Y-7570174D01*
X3305229Y-7570174D02*
X3305229Y-7617793D01*
X3305229Y-7617793D02*
X3295705Y-7655888D01*
X3295705Y-7655888D02*
X3286182Y-7674936D01*
X3286182Y-7674936D02*
X3276658Y-7684460D01*
X3276658Y-7684460D02*
X3257610Y-7693984D01*
X3257610Y-7693984D02*
X3238562Y-7693984D01*
X3238562Y-7693984D02*
X3219515Y-7684460D01*
X3219515Y-7684460D02*
X3209991Y-7674936D01*
X3209991Y-7674936D02*
X3200467Y-7655888D01*
X3200467Y-7655888D02*
X3190943Y-7617793D01*
X3190943Y-7617793D02*
X3190943Y-7570174D01*
X3190943Y-7570174D02*
X3200467Y-7532079D01*
X3200467Y-7532079D02*
X3209991Y-7513031D01*
X3209991Y-7513031D02*
X3219515Y-7503508D01*
X3219515Y-7503508D02*
X3238562Y-7493984D01*
X3429039Y-7493984D02*
X3448086Y-7493984D01*
X3448086Y-7493984D02*
X3467134Y-7503508D01*
X3467134Y-7503508D02*
X3476658Y-7513031D01*
X3476658Y-7513031D02*
X3486182Y-7532079D01*
X3486182Y-7532079D02*
X3495705Y-7570174D01*
X3495705Y-7570174D02*
X3495705Y-7617793D01*
X3495705Y-7617793D02*
X3486182Y-7655888D01*
X3486182Y-7655888D02*
X3476658Y-7674936D01*
X3476658Y-7674936D02*
X3467134Y-7684460D01*
X3467134Y-7684460D02*
X3448086Y-7693984D01*
X3448086Y-7693984D02*
X3429039Y-7693984D01*
X3429039Y-7693984D02*
X3409991Y-7684460D01*
X3409991Y-7684460D02*
X3400467Y-7674936D01*
X3400467Y-7674936D02*
X3390943Y-7655888D01*
X3390943Y-7655888D02*
X3381420Y-7617793D01*
X3381420Y-7617793D02*
X3381420Y-7570174D01*
X3381420Y-7570174D02*
X3390943Y-7532079D01*
X3390943Y-7532079D02*
X3400467Y-7513031D01*
X3400467Y-7513031D02*
X3409991Y-7503508D01*
X3409991Y-7503508D02*
X3429039Y-7493984D01*
X3581420Y-7693984D02*
X3581420Y-7560650D01*
X3581420Y-7579698D02*
X3590943Y-7570174D01*
X3590943Y-7570174D02*
X3609991Y-7560650D01*
X3609991Y-7560650D02*
X3638563Y-7560650D01*
X3638563Y-7560650D02*
X3657610Y-7570174D01*
X3657610Y-7570174D02*
X3667134Y-7589222D01*
X3667134Y-7589222D02*
X3667134Y-7693984D01*
X3667134Y-7589222D02*
X3676658Y-7570174D01*
X3676658Y-7570174D02*
X3695705Y-7560650D01*
X3695705Y-7560650D02*
X3724277Y-7560650D01*
X3724277Y-7560650D02*
X3743324Y-7570174D01*
X3743324Y-7570174D02*
X3752848Y-7589222D01*
X3752848Y-7589222D02*
X3752848Y-7693984D01*
X3848086Y-7693984D02*
X3848086Y-7560650D01*
X3848086Y-7579698D02*
X3857610Y-7570174D01*
X3857610Y-7570174D02*
X3876658Y-7560650D01*
X3876658Y-7560650D02*
X3905229Y-7560650D01*
X3905229Y-7560650D02*
X3924277Y-7570174D01*
X3924277Y-7570174D02*
X3933801Y-7589222D01*
X3933801Y-7589222D02*
X3933801Y-7693984D01*
X3933801Y-7589222D02*
X3943324Y-7570174D01*
X3943324Y-7570174D02*
X3962372Y-7560650D01*
X3962372Y-7560650D02*
X3990943Y-7560650D01*
X3990943Y-7560650D02*
X4009991Y-7570174D01*
X4009991Y-7570174D02*
X4019515Y-7589222D01*
X4019515Y-7589222D02*
X4019515Y-7693984D01*
X4409991Y-7484460D02*
X4238563Y-7741603D01*
X4667134Y-7493984D02*
X4686182Y-7493984D01*
X4686182Y-7493984D02*
X4705229Y-7503508D01*
X4705229Y-7503508D02*
X4714753Y-7513031D01*
X4714753Y-7513031D02*
X4724277Y-7532079D01*
X4724277Y-7532079D02*
X4733801Y-7570174D01*
X4733801Y-7570174D02*
X4733801Y-7617793D01*
X4733801Y-7617793D02*
X4724277Y-7655888D01*
X4724277Y-7655888D02*
X4714753Y-7674936D01*
X4714753Y-7674936D02*
X4705229Y-7684460D01*
X4705229Y-7684460D02*
X4686182Y-7693984D01*
X4686182Y-7693984D02*
X4667134Y-7693984D01*
X4667134Y-7693984D02*
X4648087Y-7684460D01*
X4648087Y-7684460D02*
X4638563Y-7674936D01*
X4638563Y-7674936D02*
X4629039Y-7655888D01*
X4629039Y-7655888D02*
X4619515Y-7617793D01*
X4619515Y-7617793D02*
X4619515Y-7570174D01*
X4619515Y-7570174D02*
X4629039Y-7532079D01*
X4629039Y-7532079D02*
X4638563Y-7513031D01*
X4638563Y-7513031D02*
X4648087Y-7503508D01*
X4648087Y-7503508D02*
X4667134Y-7493984D01*
X4819515Y-7674936D02*
X4829039Y-7684460D01*
X4829039Y-7684460D02*
X4819515Y-7693984D01*
X4819515Y-7693984D02*
X4809991Y-7684460D01*
X4809991Y-7684460D02*
X4819515Y-7674936D01*
X4819515Y-7674936D02*
X4819515Y-7693984D01*
X4952848Y-7493984D02*
X4971896Y-7493984D01*
X4971896Y-7493984D02*
X4990944Y-7503508D01*
X4990944Y-7503508D02*
X5000468Y-7513031D01*
X5000468Y-7513031D02*
X5009991Y-7532079D01*
X5009991Y-7532079D02*
X5019515Y-7570174D01*
X5019515Y-7570174D02*
X5019515Y-7617793D01*
X5019515Y-7617793D02*
X5009991Y-7655888D01*
X5009991Y-7655888D02*
X5000468Y-7674936D01*
X5000468Y-7674936D02*
X4990944Y-7684460D01*
X4990944Y-7684460D02*
X4971896Y-7693984D01*
X4971896Y-7693984D02*
X4952848Y-7693984D01*
X4952848Y-7693984D02*
X4933801Y-7684460D01*
X4933801Y-7684460D02*
X4924277Y-7674936D01*
X4924277Y-7674936D02*
X4914753Y-7655888D01*
X4914753Y-7655888D02*
X4905229Y-7617793D01*
X4905229Y-7617793D02*
X4905229Y-7570174D01*
X4905229Y-7570174D02*
X4914753Y-7532079D01*
X4914753Y-7532079D02*
X4924277Y-7513031D01*
X4924277Y-7513031D02*
X4933801Y-7503508D01*
X4933801Y-7503508D02*
X4952848Y-7493984D01*
X5200468Y-7493984D02*
X5105229Y-7493984D01*
X5105229Y-7493984D02*
X5095706Y-7589222D01*
X5095706Y-7589222D02*
X5105229Y-7579698D01*
X5105229Y-7579698D02*
X5124277Y-7570174D01*
X5124277Y-7570174D02*
X5171896Y-7570174D01*
X5171896Y-7570174D02*
X5190944Y-7579698D01*
X5190944Y-7579698D02*
X5200468Y-7589222D01*
X5200468Y-7589222D02*
X5209991Y-7608269D01*
X5209991Y-7608269D02*
X5209991Y-7655888D01*
X5209991Y-7655888D02*
X5200468Y-7674936D01*
X5200468Y-7674936D02*
X5190944Y-7684460D01*
X5190944Y-7684460D02*
X5171896Y-7693984D01*
X5171896Y-7693984D02*
X5124277Y-7693984D01*
X5124277Y-7693984D02*
X5105229Y-7684460D01*
X5105229Y-7684460D02*
X5095706Y-7674936D01*
X5305229Y-7693984D02*
X5343325Y-7693984D01*
X5343325Y-7693984D02*
X5362372Y-7684460D01*
X5362372Y-7684460D02*
X5371896Y-7674936D01*
X5371896Y-7674936D02*
X5390944Y-7646365D01*
X5390944Y-7646365D02*
X5400468Y-7608269D01*
X5400468Y-7608269D02*
X5400468Y-7532079D01*
X5400468Y-7532079D02*
X5390944Y-7513031D01*
X5390944Y-7513031D02*
X5381420Y-7503508D01*
X5381420Y-7503508D02*
X5362372Y-7493984D01*
X5362372Y-7493984D02*
X5324277Y-7493984D01*
X5324277Y-7493984D02*
X5305229Y-7503508D01*
X5305229Y-7503508D02*
X5295706Y-7513031D01*
X5295706Y-7513031D02*
X5286182Y-7532079D01*
X5286182Y-7532079D02*
X5286182Y-7579698D01*
X5286182Y-7579698D02*
X5295706Y-7598746D01*
X5295706Y-7598746D02*
X5305229Y-7608269D01*
X5305229Y-7608269D02*
X5324277Y-7617793D01*
X5324277Y-7617793D02*
X5362372Y-7617793D01*
X5362372Y-7617793D02*
X5381420Y-7608269D01*
X5381420Y-7608269D02*
X5390944Y-7598746D01*
X5390944Y-7598746D02*
X5400468Y-7579698D01*
X5590944Y-7693984D02*
X5476658Y-7693984D01*
X5533801Y-7693984D02*
X5533801Y-7493984D01*
X5533801Y-7493984D02*
X5514753Y-7522555D01*
X5514753Y-7522555D02*
X5495706Y-7541603D01*
X5495706Y-7541603D02*
X5476658Y-7551127D01*
X5667134Y-7493984D02*
X5667134Y-7532079D01*
X5743325Y-7493984D02*
X5743325Y-7532079D01*
X6038563Y-7770174D02*
X6029039Y-7760650D01*
X6029039Y-7760650D02*
X6009991Y-7732079D01*
X6009991Y-7732079D02*
X6000468Y-7713031D01*
X6000468Y-7713031D02*
X5990944Y-7684460D01*
X5990944Y-7684460D02*
X5981420Y-7636841D01*
X5981420Y-7636841D02*
X5981420Y-7598746D01*
X5981420Y-7598746D02*
X5990944Y-7551127D01*
X5990944Y-7551127D02*
X6000468Y-7522555D01*
X6000468Y-7522555D02*
X6009991Y-7503508D01*
X6009991Y-7503508D02*
X6029039Y-7474936D01*
X6029039Y-7474936D02*
X6038563Y-7465412D01*
X6105229Y-7513031D02*
X6114753Y-7503508D01*
X6114753Y-7503508D02*
X6133801Y-7493984D01*
X6133801Y-7493984D02*
X6181420Y-7493984D01*
X6181420Y-7493984D02*
X6200468Y-7503508D01*
X6200468Y-7503508D02*
X6209991Y-7513031D01*
X6209991Y-7513031D02*
X6219515Y-7532079D01*
X6219515Y-7532079D02*
X6219515Y-7551127D01*
X6219515Y-7551127D02*
X6209991Y-7579698D01*
X6209991Y-7579698D02*
X6095706Y-7693984D01*
X6095706Y-7693984D02*
X6219515Y-7693984D01*
X6457610Y-7693984D02*
X6457610Y-7493984D01*
X6543325Y-7693984D02*
X6543325Y-7589222D01*
X6543325Y-7589222D02*
X6533801Y-7570174D01*
X6533801Y-7570174D02*
X6514753Y-7560650D01*
X6514753Y-7560650D02*
X6486182Y-7560650D01*
X6486182Y-7560650D02*
X6467134Y-7570174D01*
X6467134Y-7570174D02*
X6457610Y-7579698D01*
X6667134Y-7693984D02*
X6648087Y-7684460D01*
X6648087Y-7684460D02*
X6638563Y-7674936D01*
X6638563Y-7674936D02*
X6629039Y-7655888D01*
X6629039Y-7655888D02*
X6629039Y-7598746D01*
X6629039Y-7598746D02*
X6638563Y-7579698D01*
X6638563Y-7579698D02*
X6648087Y-7570174D01*
X6648087Y-7570174D02*
X6667134Y-7560650D01*
X6667134Y-7560650D02*
X6695706Y-7560650D01*
X6695706Y-7560650D02*
X6714753Y-7570174D01*
X6714753Y-7570174D02*
X6724277Y-7579698D01*
X6724277Y-7579698D02*
X6733801Y-7598746D01*
X6733801Y-7598746D02*
X6733801Y-7655888D01*
X6733801Y-7655888D02*
X6724277Y-7674936D01*
X6724277Y-7674936D02*
X6714753Y-7684460D01*
X6714753Y-7684460D02*
X6695706Y-7693984D01*
X6695706Y-7693984D02*
X6667134Y-7693984D01*
X6848087Y-7693984D02*
X6829039Y-7684460D01*
X6829039Y-7684460D02*
X6819515Y-7665412D01*
X6819515Y-7665412D02*
X6819515Y-7493984D01*
X7000468Y-7684460D02*
X6981420Y-7693984D01*
X6981420Y-7693984D02*
X6943325Y-7693984D01*
X6943325Y-7693984D02*
X6924277Y-7684460D01*
X6924277Y-7684460D02*
X6914753Y-7665412D01*
X6914753Y-7665412D02*
X6914753Y-7589222D01*
X6914753Y-7589222D02*
X6924277Y-7570174D01*
X6924277Y-7570174D02*
X6943325Y-7560650D01*
X6943325Y-7560650D02*
X6981420Y-7560650D01*
X6981420Y-7560650D02*
X7000468Y-7570174D01*
X7000468Y-7570174D02*
X7009991Y-7589222D01*
X7009991Y-7589222D02*
X7009991Y-7608269D01*
X7009991Y-7608269D02*
X6914753Y-7627317D01*
X7086182Y-7684460D02*
X7105230Y-7693984D01*
X7105230Y-7693984D02*
X7143325Y-7693984D01*
X7143325Y-7693984D02*
X7162372Y-7684460D01*
X7162372Y-7684460D02*
X7171896Y-7665412D01*
X7171896Y-7665412D02*
X7171896Y-7655888D01*
X7171896Y-7655888D02*
X7162372Y-7636841D01*
X7162372Y-7636841D02*
X7143325Y-7627317D01*
X7143325Y-7627317D02*
X7114753Y-7627317D01*
X7114753Y-7627317D02*
X7095706Y-7617793D01*
X7095706Y-7617793D02*
X7086182Y-7598746D01*
X7086182Y-7598746D02*
X7086182Y-7589222D01*
X7086182Y-7589222D02*
X7095706Y-7570174D01*
X7095706Y-7570174D02*
X7114753Y-7560650D01*
X7114753Y-7560650D02*
X7143325Y-7560650D01*
X7143325Y-7560650D02*
X7162372Y-7570174D01*
X7238563Y-7770174D02*
X7248087Y-7760650D01*
X7248087Y-7760650D02*
X7267134Y-7732079D01*
X7267134Y-7732079D02*
X7276658Y-7713031D01*
X7276658Y-7713031D02*
X7286182Y-7684460D01*
X7286182Y-7684460D02*
X7295706Y-7636841D01*
X7295706Y-7636841D02*
X7295706Y-7598746D01*
X7295706Y-7598746D02*
X7286182Y-7551127D01*
X7286182Y-7551127D02*
X7276658Y-7522555D01*
X7276658Y-7522555D02*
X7267134Y-7503508D01*
X7267134Y-7503508D02*
X7248087Y-7474936D01*
X7248087Y-7474936D02*
X7238563Y-7465412D01*
D15*
X2438605Y-7932605D02*
X2438605Y-7812395D01*
X2318395Y-7812395D01*
X2318395Y-7932605D01*
X2438605Y-7932605D01*
D11*
X2829039Y-7963984D02*
X2714753Y-7963984D01*
X2771896Y-7963984D02*
X2771896Y-7763984D01*
X2771896Y-7763984D02*
X2752848Y-7792555D01*
X2752848Y-7792555D02*
X2733801Y-7811603D01*
X2733801Y-7811603D02*
X2714753Y-7821127D01*
X2914753Y-7944936D02*
X2924277Y-7954460D01*
X2924277Y-7954460D02*
X2914753Y-7963984D01*
X2914753Y-7963984D02*
X2905229Y-7954460D01*
X2905229Y-7954460D02*
X2914753Y-7944936D01*
X2914753Y-7944936D02*
X2914753Y-7963984D01*
X2990943Y-7763984D02*
X3124277Y-7763984D01*
X3124277Y-7763984D02*
X3038562Y-7963984D01*
X3238562Y-7763984D02*
X3257610Y-7763984D01*
X3257610Y-7763984D02*
X3276658Y-7773508D01*
X3276658Y-7773508D02*
X3286182Y-7783031D01*
X3286182Y-7783031D02*
X3295705Y-7802079D01*
X3295705Y-7802079D02*
X3305229Y-7840174D01*
X3305229Y-7840174D02*
X3305229Y-7887793D01*
X3305229Y-7887793D02*
X3295705Y-7925888D01*
X3295705Y-7925888D02*
X3286182Y-7944936D01*
X3286182Y-7944936D02*
X3276658Y-7954460D01*
X3276658Y-7954460D02*
X3257610Y-7963984D01*
X3257610Y-7963984D02*
X3238562Y-7963984D01*
X3238562Y-7963984D02*
X3219515Y-7954460D01*
X3219515Y-7954460D02*
X3209991Y-7944936D01*
X3209991Y-7944936D02*
X3200467Y-7925888D01*
X3200467Y-7925888D02*
X3190943Y-7887793D01*
X3190943Y-7887793D02*
X3190943Y-7840174D01*
X3190943Y-7840174D02*
X3200467Y-7802079D01*
X3200467Y-7802079D02*
X3209991Y-7783031D01*
X3209991Y-7783031D02*
X3219515Y-7773508D01*
X3219515Y-7773508D02*
X3238562Y-7763984D01*
X3429039Y-7763984D02*
X3448086Y-7763984D01*
X3448086Y-7763984D02*
X3467134Y-7773508D01*
X3467134Y-7773508D02*
X3476658Y-7783031D01*
X3476658Y-7783031D02*
X3486182Y-7802079D01*
X3486182Y-7802079D02*
X3495705Y-7840174D01*
X3495705Y-7840174D02*
X3495705Y-7887793D01*
X3495705Y-7887793D02*
X3486182Y-7925888D01*
X3486182Y-7925888D02*
X3476658Y-7944936D01*
X3476658Y-7944936D02*
X3467134Y-7954460D01*
X3467134Y-7954460D02*
X3448086Y-7963984D01*
X3448086Y-7963984D02*
X3429039Y-7963984D01*
X3429039Y-7963984D02*
X3409991Y-7954460D01*
X3409991Y-7954460D02*
X3400467Y-7944936D01*
X3400467Y-7944936D02*
X3390943Y-7925888D01*
X3390943Y-7925888D02*
X3381420Y-7887793D01*
X3381420Y-7887793D02*
X3381420Y-7840174D01*
X3381420Y-7840174D02*
X3390943Y-7802079D01*
X3390943Y-7802079D02*
X3400467Y-7783031D01*
X3400467Y-7783031D02*
X3409991Y-7773508D01*
X3409991Y-7773508D02*
X3429039Y-7763984D01*
X3581420Y-7963984D02*
X3581420Y-7830650D01*
X3581420Y-7849698D02*
X3590943Y-7840174D01*
X3590943Y-7840174D02*
X3609991Y-7830650D01*
X3609991Y-7830650D02*
X3638563Y-7830650D01*
X3638563Y-7830650D02*
X3657610Y-7840174D01*
X3657610Y-7840174D02*
X3667134Y-7859222D01*
X3667134Y-7859222D02*
X3667134Y-7963984D01*
X3667134Y-7859222D02*
X3676658Y-7840174D01*
X3676658Y-7840174D02*
X3695705Y-7830650D01*
X3695705Y-7830650D02*
X3724277Y-7830650D01*
X3724277Y-7830650D02*
X3743324Y-7840174D01*
X3743324Y-7840174D02*
X3752848Y-7859222D01*
X3752848Y-7859222D02*
X3752848Y-7963984D01*
X3848086Y-7963984D02*
X3848086Y-7830650D01*
X3848086Y-7849698D02*
X3857610Y-7840174D01*
X3857610Y-7840174D02*
X3876658Y-7830650D01*
X3876658Y-7830650D02*
X3905229Y-7830650D01*
X3905229Y-7830650D02*
X3924277Y-7840174D01*
X3924277Y-7840174D02*
X3933801Y-7859222D01*
X3933801Y-7859222D02*
X3933801Y-7963984D01*
X3933801Y-7859222D02*
X3943324Y-7840174D01*
X3943324Y-7840174D02*
X3962372Y-7830650D01*
X3962372Y-7830650D02*
X3990943Y-7830650D01*
X3990943Y-7830650D02*
X4009991Y-7840174D01*
X4009991Y-7840174D02*
X4019515Y-7859222D01*
X4019515Y-7859222D02*
X4019515Y-7963984D01*
X4409991Y-7754460D02*
X4238563Y-8011603D01*
X4667134Y-7763984D02*
X4686182Y-7763984D01*
X4686182Y-7763984D02*
X4705229Y-7773508D01*
X4705229Y-7773508D02*
X4714753Y-7783031D01*
X4714753Y-7783031D02*
X4724277Y-7802079D01*
X4724277Y-7802079D02*
X4733801Y-7840174D01*
X4733801Y-7840174D02*
X4733801Y-7887793D01*
X4733801Y-7887793D02*
X4724277Y-7925888D01*
X4724277Y-7925888D02*
X4714753Y-7944936D01*
X4714753Y-7944936D02*
X4705229Y-7954460D01*
X4705229Y-7954460D02*
X4686182Y-7963984D01*
X4686182Y-7963984D02*
X4667134Y-7963984D01*
X4667134Y-7963984D02*
X4648087Y-7954460D01*
X4648087Y-7954460D02*
X4638563Y-7944936D01*
X4638563Y-7944936D02*
X4629039Y-7925888D01*
X4629039Y-7925888D02*
X4619515Y-7887793D01*
X4619515Y-7887793D02*
X4619515Y-7840174D01*
X4619515Y-7840174D02*
X4629039Y-7802079D01*
X4629039Y-7802079D02*
X4638563Y-7783031D01*
X4638563Y-7783031D02*
X4648087Y-7773508D01*
X4648087Y-7773508D02*
X4667134Y-7763984D01*
X4819515Y-7944936D02*
X4829039Y-7954460D01*
X4829039Y-7954460D02*
X4819515Y-7963984D01*
X4819515Y-7963984D02*
X4809991Y-7954460D01*
X4809991Y-7954460D02*
X4819515Y-7944936D01*
X4819515Y-7944936D02*
X4819515Y-7963984D01*
X4952848Y-7763984D02*
X4971896Y-7763984D01*
X4971896Y-7763984D02*
X4990944Y-7773508D01*
X4990944Y-7773508D02*
X5000468Y-7783031D01*
X5000468Y-7783031D02*
X5009991Y-7802079D01*
X5009991Y-7802079D02*
X5019515Y-7840174D01*
X5019515Y-7840174D02*
X5019515Y-7887793D01*
X5019515Y-7887793D02*
X5009991Y-7925888D01*
X5009991Y-7925888D02*
X5000468Y-7944936D01*
X5000468Y-7944936D02*
X4990944Y-7954460D01*
X4990944Y-7954460D02*
X4971896Y-7963984D01*
X4971896Y-7963984D02*
X4952848Y-7963984D01*
X4952848Y-7963984D02*
X4933801Y-7954460D01*
X4933801Y-7954460D02*
X4924277Y-7944936D01*
X4924277Y-7944936D02*
X4914753Y-7925888D01*
X4914753Y-7925888D02*
X4905229Y-7887793D01*
X4905229Y-7887793D02*
X4905229Y-7840174D01*
X4905229Y-7840174D02*
X4914753Y-7802079D01*
X4914753Y-7802079D02*
X4924277Y-7783031D01*
X4924277Y-7783031D02*
X4933801Y-7773508D01*
X4933801Y-7773508D02*
X4952848Y-7763984D01*
X5190944Y-7763984D02*
X5152848Y-7763984D01*
X5152848Y-7763984D02*
X5133801Y-7773508D01*
X5133801Y-7773508D02*
X5124277Y-7783031D01*
X5124277Y-7783031D02*
X5105229Y-7811603D01*
X5105229Y-7811603D02*
X5095706Y-7849698D01*
X5095706Y-7849698D02*
X5095706Y-7925888D01*
X5095706Y-7925888D02*
X5105229Y-7944936D01*
X5105229Y-7944936D02*
X5114753Y-7954460D01*
X5114753Y-7954460D02*
X5133801Y-7963984D01*
X5133801Y-7963984D02*
X5171896Y-7963984D01*
X5171896Y-7963984D02*
X5190944Y-7954460D01*
X5190944Y-7954460D02*
X5200468Y-7944936D01*
X5200468Y-7944936D02*
X5209991Y-7925888D01*
X5209991Y-7925888D02*
X5209991Y-7878269D01*
X5209991Y-7878269D02*
X5200468Y-7859222D01*
X5200468Y-7859222D02*
X5190944Y-7849698D01*
X5190944Y-7849698D02*
X5171896Y-7840174D01*
X5171896Y-7840174D02*
X5133801Y-7840174D01*
X5133801Y-7840174D02*
X5114753Y-7849698D01*
X5114753Y-7849698D02*
X5105229Y-7859222D01*
X5105229Y-7859222D02*
X5095706Y-7878269D01*
X5381420Y-7763984D02*
X5343325Y-7763984D01*
X5343325Y-7763984D02*
X5324277Y-7773508D01*
X5324277Y-7773508D02*
X5314753Y-7783031D01*
X5314753Y-7783031D02*
X5295706Y-7811603D01*
X5295706Y-7811603D02*
X5286182Y-7849698D01*
X5286182Y-7849698D02*
X5286182Y-7925888D01*
X5286182Y-7925888D02*
X5295706Y-7944936D01*
X5295706Y-7944936D02*
X5305229Y-7954460D01*
X5305229Y-7954460D02*
X5324277Y-7963984D01*
X5324277Y-7963984D02*
X5362372Y-7963984D01*
X5362372Y-7963984D02*
X5381420Y-7954460D01*
X5381420Y-7954460D02*
X5390944Y-7944936D01*
X5390944Y-7944936D02*
X5400468Y-7925888D01*
X5400468Y-7925888D02*
X5400468Y-7878269D01*
X5400468Y-7878269D02*
X5390944Y-7859222D01*
X5390944Y-7859222D02*
X5381420Y-7849698D01*
X5381420Y-7849698D02*
X5362372Y-7840174D01*
X5362372Y-7840174D02*
X5324277Y-7840174D01*
X5324277Y-7840174D02*
X5305229Y-7849698D01*
X5305229Y-7849698D02*
X5295706Y-7859222D01*
X5295706Y-7859222D02*
X5286182Y-7878269D01*
X5495706Y-7963984D02*
X5533801Y-7963984D01*
X5533801Y-7963984D02*
X5552849Y-7954460D01*
X5552849Y-7954460D02*
X5562372Y-7944936D01*
X5562372Y-7944936D02*
X5581420Y-7916365D01*
X5581420Y-7916365D02*
X5590944Y-7878269D01*
X5590944Y-7878269D02*
X5590944Y-7802079D01*
X5590944Y-7802079D02*
X5581420Y-7783031D01*
X5581420Y-7783031D02*
X5571896Y-7773508D01*
X5571896Y-7773508D02*
X5552849Y-7763984D01*
X5552849Y-7763984D02*
X5514753Y-7763984D01*
X5514753Y-7763984D02*
X5495706Y-7773508D01*
X5495706Y-7773508D02*
X5486182Y-7783031D01*
X5486182Y-7783031D02*
X5476658Y-7802079D01*
X5476658Y-7802079D02*
X5476658Y-7849698D01*
X5476658Y-7849698D02*
X5486182Y-7868746D01*
X5486182Y-7868746D02*
X5495706Y-7878269D01*
X5495706Y-7878269D02*
X5514753Y-7887793D01*
X5514753Y-7887793D02*
X5552849Y-7887793D01*
X5552849Y-7887793D02*
X5571896Y-7878269D01*
X5571896Y-7878269D02*
X5581420Y-7868746D01*
X5581420Y-7868746D02*
X5590944Y-7849698D01*
X5667134Y-7763984D02*
X5667134Y-7802079D01*
X5743325Y-7763984D02*
X5743325Y-7802079D01*
X6038563Y-8040174D02*
X6029039Y-8030650D01*
X6029039Y-8030650D02*
X6009991Y-8002079D01*
X6009991Y-8002079D02*
X6000468Y-7983031D01*
X6000468Y-7983031D02*
X5990944Y-7954460D01*
X5990944Y-7954460D02*
X5981420Y-7906841D01*
X5981420Y-7906841D02*
X5981420Y-7868746D01*
X5981420Y-7868746D02*
X5990944Y-7821127D01*
X5990944Y-7821127D02*
X6000468Y-7792555D01*
X6000468Y-7792555D02*
X6009991Y-7773508D01*
X6009991Y-7773508D02*
X6029039Y-7744936D01*
X6029039Y-7744936D02*
X6038563Y-7735412D01*
X6143325Y-7849698D02*
X6124277Y-7840174D01*
X6124277Y-7840174D02*
X6114753Y-7830650D01*
X6114753Y-7830650D02*
X6105229Y-7811603D01*
X6105229Y-7811603D02*
X6105229Y-7802079D01*
X6105229Y-7802079D02*
X6114753Y-7783031D01*
X6114753Y-7783031D02*
X6124277Y-7773508D01*
X6124277Y-7773508D02*
X6143325Y-7763984D01*
X6143325Y-7763984D02*
X6181420Y-7763984D01*
X6181420Y-7763984D02*
X6200468Y-7773508D01*
X6200468Y-7773508D02*
X6209991Y-7783031D01*
X6209991Y-7783031D02*
X6219515Y-7802079D01*
X6219515Y-7802079D02*
X6219515Y-7811603D01*
X6219515Y-7811603D02*
X6209991Y-7830650D01*
X6209991Y-7830650D02*
X6200468Y-7840174D01*
X6200468Y-7840174D02*
X6181420Y-7849698D01*
X6181420Y-7849698D02*
X6143325Y-7849698D01*
X6143325Y-7849698D02*
X6124277Y-7859222D01*
X6124277Y-7859222D02*
X6114753Y-7868746D01*
X6114753Y-7868746D02*
X6105229Y-7887793D01*
X6105229Y-7887793D02*
X6105229Y-7925888D01*
X6105229Y-7925888D02*
X6114753Y-7944936D01*
X6114753Y-7944936D02*
X6124277Y-7954460D01*
X6124277Y-7954460D02*
X6143325Y-7963984D01*
X6143325Y-7963984D02*
X6181420Y-7963984D01*
X6181420Y-7963984D02*
X6200468Y-7954460D01*
X6200468Y-7954460D02*
X6209991Y-7944936D01*
X6209991Y-7944936D02*
X6219515Y-7925888D01*
X6219515Y-7925888D02*
X6219515Y-7887793D01*
X6219515Y-7887793D02*
X6209991Y-7868746D01*
X6209991Y-7868746D02*
X6200468Y-7859222D01*
X6200468Y-7859222D02*
X6181420Y-7849698D01*
X6457610Y-7963984D02*
X6457610Y-7763984D01*
X6543325Y-7963984D02*
X6543325Y-7859222D01*
X6543325Y-7859222D02*
X6533801Y-7840174D01*
X6533801Y-7840174D02*
X6514753Y-7830650D01*
X6514753Y-7830650D02*
X6486182Y-7830650D01*
X6486182Y-7830650D02*
X6467134Y-7840174D01*
X6467134Y-7840174D02*
X6457610Y-7849698D01*
X6667134Y-7963984D02*
X6648087Y-7954460D01*
X6648087Y-7954460D02*
X6638563Y-7944936D01*
X6638563Y-7944936D02*
X6629039Y-7925888D01*
X6629039Y-7925888D02*
X6629039Y-7868746D01*
X6629039Y-7868746D02*
X6638563Y-7849698D01*
X6638563Y-7849698D02*
X6648087Y-7840174D01*
X6648087Y-7840174D02*
X6667134Y-7830650D01*
X6667134Y-7830650D02*
X6695706Y-7830650D01*
X6695706Y-7830650D02*
X6714753Y-7840174D01*
X6714753Y-7840174D02*
X6724277Y-7849698D01*
X6724277Y-7849698D02*
X6733801Y-7868746D01*
X6733801Y-7868746D02*
X6733801Y-7925888D01*
X6733801Y-7925888D02*
X6724277Y-7944936D01*
X6724277Y-7944936D02*
X6714753Y-7954460D01*
X6714753Y-7954460D02*
X6695706Y-7963984D01*
X6695706Y-7963984D02*
X6667134Y-7963984D01*
X6848087Y-7963984D02*
X6829039Y-7954460D01*
X6829039Y-7954460D02*
X6819515Y-7935412D01*
X6819515Y-7935412D02*
X6819515Y-7763984D01*
X7000468Y-7954460D02*
X6981420Y-7963984D01*
X6981420Y-7963984D02*
X6943325Y-7963984D01*
X6943325Y-7963984D02*
X6924277Y-7954460D01*
X6924277Y-7954460D02*
X6914753Y-7935412D01*
X6914753Y-7935412D02*
X6914753Y-7859222D01*
X6914753Y-7859222D02*
X6924277Y-7840174D01*
X6924277Y-7840174D02*
X6943325Y-7830650D01*
X6943325Y-7830650D02*
X6981420Y-7830650D01*
X6981420Y-7830650D02*
X7000468Y-7840174D01*
X7000468Y-7840174D02*
X7009991Y-7859222D01*
X7009991Y-7859222D02*
X7009991Y-7878269D01*
X7009991Y-7878269D02*
X6914753Y-7897317D01*
X7086182Y-7954460D02*
X7105230Y-7963984D01*
X7105230Y-7963984D02*
X7143325Y-7963984D01*
X7143325Y-7963984D02*
X7162372Y-7954460D01*
X7162372Y-7954460D02*
X7171896Y-7935412D01*
X7171896Y-7935412D02*
X7171896Y-7925888D01*
X7171896Y-7925888D02*
X7162372Y-7906841D01*
X7162372Y-7906841D02*
X7143325Y-7897317D01*
X7143325Y-7897317D02*
X7114753Y-7897317D01*
X7114753Y-7897317D02*
X7095706Y-7887793D01*
X7095706Y-7887793D02*
X7086182Y-7868746D01*
X7086182Y-7868746D02*
X7086182Y-7859222D01*
X7086182Y-7859222D02*
X7095706Y-7840174D01*
X7095706Y-7840174D02*
X7114753Y-7830650D01*
X7114753Y-7830650D02*
X7143325Y-7830650D01*
X7143325Y-7830650D02*
X7162372Y-7840174D01*
X7238563Y-8040174D02*
X7248087Y-8030650D01*
X7248087Y-8030650D02*
X7267134Y-8002079D01*
X7267134Y-8002079D02*
X7276658Y-7983031D01*
X7276658Y-7983031D02*
X7286182Y-7954460D01*
X7286182Y-7954460D02*
X7295706Y-7906841D01*
X7295706Y-7906841D02*
X7295706Y-7868746D01*
X7295706Y-7868746D02*
X7286182Y-7821127D01*
X7286182Y-7821127D02*
X7276658Y-7792555D01*
X7276658Y-7792555D02*
X7267134Y-7773508D01*
X7267134Y-7773508D02*
X7248087Y-7744936D01*
X7248087Y-7744936D02*
X7238563Y-7735412D01*
M02*
