%TF.GenerationSoftware,KiCad,Pcbnew,7.0.5*%
%TF.CreationDate,2023-06-20T08:34:55-05:00*%
%TF.ProjectId,Single.Channel.Amp,53696e67-6c65-42e4-9368-616e6e656c2e,rev?*%
%TF.SameCoordinates,Original*%
%TF.FileFunction,Legend,Top*%
%TF.FilePolarity,Positive*%
%FSLAX46Y46*%
G04 Gerber Fmt 4.6, Leading zero omitted, Abs format (unit mm)*
G04 Created by KiCad (PCBNEW 7.0.5) date 2023-06-20 08:34:55*
%MOMM*%
%LPD*%
G01*
G04 APERTURE LIST*
%ADD10C,0.300000*%
%ADD11C,0.150000*%
%ADD12C,0.100000*%
%ADD13C,0.120000*%
G04 APERTURE END LIST*
D10*
X40194510Y-22599400D02*
X41337368Y-22599400D01*
X40765939Y-23170828D02*
X40765939Y-22027971D01*
X42837368Y-23170828D02*
X41980225Y-23170828D01*
X42408796Y-23170828D02*
X42408796Y-21670828D01*
X42408796Y-21670828D02*
X42265939Y-21885114D01*
X42265939Y-21885114D02*
X42123082Y-22027971D01*
X42123082Y-22027971D02*
X41980225Y-22099400D01*
X44265939Y-23170828D02*
X43408796Y-23170828D01*
X43837367Y-23170828D02*
X43837367Y-21670828D01*
X43837367Y-21670828D02*
X43694510Y-21885114D01*
X43694510Y-21885114D02*
X43551653Y-22027971D01*
X43551653Y-22027971D02*
X43408796Y-22099400D01*
X35080225Y-59335828D02*
X35365939Y-59335828D01*
X35365939Y-59335828D02*
X35508796Y-59407257D01*
X35508796Y-59407257D02*
X35651653Y-59550114D01*
X35651653Y-59550114D02*
X35723082Y-59835828D01*
X35723082Y-59835828D02*
X35723082Y-60335828D01*
X35723082Y-60335828D02*
X35651653Y-60621542D01*
X35651653Y-60621542D02*
X35508796Y-60764400D01*
X35508796Y-60764400D02*
X35365939Y-60835828D01*
X35365939Y-60835828D02*
X35080225Y-60835828D01*
X35080225Y-60835828D02*
X34937368Y-60764400D01*
X34937368Y-60764400D02*
X34794510Y-60621542D01*
X34794510Y-60621542D02*
X34723082Y-60335828D01*
X34723082Y-60335828D02*
X34723082Y-59835828D01*
X34723082Y-59835828D02*
X34794510Y-59550114D01*
X34794510Y-59550114D02*
X34937368Y-59407257D01*
X34937368Y-59407257D02*
X35080225Y-59335828D01*
X37008797Y-59835828D02*
X37008797Y-60835828D01*
X36365939Y-59835828D02*
X36365939Y-60621542D01*
X36365939Y-60621542D02*
X36437368Y-60764400D01*
X36437368Y-60764400D02*
X36580225Y-60835828D01*
X36580225Y-60835828D02*
X36794511Y-60835828D01*
X36794511Y-60835828D02*
X36937368Y-60764400D01*
X36937368Y-60764400D02*
X37008797Y-60692971D01*
X37508797Y-59835828D02*
X38080225Y-59835828D01*
X37723082Y-59335828D02*
X37723082Y-60621542D01*
X37723082Y-60621542D02*
X37794511Y-60764400D01*
X37794511Y-60764400D02*
X37937368Y-60835828D01*
X37937368Y-60835828D02*
X38080225Y-60835828D01*
X38580225Y-59835828D02*
X38580225Y-61335828D01*
X38580225Y-59907257D02*
X38723083Y-59835828D01*
X38723083Y-59835828D02*
X39008797Y-59835828D01*
X39008797Y-59835828D02*
X39151654Y-59907257D01*
X39151654Y-59907257D02*
X39223083Y-59978685D01*
X39223083Y-59978685D02*
X39294511Y-60121542D01*
X39294511Y-60121542D02*
X39294511Y-60550114D01*
X39294511Y-60550114D02*
X39223083Y-60692971D01*
X39223083Y-60692971D02*
X39151654Y-60764400D01*
X39151654Y-60764400D02*
X39008797Y-60835828D01*
X39008797Y-60835828D02*
X38723083Y-60835828D01*
X38723083Y-60835828D02*
X38580225Y-60764400D01*
X40580226Y-59835828D02*
X40580226Y-60835828D01*
X39937368Y-59835828D02*
X39937368Y-60621542D01*
X39937368Y-60621542D02*
X40008797Y-60764400D01*
X40008797Y-60764400D02*
X40151654Y-60835828D01*
X40151654Y-60835828D02*
X40365940Y-60835828D01*
X40365940Y-60835828D02*
X40508797Y-60764400D01*
X40508797Y-60764400D02*
X40580226Y-60692971D01*
X41080226Y-59835828D02*
X41651654Y-59835828D01*
X41294511Y-59335828D02*
X41294511Y-60621542D01*
X41294511Y-60621542D02*
X41365940Y-60764400D01*
X41365940Y-60764400D02*
X41508797Y-60835828D01*
X41508797Y-60835828D02*
X41651654Y-60835828D01*
X59064510Y-60605828D02*
X59064510Y-59105828D01*
X59778796Y-59605828D02*
X59778796Y-60605828D01*
X59778796Y-59748685D02*
X59850225Y-59677257D01*
X59850225Y-59677257D02*
X59993082Y-59605828D01*
X59993082Y-59605828D02*
X60207368Y-59605828D01*
X60207368Y-59605828D02*
X60350225Y-59677257D01*
X60350225Y-59677257D02*
X60421654Y-59820114D01*
X60421654Y-59820114D02*
X60421654Y-60605828D01*
X61135939Y-59605828D02*
X61135939Y-61105828D01*
X61135939Y-59677257D02*
X61278797Y-59605828D01*
X61278797Y-59605828D02*
X61564511Y-59605828D01*
X61564511Y-59605828D02*
X61707368Y-59677257D01*
X61707368Y-59677257D02*
X61778797Y-59748685D01*
X61778797Y-59748685D02*
X61850225Y-59891542D01*
X61850225Y-59891542D02*
X61850225Y-60320114D01*
X61850225Y-60320114D02*
X61778797Y-60462971D01*
X61778797Y-60462971D02*
X61707368Y-60534400D01*
X61707368Y-60534400D02*
X61564511Y-60605828D01*
X61564511Y-60605828D02*
X61278797Y-60605828D01*
X61278797Y-60605828D02*
X61135939Y-60534400D01*
X63135940Y-59605828D02*
X63135940Y-60605828D01*
X62493082Y-59605828D02*
X62493082Y-60391542D01*
X62493082Y-60391542D02*
X62564511Y-60534400D01*
X62564511Y-60534400D02*
X62707368Y-60605828D01*
X62707368Y-60605828D02*
X62921654Y-60605828D01*
X62921654Y-60605828D02*
X63064511Y-60534400D01*
X63064511Y-60534400D02*
X63135940Y-60462971D01*
X63635940Y-59605828D02*
X64207368Y-59605828D01*
X63850225Y-59105828D02*
X63850225Y-60391542D01*
X63850225Y-60391542D02*
X63921654Y-60534400D01*
X63921654Y-60534400D02*
X64064511Y-60605828D01*
X64064511Y-60605828D02*
X64207368Y-60605828D01*
X55039510Y-22539400D02*
X56182368Y-22539400D01*
X57682368Y-23110828D02*
X56825225Y-23110828D01*
X57253796Y-23110828D02*
X57253796Y-21610828D01*
X57253796Y-21610828D02*
X57110939Y-21825114D01*
X57110939Y-21825114D02*
X56968082Y-21967971D01*
X56968082Y-21967971D02*
X56825225Y-22039400D01*
X59110939Y-23110828D02*
X58253796Y-23110828D01*
X58682367Y-23110828D02*
X58682367Y-21610828D01*
X58682367Y-21610828D02*
X58539510Y-21825114D01*
X58539510Y-21825114D02*
X58396653Y-21967971D01*
X58396653Y-21967971D02*
X58253796Y-22039400D01*
D11*
%TO.C,*%
%TO.C,1.0k\u03A9*%
X57565238Y-37579819D02*
X56993810Y-37579819D01*
X57279524Y-37579819D02*
X57279524Y-36579819D01*
X57279524Y-36579819D02*
X57184286Y-36722676D01*
X57184286Y-36722676D02*
X57089048Y-36817914D01*
X57089048Y-36817914D02*
X56993810Y-36865533D01*
X57993810Y-37484580D02*
X58041429Y-37532200D01*
X58041429Y-37532200D02*
X57993810Y-37579819D01*
X57993810Y-37579819D02*
X57946191Y-37532200D01*
X57946191Y-37532200D02*
X57993810Y-37484580D01*
X57993810Y-37484580D02*
X57993810Y-37579819D01*
X58660476Y-36579819D02*
X58755714Y-36579819D01*
X58755714Y-36579819D02*
X58850952Y-36627438D01*
X58850952Y-36627438D02*
X58898571Y-36675057D01*
X58898571Y-36675057D02*
X58946190Y-36770295D01*
X58946190Y-36770295D02*
X58993809Y-36960771D01*
X58993809Y-36960771D02*
X58993809Y-37198866D01*
X58993809Y-37198866D02*
X58946190Y-37389342D01*
X58946190Y-37389342D02*
X58898571Y-37484580D01*
X58898571Y-37484580D02*
X58850952Y-37532200D01*
X58850952Y-37532200D02*
X58755714Y-37579819D01*
X58755714Y-37579819D02*
X58660476Y-37579819D01*
X58660476Y-37579819D02*
X58565238Y-37532200D01*
X58565238Y-37532200D02*
X58517619Y-37484580D01*
X58517619Y-37484580D02*
X58470000Y-37389342D01*
X58470000Y-37389342D02*
X58422381Y-37198866D01*
X58422381Y-37198866D02*
X58422381Y-36960771D01*
X58422381Y-36960771D02*
X58470000Y-36770295D01*
X58470000Y-36770295D02*
X58517619Y-36675057D01*
X58517619Y-36675057D02*
X58565238Y-36627438D01*
X58565238Y-36627438D02*
X58660476Y-36579819D01*
X59422381Y-37579819D02*
X59422381Y-36579819D01*
X59517619Y-37198866D02*
X59803333Y-37579819D01*
X59803333Y-36913152D02*
X59422381Y-37294104D01*
X60184286Y-37579819D02*
X60422381Y-37579819D01*
X60422381Y-37579819D02*
X60422381Y-37389342D01*
X60422381Y-37389342D02*
X60327143Y-37341723D01*
X60327143Y-37341723D02*
X60231905Y-37246485D01*
X60231905Y-37246485D02*
X60184286Y-37103628D01*
X60184286Y-37103628D02*
X60184286Y-36865533D01*
X60184286Y-36865533D02*
X60231905Y-36722676D01*
X60231905Y-36722676D02*
X60327143Y-36627438D01*
X60327143Y-36627438D02*
X60470000Y-36579819D01*
X60470000Y-36579819D02*
X60660476Y-36579819D01*
X60660476Y-36579819D02*
X60803333Y-36627438D01*
X60803333Y-36627438D02*
X60898571Y-36722676D01*
X60898571Y-36722676D02*
X60946190Y-36865533D01*
X60946190Y-36865533D02*
X60946190Y-37103628D01*
X60946190Y-37103628D02*
X60898571Y-37246485D01*
X60898571Y-37246485D02*
X60803333Y-37341723D01*
X60803333Y-37341723D02*
X60708095Y-37389342D01*
X60708095Y-37389342D02*
X60708095Y-37579819D01*
X60708095Y-37579819D02*
X60946190Y-37579819D01*
%TO.C,10 uF*%
X57352618Y-30139819D02*
X56781190Y-30139819D01*
X57066904Y-30139819D02*
X57066904Y-29139819D01*
X57066904Y-29139819D02*
X56971666Y-29282676D01*
X56971666Y-29282676D02*
X56876428Y-29377914D01*
X56876428Y-29377914D02*
X56781190Y-29425533D01*
X57971666Y-29139819D02*
X58066904Y-29139819D01*
X58066904Y-29139819D02*
X58162142Y-29187438D01*
X58162142Y-29187438D02*
X58209761Y-29235057D01*
X58209761Y-29235057D02*
X58257380Y-29330295D01*
X58257380Y-29330295D02*
X58304999Y-29520771D01*
X58304999Y-29520771D02*
X58304999Y-29758866D01*
X58304999Y-29758866D02*
X58257380Y-29949342D01*
X58257380Y-29949342D02*
X58209761Y-30044580D01*
X58209761Y-30044580D02*
X58162142Y-30092200D01*
X58162142Y-30092200D02*
X58066904Y-30139819D01*
X58066904Y-30139819D02*
X57971666Y-30139819D01*
X57971666Y-30139819D02*
X57876428Y-30092200D01*
X57876428Y-30092200D02*
X57828809Y-30044580D01*
X57828809Y-30044580D02*
X57781190Y-29949342D01*
X57781190Y-29949342D02*
X57733571Y-29758866D01*
X57733571Y-29758866D02*
X57733571Y-29520771D01*
X57733571Y-29520771D02*
X57781190Y-29330295D01*
X57781190Y-29330295D02*
X57828809Y-29235057D01*
X57828809Y-29235057D02*
X57876428Y-29187438D01*
X57876428Y-29187438D02*
X57971666Y-29139819D01*
X59924047Y-29473152D02*
X59924047Y-30139819D01*
X59495476Y-29473152D02*
X59495476Y-29996961D01*
X59495476Y-29996961D02*
X59543095Y-30092200D01*
X59543095Y-30092200D02*
X59638333Y-30139819D01*
X59638333Y-30139819D02*
X59781190Y-30139819D01*
X59781190Y-30139819D02*
X59876428Y-30092200D01*
X59876428Y-30092200D02*
X59924047Y-30044580D01*
X60733571Y-29616009D02*
X60400238Y-29616009D01*
X60400238Y-30139819D02*
X60400238Y-29139819D01*
X60400238Y-29139819D02*
X60876428Y-29139819D01*
%TO.C,4.7\u03A9*%
X45478152Y-47995237D02*
X46144819Y-47995237D01*
X45097200Y-48233332D02*
X45811485Y-48471427D01*
X45811485Y-48471427D02*
X45811485Y-47852380D01*
X46049580Y-47471427D02*
X46097200Y-47423808D01*
X46097200Y-47423808D02*
X46144819Y-47471427D01*
X46144819Y-47471427D02*
X46097200Y-47519046D01*
X46097200Y-47519046D02*
X46049580Y-47471427D01*
X46049580Y-47471427D02*
X46144819Y-47471427D01*
X45144819Y-47090475D02*
X45144819Y-46423809D01*
X45144819Y-46423809D02*
X46144819Y-46852380D01*
X46144819Y-46090475D02*
X46144819Y-45852380D01*
X46144819Y-45852380D02*
X45954342Y-45852380D01*
X45954342Y-45852380D02*
X45906723Y-45947618D01*
X45906723Y-45947618D02*
X45811485Y-46042856D01*
X45811485Y-46042856D02*
X45668628Y-46090475D01*
X45668628Y-46090475D02*
X45430533Y-46090475D01*
X45430533Y-46090475D02*
X45287676Y-46042856D01*
X45287676Y-46042856D02*
X45192438Y-45947618D01*
X45192438Y-45947618D02*
X45144819Y-45804761D01*
X45144819Y-45804761D02*
X45144819Y-45614285D01*
X45144819Y-45614285D02*
X45192438Y-45471428D01*
X45192438Y-45471428D02*
X45287676Y-45376190D01*
X45287676Y-45376190D02*
X45430533Y-45328571D01*
X45430533Y-45328571D02*
X45668628Y-45328571D01*
X45668628Y-45328571D02*
X45811485Y-45376190D01*
X45811485Y-45376190D02*
X45906723Y-45471428D01*
X45906723Y-45471428D02*
X45954342Y-45566666D01*
X45954342Y-45566666D02*
X46144819Y-45566666D01*
X46144819Y-45566666D02*
X46144819Y-45328571D01*
%TO.C,1N4XXX (7.5 V)*%
X34329819Y-38880476D02*
X34329819Y-39451904D01*
X34329819Y-39166190D02*
X33329819Y-39166190D01*
X33329819Y-39166190D02*
X33472676Y-39261428D01*
X33472676Y-39261428D02*
X33567914Y-39356666D01*
X33567914Y-39356666D02*
X33615533Y-39451904D01*
X34329819Y-38451904D02*
X33329819Y-38451904D01*
X33329819Y-38451904D02*
X34329819Y-37880476D01*
X34329819Y-37880476D02*
X33329819Y-37880476D01*
X33663152Y-36975714D02*
X34329819Y-36975714D01*
X33282200Y-37213809D02*
X33996485Y-37451904D01*
X33996485Y-37451904D02*
X33996485Y-36832857D01*
X33329819Y-36547142D02*
X34329819Y-35880476D01*
X33329819Y-35880476D02*
X34329819Y-36547142D01*
X33329819Y-35594761D02*
X34329819Y-34928095D01*
X33329819Y-34928095D02*
X34329819Y-35594761D01*
X33329819Y-34642380D02*
X34329819Y-33975714D01*
X33329819Y-33975714D02*
X34329819Y-34642380D01*
X34710771Y-32547142D02*
X34663152Y-32594761D01*
X34663152Y-32594761D02*
X34520295Y-32689999D01*
X34520295Y-32689999D02*
X34425057Y-32737618D01*
X34425057Y-32737618D02*
X34282200Y-32785237D01*
X34282200Y-32785237D02*
X34044104Y-32832856D01*
X34044104Y-32832856D02*
X33853628Y-32832856D01*
X33853628Y-32832856D02*
X33615533Y-32785237D01*
X33615533Y-32785237D02*
X33472676Y-32737618D01*
X33472676Y-32737618D02*
X33377438Y-32689999D01*
X33377438Y-32689999D02*
X33234580Y-32594761D01*
X33234580Y-32594761D02*
X33186961Y-32547142D01*
X33329819Y-32261427D02*
X33329819Y-31594761D01*
X33329819Y-31594761D02*
X34329819Y-32023332D01*
X34234580Y-31213808D02*
X34282200Y-31166189D01*
X34282200Y-31166189D02*
X34329819Y-31213808D01*
X34329819Y-31213808D02*
X34282200Y-31261427D01*
X34282200Y-31261427D02*
X34234580Y-31213808D01*
X34234580Y-31213808D02*
X34329819Y-31213808D01*
X33329819Y-30261428D02*
X33329819Y-30737618D01*
X33329819Y-30737618D02*
X33806009Y-30785237D01*
X33806009Y-30785237D02*
X33758390Y-30737618D01*
X33758390Y-30737618D02*
X33710771Y-30642380D01*
X33710771Y-30642380D02*
X33710771Y-30404285D01*
X33710771Y-30404285D02*
X33758390Y-30309047D01*
X33758390Y-30309047D02*
X33806009Y-30261428D01*
X33806009Y-30261428D02*
X33901247Y-30213809D01*
X33901247Y-30213809D02*
X34139342Y-30213809D01*
X34139342Y-30213809D02*
X34234580Y-30261428D01*
X34234580Y-30261428D02*
X34282200Y-30309047D01*
X34282200Y-30309047D02*
X34329819Y-30404285D01*
X34329819Y-30404285D02*
X34329819Y-30642380D01*
X34329819Y-30642380D02*
X34282200Y-30737618D01*
X34282200Y-30737618D02*
X34234580Y-30785237D01*
X33329819Y-29166189D02*
X34329819Y-28832856D01*
X34329819Y-28832856D02*
X33329819Y-28499523D01*
X34710771Y-28261427D02*
X34663152Y-28213808D01*
X34663152Y-28213808D02*
X34520295Y-28118570D01*
X34520295Y-28118570D02*
X34425057Y-28070951D01*
X34425057Y-28070951D02*
X34282200Y-28023332D01*
X34282200Y-28023332D02*
X34044104Y-27975713D01*
X34044104Y-27975713D02*
X33853628Y-27975713D01*
X33853628Y-27975713D02*
X33615533Y-28023332D01*
X33615533Y-28023332D02*
X33472676Y-28070951D01*
X33472676Y-28070951D02*
X33377438Y-28118570D01*
X33377438Y-28118570D02*
X33234580Y-28213808D01*
X33234580Y-28213808D02*
X33186961Y-28261427D01*
%TO.C,10 uF*%
X54929819Y-47762381D02*
X54929819Y-48333809D01*
X54929819Y-48048095D02*
X53929819Y-48048095D01*
X53929819Y-48048095D02*
X54072676Y-48143333D01*
X54072676Y-48143333D02*
X54167914Y-48238571D01*
X54167914Y-48238571D02*
X54215533Y-48333809D01*
X53929819Y-47143333D02*
X53929819Y-47048095D01*
X53929819Y-47048095D02*
X53977438Y-46952857D01*
X53977438Y-46952857D02*
X54025057Y-46905238D01*
X54025057Y-46905238D02*
X54120295Y-46857619D01*
X54120295Y-46857619D02*
X54310771Y-46810000D01*
X54310771Y-46810000D02*
X54548866Y-46810000D01*
X54548866Y-46810000D02*
X54739342Y-46857619D01*
X54739342Y-46857619D02*
X54834580Y-46905238D01*
X54834580Y-46905238D02*
X54882200Y-46952857D01*
X54882200Y-46952857D02*
X54929819Y-47048095D01*
X54929819Y-47048095D02*
X54929819Y-47143333D01*
X54929819Y-47143333D02*
X54882200Y-47238571D01*
X54882200Y-47238571D02*
X54834580Y-47286190D01*
X54834580Y-47286190D02*
X54739342Y-47333809D01*
X54739342Y-47333809D02*
X54548866Y-47381428D01*
X54548866Y-47381428D02*
X54310771Y-47381428D01*
X54310771Y-47381428D02*
X54120295Y-47333809D01*
X54120295Y-47333809D02*
X54025057Y-47286190D01*
X54025057Y-47286190D02*
X53977438Y-47238571D01*
X53977438Y-47238571D02*
X53929819Y-47143333D01*
X54263152Y-45190952D02*
X54929819Y-45190952D01*
X54263152Y-45619523D02*
X54786961Y-45619523D01*
X54786961Y-45619523D02*
X54882200Y-45571904D01*
X54882200Y-45571904D02*
X54929819Y-45476666D01*
X54929819Y-45476666D02*
X54929819Y-45333809D01*
X54929819Y-45333809D02*
X54882200Y-45238571D01*
X54882200Y-45238571D02*
X54834580Y-45190952D01*
X54406009Y-44381428D02*
X54406009Y-44714761D01*
X54929819Y-44714761D02*
X53929819Y-44714761D01*
X53929819Y-44714761D02*
X53929819Y-44238571D01*
D12*
%TO.C,MMBT3904*%
X40474524Y-41707419D02*
X40474524Y-40707419D01*
X40474524Y-40707419D02*
X40807857Y-41421704D01*
X40807857Y-41421704D02*
X41141190Y-40707419D01*
X41141190Y-40707419D02*
X41141190Y-41707419D01*
X41617381Y-41707419D02*
X41617381Y-40707419D01*
X41617381Y-40707419D02*
X41950714Y-41421704D01*
X41950714Y-41421704D02*
X42284047Y-40707419D01*
X42284047Y-40707419D02*
X42284047Y-41707419D01*
X43093571Y-41183609D02*
X43236428Y-41231228D01*
X43236428Y-41231228D02*
X43284047Y-41278847D01*
X43284047Y-41278847D02*
X43331666Y-41374085D01*
X43331666Y-41374085D02*
X43331666Y-41516942D01*
X43331666Y-41516942D02*
X43284047Y-41612180D01*
X43284047Y-41612180D02*
X43236428Y-41659800D01*
X43236428Y-41659800D02*
X43141190Y-41707419D01*
X43141190Y-41707419D02*
X42760238Y-41707419D01*
X42760238Y-41707419D02*
X42760238Y-40707419D01*
X42760238Y-40707419D02*
X43093571Y-40707419D01*
X43093571Y-40707419D02*
X43188809Y-40755038D01*
X43188809Y-40755038D02*
X43236428Y-40802657D01*
X43236428Y-40802657D02*
X43284047Y-40897895D01*
X43284047Y-40897895D02*
X43284047Y-40993133D01*
X43284047Y-40993133D02*
X43236428Y-41088371D01*
X43236428Y-41088371D02*
X43188809Y-41135990D01*
X43188809Y-41135990D02*
X43093571Y-41183609D01*
X43093571Y-41183609D02*
X42760238Y-41183609D01*
X43617381Y-40707419D02*
X44188809Y-40707419D01*
X43903095Y-41707419D02*
X43903095Y-40707419D01*
X44426905Y-40707419D02*
X45045952Y-40707419D01*
X45045952Y-40707419D02*
X44712619Y-41088371D01*
X44712619Y-41088371D02*
X44855476Y-41088371D01*
X44855476Y-41088371D02*
X44950714Y-41135990D01*
X44950714Y-41135990D02*
X44998333Y-41183609D01*
X44998333Y-41183609D02*
X45045952Y-41278847D01*
X45045952Y-41278847D02*
X45045952Y-41516942D01*
X45045952Y-41516942D02*
X44998333Y-41612180D01*
X44998333Y-41612180D02*
X44950714Y-41659800D01*
X44950714Y-41659800D02*
X44855476Y-41707419D01*
X44855476Y-41707419D02*
X44569762Y-41707419D01*
X44569762Y-41707419D02*
X44474524Y-41659800D01*
X44474524Y-41659800D02*
X44426905Y-41612180D01*
X45522143Y-41707419D02*
X45712619Y-41707419D01*
X45712619Y-41707419D02*
X45807857Y-41659800D01*
X45807857Y-41659800D02*
X45855476Y-41612180D01*
X45855476Y-41612180D02*
X45950714Y-41469323D01*
X45950714Y-41469323D02*
X45998333Y-41278847D01*
X45998333Y-41278847D02*
X45998333Y-40897895D01*
X45998333Y-40897895D02*
X45950714Y-40802657D01*
X45950714Y-40802657D02*
X45903095Y-40755038D01*
X45903095Y-40755038D02*
X45807857Y-40707419D01*
X45807857Y-40707419D02*
X45617381Y-40707419D01*
X45617381Y-40707419D02*
X45522143Y-40755038D01*
X45522143Y-40755038D02*
X45474524Y-40802657D01*
X45474524Y-40802657D02*
X45426905Y-40897895D01*
X45426905Y-40897895D02*
X45426905Y-41135990D01*
X45426905Y-41135990D02*
X45474524Y-41231228D01*
X45474524Y-41231228D02*
X45522143Y-41278847D01*
X45522143Y-41278847D02*
X45617381Y-41326466D01*
X45617381Y-41326466D02*
X45807857Y-41326466D01*
X45807857Y-41326466D02*
X45903095Y-41278847D01*
X45903095Y-41278847D02*
X45950714Y-41231228D01*
X45950714Y-41231228D02*
X45998333Y-41135990D01*
X46617381Y-40707419D02*
X46712619Y-40707419D01*
X46712619Y-40707419D02*
X46807857Y-40755038D01*
X46807857Y-40755038D02*
X46855476Y-40802657D01*
X46855476Y-40802657D02*
X46903095Y-40897895D01*
X46903095Y-40897895D02*
X46950714Y-41088371D01*
X46950714Y-41088371D02*
X46950714Y-41326466D01*
X46950714Y-41326466D02*
X46903095Y-41516942D01*
X46903095Y-41516942D02*
X46855476Y-41612180D01*
X46855476Y-41612180D02*
X46807857Y-41659800D01*
X46807857Y-41659800D02*
X46712619Y-41707419D01*
X46712619Y-41707419D02*
X46617381Y-41707419D01*
X46617381Y-41707419D02*
X46522143Y-41659800D01*
X46522143Y-41659800D02*
X46474524Y-41612180D01*
X46474524Y-41612180D02*
X46426905Y-41516942D01*
X46426905Y-41516942D02*
X46379286Y-41326466D01*
X46379286Y-41326466D02*
X46379286Y-41088371D01*
X46379286Y-41088371D02*
X46426905Y-40897895D01*
X46426905Y-40897895D02*
X46474524Y-40802657D01*
X46474524Y-40802657D02*
X46522143Y-40755038D01*
X46522143Y-40755038D02*
X46617381Y-40707419D01*
X47807857Y-41040752D02*
X47807857Y-41707419D01*
X47569762Y-40659800D02*
X47331667Y-41374085D01*
X47331667Y-41374085D02*
X47950714Y-41374085D01*
D11*
%TO.C,*%
%TO.C,1.0k\u03A9*%
X39680238Y-37464819D02*
X39108810Y-37464819D01*
X39394524Y-37464819D02*
X39394524Y-36464819D01*
X39394524Y-36464819D02*
X39299286Y-36607676D01*
X39299286Y-36607676D02*
X39204048Y-36702914D01*
X39204048Y-36702914D02*
X39108810Y-36750533D01*
X40108810Y-37369580D02*
X40156429Y-37417200D01*
X40156429Y-37417200D02*
X40108810Y-37464819D01*
X40108810Y-37464819D02*
X40061191Y-37417200D01*
X40061191Y-37417200D02*
X40108810Y-37369580D01*
X40108810Y-37369580D02*
X40108810Y-37464819D01*
X40775476Y-36464819D02*
X40870714Y-36464819D01*
X40870714Y-36464819D02*
X40965952Y-36512438D01*
X40965952Y-36512438D02*
X41013571Y-36560057D01*
X41013571Y-36560057D02*
X41061190Y-36655295D01*
X41061190Y-36655295D02*
X41108809Y-36845771D01*
X41108809Y-36845771D02*
X41108809Y-37083866D01*
X41108809Y-37083866D02*
X41061190Y-37274342D01*
X41061190Y-37274342D02*
X41013571Y-37369580D01*
X41013571Y-37369580D02*
X40965952Y-37417200D01*
X40965952Y-37417200D02*
X40870714Y-37464819D01*
X40870714Y-37464819D02*
X40775476Y-37464819D01*
X40775476Y-37464819D02*
X40680238Y-37417200D01*
X40680238Y-37417200D02*
X40632619Y-37369580D01*
X40632619Y-37369580D02*
X40585000Y-37274342D01*
X40585000Y-37274342D02*
X40537381Y-37083866D01*
X40537381Y-37083866D02*
X40537381Y-36845771D01*
X40537381Y-36845771D02*
X40585000Y-36655295D01*
X40585000Y-36655295D02*
X40632619Y-36560057D01*
X40632619Y-36560057D02*
X40680238Y-36512438D01*
X40680238Y-36512438D02*
X40775476Y-36464819D01*
X41537381Y-37464819D02*
X41537381Y-36464819D01*
X41632619Y-37083866D02*
X41918333Y-37464819D01*
X41918333Y-36798152D02*
X41537381Y-37179104D01*
X42299286Y-37464819D02*
X42537381Y-37464819D01*
X42537381Y-37464819D02*
X42537381Y-37274342D01*
X42537381Y-37274342D02*
X42442143Y-37226723D01*
X42442143Y-37226723D02*
X42346905Y-37131485D01*
X42346905Y-37131485D02*
X42299286Y-36988628D01*
X42299286Y-36988628D02*
X42299286Y-36750533D01*
X42299286Y-36750533D02*
X42346905Y-36607676D01*
X42346905Y-36607676D02*
X42442143Y-36512438D01*
X42442143Y-36512438D02*
X42585000Y-36464819D01*
X42585000Y-36464819D02*
X42775476Y-36464819D01*
X42775476Y-36464819D02*
X42918333Y-36512438D01*
X42918333Y-36512438D02*
X43013571Y-36607676D01*
X43013571Y-36607676D02*
X43061190Y-36750533D01*
X43061190Y-36750533D02*
X43061190Y-36988628D01*
X43061190Y-36988628D02*
X43013571Y-37131485D01*
X43013571Y-37131485D02*
X42918333Y-37226723D01*
X42918333Y-37226723D02*
X42823095Y-37274342D01*
X42823095Y-37274342D02*
X42823095Y-37464819D01*
X42823095Y-37464819D02*
X43061190Y-37464819D01*
%TO.C,*%
%TO.C,10 uF*%
X39467618Y-29854819D02*
X38896190Y-29854819D01*
X39181904Y-29854819D02*
X39181904Y-28854819D01*
X39181904Y-28854819D02*
X39086666Y-28997676D01*
X39086666Y-28997676D02*
X38991428Y-29092914D01*
X38991428Y-29092914D02*
X38896190Y-29140533D01*
X40086666Y-28854819D02*
X40181904Y-28854819D01*
X40181904Y-28854819D02*
X40277142Y-28902438D01*
X40277142Y-28902438D02*
X40324761Y-28950057D01*
X40324761Y-28950057D02*
X40372380Y-29045295D01*
X40372380Y-29045295D02*
X40419999Y-29235771D01*
X40419999Y-29235771D02*
X40419999Y-29473866D01*
X40419999Y-29473866D02*
X40372380Y-29664342D01*
X40372380Y-29664342D02*
X40324761Y-29759580D01*
X40324761Y-29759580D02*
X40277142Y-29807200D01*
X40277142Y-29807200D02*
X40181904Y-29854819D01*
X40181904Y-29854819D02*
X40086666Y-29854819D01*
X40086666Y-29854819D02*
X39991428Y-29807200D01*
X39991428Y-29807200D02*
X39943809Y-29759580D01*
X39943809Y-29759580D02*
X39896190Y-29664342D01*
X39896190Y-29664342D02*
X39848571Y-29473866D01*
X39848571Y-29473866D02*
X39848571Y-29235771D01*
X39848571Y-29235771D02*
X39896190Y-29045295D01*
X39896190Y-29045295D02*
X39943809Y-28950057D01*
X39943809Y-28950057D02*
X39991428Y-28902438D01*
X39991428Y-28902438D02*
X40086666Y-28854819D01*
X42039047Y-29188152D02*
X42039047Y-29854819D01*
X41610476Y-29188152D02*
X41610476Y-29711961D01*
X41610476Y-29711961D02*
X41658095Y-29807200D01*
X41658095Y-29807200D02*
X41753333Y-29854819D01*
X41753333Y-29854819D02*
X41896190Y-29854819D01*
X41896190Y-29854819D02*
X41991428Y-29807200D01*
X41991428Y-29807200D02*
X42039047Y-29759580D01*
X42848571Y-29331009D02*
X42515238Y-29331009D01*
X42515238Y-29854819D02*
X42515238Y-28854819D01*
X42515238Y-28854819D02*
X42991428Y-28854819D01*
%TO.C,1N4148*%
X48694819Y-36082857D02*
X48694819Y-36654285D01*
X48694819Y-36368571D02*
X47694819Y-36368571D01*
X47694819Y-36368571D02*
X47837676Y-36463809D01*
X47837676Y-36463809D02*
X47932914Y-36559047D01*
X47932914Y-36559047D02*
X47980533Y-36654285D01*
X48694819Y-35654285D02*
X47694819Y-35654285D01*
X47694819Y-35654285D02*
X48694819Y-35082857D01*
X48694819Y-35082857D02*
X47694819Y-35082857D01*
X48028152Y-34178095D02*
X48694819Y-34178095D01*
X47647200Y-34416190D02*
X48361485Y-34654285D01*
X48361485Y-34654285D02*
X48361485Y-34035238D01*
X48694819Y-33130476D02*
X48694819Y-33701904D01*
X48694819Y-33416190D02*
X47694819Y-33416190D01*
X47694819Y-33416190D02*
X47837676Y-33511428D01*
X47837676Y-33511428D02*
X47932914Y-33606666D01*
X47932914Y-33606666D02*
X47980533Y-33701904D01*
X48028152Y-32273333D02*
X48694819Y-32273333D01*
X47647200Y-32511428D02*
X48361485Y-32749523D01*
X48361485Y-32749523D02*
X48361485Y-32130476D01*
X48123390Y-31606666D02*
X48075771Y-31701904D01*
X48075771Y-31701904D02*
X48028152Y-31749523D01*
X48028152Y-31749523D02*
X47932914Y-31797142D01*
X47932914Y-31797142D02*
X47885295Y-31797142D01*
X47885295Y-31797142D02*
X47790057Y-31749523D01*
X47790057Y-31749523D02*
X47742438Y-31701904D01*
X47742438Y-31701904D02*
X47694819Y-31606666D01*
X47694819Y-31606666D02*
X47694819Y-31416190D01*
X47694819Y-31416190D02*
X47742438Y-31320952D01*
X47742438Y-31320952D02*
X47790057Y-31273333D01*
X47790057Y-31273333D02*
X47885295Y-31225714D01*
X47885295Y-31225714D02*
X47932914Y-31225714D01*
X47932914Y-31225714D02*
X48028152Y-31273333D01*
X48028152Y-31273333D02*
X48075771Y-31320952D01*
X48075771Y-31320952D02*
X48123390Y-31416190D01*
X48123390Y-31416190D02*
X48123390Y-31606666D01*
X48123390Y-31606666D02*
X48171009Y-31701904D01*
X48171009Y-31701904D02*
X48218628Y-31749523D01*
X48218628Y-31749523D02*
X48313866Y-31797142D01*
X48313866Y-31797142D02*
X48504342Y-31797142D01*
X48504342Y-31797142D02*
X48599580Y-31749523D01*
X48599580Y-31749523D02*
X48647200Y-31701904D01*
X48647200Y-31701904D02*
X48694819Y-31606666D01*
X48694819Y-31606666D02*
X48694819Y-31416190D01*
X48694819Y-31416190D02*
X48647200Y-31320952D01*
X48647200Y-31320952D02*
X48599580Y-31273333D01*
X48599580Y-31273333D02*
X48504342Y-31225714D01*
X48504342Y-31225714D02*
X48313866Y-31225714D01*
X48313866Y-31225714D02*
X48218628Y-31273333D01*
X48218628Y-31273333D02*
X48171009Y-31320952D01*
X48171009Y-31320952D02*
X48123390Y-31416190D01*
%TO.C,1N4XXX (7.5 V)*%
X52194819Y-39025476D02*
X52194819Y-39596904D01*
X52194819Y-39311190D02*
X51194819Y-39311190D01*
X51194819Y-39311190D02*
X51337676Y-39406428D01*
X51337676Y-39406428D02*
X51432914Y-39501666D01*
X51432914Y-39501666D02*
X51480533Y-39596904D01*
X52194819Y-38596904D02*
X51194819Y-38596904D01*
X51194819Y-38596904D02*
X52194819Y-38025476D01*
X52194819Y-38025476D02*
X51194819Y-38025476D01*
X51528152Y-37120714D02*
X52194819Y-37120714D01*
X51147200Y-37358809D02*
X51861485Y-37596904D01*
X51861485Y-37596904D02*
X51861485Y-36977857D01*
X51194819Y-36692142D02*
X52194819Y-36025476D01*
X51194819Y-36025476D02*
X52194819Y-36692142D01*
X51194819Y-35739761D02*
X52194819Y-35073095D01*
X51194819Y-35073095D02*
X52194819Y-35739761D01*
X51194819Y-34787380D02*
X52194819Y-34120714D01*
X51194819Y-34120714D02*
X52194819Y-34787380D01*
X52575771Y-32692142D02*
X52528152Y-32739761D01*
X52528152Y-32739761D02*
X52385295Y-32834999D01*
X52385295Y-32834999D02*
X52290057Y-32882618D01*
X52290057Y-32882618D02*
X52147200Y-32930237D01*
X52147200Y-32930237D02*
X51909104Y-32977856D01*
X51909104Y-32977856D02*
X51718628Y-32977856D01*
X51718628Y-32977856D02*
X51480533Y-32930237D01*
X51480533Y-32930237D02*
X51337676Y-32882618D01*
X51337676Y-32882618D02*
X51242438Y-32834999D01*
X51242438Y-32834999D02*
X51099580Y-32739761D01*
X51099580Y-32739761D02*
X51051961Y-32692142D01*
X51194819Y-32406427D02*
X51194819Y-31739761D01*
X51194819Y-31739761D02*
X52194819Y-32168332D01*
X52099580Y-31358808D02*
X52147200Y-31311189D01*
X52147200Y-31311189D02*
X52194819Y-31358808D01*
X52194819Y-31358808D02*
X52147200Y-31406427D01*
X52147200Y-31406427D02*
X52099580Y-31358808D01*
X52099580Y-31358808D02*
X52194819Y-31358808D01*
X51194819Y-30406428D02*
X51194819Y-30882618D01*
X51194819Y-30882618D02*
X51671009Y-30930237D01*
X51671009Y-30930237D02*
X51623390Y-30882618D01*
X51623390Y-30882618D02*
X51575771Y-30787380D01*
X51575771Y-30787380D02*
X51575771Y-30549285D01*
X51575771Y-30549285D02*
X51623390Y-30454047D01*
X51623390Y-30454047D02*
X51671009Y-30406428D01*
X51671009Y-30406428D02*
X51766247Y-30358809D01*
X51766247Y-30358809D02*
X52004342Y-30358809D01*
X52004342Y-30358809D02*
X52099580Y-30406428D01*
X52099580Y-30406428D02*
X52147200Y-30454047D01*
X52147200Y-30454047D02*
X52194819Y-30549285D01*
X52194819Y-30549285D02*
X52194819Y-30787380D01*
X52194819Y-30787380D02*
X52147200Y-30882618D01*
X52147200Y-30882618D02*
X52099580Y-30930237D01*
X51194819Y-29311189D02*
X52194819Y-28977856D01*
X52194819Y-28977856D02*
X51194819Y-28644523D01*
X52575771Y-28406427D02*
X52528152Y-28358808D01*
X52528152Y-28358808D02*
X52385295Y-28263570D01*
X52385295Y-28263570D02*
X52290057Y-28215951D01*
X52290057Y-28215951D02*
X52147200Y-28168332D01*
X52147200Y-28168332D02*
X51909104Y-28120713D01*
X51909104Y-28120713D02*
X51718628Y-28120713D01*
X51718628Y-28120713D02*
X51480533Y-28168332D01*
X51480533Y-28168332D02*
X51337676Y-28215951D01*
X51337676Y-28215951D02*
X51242438Y-28263570D01*
X51242438Y-28263570D02*
X51099580Y-28358808D01*
X51099580Y-28358808D02*
X51051961Y-28406427D01*
%TO.C,1N4148*%
X66299819Y-36557857D02*
X66299819Y-37129285D01*
X66299819Y-36843571D02*
X65299819Y-36843571D01*
X65299819Y-36843571D02*
X65442676Y-36938809D01*
X65442676Y-36938809D02*
X65537914Y-37034047D01*
X65537914Y-37034047D02*
X65585533Y-37129285D01*
X66299819Y-36129285D02*
X65299819Y-36129285D01*
X65299819Y-36129285D02*
X66299819Y-35557857D01*
X66299819Y-35557857D02*
X65299819Y-35557857D01*
X65633152Y-34653095D02*
X66299819Y-34653095D01*
X65252200Y-34891190D02*
X65966485Y-35129285D01*
X65966485Y-35129285D02*
X65966485Y-34510238D01*
X66299819Y-33605476D02*
X66299819Y-34176904D01*
X66299819Y-33891190D02*
X65299819Y-33891190D01*
X65299819Y-33891190D02*
X65442676Y-33986428D01*
X65442676Y-33986428D02*
X65537914Y-34081666D01*
X65537914Y-34081666D02*
X65585533Y-34176904D01*
X65633152Y-32748333D02*
X66299819Y-32748333D01*
X65252200Y-32986428D02*
X65966485Y-33224523D01*
X65966485Y-33224523D02*
X65966485Y-32605476D01*
X65728390Y-32081666D02*
X65680771Y-32176904D01*
X65680771Y-32176904D02*
X65633152Y-32224523D01*
X65633152Y-32224523D02*
X65537914Y-32272142D01*
X65537914Y-32272142D02*
X65490295Y-32272142D01*
X65490295Y-32272142D02*
X65395057Y-32224523D01*
X65395057Y-32224523D02*
X65347438Y-32176904D01*
X65347438Y-32176904D02*
X65299819Y-32081666D01*
X65299819Y-32081666D02*
X65299819Y-31891190D01*
X65299819Y-31891190D02*
X65347438Y-31795952D01*
X65347438Y-31795952D02*
X65395057Y-31748333D01*
X65395057Y-31748333D02*
X65490295Y-31700714D01*
X65490295Y-31700714D02*
X65537914Y-31700714D01*
X65537914Y-31700714D02*
X65633152Y-31748333D01*
X65633152Y-31748333D02*
X65680771Y-31795952D01*
X65680771Y-31795952D02*
X65728390Y-31891190D01*
X65728390Y-31891190D02*
X65728390Y-32081666D01*
X65728390Y-32081666D02*
X65776009Y-32176904D01*
X65776009Y-32176904D02*
X65823628Y-32224523D01*
X65823628Y-32224523D02*
X65918866Y-32272142D01*
X65918866Y-32272142D02*
X66109342Y-32272142D01*
X66109342Y-32272142D02*
X66204580Y-32224523D01*
X66204580Y-32224523D02*
X66252200Y-32176904D01*
X66252200Y-32176904D02*
X66299819Y-32081666D01*
X66299819Y-32081666D02*
X66299819Y-31891190D01*
X66299819Y-31891190D02*
X66252200Y-31795952D01*
X66252200Y-31795952D02*
X66204580Y-31748333D01*
X66204580Y-31748333D02*
X66109342Y-31700714D01*
X66109342Y-31700714D02*
X65918866Y-31700714D01*
X65918866Y-31700714D02*
X65823628Y-31748333D01*
X65823628Y-31748333D02*
X65776009Y-31795952D01*
X65776009Y-31795952D02*
X65728390Y-31891190D01*
D12*
%TO.C,MMBT3906*%
X58314524Y-41842419D02*
X58314524Y-40842419D01*
X58314524Y-40842419D02*
X58647857Y-41556704D01*
X58647857Y-41556704D02*
X58981190Y-40842419D01*
X58981190Y-40842419D02*
X58981190Y-41842419D01*
X59457381Y-41842419D02*
X59457381Y-40842419D01*
X59457381Y-40842419D02*
X59790714Y-41556704D01*
X59790714Y-41556704D02*
X60124047Y-40842419D01*
X60124047Y-40842419D02*
X60124047Y-41842419D01*
X60933571Y-41318609D02*
X61076428Y-41366228D01*
X61076428Y-41366228D02*
X61124047Y-41413847D01*
X61124047Y-41413847D02*
X61171666Y-41509085D01*
X61171666Y-41509085D02*
X61171666Y-41651942D01*
X61171666Y-41651942D02*
X61124047Y-41747180D01*
X61124047Y-41747180D02*
X61076428Y-41794800D01*
X61076428Y-41794800D02*
X60981190Y-41842419D01*
X60981190Y-41842419D02*
X60600238Y-41842419D01*
X60600238Y-41842419D02*
X60600238Y-40842419D01*
X60600238Y-40842419D02*
X60933571Y-40842419D01*
X60933571Y-40842419D02*
X61028809Y-40890038D01*
X61028809Y-40890038D02*
X61076428Y-40937657D01*
X61076428Y-40937657D02*
X61124047Y-41032895D01*
X61124047Y-41032895D02*
X61124047Y-41128133D01*
X61124047Y-41128133D02*
X61076428Y-41223371D01*
X61076428Y-41223371D02*
X61028809Y-41270990D01*
X61028809Y-41270990D02*
X60933571Y-41318609D01*
X60933571Y-41318609D02*
X60600238Y-41318609D01*
X61457381Y-40842419D02*
X62028809Y-40842419D01*
X61743095Y-41842419D02*
X61743095Y-40842419D01*
X62266905Y-40842419D02*
X62885952Y-40842419D01*
X62885952Y-40842419D02*
X62552619Y-41223371D01*
X62552619Y-41223371D02*
X62695476Y-41223371D01*
X62695476Y-41223371D02*
X62790714Y-41270990D01*
X62790714Y-41270990D02*
X62838333Y-41318609D01*
X62838333Y-41318609D02*
X62885952Y-41413847D01*
X62885952Y-41413847D02*
X62885952Y-41651942D01*
X62885952Y-41651942D02*
X62838333Y-41747180D01*
X62838333Y-41747180D02*
X62790714Y-41794800D01*
X62790714Y-41794800D02*
X62695476Y-41842419D01*
X62695476Y-41842419D02*
X62409762Y-41842419D01*
X62409762Y-41842419D02*
X62314524Y-41794800D01*
X62314524Y-41794800D02*
X62266905Y-41747180D01*
X63362143Y-41842419D02*
X63552619Y-41842419D01*
X63552619Y-41842419D02*
X63647857Y-41794800D01*
X63647857Y-41794800D02*
X63695476Y-41747180D01*
X63695476Y-41747180D02*
X63790714Y-41604323D01*
X63790714Y-41604323D02*
X63838333Y-41413847D01*
X63838333Y-41413847D02*
X63838333Y-41032895D01*
X63838333Y-41032895D02*
X63790714Y-40937657D01*
X63790714Y-40937657D02*
X63743095Y-40890038D01*
X63743095Y-40890038D02*
X63647857Y-40842419D01*
X63647857Y-40842419D02*
X63457381Y-40842419D01*
X63457381Y-40842419D02*
X63362143Y-40890038D01*
X63362143Y-40890038D02*
X63314524Y-40937657D01*
X63314524Y-40937657D02*
X63266905Y-41032895D01*
X63266905Y-41032895D02*
X63266905Y-41270990D01*
X63266905Y-41270990D02*
X63314524Y-41366228D01*
X63314524Y-41366228D02*
X63362143Y-41413847D01*
X63362143Y-41413847D02*
X63457381Y-41461466D01*
X63457381Y-41461466D02*
X63647857Y-41461466D01*
X63647857Y-41461466D02*
X63743095Y-41413847D01*
X63743095Y-41413847D02*
X63790714Y-41366228D01*
X63790714Y-41366228D02*
X63838333Y-41270990D01*
X64457381Y-40842419D02*
X64552619Y-40842419D01*
X64552619Y-40842419D02*
X64647857Y-40890038D01*
X64647857Y-40890038D02*
X64695476Y-40937657D01*
X64695476Y-40937657D02*
X64743095Y-41032895D01*
X64743095Y-41032895D02*
X64790714Y-41223371D01*
X64790714Y-41223371D02*
X64790714Y-41461466D01*
X64790714Y-41461466D02*
X64743095Y-41651942D01*
X64743095Y-41651942D02*
X64695476Y-41747180D01*
X64695476Y-41747180D02*
X64647857Y-41794800D01*
X64647857Y-41794800D02*
X64552619Y-41842419D01*
X64552619Y-41842419D02*
X64457381Y-41842419D01*
X64457381Y-41842419D02*
X64362143Y-41794800D01*
X64362143Y-41794800D02*
X64314524Y-41747180D01*
X64314524Y-41747180D02*
X64266905Y-41651942D01*
X64266905Y-41651942D02*
X64219286Y-41461466D01*
X64219286Y-41461466D02*
X64219286Y-41223371D01*
X64219286Y-41223371D02*
X64266905Y-41032895D01*
X64266905Y-41032895D02*
X64314524Y-40937657D01*
X64314524Y-40937657D02*
X64362143Y-40890038D01*
X64362143Y-40890038D02*
X64457381Y-40842419D01*
X65647857Y-40842419D02*
X65457381Y-40842419D01*
X65457381Y-40842419D02*
X65362143Y-40890038D01*
X65362143Y-40890038D02*
X65314524Y-40937657D01*
X65314524Y-40937657D02*
X65219286Y-41080514D01*
X65219286Y-41080514D02*
X65171667Y-41270990D01*
X65171667Y-41270990D02*
X65171667Y-41651942D01*
X65171667Y-41651942D02*
X65219286Y-41747180D01*
X65219286Y-41747180D02*
X65266905Y-41794800D01*
X65266905Y-41794800D02*
X65362143Y-41842419D01*
X65362143Y-41842419D02*
X65552619Y-41842419D01*
X65552619Y-41842419D02*
X65647857Y-41794800D01*
X65647857Y-41794800D02*
X65695476Y-41747180D01*
X65695476Y-41747180D02*
X65743095Y-41651942D01*
X65743095Y-41651942D02*
X65743095Y-41413847D01*
X65743095Y-41413847D02*
X65695476Y-41318609D01*
X65695476Y-41318609D02*
X65647857Y-41270990D01*
X65647857Y-41270990D02*
X65552619Y-41223371D01*
X65552619Y-41223371D02*
X65362143Y-41223371D01*
X65362143Y-41223371D02*
X65266905Y-41270990D01*
X65266905Y-41270990D02*
X65219286Y-41318609D01*
X65219286Y-41318609D02*
X65171667Y-41413847D01*
D11*
%TO.C,10 uF*%
X50074819Y-47847381D02*
X50074819Y-48418809D01*
X50074819Y-48133095D02*
X49074819Y-48133095D01*
X49074819Y-48133095D02*
X49217676Y-48228333D01*
X49217676Y-48228333D02*
X49312914Y-48323571D01*
X49312914Y-48323571D02*
X49360533Y-48418809D01*
X49074819Y-47228333D02*
X49074819Y-47133095D01*
X49074819Y-47133095D02*
X49122438Y-47037857D01*
X49122438Y-47037857D02*
X49170057Y-46990238D01*
X49170057Y-46990238D02*
X49265295Y-46942619D01*
X49265295Y-46942619D02*
X49455771Y-46895000D01*
X49455771Y-46895000D02*
X49693866Y-46895000D01*
X49693866Y-46895000D02*
X49884342Y-46942619D01*
X49884342Y-46942619D02*
X49979580Y-46990238D01*
X49979580Y-46990238D02*
X50027200Y-47037857D01*
X50027200Y-47037857D02*
X50074819Y-47133095D01*
X50074819Y-47133095D02*
X50074819Y-47228333D01*
X50074819Y-47228333D02*
X50027200Y-47323571D01*
X50027200Y-47323571D02*
X49979580Y-47371190D01*
X49979580Y-47371190D02*
X49884342Y-47418809D01*
X49884342Y-47418809D02*
X49693866Y-47466428D01*
X49693866Y-47466428D02*
X49455771Y-47466428D01*
X49455771Y-47466428D02*
X49265295Y-47418809D01*
X49265295Y-47418809D02*
X49170057Y-47371190D01*
X49170057Y-47371190D02*
X49122438Y-47323571D01*
X49122438Y-47323571D02*
X49074819Y-47228333D01*
X49408152Y-45275952D02*
X50074819Y-45275952D01*
X49408152Y-45704523D02*
X49931961Y-45704523D01*
X49931961Y-45704523D02*
X50027200Y-45656904D01*
X50027200Y-45656904D02*
X50074819Y-45561666D01*
X50074819Y-45561666D02*
X50074819Y-45418809D01*
X50074819Y-45418809D02*
X50027200Y-45323571D01*
X50027200Y-45323571D02*
X49979580Y-45275952D01*
X49551009Y-44466428D02*
X49551009Y-44799761D01*
X50074819Y-44799761D02*
X49074819Y-44799761D01*
X49074819Y-44799761D02*
X49074819Y-44323571D01*
%TO.C,*%
%TO.C,4.7\u03A9*%
X57603152Y-48095237D02*
X58269819Y-48095237D01*
X57222200Y-48333332D02*
X57936485Y-48571427D01*
X57936485Y-48571427D02*
X57936485Y-47952380D01*
X58174580Y-47571427D02*
X58222200Y-47523808D01*
X58222200Y-47523808D02*
X58269819Y-47571427D01*
X58269819Y-47571427D02*
X58222200Y-47619046D01*
X58222200Y-47619046D02*
X58174580Y-47571427D01*
X58174580Y-47571427D02*
X58269819Y-47571427D01*
X57269819Y-47190475D02*
X57269819Y-46523809D01*
X57269819Y-46523809D02*
X58269819Y-46952380D01*
X58269819Y-46190475D02*
X58269819Y-45952380D01*
X58269819Y-45952380D02*
X58079342Y-45952380D01*
X58079342Y-45952380D02*
X58031723Y-46047618D01*
X58031723Y-46047618D02*
X57936485Y-46142856D01*
X57936485Y-46142856D02*
X57793628Y-46190475D01*
X57793628Y-46190475D02*
X57555533Y-46190475D01*
X57555533Y-46190475D02*
X57412676Y-46142856D01*
X57412676Y-46142856D02*
X57317438Y-46047618D01*
X57317438Y-46047618D02*
X57269819Y-45904761D01*
X57269819Y-45904761D02*
X57269819Y-45714285D01*
X57269819Y-45714285D02*
X57317438Y-45571428D01*
X57317438Y-45571428D02*
X57412676Y-45476190D01*
X57412676Y-45476190D02*
X57555533Y-45428571D01*
X57555533Y-45428571D02*
X57793628Y-45428571D01*
X57793628Y-45428571D02*
X57936485Y-45476190D01*
X57936485Y-45476190D02*
X58031723Y-45571428D01*
X58031723Y-45571428D02*
X58079342Y-45666666D01*
X58079342Y-45666666D02*
X58269819Y-45666666D01*
X58269819Y-45666666D02*
X58269819Y-45428571D01*
D13*
%TO.C,1.0k\u03A9*%
X59262064Y-39650000D02*
X58807936Y-39650000D01*
X59262064Y-38180000D02*
X58807936Y-38180000D01*
%TO.C,10 uF*%
X57830000Y-33781252D02*
X57830000Y-32358748D01*
X59650000Y-33781252D02*
X59650000Y-32358748D01*
%TO.C,4.7\u03A9*%
X44775000Y-46672936D02*
X44775000Y-47127064D01*
X43305000Y-46672936D02*
X43305000Y-47127064D01*
%TO.C,1N4XXX (7.5 V)*%
X36550000Y-37695000D02*
X36550000Y-36475000D01*
X35080000Y-36475000D02*
X38020000Y-36475000D01*
X38020000Y-36475000D02*
X38020000Y-31035000D01*
X35080000Y-35695000D02*
X38020000Y-35695000D01*
X35080000Y-35575000D02*
X38020000Y-35575000D01*
X35080000Y-35455000D02*
X38020000Y-35455000D01*
X35080000Y-31035000D02*
X35080000Y-36475000D01*
X38020000Y-31035000D02*
X35080000Y-31035000D01*
X36550000Y-29815000D02*
X36550000Y-31035000D01*
%TO.C,10 uF*%
X53535000Y-45598748D02*
X53535000Y-47021252D01*
X51715000Y-45598748D02*
X51715000Y-47021252D01*
D12*
%TO.C,MMBT3904*%
X38475000Y-41820000D02*
G75*
G03*
X38475000Y-41820000I-40000J0D01*
G01*
X40945000Y-42570000D02*
G75*
G03*
X40945000Y-42570000I-40000J0D01*
G01*
X40945000Y-42780000D02*
G75*
G03*
X40945000Y-42780000I-40000J0D01*
G01*
X40945000Y-42980000D02*
G75*
G03*
X40945000Y-42980000I-40000J0D01*
G01*
X38495000Y-43620000D02*
G75*
G03*
X38495000Y-43620000I-40000J0D01*
G01*
X38495000Y-43840000D02*
G75*
G03*
X38495000Y-43840000I-40000J0D01*
G01*
D13*
%TO.C,1.0k\u03A9*%
X41297064Y-39540000D02*
X40842936Y-39540000D01*
X41297064Y-38070000D02*
X40842936Y-38070000D01*
%TO.C,10 uF*%
X40050000Y-33351252D02*
X40050000Y-31928748D01*
X41870000Y-33351252D02*
X41870000Y-31928748D01*
%TO.C,1N4148*%
X45270000Y-37695000D02*
X45270000Y-36475000D01*
X43800000Y-36475000D02*
X46740000Y-36475000D01*
X46740000Y-36475000D02*
X46740000Y-31035000D01*
X43800000Y-35695000D02*
X46740000Y-35695000D01*
X43800000Y-35575000D02*
X46740000Y-35575000D01*
X43800000Y-35455000D02*
X46740000Y-35455000D01*
X43800000Y-31035000D02*
X43800000Y-36475000D01*
X46740000Y-31035000D02*
X43800000Y-31035000D01*
X45270000Y-29815000D02*
X45270000Y-31035000D01*
%TO.C,1N4XXX (7.5 V)*%
X54495000Y-29895000D02*
X54495000Y-31115000D01*
X55965000Y-31115000D02*
X53025000Y-31115000D01*
X53025000Y-31115000D02*
X53025000Y-36555000D01*
X55965000Y-31895000D02*
X53025000Y-31895000D01*
X55965000Y-32015000D02*
X53025000Y-32015000D01*
X55965000Y-32135000D02*
X53025000Y-32135000D01*
X55965000Y-36555000D02*
X55965000Y-31115000D01*
X53025000Y-36555000D02*
X55965000Y-36555000D01*
X54495000Y-37775000D02*
X54495000Y-36555000D01*
%TO.C,1N4148*%
X63210000Y-29905000D02*
X63210000Y-31125000D01*
X64680000Y-31125000D02*
X61740000Y-31125000D01*
X61740000Y-31125000D02*
X61740000Y-36565000D01*
X64680000Y-31905000D02*
X61740000Y-31905000D01*
X64680000Y-32025000D02*
X61740000Y-32025000D01*
X64680000Y-32145000D02*
X61740000Y-32145000D01*
X64680000Y-36565000D02*
X64680000Y-31125000D01*
X61740000Y-36565000D02*
X64680000Y-36565000D01*
X63210000Y-37785000D02*
X63210000Y-36565000D01*
D12*
%TO.C,MMBT3906*%
X56040000Y-42095000D02*
G75*
G03*
X56040000Y-42095000I-40000J0D01*
G01*
X58510000Y-42845000D02*
G75*
G03*
X58510000Y-42845000I-40000J0D01*
G01*
X58510000Y-43055000D02*
G75*
G03*
X58510000Y-43055000I-40000J0D01*
G01*
X58510000Y-43255000D02*
G75*
G03*
X58510000Y-43255000I-40000J0D01*
G01*
X56060000Y-43895000D02*
G75*
G03*
X56060000Y-43895000I-40000J0D01*
G01*
X56060000Y-44115000D02*
G75*
G03*
X56060000Y-44115000I-40000J0D01*
G01*
D13*
%TO.C,10 uF*%
X48535000Y-45598748D02*
X48535000Y-47021252D01*
X46715000Y-45598748D02*
X46715000Y-47021252D01*
%TO.C,4.7\u03A9*%
X56900000Y-46772936D02*
X56900000Y-47227064D01*
X55430000Y-46772936D02*
X55430000Y-47227064D01*
%TD*%
M02*
