%TF.GenerationSoftware,KiCad,Pcbnew,7.0.5*%
%TF.CreationDate,2023-06-22T18:40:55-05:00*%
%TF.ProjectId,Single.Channel.Amp,53696e67-6c65-42e4-9368-616e6e656c2e,rev?*%
%TF.SameCoordinates,Original*%
%TF.FileFunction,Soldermask,Top*%
%TF.FilePolarity,Negative*%
%FSLAX46Y46*%
G04 Gerber Fmt 4.6, Leading zero omitted, Abs format (unit mm)*
G04 Created by KiCad (PCBNEW 7.0.5) date 2023-06-22 18:40:55*
%MOMM*%
%LPD*%
G01*
G04 APERTURE LIST*
G04 Aperture macros list*
%AMRoundRect*
0 Rectangle with rounded corners*
0 $1 Rounding radius*
0 $2 $3 $4 $5 $6 $7 $8 $9 X,Y pos of 4 corners*
0 Add a 4 corners polygon primitive as box body*
4,1,4,$2,$3,$4,$5,$6,$7,$8,$9,$2,$3,0*
0 Add four circle primitives for the rounded corners*
1,1,$1+$1,$2,$3*
1,1,$1+$1,$4,$5*
1,1,$1+$1,$6,$7*
1,1,$1+$1,$8,$9*
0 Add four rect primitives between the rounded corners*
20,1,$1+$1,$2,$3,$4,$5,0*
20,1,$1+$1,$4,$5,$6,$7,0*
20,1,$1+$1,$6,$7,$8,$9,0*
20,1,$1+$1,$8,$9,$2,$3,0*%
G04 Aperture macros list end*
%ADD10C,2.050000*%
%ADD11C,2.250000*%
%ADD12RoundRect,0.250000X0.350000X0.450000X-0.350000X0.450000X-0.350000X-0.450000X0.350000X-0.450000X0*%
%ADD13RoundRect,0.250000X0.650000X-0.412500X0.650000X0.412500X-0.650000X0.412500X-0.650000X-0.412500X0*%
%ADD14RoundRect,0.250000X-0.450000X0.350000X-0.450000X-0.350000X0.450000X-0.350000X0.450000X0.350000X0*%
%ADD15C,1.800000*%
%ADD16O,1.800000X1.800000*%
%ADD17RoundRect,0.250000X-0.650000X0.412500X-0.650000X-0.412500X0.650000X-0.412500X0.650000X0.412500X0*%
%ADD18C,1.000000*%
G04 APERTURE END LIST*
D10*
%TO.C,REF\u002A\u002A*%
X38185000Y-59060000D03*
D11*
X35645000Y-56520000D03*
X35645000Y-61600000D03*
X40725000Y-56520000D03*
X40725000Y-61600000D03*
%TD*%
D10*
%TO.C,REF\u002A\u002A*%
X61185000Y-59060000D03*
D11*
X58645000Y-56520000D03*
X58645000Y-61600000D03*
X63725000Y-56520000D03*
X63725000Y-61600000D03*
%TD*%
D12*
%TO.C,1.0k\u03A9*%
X60035000Y-38915000D03*
X58035000Y-38915000D03*
%TD*%
D13*
%TO.C,10 uF*%
X58740000Y-34632500D03*
X58740000Y-31507500D03*
%TD*%
D14*
%TO.C,4.7\u03A9*%
X44040000Y-45900000D03*
X44040000Y-47900000D03*
%TD*%
D15*
%TO.C,1N4XXX (7.5 V)*%
X36550000Y-38835000D03*
D16*
X36550000Y-28675000D03*
%TD*%
D17*
%TO.C,10 uF*%
X52625000Y-44747500D03*
X52625000Y-47872500D03*
%TD*%
D16*
%TO.C,*%
X53111459Y-22545000D03*
%TD*%
D12*
%TO.C,1.0k\u03A9*%
X42070000Y-38805000D03*
X40070000Y-38805000D03*
%TD*%
D16*
%TO.C,*%
X49685000Y-22545000D03*
%TD*%
%TO.C,*%
X46258541Y-22545000D03*
%TD*%
D13*
%TO.C,10 uF*%
X40960000Y-34202500D03*
X40960000Y-31077500D03*
%TD*%
D15*
%TO.C,1N4148*%
X45270000Y-38835000D03*
D16*
X45270000Y-28675000D03*
%TD*%
D18*
%TO.C,REF\u002A\u002A*%
X45875000Y-52550000D03*
X48415000Y-52550000D03*
X56035000Y-52550000D03*
X53495000Y-52550000D03*
X50955000Y-52550000D03*
X43335000Y-52550000D03*
X58575000Y-52550000D03*
X40795000Y-52550000D03*
%TD*%
D15*
%TO.C,1N4XXX (7.5 V)*%
X54495000Y-28755000D03*
D16*
X54495000Y-38915000D03*
%TD*%
D15*
%TO.C,1N4148*%
X63210000Y-28765000D03*
D16*
X63210000Y-38925000D03*
%TD*%
D17*
%TO.C,10 uF*%
X47625000Y-44747500D03*
X47625000Y-47872500D03*
%TD*%
D14*
%TO.C,4.7\u03A9*%
X56165000Y-46000000D03*
X56165000Y-48000000D03*
%TD*%
M02*
