M48
; DRILL file {KiCad 7.0.5} date Tue Jun 20 08:34:59 2023
; FORMAT={-:-/ absolute / inch / decimal}
; #@! TF.CreationDate,2023-06-20T08:34:59-05:00
; #@! TF.GenerationSoftware,Kicad,Pcbnew,7.0.5
; #@! TF.FileFunction,Plated,1,2,PTH
FMAT,2
INCH
; #@! TA.AperFunction,Plated,PTH,ComponentDrill
T1C0.0300
; #@! TA.AperFunction,Plated,PTH,ComponentDrill
T2C0.0354
%
G90
G05
T1
X1.6061Y-2.0689
X1.7061Y-2.0689
X1.8061Y-2.0689
X1.9061Y-2.0689
X2.0061Y-2.0689
X2.1061Y-2.0689
X2.2061Y-2.0689
X2.3061Y-2.0689
T2
X1.439Y-1.1289
X1.439Y-1.5289
X1.5033Y-2.2857
X1.7823Y-1.1289
X1.7823Y-1.5289
X1.8212Y-0.8876
X1.9561Y-0.8876
X2.091Y-0.8876
X2.1455Y-1.1321
X2.1455Y-1.5321
X2.4089Y-2.2857
X2.4886Y-1.1325
X2.4886Y-1.5325
T0
M30
