%TF.GenerationSoftware,KiCad,Pcbnew,7.0.5*%
%TF.CreationDate,2023-06-22T18:40:55-05:00*%
%TF.ProjectId,Single.Channel.Amp,53696e67-6c65-42e4-9368-616e6e656c2e,rev?*%
%TF.SameCoordinates,Original*%
%TF.FileFunction,Copper,L2,Bot*%
%TF.FilePolarity,Positive*%
%FSLAX46Y46*%
G04 Gerber Fmt 4.6, Leading zero omitted, Abs format (unit mm)*
G04 Created by KiCad (PCBNEW 7.0.5) date 2023-06-22 18:40:55*
%MOMM*%
%LPD*%
G01*
G04 APERTURE LIST*
%TA.AperFunction,ComponentPad*%
%ADD10C,2.050000*%
%TD*%
%TA.AperFunction,ComponentPad*%
%ADD11C,2.250000*%
%TD*%
%TA.AperFunction,ComponentPad*%
%ADD12C,1.800000*%
%TD*%
%TA.AperFunction,ComponentPad*%
%ADD13O,1.800000X1.800000*%
%TD*%
%TA.AperFunction,ComponentPad*%
%ADD14C,1.000000*%
%TD*%
G04 APERTURE END LIST*
D10*
%TO.P,REF\u002A\u002A,1*%
%TO.N,N/C*%
X38185000Y-59060000D03*
D11*
%TO.P,REF\u002A\u002A,2*%
%TO.N,GND*%
X35645000Y-56520000D03*
X35645000Y-61600000D03*
X40725000Y-56520000D03*
X40725000Y-61600000D03*
%TD*%
D10*
%TO.P,REF\u002A\u002A,1*%
%TO.N,N/C*%
X61185000Y-59060000D03*
D11*
%TO.P,REF\u002A\u002A,2*%
%TO.N,GND*%
X58645000Y-56520000D03*
X58645000Y-61600000D03*
X63725000Y-56520000D03*
X63725000Y-61600000D03*
%TD*%
D12*
%TO.P,1N4XXX (7.5 V),1*%
%TO.N,N/C*%
X36550000Y-38835000D03*
D13*
%TO.P,1N4XXX (7.5 V),2*%
%TO.N,GND*%
X36550000Y-28675000D03*
%TD*%
%TO.P,,-*%
%TO.N,N/C*%
X53111459Y-22545000D03*
%TD*%
%TO.P,,GND*%
%TO.N,GND*%
X49685000Y-22545000D03*
%TD*%
%TO.P,,+*%
%TO.N,N/C*%
X46258541Y-22545000D03*
%TD*%
D12*
%TO.P,1N4148,1*%
%TO.N,N/C*%
X45270000Y-38835000D03*
D13*
%TO.P,1N4148,2*%
X45270000Y-28675000D03*
%TD*%
D14*
%TO.P,REF\u002A\u002A,+V*%
%TO.N,N/C*%
X45875000Y-52550000D03*
%TO.P,REF\u002A\u002A,-V*%
X48415000Y-52550000D03*
%TO.P,REF\u002A\u002A,GND*%
%TO.N,GND*%
X56035000Y-52550000D03*
X53495000Y-52550000D03*
X50955000Y-52550000D03*
X43335000Y-52550000D03*
%TO.P,REF\u002A\u002A,input*%
%TO.N,N/C*%
X58575000Y-52550000D03*
%TO.P,REF\u002A\u002A,output*%
X40795000Y-52550000D03*
%TD*%
D12*
%TO.P,1N4XXX (7.5 V),1*%
%TO.N,GND*%
X54495000Y-28755000D03*
D13*
%TO.P,1N4XXX (7.5 V),2*%
%TO.N,N/C*%
X54495000Y-38915000D03*
%TD*%
D12*
%TO.P,1N4148,1*%
%TO.N,N/C*%
X63210000Y-28765000D03*
D13*
%TO.P,1N4148,2*%
X63210000Y-38925000D03*
%TD*%
%TA.AperFunction,Conductor*%
%TO.N,GND*%
G36*
X72687018Y-20545633D02*
G01*
X72768796Y-20550993D01*
X72897221Y-20560177D01*
X72900794Y-20560537D01*
X72999836Y-20573455D01*
X73003874Y-20574120D01*
X73074439Y-20588156D01*
X73147448Y-20604038D01*
X73218656Y-20619529D01*
X73225390Y-20621398D01*
X73343646Y-20661540D01*
X73345198Y-20662093D01*
X73476750Y-20711160D01*
X73482483Y-20713635D01*
X73596830Y-20770024D01*
X73599042Y-20771173D01*
X73719913Y-20837173D01*
X73724641Y-20840037D01*
X73831649Y-20911537D01*
X73834358Y-20913454D01*
X73943652Y-20995271D01*
X73947345Y-20998265D01*
X74044502Y-21083469D01*
X74047448Y-21086228D01*
X74128579Y-21167359D01*
X74143755Y-21182535D01*
X74146529Y-21185497D01*
X74201759Y-21248474D01*
X74231726Y-21282645D01*
X74234742Y-21286366D01*
X74316545Y-21395643D01*
X74318462Y-21398352D01*
X74355071Y-21453139D01*
X74357477Y-21457045D01*
X74478077Y-21670105D01*
X74479728Y-21673225D01*
X74498619Y-21711533D01*
X74501467Y-21718288D01*
X74617734Y-22047042D01*
X74619867Y-22054543D01*
X74641843Y-22155561D01*
X74648203Y-22187539D01*
X74649030Y-22192924D01*
X74680008Y-22477370D01*
X74680240Y-22480026D01*
X74684367Y-22542966D01*
X74684500Y-22547024D01*
X74684500Y-62292976D01*
X74684367Y-62297033D01*
X74679021Y-62378585D01*
X74666015Y-62560432D01*
X74664980Y-62568112D01*
X74641845Y-62684426D01*
X74610470Y-62828653D01*
X74608595Y-62835408D01*
X74582020Y-62913696D01*
X74581599Y-62914896D01*
X74535307Y-63042600D01*
X74518843Y-63086738D01*
X74516357Y-63092496D01*
X74459992Y-63206795D01*
X74458794Y-63209100D01*
X74456670Y-63212989D01*
X74455589Y-63214887D01*
X74342878Y-63404946D01*
X74341101Y-63407767D01*
X74318472Y-63441634D01*
X74316554Y-63444345D01*
X74234740Y-63553634D01*
X74231720Y-63557360D01*
X74146530Y-63654501D01*
X74143755Y-63657463D01*
X74047464Y-63753755D01*
X74044502Y-63756529D01*
X73947357Y-63841723D01*
X73943631Y-63844744D01*
X73834359Y-63926543D01*
X73831649Y-63928461D01*
X73724641Y-63999961D01*
X73719907Y-64002828D01*
X73599086Y-64068802D01*
X73596794Y-64069992D01*
X73482499Y-64126356D01*
X73476740Y-64128842D01*
X73345271Y-64177878D01*
X73343533Y-64178497D01*
X73225402Y-64218597D01*
X73218646Y-64220472D01*
X73074408Y-64251848D01*
X72958118Y-64274980D01*
X72950438Y-64276015D01*
X72768585Y-64289021D01*
X72712608Y-64292690D01*
X72687025Y-64294367D01*
X72682976Y-64294500D01*
X40453021Y-64294500D01*
X40134453Y-64294395D01*
X26710000Y-64290000D01*
X26709115Y-64290000D01*
X26700900Y-64289451D01*
X26138996Y-64214234D01*
X26115591Y-64208750D01*
X26026461Y-64178495D01*
X26024723Y-64177876D01*
X25900485Y-64131538D01*
X25897522Y-64130345D01*
X25883107Y-64124105D01*
X25880314Y-64122813D01*
X25773221Y-64070000D01*
X25770930Y-64068810D01*
X25690659Y-64024980D01*
X25675507Y-64015213D01*
X25308770Y-63739130D01*
X25302217Y-63733437D01*
X25275321Y-63706541D01*
X25271147Y-63701927D01*
X25022255Y-63397310D01*
X25018713Y-63392525D01*
X24980029Y-63334631D01*
X24977180Y-63329925D01*
X24911173Y-63209042D01*
X24910005Y-63206791D01*
X24897630Y-63181697D01*
X24853635Y-63092483D01*
X24851156Y-63086740D01*
X24838334Y-63052363D01*
X24802103Y-62955224D01*
X24801531Y-62953618D01*
X24761395Y-62835383D01*
X24759531Y-62828666D01*
X24728158Y-62684451D01*
X24705015Y-62568102D01*
X24703985Y-62560459D01*
X24690978Y-62378585D01*
X24685632Y-62297019D01*
X24685500Y-62292993D01*
X24685500Y-61599999D01*
X34014975Y-61599999D01*
X34035042Y-61854989D01*
X34094752Y-62103702D01*
X34192634Y-62340012D01*
X34192636Y-62340015D01*
X34326275Y-62558095D01*
X34326286Y-62558110D01*
X34329533Y-62561911D01*
X34329535Y-62561911D01*
X34893766Y-61997679D01*
X34937316Y-62079822D01*
X35057009Y-62220735D01*
X35204195Y-62332623D01*
X35246402Y-62352150D01*
X34683087Y-62915464D01*
X34683087Y-62915465D01*
X34686888Y-62918712D01*
X34686898Y-62918719D01*
X34904984Y-63052363D01*
X34904987Y-63052365D01*
X35141297Y-63150247D01*
X35390011Y-63209957D01*
X35390010Y-63209957D01*
X35645000Y-63230024D01*
X35899989Y-63209957D01*
X36148702Y-63150247D01*
X36385012Y-63052365D01*
X36385015Y-63052363D01*
X36603103Y-62918719D01*
X36606912Y-62915464D01*
X36043609Y-62352161D01*
X36162431Y-62280669D01*
X36296658Y-62153523D01*
X36399861Y-62001309D01*
X36960464Y-62561912D01*
X36963719Y-62558103D01*
X37097363Y-62340015D01*
X37097365Y-62340012D01*
X37195247Y-62103702D01*
X37254957Y-61854989D01*
X37275024Y-61600000D01*
X39094975Y-61600000D01*
X39115042Y-61854989D01*
X39174752Y-62103702D01*
X39272634Y-62340012D01*
X39272636Y-62340015D01*
X39406275Y-62558095D01*
X39406286Y-62558110D01*
X39409533Y-62561911D01*
X39409535Y-62561911D01*
X39973766Y-61997679D01*
X40017316Y-62079822D01*
X40137009Y-62220735D01*
X40284195Y-62332623D01*
X40326402Y-62352150D01*
X39763087Y-62915464D01*
X39763087Y-62915465D01*
X39766888Y-62918712D01*
X39766898Y-62918719D01*
X39984984Y-63052363D01*
X39984987Y-63052365D01*
X40221297Y-63150247D01*
X40470011Y-63209957D01*
X40470010Y-63209957D01*
X40725000Y-63230024D01*
X40979989Y-63209957D01*
X41228702Y-63150247D01*
X41465012Y-63052365D01*
X41465015Y-63052363D01*
X41683103Y-62918719D01*
X41686912Y-62915464D01*
X41123609Y-62352161D01*
X41242431Y-62280669D01*
X41376658Y-62153523D01*
X41479861Y-62001309D01*
X42040464Y-62561912D01*
X42043719Y-62558103D01*
X42177363Y-62340015D01*
X42177365Y-62340012D01*
X42275247Y-62103702D01*
X42334957Y-61854989D01*
X42355024Y-61600000D01*
X57014975Y-61600000D01*
X57035042Y-61854989D01*
X57094752Y-62103702D01*
X57192634Y-62340012D01*
X57192636Y-62340015D01*
X57326275Y-62558095D01*
X57326286Y-62558110D01*
X57329533Y-62561911D01*
X57329535Y-62561911D01*
X57893766Y-61997679D01*
X57937316Y-62079822D01*
X58057009Y-62220735D01*
X58204195Y-62332623D01*
X58246402Y-62352150D01*
X57683087Y-62915464D01*
X57683087Y-62915465D01*
X57686888Y-62918712D01*
X57686898Y-62918719D01*
X57904984Y-63052363D01*
X57904987Y-63052365D01*
X58141297Y-63150247D01*
X58390011Y-63209957D01*
X58390010Y-63209957D01*
X58645000Y-63230024D01*
X58899989Y-63209957D01*
X59148702Y-63150247D01*
X59385012Y-63052365D01*
X59385015Y-63052363D01*
X59603103Y-62918719D01*
X59606912Y-62915464D01*
X59043609Y-62352161D01*
X59162431Y-62280669D01*
X59296658Y-62153523D01*
X59399860Y-62001309D01*
X59960464Y-62561912D01*
X59963719Y-62558103D01*
X60097363Y-62340015D01*
X60097365Y-62340012D01*
X60195247Y-62103702D01*
X60254957Y-61854989D01*
X60275024Y-61600000D01*
X62094975Y-61600000D01*
X62115042Y-61854989D01*
X62174752Y-62103702D01*
X62272634Y-62340012D01*
X62272636Y-62340015D01*
X62406275Y-62558095D01*
X62406286Y-62558110D01*
X62409533Y-62561911D01*
X62409535Y-62561911D01*
X62973766Y-61997679D01*
X63017316Y-62079822D01*
X63137009Y-62220735D01*
X63284195Y-62332623D01*
X63326402Y-62352150D01*
X62763087Y-62915464D01*
X62763087Y-62915465D01*
X62766888Y-62918712D01*
X62766898Y-62918719D01*
X62984984Y-63052363D01*
X62984987Y-63052365D01*
X63221297Y-63150247D01*
X63470011Y-63209957D01*
X63470010Y-63209957D01*
X63725000Y-63230024D01*
X63979989Y-63209957D01*
X64228702Y-63150247D01*
X64465012Y-63052365D01*
X64465015Y-63052363D01*
X64683103Y-62918719D01*
X64686912Y-62915464D01*
X64123609Y-62352161D01*
X64242431Y-62280669D01*
X64376658Y-62153523D01*
X64479861Y-62001309D01*
X65040464Y-62561912D01*
X65043719Y-62558103D01*
X65177363Y-62340015D01*
X65177365Y-62340012D01*
X65275247Y-62103702D01*
X65334957Y-61854989D01*
X65355024Y-61599999D01*
X65334957Y-61345010D01*
X65275247Y-61096297D01*
X65177365Y-60859987D01*
X65177363Y-60859984D01*
X65043719Y-60641898D01*
X65043712Y-60641888D01*
X65040465Y-60638087D01*
X65040464Y-60638087D01*
X64476232Y-61202319D01*
X64432684Y-61120178D01*
X64312991Y-60979265D01*
X64165805Y-60867377D01*
X64123597Y-60847849D01*
X64686911Y-60284535D01*
X64686911Y-60284533D01*
X64683110Y-60281286D01*
X64683095Y-60281275D01*
X64465015Y-60147636D01*
X64465012Y-60147634D01*
X64228702Y-60049752D01*
X63979988Y-59990042D01*
X63979989Y-59990042D01*
X63725000Y-59969975D01*
X63470010Y-59990042D01*
X63221297Y-60049752D01*
X62984987Y-60147634D01*
X62984984Y-60147636D01*
X62766897Y-60281280D01*
X62763087Y-60284534D01*
X63326390Y-60847837D01*
X63207569Y-60919331D01*
X63073342Y-61046477D01*
X62970138Y-61198691D01*
X62409534Y-60638087D01*
X62406280Y-60641897D01*
X62272636Y-60859984D01*
X62272634Y-60859987D01*
X62174752Y-61096297D01*
X62115042Y-61345010D01*
X62094975Y-61600000D01*
X60275024Y-61600000D01*
X60254957Y-61345010D01*
X60195247Y-61096297D01*
X60097365Y-60859987D01*
X60097363Y-60859984D01*
X59963719Y-60641898D01*
X59963712Y-60641888D01*
X59960465Y-60638087D01*
X59960464Y-60638087D01*
X59396232Y-61202319D01*
X59352684Y-61120178D01*
X59232991Y-60979265D01*
X59085805Y-60867377D01*
X59043596Y-60847849D01*
X59606911Y-60284535D01*
X59606911Y-60284533D01*
X59603110Y-60281286D01*
X59603095Y-60281275D01*
X59385015Y-60147636D01*
X59385012Y-60147634D01*
X59148702Y-60049752D01*
X58899988Y-59990042D01*
X58899989Y-59990042D01*
X58645000Y-59969975D01*
X58390010Y-59990042D01*
X58141297Y-60049752D01*
X57904987Y-60147634D01*
X57904984Y-60147636D01*
X57686897Y-60281280D01*
X57683087Y-60284534D01*
X58246390Y-60847838D01*
X58127569Y-60919331D01*
X57993342Y-61046477D01*
X57890138Y-61198691D01*
X57329534Y-60638087D01*
X57326280Y-60641897D01*
X57192636Y-60859984D01*
X57192634Y-60859987D01*
X57094752Y-61096297D01*
X57035042Y-61345010D01*
X57014975Y-61600000D01*
X42355024Y-61600000D01*
X42334957Y-61345010D01*
X42275247Y-61096297D01*
X42177365Y-60859987D01*
X42177363Y-60859984D01*
X42043719Y-60641898D01*
X42043712Y-60641888D01*
X42040465Y-60638087D01*
X42040464Y-60638087D01*
X41476232Y-61202319D01*
X41432684Y-61120178D01*
X41312991Y-60979265D01*
X41165805Y-60867377D01*
X41123596Y-60847849D01*
X41686911Y-60284535D01*
X41686911Y-60284533D01*
X41683110Y-60281286D01*
X41683095Y-60281275D01*
X41465015Y-60147636D01*
X41465012Y-60147634D01*
X41228702Y-60049752D01*
X40979988Y-59990042D01*
X40979989Y-59990042D01*
X40725000Y-59969975D01*
X40470010Y-59990042D01*
X40221297Y-60049752D01*
X39984987Y-60147634D01*
X39984984Y-60147636D01*
X39766897Y-60281280D01*
X39763087Y-60284534D01*
X40326391Y-60847837D01*
X40207569Y-60919331D01*
X40073342Y-61046477D01*
X39970138Y-61198691D01*
X39409534Y-60638087D01*
X39406280Y-60641897D01*
X39272636Y-60859984D01*
X39272634Y-60859987D01*
X39174752Y-61096297D01*
X39115042Y-61345010D01*
X39094975Y-61600000D01*
X37275024Y-61600000D01*
X37254957Y-61345010D01*
X37195247Y-61096297D01*
X37097365Y-60859987D01*
X37097363Y-60859984D01*
X36963719Y-60641898D01*
X36963712Y-60641888D01*
X36960465Y-60638087D01*
X36960464Y-60638087D01*
X36396232Y-61202319D01*
X36352684Y-61120178D01*
X36232991Y-60979265D01*
X36085805Y-60867377D01*
X36043597Y-60847849D01*
X36606911Y-60284535D01*
X36606911Y-60284533D01*
X36603110Y-60281286D01*
X36603095Y-60281275D01*
X36385015Y-60147636D01*
X36385012Y-60147634D01*
X36148702Y-60049752D01*
X35899988Y-59990042D01*
X35899989Y-59990042D01*
X35645000Y-59969975D01*
X35390010Y-59990042D01*
X35141297Y-60049752D01*
X34904987Y-60147634D01*
X34904984Y-60147636D01*
X34686897Y-60281280D01*
X34683087Y-60284534D01*
X35246390Y-60847837D01*
X35127569Y-60919331D01*
X34993342Y-61046477D01*
X34890138Y-61198691D01*
X34329534Y-60638087D01*
X34326280Y-60641897D01*
X34192636Y-60859984D01*
X34192634Y-60859987D01*
X34094752Y-61096297D01*
X34035042Y-61345010D01*
X34014975Y-61599999D01*
X24685500Y-61599999D01*
X24685500Y-59060001D01*
X36954819Y-59060001D01*
X36973507Y-59273613D01*
X36973509Y-59273624D01*
X37029005Y-59480739D01*
X37029007Y-59480743D01*
X37029008Y-59480747D01*
X37074320Y-59577919D01*
X37119631Y-59675090D01*
X37119632Y-59675091D01*
X37242627Y-59850745D01*
X37394255Y-60002373D01*
X37569909Y-60125368D01*
X37764253Y-60215992D01*
X37971381Y-60271492D01*
X38120442Y-60284533D01*
X38184998Y-60290181D01*
X38185000Y-60290181D01*
X38185002Y-60290181D01*
X38238404Y-60285508D01*
X38398619Y-60271492D01*
X38605747Y-60215992D01*
X38800091Y-60125368D01*
X38975745Y-60002373D01*
X39127373Y-59850745D01*
X39250368Y-59675091D01*
X39340992Y-59480747D01*
X39396492Y-59273619D01*
X39415181Y-59060001D01*
X59954819Y-59060001D01*
X59973507Y-59273613D01*
X59973509Y-59273624D01*
X60029005Y-59480739D01*
X60029007Y-59480743D01*
X60029008Y-59480747D01*
X60074320Y-59577919D01*
X60119631Y-59675090D01*
X60119632Y-59675091D01*
X60242627Y-59850745D01*
X60394255Y-60002373D01*
X60569909Y-60125368D01*
X60764253Y-60215992D01*
X60971381Y-60271492D01*
X61120442Y-60284533D01*
X61184998Y-60290181D01*
X61185000Y-60290181D01*
X61185002Y-60290181D01*
X61238404Y-60285508D01*
X61398619Y-60271492D01*
X61605747Y-60215992D01*
X61800091Y-60125368D01*
X61975745Y-60002373D01*
X62127373Y-59850745D01*
X62250368Y-59675091D01*
X62340992Y-59480747D01*
X62396492Y-59273619D01*
X62415181Y-59060000D01*
X62396492Y-58846381D01*
X62340992Y-58639253D01*
X62250368Y-58444910D01*
X62127373Y-58269255D01*
X61975745Y-58117627D01*
X61800091Y-57994632D01*
X61800092Y-57994632D01*
X61800090Y-57994631D01*
X61702918Y-57949320D01*
X61605747Y-57904008D01*
X61605743Y-57904007D01*
X61605739Y-57904005D01*
X61398624Y-57848509D01*
X61398620Y-57848508D01*
X61398619Y-57848508D01*
X61398618Y-57848507D01*
X61398613Y-57848507D01*
X61185002Y-57829819D01*
X61184998Y-57829819D01*
X60971386Y-57848507D01*
X60971375Y-57848509D01*
X60764260Y-57904005D01*
X60764251Y-57904009D01*
X60569910Y-57994631D01*
X60569908Y-57994632D01*
X60394259Y-58117623D01*
X60394253Y-58117628D01*
X60242628Y-58269253D01*
X60242623Y-58269259D01*
X60119632Y-58444908D01*
X60119631Y-58444910D01*
X60029009Y-58639251D01*
X60029005Y-58639260D01*
X59973509Y-58846375D01*
X59973507Y-58846386D01*
X59954819Y-59059998D01*
X59954819Y-59060001D01*
X39415181Y-59060001D01*
X39415181Y-59060000D01*
X39396492Y-58846381D01*
X39340992Y-58639253D01*
X39250368Y-58444910D01*
X39127373Y-58269255D01*
X38975745Y-58117627D01*
X38800091Y-57994632D01*
X38800092Y-57994632D01*
X38800090Y-57994631D01*
X38702918Y-57949320D01*
X38605747Y-57904008D01*
X38605743Y-57904007D01*
X38605739Y-57904005D01*
X38398624Y-57848509D01*
X38398620Y-57848508D01*
X38398619Y-57848508D01*
X38398618Y-57848507D01*
X38398613Y-57848507D01*
X38185002Y-57829819D01*
X38184998Y-57829819D01*
X37971386Y-57848507D01*
X37971375Y-57848509D01*
X37764260Y-57904005D01*
X37764251Y-57904009D01*
X37569910Y-57994631D01*
X37569908Y-57994632D01*
X37394259Y-58117623D01*
X37394253Y-58117628D01*
X37242628Y-58269253D01*
X37242623Y-58269259D01*
X37119632Y-58444908D01*
X37119631Y-58444910D01*
X37029009Y-58639251D01*
X37029005Y-58639260D01*
X36973509Y-58846375D01*
X36973507Y-58846386D01*
X36954819Y-59059998D01*
X36954819Y-59060001D01*
X24685500Y-59060001D01*
X24685500Y-56519999D01*
X34014975Y-56519999D01*
X34035042Y-56774989D01*
X34094752Y-57023702D01*
X34192634Y-57260012D01*
X34192636Y-57260015D01*
X34326275Y-57478095D01*
X34326286Y-57478110D01*
X34329533Y-57481911D01*
X34329535Y-57481911D01*
X34893766Y-56917679D01*
X34937316Y-56999822D01*
X35057009Y-57140735D01*
X35204195Y-57252623D01*
X35246402Y-57272150D01*
X34683087Y-57835464D01*
X34683087Y-57835465D01*
X34686888Y-57838712D01*
X34686898Y-57838719D01*
X34904984Y-57972363D01*
X34904987Y-57972365D01*
X35141297Y-58070247D01*
X35390011Y-58129957D01*
X35390010Y-58129957D01*
X35645000Y-58150024D01*
X35899989Y-58129957D01*
X36148702Y-58070247D01*
X36385012Y-57972365D01*
X36385015Y-57972363D01*
X36603103Y-57838719D01*
X36606912Y-57835464D01*
X36043609Y-57272161D01*
X36162431Y-57200669D01*
X36296658Y-57073523D01*
X36399861Y-56921309D01*
X36960464Y-57481912D01*
X36963719Y-57478103D01*
X37097363Y-57260015D01*
X37097365Y-57260012D01*
X37195247Y-57023702D01*
X37254957Y-56774989D01*
X37275024Y-56520000D01*
X39094975Y-56520000D01*
X39115042Y-56774989D01*
X39174752Y-57023702D01*
X39272634Y-57260012D01*
X39272636Y-57260015D01*
X39406275Y-57478095D01*
X39406286Y-57478110D01*
X39409533Y-57481911D01*
X39409535Y-57481911D01*
X39973766Y-56917679D01*
X40017316Y-56999822D01*
X40137009Y-57140735D01*
X40284195Y-57252623D01*
X40326402Y-57272150D01*
X39763087Y-57835464D01*
X39763087Y-57835465D01*
X39766888Y-57838712D01*
X39766898Y-57838719D01*
X39984984Y-57972363D01*
X39984987Y-57972365D01*
X40221297Y-58070247D01*
X40470011Y-58129957D01*
X40470010Y-58129957D01*
X40725000Y-58150024D01*
X40979989Y-58129957D01*
X41228702Y-58070247D01*
X41465012Y-57972365D01*
X41465015Y-57972363D01*
X41683103Y-57838719D01*
X41686912Y-57835464D01*
X41123609Y-57272161D01*
X41242431Y-57200669D01*
X41376658Y-57073523D01*
X41479861Y-56921309D01*
X42040464Y-57481912D01*
X42043719Y-57478103D01*
X42177363Y-57260015D01*
X42177365Y-57260012D01*
X42275247Y-57023702D01*
X42334957Y-56774989D01*
X42355024Y-56520000D01*
X57014975Y-56520000D01*
X57035042Y-56774989D01*
X57094752Y-57023702D01*
X57192634Y-57260012D01*
X57192636Y-57260015D01*
X57326275Y-57478095D01*
X57326286Y-57478110D01*
X57329533Y-57481911D01*
X57329535Y-57481911D01*
X57893766Y-56917679D01*
X57937316Y-56999822D01*
X58057009Y-57140735D01*
X58204195Y-57252623D01*
X58246402Y-57272150D01*
X57683087Y-57835464D01*
X57683087Y-57835465D01*
X57686888Y-57838712D01*
X57686898Y-57838719D01*
X57904984Y-57972363D01*
X57904987Y-57972365D01*
X58141297Y-58070247D01*
X58390011Y-58129957D01*
X58390010Y-58129957D01*
X58645000Y-58150024D01*
X58899989Y-58129957D01*
X59148702Y-58070247D01*
X59385012Y-57972365D01*
X59385015Y-57972363D01*
X59603103Y-57838719D01*
X59606912Y-57835464D01*
X59043609Y-57272161D01*
X59162431Y-57200669D01*
X59296658Y-57073523D01*
X59399860Y-56921309D01*
X59960464Y-57481912D01*
X59963719Y-57478103D01*
X60097363Y-57260015D01*
X60097365Y-57260012D01*
X60195247Y-57023702D01*
X60254957Y-56774989D01*
X60275024Y-56520000D01*
X62094975Y-56520000D01*
X62115042Y-56774989D01*
X62174752Y-57023702D01*
X62272634Y-57260012D01*
X62272636Y-57260015D01*
X62406275Y-57478095D01*
X62406286Y-57478110D01*
X62409533Y-57481911D01*
X62409535Y-57481911D01*
X62973766Y-56917679D01*
X63017316Y-56999822D01*
X63137009Y-57140735D01*
X63284195Y-57252623D01*
X63326402Y-57272150D01*
X62763087Y-57835464D01*
X62763087Y-57835465D01*
X62766888Y-57838712D01*
X62766898Y-57838719D01*
X62984984Y-57972363D01*
X62984987Y-57972365D01*
X63221297Y-58070247D01*
X63470011Y-58129957D01*
X63470010Y-58129957D01*
X63725000Y-58150024D01*
X63979989Y-58129957D01*
X64228702Y-58070247D01*
X64465012Y-57972365D01*
X64465015Y-57972363D01*
X64683103Y-57838719D01*
X64686912Y-57835464D01*
X64123609Y-57272161D01*
X64242431Y-57200669D01*
X64376658Y-57073523D01*
X64479861Y-56921309D01*
X65040464Y-57481912D01*
X65043719Y-57478103D01*
X65177363Y-57260015D01*
X65177365Y-57260012D01*
X65275247Y-57023702D01*
X65334957Y-56774989D01*
X65355024Y-56519999D01*
X65334957Y-56265010D01*
X65275247Y-56016297D01*
X65177365Y-55779987D01*
X65177363Y-55779984D01*
X65043719Y-55561898D01*
X65043712Y-55561888D01*
X65040465Y-55558087D01*
X65040464Y-55558087D01*
X64476232Y-56122319D01*
X64432684Y-56040178D01*
X64312991Y-55899265D01*
X64165805Y-55787377D01*
X64123597Y-55767849D01*
X64686911Y-55204535D01*
X64686911Y-55204533D01*
X64683110Y-55201286D01*
X64683095Y-55201275D01*
X64465015Y-55067636D01*
X64465012Y-55067634D01*
X64228702Y-54969752D01*
X63979988Y-54910042D01*
X63979989Y-54910042D01*
X63725000Y-54889975D01*
X63470010Y-54910042D01*
X63221297Y-54969752D01*
X62984987Y-55067634D01*
X62984984Y-55067636D01*
X62766897Y-55201280D01*
X62763087Y-55204534D01*
X63326390Y-55767837D01*
X63207569Y-55839331D01*
X63073342Y-55966477D01*
X62970138Y-56118691D01*
X62409534Y-55558087D01*
X62406280Y-55561897D01*
X62272636Y-55779984D01*
X62272634Y-55779987D01*
X62174752Y-56016297D01*
X62115042Y-56265010D01*
X62094975Y-56520000D01*
X60275024Y-56520000D01*
X60254957Y-56265010D01*
X60195247Y-56016297D01*
X60097365Y-55779987D01*
X60097363Y-55779984D01*
X59963719Y-55561898D01*
X59963712Y-55561888D01*
X59960465Y-55558087D01*
X59960464Y-55558087D01*
X59396232Y-56122319D01*
X59352684Y-56040178D01*
X59232991Y-55899265D01*
X59085805Y-55787377D01*
X59043596Y-55767849D01*
X59606911Y-55204535D01*
X59606911Y-55204533D01*
X59603110Y-55201286D01*
X59603095Y-55201275D01*
X59385015Y-55067636D01*
X59385012Y-55067634D01*
X59148702Y-54969752D01*
X58899988Y-54910042D01*
X58899989Y-54910042D01*
X58645000Y-54889975D01*
X58390010Y-54910042D01*
X58141297Y-54969752D01*
X57904987Y-55067634D01*
X57904984Y-55067636D01*
X57686897Y-55201280D01*
X57683087Y-55204534D01*
X58246390Y-55767838D01*
X58127569Y-55839331D01*
X57993342Y-55966477D01*
X57890138Y-56118691D01*
X57329534Y-55558087D01*
X57326280Y-55561897D01*
X57192636Y-55779984D01*
X57192634Y-55779987D01*
X57094752Y-56016297D01*
X57035042Y-56265010D01*
X57014975Y-56520000D01*
X42355024Y-56520000D01*
X42334957Y-56265010D01*
X42275247Y-56016297D01*
X42177365Y-55779987D01*
X42177363Y-55779984D01*
X42043719Y-55561898D01*
X42043712Y-55561888D01*
X42040465Y-55558087D01*
X42040464Y-55558087D01*
X41476232Y-56122319D01*
X41432684Y-56040178D01*
X41312991Y-55899265D01*
X41165805Y-55787377D01*
X41123597Y-55767849D01*
X41686911Y-55204535D01*
X41686911Y-55204533D01*
X41683110Y-55201286D01*
X41683095Y-55201275D01*
X41465015Y-55067636D01*
X41465012Y-55067634D01*
X41228702Y-54969752D01*
X40979988Y-54910042D01*
X40979989Y-54910042D01*
X40725000Y-54889975D01*
X40470010Y-54910042D01*
X40221297Y-54969752D01*
X39984987Y-55067634D01*
X39984984Y-55067636D01*
X39766897Y-55201280D01*
X39763087Y-55204534D01*
X40326390Y-55767837D01*
X40207569Y-55839331D01*
X40073342Y-55966477D01*
X39970138Y-56118691D01*
X39409534Y-55558087D01*
X39406280Y-55561897D01*
X39272636Y-55779984D01*
X39272634Y-55779987D01*
X39174752Y-56016297D01*
X39115042Y-56265010D01*
X39094975Y-56520000D01*
X37275024Y-56520000D01*
X37254957Y-56265010D01*
X37195247Y-56016297D01*
X37097365Y-55779987D01*
X37097363Y-55779984D01*
X36963719Y-55561898D01*
X36963712Y-55561888D01*
X36960465Y-55558087D01*
X36960464Y-55558087D01*
X36396232Y-56122319D01*
X36352684Y-56040178D01*
X36232991Y-55899265D01*
X36085805Y-55787377D01*
X36043597Y-55767849D01*
X36606911Y-55204535D01*
X36606911Y-55204533D01*
X36603110Y-55201286D01*
X36603095Y-55201275D01*
X36385015Y-55067636D01*
X36385012Y-55067634D01*
X36148702Y-54969752D01*
X35899988Y-54910042D01*
X35899989Y-54910042D01*
X35645000Y-54889975D01*
X35390010Y-54910042D01*
X35141297Y-54969752D01*
X34904987Y-55067634D01*
X34904984Y-55067636D01*
X34686897Y-55201280D01*
X34683087Y-55204534D01*
X35246390Y-55767837D01*
X35127569Y-55839331D01*
X34993342Y-55966477D01*
X34890138Y-56118691D01*
X34329534Y-55558087D01*
X34326280Y-55561897D01*
X34192636Y-55779984D01*
X34192634Y-55779987D01*
X34094752Y-56016297D01*
X34035042Y-56265010D01*
X34014975Y-56519999D01*
X24685500Y-56519999D01*
X24685500Y-52549999D01*
X40089355Y-52549999D01*
X40109859Y-52718869D01*
X40109860Y-52718874D01*
X40170182Y-52877931D01*
X40232475Y-52968177D01*
X40266817Y-53017929D01*
X40372505Y-53111560D01*
X40394150Y-53130736D01*
X40544773Y-53209789D01*
X40544775Y-53209790D01*
X40709944Y-53250500D01*
X40880056Y-53250500D01*
X41045225Y-53209790D01*
X41124692Y-53168081D01*
X41195849Y-53130736D01*
X41195850Y-53130734D01*
X41195852Y-53130734D01*
X41323183Y-53017929D01*
X41419818Y-52877930D01*
X41480140Y-52718872D01*
X41500645Y-52550000D01*
X42330161Y-52550000D01*
X42349468Y-52746030D01*
X42406652Y-52934538D01*
X42472922Y-53058522D01*
X42950096Y-52581349D01*
X42950051Y-52581898D01*
X42981266Y-52705162D01*
X43050813Y-52811612D01*
X43151157Y-52889713D01*
X43271422Y-52931000D01*
X43307553Y-52931000D01*
X42826476Y-53412076D01*
X42950466Y-53478350D01*
X43138969Y-53535531D01*
X43138965Y-53535531D01*
X43334999Y-53554838D01*
X43531032Y-53535531D01*
X43719537Y-53478348D01*
X43843522Y-53412076D01*
X43362448Y-52931000D01*
X43366569Y-52931000D01*
X43460421Y-52915339D01*
X43572251Y-52854820D01*
X43658371Y-52761269D01*
X43709448Y-52644823D01*
X43715105Y-52576551D01*
X44197077Y-53058523D01*
X44263348Y-52934539D01*
X44320531Y-52746032D01*
X44339838Y-52550000D01*
X44339838Y-52549999D01*
X45169355Y-52549999D01*
X45189859Y-52718869D01*
X45189860Y-52718874D01*
X45250182Y-52877931D01*
X45312475Y-52968177D01*
X45346817Y-53017929D01*
X45452505Y-53111560D01*
X45474150Y-53130736D01*
X45624773Y-53209789D01*
X45624775Y-53209790D01*
X45789944Y-53250500D01*
X45960056Y-53250500D01*
X46125225Y-53209790D01*
X46204692Y-53168081D01*
X46275849Y-53130736D01*
X46275850Y-53130734D01*
X46275852Y-53130734D01*
X46403183Y-53017929D01*
X46499818Y-52877930D01*
X46560140Y-52718872D01*
X46580645Y-52550000D01*
X47709355Y-52550000D01*
X47729859Y-52718869D01*
X47729860Y-52718874D01*
X47790182Y-52877931D01*
X47852475Y-52968177D01*
X47886817Y-53017929D01*
X47992505Y-53111560D01*
X48014150Y-53130736D01*
X48164773Y-53209789D01*
X48164775Y-53209790D01*
X48329944Y-53250500D01*
X48500056Y-53250500D01*
X48665225Y-53209790D01*
X48744692Y-53168081D01*
X48815849Y-53130736D01*
X48815850Y-53130734D01*
X48815852Y-53130734D01*
X48943183Y-53017929D01*
X49039818Y-52877930D01*
X49100140Y-52718872D01*
X49120645Y-52550000D01*
X49120645Y-52549999D01*
X49950161Y-52549999D01*
X49969468Y-52746030D01*
X50026652Y-52934538D01*
X50092922Y-53058522D01*
X50570096Y-52581348D01*
X50570051Y-52581898D01*
X50601266Y-52705162D01*
X50670813Y-52811612D01*
X50771157Y-52889713D01*
X50891422Y-52931000D01*
X50927553Y-52931000D01*
X50446476Y-53412076D01*
X50570466Y-53478350D01*
X50758969Y-53535531D01*
X50758965Y-53535531D01*
X50955000Y-53554838D01*
X51151032Y-53535531D01*
X51339537Y-53478348D01*
X51463522Y-53412076D01*
X50982448Y-52931000D01*
X50986569Y-52931000D01*
X51080421Y-52915339D01*
X51192251Y-52854820D01*
X51278371Y-52761269D01*
X51329448Y-52644823D01*
X51335105Y-52576552D01*
X51817076Y-53058522D01*
X51883348Y-52934537D01*
X51940531Y-52746032D01*
X51959838Y-52549999D01*
X52490161Y-52549999D01*
X52509468Y-52746030D01*
X52566652Y-52934538D01*
X52632922Y-53058522D01*
X53110096Y-52581349D01*
X53110051Y-52581898D01*
X53141266Y-52705162D01*
X53210813Y-52811612D01*
X53311157Y-52889713D01*
X53431422Y-52931000D01*
X53467553Y-52931000D01*
X52986476Y-53412076D01*
X53110466Y-53478350D01*
X53298969Y-53535531D01*
X53298965Y-53535531D01*
X53495000Y-53554838D01*
X53691032Y-53535531D01*
X53879537Y-53478348D01*
X54003522Y-53412076D01*
X53522448Y-52931000D01*
X53526569Y-52931000D01*
X53620421Y-52915339D01*
X53732251Y-52854820D01*
X53818371Y-52761269D01*
X53869448Y-52644823D01*
X53875105Y-52576550D01*
X54357077Y-53058523D01*
X54423348Y-52934539D01*
X54480531Y-52746032D01*
X54499838Y-52550000D01*
X55030161Y-52550000D01*
X55049468Y-52746030D01*
X55106652Y-52934538D01*
X55172922Y-53058522D01*
X55650096Y-52581348D01*
X55650051Y-52581898D01*
X55681266Y-52705162D01*
X55750813Y-52811612D01*
X55851157Y-52889713D01*
X55971422Y-52931000D01*
X56007553Y-52931000D01*
X55526476Y-53412076D01*
X55650466Y-53478350D01*
X55838969Y-53535531D01*
X55838965Y-53535531D01*
X56034999Y-53554838D01*
X56231032Y-53535531D01*
X56419537Y-53478348D01*
X56543522Y-53412076D01*
X56062448Y-52931000D01*
X56066569Y-52931000D01*
X56160421Y-52915339D01*
X56272251Y-52854820D01*
X56358371Y-52761269D01*
X56409448Y-52644823D01*
X56415105Y-52576552D01*
X56897076Y-53058522D01*
X56963348Y-52934537D01*
X57020531Y-52746032D01*
X57039838Y-52550000D01*
X57869355Y-52550000D01*
X57889859Y-52718869D01*
X57889860Y-52718874D01*
X57950182Y-52877931D01*
X58012475Y-52968177D01*
X58046817Y-53017929D01*
X58152505Y-53111560D01*
X58174150Y-53130736D01*
X58324773Y-53209789D01*
X58324775Y-53209790D01*
X58489944Y-53250500D01*
X58660056Y-53250500D01*
X58825225Y-53209790D01*
X58904692Y-53168081D01*
X58975849Y-53130736D01*
X58975850Y-53130734D01*
X58975852Y-53130734D01*
X59103183Y-53017929D01*
X59199818Y-52877930D01*
X59260140Y-52718872D01*
X59280645Y-52550000D01*
X59260140Y-52381128D01*
X59199818Y-52222070D01*
X59103183Y-52082071D01*
X58975852Y-51969266D01*
X58975849Y-51969263D01*
X58825226Y-51890210D01*
X58660056Y-51849500D01*
X58489944Y-51849500D01*
X58324773Y-51890210D01*
X58174150Y-51969263D01*
X58046816Y-52082072D01*
X57950182Y-52222068D01*
X57889860Y-52381125D01*
X57889859Y-52381130D01*
X57869355Y-52550000D01*
X57039838Y-52550000D01*
X57020531Y-52353967D01*
X56963350Y-52165466D01*
X56897076Y-52041476D01*
X56419903Y-52518649D01*
X56419949Y-52518102D01*
X56388734Y-52394838D01*
X56319187Y-52288388D01*
X56218843Y-52210287D01*
X56098578Y-52169000D01*
X56062447Y-52169000D01*
X56543522Y-51687922D01*
X56543522Y-51687921D01*
X56419538Y-51621652D01*
X56231030Y-51564468D01*
X56034999Y-51545161D01*
X55838969Y-51564468D01*
X55650461Y-51621652D01*
X55526476Y-51687922D01*
X56007554Y-52169000D01*
X56003431Y-52169000D01*
X55909579Y-52184661D01*
X55797749Y-52245180D01*
X55711629Y-52338731D01*
X55660552Y-52455177D01*
X55654894Y-52523446D01*
X55172923Y-52041475D01*
X55172922Y-52041476D01*
X55106652Y-52165461D01*
X55049468Y-52353969D01*
X55030161Y-52550000D01*
X54499838Y-52550000D01*
X54480531Y-52353967D01*
X54423350Y-52165466D01*
X54357076Y-52041476D01*
X53879903Y-52518647D01*
X53879949Y-52518102D01*
X53848734Y-52394838D01*
X53779187Y-52288388D01*
X53678843Y-52210287D01*
X53558578Y-52169000D01*
X53522447Y-52169000D01*
X54003522Y-51687922D01*
X54003522Y-51687921D01*
X53879538Y-51621652D01*
X53691030Y-51564468D01*
X53495000Y-51545161D01*
X53298969Y-51564468D01*
X53110461Y-51621652D01*
X52986476Y-51687922D01*
X53467554Y-52169000D01*
X53463431Y-52169000D01*
X53369579Y-52184661D01*
X53257749Y-52245180D01*
X53171629Y-52338731D01*
X53120552Y-52455177D01*
X53114894Y-52523447D01*
X52632922Y-52041476D01*
X52566652Y-52165461D01*
X52509468Y-52353969D01*
X52490161Y-52549999D01*
X51959838Y-52549999D01*
X51940531Y-52353967D01*
X51883350Y-52165466D01*
X51817076Y-52041476D01*
X51339903Y-52518648D01*
X51339949Y-52518102D01*
X51308734Y-52394838D01*
X51239187Y-52288388D01*
X51138843Y-52210287D01*
X51018578Y-52169000D01*
X50982447Y-52169000D01*
X51463522Y-51687922D01*
X51463522Y-51687921D01*
X51339538Y-51621652D01*
X51151030Y-51564468D01*
X50955000Y-51545161D01*
X50758969Y-51564468D01*
X50570461Y-51621652D01*
X50446476Y-51687922D01*
X50927554Y-52169000D01*
X50923431Y-52169000D01*
X50829579Y-52184661D01*
X50717749Y-52245180D01*
X50631629Y-52338731D01*
X50580552Y-52455177D01*
X50574894Y-52523446D01*
X50092923Y-52041475D01*
X50092922Y-52041476D01*
X50026652Y-52165461D01*
X49969468Y-52353969D01*
X49950161Y-52549999D01*
X49120645Y-52549999D01*
X49100140Y-52381128D01*
X49039818Y-52222070D01*
X48943183Y-52082071D01*
X48815852Y-51969266D01*
X48815849Y-51969263D01*
X48665226Y-51890210D01*
X48500056Y-51849500D01*
X48329944Y-51849500D01*
X48164773Y-51890210D01*
X48014150Y-51969263D01*
X47886816Y-52082072D01*
X47790182Y-52222068D01*
X47729860Y-52381125D01*
X47729859Y-52381130D01*
X47709355Y-52550000D01*
X46580645Y-52550000D01*
X46560140Y-52381128D01*
X46499818Y-52222070D01*
X46403183Y-52082071D01*
X46275852Y-51969266D01*
X46275849Y-51969263D01*
X46125226Y-51890210D01*
X45960056Y-51849500D01*
X45789944Y-51849500D01*
X45624773Y-51890210D01*
X45474150Y-51969263D01*
X45346816Y-52082072D01*
X45250182Y-52222068D01*
X45189860Y-52381125D01*
X45189859Y-52381130D01*
X45169355Y-52549999D01*
X44339838Y-52549999D01*
X44320531Y-52353967D01*
X44263350Y-52165466D01*
X44197076Y-52041476D01*
X43719903Y-52518647D01*
X43719949Y-52518102D01*
X43688734Y-52394838D01*
X43619187Y-52288388D01*
X43518843Y-52210287D01*
X43398578Y-52169000D01*
X43362447Y-52169000D01*
X43843522Y-51687922D01*
X43843522Y-51687921D01*
X43719538Y-51621652D01*
X43531030Y-51564468D01*
X43334999Y-51545161D01*
X43138969Y-51564468D01*
X42950461Y-51621652D01*
X42826476Y-51687922D01*
X43307554Y-52169000D01*
X43303431Y-52169000D01*
X43209579Y-52184661D01*
X43097749Y-52245180D01*
X43011629Y-52338731D01*
X42960552Y-52455177D01*
X42954894Y-52523447D01*
X42472922Y-52041476D01*
X42406652Y-52165461D01*
X42349468Y-52353969D01*
X42330161Y-52550000D01*
X41500645Y-52550000D01*
X41480140Y-52381128D01*
X41419818Y-52222070D01*
X41323183Y-52082071D01*
X41195852Y-51969266D01*
X41195849Y-51969263D01*
X41045226Y-51890210D01*
X40880056Y-51849500D01*
X40709944Y-51849500D01*
X40544773Y-51890210D01*
X40394150Y-51969263D01*
X40266816Y-52082072D01*
X40170182Y-52222068D01*
X40109860Y-52381125D01*
X40109859Y-52381130D01*
X40089355Y-52549999D01*
X24685500Y-52549999D01*
X24685500Y-38835000D01*
X35444785Y-38835000D01*
X35463602Y-39038082D01*
X35519417Y-39234247D01*
X35519422Y-39234260D01*
X35610327Y-39416821D01*
X35733237Y-39579581D01*
X35883958Y-39716980D01*
X35883960Y-39716982D01*
X35983141Y-39778392D01*
X36057363Y-39824348D01*
X36247544Y-39898024D01*
X36448024Y-39935500D01*
X36448026Y-39935500D01*
X36651974Y-39935500D01*
X36651976Y-39935500D01*
X36852456Y-39898024D01*
X37042637Y-39824348D01*
X37216041Y-39716981D01*
X37366764Y-39579579D01*
X37489673Y-39416821D01*
X37580582Y-39234250D01*
X37636397Y-39038083D01*
X37655215Y-38835000D01*
X44164785Y-38835000D01*
X44183602Y-39038082D01*
X44239417Y-39234247D01*
X44239422Y-39234260D01*
X44330327Y-39416821D01*
X44453237Y-39579581D01*
X44603958Y-39716980D01*
X44603960Y-39716982D01*
X44703141Y-39778392D01*
X44777363Y-39824348D01*
X44967544Y-39898024D01*
X45168024Y-39935500D01*
X45168026Y-39935500D01*
X45371974Y-39935500D01*
X45371976Y-39935500D01*
X45572456Y-39898024D01*
X45762637Y-39824348D01*
X45936041Y-39716981D01*
X46086764Y-39579579D01*
X46209673Y-39416821D01*
X46300582Y-39234250D01*
X46356397Y-39038083D01*
X46367802Y-38915000D01*
X53389785Y-38915000D01*
X53408602Y-39118082D01*
X53464417Y-39314247D01*
X53464422Y-39314260D01*
X53555327Y-39496821D01*
X53678237Y-39659581D01*
X53828958Y-39796980D01*
X53828960Y-39796982D01*
X53845111Y-39806982D01*
X54002363Y-39904348D01*
X54192544Y-39978024D01*
X54393024Y-40015500D01*
X54393026Y-40015500D01*
X54596974Y-40015500D01*
X54596976Y-40015500D01*
X54797456Y-39978024D01*
X54987637Y-39904348D01*
X55161041Y-39796981D01*
X55311764Y-39659579D01*
X55434673Y-39496821D01*
X55525582Y-39314250D01*
X55581397Y-39118083D01*
X55599288Y-38925000D01*
X62104785Y-38925000D01*
X62123602Y-39128082D01*
X62179417Y-39324247D01*
X62179422Y-39324260D01*
X62270327Y-39506821D01*
X62393237Y-39669581D01*
X62543958Y-39806980D01*
X62543960Y-39806982D01*
X62643141Y-39868392D01*
X62717363Y-39914348D01*
X62907544Y-39988024D01*
X63108024Y-40025500D01*
X63108026Y-40025500D01*
X63311974Y-40025500D01*
X63311976Y-40025500D01*
X63512456Y-39988024D01*
X63702637Y-39914348D01*
X63876041Y-39806981D01*
X64026764Y-39669579D01*
X64149673Y-39506821D01*
X64240582Y-39324250D01*
X64296397Y-39128083D01*
X64315215Y-38925000D01*
X64306875Y-38835000D01*
X64296397Y-38721917D01*
X64270789Y-38631917D01*
X64240582Y-38525750D01*
X64235597Y-38515739D01*
X64195762Y-38435739D01*
X64149673Y-38343179D01*
X64081708Y-38253179D01*
X64026762Y-38180418D01*
X63876041Y-38043019D01*
X63876039Y-38043017D01*
X63702642Y-37935655D01*
X63702635Y-37935651D01*
X63607546Y-37898813D01*
X63512456Y-37861976D01*
X63311976Y-37824500D01*
X63108024Y-37824500D01*
X62907544Y-37861976D01*
X62907541Y-37861976D01*
X62907541Y-37861977D01*
X62717364Y-37935651D01*
X62717357Y-37935655D01*
X62543960Y-38043017D01*
X62543958Y-38043019D01*
X62393237Y-38180418D01*
X62270327Y-38343178D01*
X62179422Y-38525739D01*
X62179417Y-38525752D01*
X62123602Y-38721917D01*
X62104785Y-38924999D01*
X62104785Y-38925000D01*
X55599288Y-38925000D01*
X55600215Y-38915000D01*
X55581397Y-38711917D01*
X55525582Y-38515750D01*
X55485741Y-38435739D01*
X55439652Y-38343179D01*
X55434673Y-38333179D01*
X55319316Y-38180421D01*
X55311762Y-38170418D01*
X55161041Y-38033019D01*
X55161039Y-38033017D01*
X54987642Y-37925655D01*
X54987635Y-37925651D01*
X54892546Y-37888814D01*
X54797456Y-37851976D01*
X54596976Y-37814500D01*
X54393024Y-37814500D01*
X54192544Y-37851976D01*
X54192541Y-37851976D01*
X54192541Y-37851977D01*
X54002364Y-37925651D01*
X54002357Y-37925655D01*
X53828960Y-38033017D01*
X53828958Y-38033019D01*
X53678237Y-38170418D01*
X53555327Y-38333178D01*
X53464422Y-38515739D01*
X53464417Y-38515752D01*
X53408602Y-38711917D01*
X53389785Y-38914999D01*
X53389785Y-38915000D01*
X46367802Y-38915000D01*
X46375215Y-38835000D01*
X46356397Y-38631917D01*
X46300582Y-38435750D01*
X46209673Y-38253179D01*
X46086764Y-38090421D01*
X46086762Y-38090418D01*
X45936041Y-37953019D01*
X45936039Y-37953017D01*
X45762642Y-37845655D01*
X45762635Y-37845651D01*
X45667546Y-37808814D01*
X45572456Y-37771976D01*
X45371976Y-37734500D01*
X45168024Y-37734500D01*
X44967544Y-37771976D01*
X44967541Y-37771976D01*
X44967541Y-37771977D01*
X44777364Y-37845651D01*
X44777357Y-37845655D01*
X44603960Y-37953017D01*
X44603958Y-37953019D01*
X44453237Y-38090418D01*
X44330327Y-38253178D01*
X44239422Y-38435739D01*
X44239417Y-38435752D01*
X44183602Y-38631917D01*
X44164785Y-38834999D01*
X44164785Y-38835000D01*
X37655215Y-38835000D01*
X37636397Y-38631917D01*
X37580582Y-38435750D01*
X37489673Y-38253179D01*
X37366764Y-38090421D01*
X37366762Y-38090418D01*
X37216041Y-37953019D01*
X37216039Y-37953017D01*
X37042642Y-37845655D01*
X37042635Y-37845651D01*
X36947546Y-37808814D01*
X36852456Y-37771976D01*
X36651976Y-37734500D01*
X36448024Y-37734500D01*
X36247544Y-37771976D01*
X36247541Y-37771976D01*
X36247541Y-37771977D01*
X36057364Y-37845651D01*
X36057357Y-37845655D01*
X35883960Y-37953017D01*
X35883958Y-37953019D01*
X35733237Y-38090418D01*
X35610327Y-38253178D01*
X35519422Y-38435739D01*
X35519417Y-38435752D01*
X35463602Y-38631917D01*
X35444785Y-38834999D01*
X35444785Y-38835000D01*
X24685500Y-38835000D01*
X24685500Y-28925000D01*
X35169117Y-28925000D01*
X35221317Y-29131135D01*
X35314516Y-29343609D01*
X35441414Y-29537842D01*
X35598558Y-29708545D01*
X35598562Y-29708548D01*
X35781644Y-29851047D01*
X35781648Y-29851050D01*
X35985697Y-29961476D01*
X35985706Y-29961479D01*
X36205139Y-30036811D01*
X36299999Y-30052640D01*
X36300000Y-30052639D01*
X36300000Y-29049189D01*
X36352547Y-29085016D01*
X36482173Y-29125000D01*
X36583724Y-29125000D01*
X36684138Y-29109865D01*
X36800000Y-29054068D01*
X36800000Y-30052640D01*
X36894860Y-30036811D01*
X37114293Y-29961479D01*
X37114302Y-29961476D01*
X37318351Y-29851050D01*
X37318355Y-29851047D01*
X37501437Y-29708548D01*
X37501441Y-29708545D01*
X37658585Y-29537842D01*
X37785483Y-29343609D01*
X37878682Y-29131135D01*
X37930883Y-28925000D01*
X36925278Y-28925000D01*
X36973625Y-28841260D01*
X37003810Y-28709008D01*
X37001262Y-28675000D01*
X44164785Y-28675000D01*
X44183602Y-28878082D01*
X44239417Y-29074247D01*
X44239422Y-29074260D01*
X44330327Y-29256821D01*
X44453237Y-29419581D01*
X44582964Y-29537842D01*
X44599189Y-29552633D01*
X44603958Y-29556980D01*
X44603960Y-29556982D01*
X44703141Y-29618392D01*
X44777363Y-29664348D01*
X44967544Y-29738024D01*
X45168024Y-29775500D01*
X45168026Y-29775500D01*
X45371974Y-29775500D01*
X45371976Y-29775500D01*
X45572456Y-29738024D01*
X45762637Y-29664348D01*
X45936041Y-29556981D01*
X46086764Y-29419579D01*
X46209673Y-29256821D01*
X46300582Y-29074250D01*
X46356397Y-28878083D01*
X46367802Y-28755005D01*
X53090202Y-28755005D01*
X53109361Y-28986218D01*
X53166317Y-29211135D01*
X53259516Y-29423609D01*
X53343811Y-29552633D01*
X54050549Y-28845895D01*
X54051327Y-28856265D01*
X54100887Y-28982541D01*
X54185465Y-29088599D01*
X54297547Y-29165016D01*
X54405299Y-29198253D01*
X53696199Y-29907351D01*
X53726650Y-29931050D01*
X53930697Y-30041476D01*
X53930706Y-30041479D01*
X54150139Y-30116811D01*
X54378993Y-30155000D01*
X54611007Y-30155000D01*
X54839860Y-30116811D01*
X55059293Y-30041479D01*
X55059302Y-30041476D01*
X55263350Y-29931050D01*
X55293798Y-29907351D01*
X54583231Y-29196784D01*
X54629138Y-29189865D01*
X54751357Y-29131007D01*
X54850798Y-29038740D01*
X54918625Y-28921260D01*
X54936499Y-28842947D01*
X55646186Y-29552634D01*
X55730484Y-29423606D01*
X55823682Y-29211135D01*
X55880638Y-28986218D01*
X55898970Y-28765000D01*
X62104785Y-28765000D01*
X62123602Y-28968082D01*
X62179417Y-29164247D01*
X62179422Y-29164260D01*
X62270327Y-29346821D01*
X62393237Y-29509581D01*
X62543958Y-29646980D01*
X62543960Y-29646982D01*
X62643141Y-29708392D01*
X62717363Y-29754348D01*
X62907544Y-29828024D01*
X63108024Y-29865500D01*
X63108026Y-29865500D01*
X63311974Y-29865500D01*
X63311976Y-29865500D01*
X63512456Y-29828024D01*
X63702637Y-29754348D01*
X63876041Y-29646981D01*
X64026764Y-29509579D01*
X64149673Y-29346821D01*
X64240582Y-29164250D01*
X64296397Y-28968083D01*
X64315215Y-28765000D01*
X64306875Y-28675000D01*
X64296397Y-28561917D01*
X64270789Y-28471917D01*
X64240582Y-28365750D01*
X64149673Y-28183179D01*
X64081708Y-28093179D01*
X64026762Y-28020418D01*
X63876041Y-27883019D01*
X63876039Y-27883017D01*
X63702642Y-27775655D01*
X63702635Y-27775651D01*
X63607546Y-27738814D01*
X63512456Y-27701976D01*
X63311976Y-27664500D01*
X63108024Y-27664500D01*
X62907544Y-27701976D01*
X62907541Y-27701976D01*
X62907541Y-27701977D01*
X62717364Y-27775651D01*
X62717357Y-27775655D01*
X62543960Y-27883017D01*
X62543958Y-27883019D01*
X62393237Y-28020418D01*
X62270327Y-28183178D01*
X62179422Y-28365739D01*
X62179417Y-28365752D01*
X62123602Y-28561917D01*
X62104785Y-28764999D01*
X62104785Y-28765000D01*
X55898970Y-28765000D01*
X55899798Y-28755005D01*
X55899798Y-28754994D01*
X55880638Y-28523781D01*
X55823682Y-28298864D01*
X55730483Y-28086390D01*
X55646186Y-27957364D01*
X54939449Y-28664101D01*
X54938673Y-28653735D01*
X54889113Y-28527459D01*
X54804535Y-28421401D01*
X54692453Y-28344984D01*
X54584699Y-28311746D01*
X55293799Y-27602647D01*
X55263349Y-27578949D01*
X55059302Y-27468523D01*
X55059293Y-27468520D01*
X54839860Y-27393188D01*
X54611007Y-27355000D01*
X54378993Y-27355000D01*
X54150139Y-27393188D01*
X53930706Y-27468520D01*
X53930698Y-27468523D01*
X53726644Y-27578952D01*
X53696200Y-27602646D01*
X53696200Y-27602647D01*
X54406767Y-28313215D01*
X54360862Y-28320135D01*
X54238643Y-28378993D01*
X54139202Y-28471260D01*
X54071375Y-28588740D01*
X54053500Y-28667053D01*
X53343812Y-27957365D01*
X53259516Y-28086391D01*
X53259514Y-28086395D01*
X53166317Y-28298864D01*
X53109361Y-28523781D01*
X53090202Y-28754994D01*
X53090202Y-28755005D01*
X46367802Y-28755005D01*
X46375215Y-28675000D01*
X46356397Y-28471917D01*
X46300582Y-28275750D01*
X46295221Y-28264984D01*
X46254487Y-28183178D01*
X46209673Y-28093179D01*
X46107111Y-27957365D01*
X46086762Y-27930418D01*
X45936041Y-27793019D01*
X45936039Y-27793017D01*
X45762642Y-27685655D01*
X45762635Y-27685651D01*
X45648540Y-27641451D01*
X45572456Y-27611976D01*
X45371976Y-27574500D01*
X45168024Y-27574500D01*
X44967544Y-27611976D01*
X44967541Y-27611976D01*
X44967541Y-27611977D01*
X44777364Y-27685651D01*
X44777357Y-27685655D01*
X44603960Y-27793017D01*
X44603958Y-27793019D01*
X44453237Y-27930418D01*
X44330327Y-28093178D01*
X44239422Y-28275739D01*
X44239417Y-28275752D01*
X44183602Y-28471917D01*
X44164785Y-28674999D01*
X44164785Y-28675000D01*
X37001262Y-28675000D01*
X36993673Y-28573735D01*
X36944113Y-28447459D01*
X36926203Y-28425000D01*
X37930883Y-28425000D01*
X37878682Y-28218864D01*
X37785483Y-28006390D01*
X37658585Y-27812157D01*
X37501441Y-27641454D01*
X37501437Y-27641451D01*
X37318355Y-27498952D01*
X37318351Y-27498949D01*
X37114302Y-27388523D01*
X37114293Y-27388520D01*
X36894861Y-27313188D01*
X36800000Y-27297359D01*
X36800000Y-28300810D01*
X36747453Y-28264984D01*
X36617827Y-28225000D01*
X36516276Y-28225000D01*
X36415862Y-28240135D01*
X36300000Y-28295931D01*
X36300000Y-27297359D01*
X36299999Y-27297359D01*
X36205138Y-27313188D01*
X35985706Y-27388520D01*
X35985697Y-27388523D01*
X35781648Y-27498949D01*
X35781644Y-27498952D01*
X35598562Y-27641451D01*
X35598558Y-27641454D01*
X35441414Y-27812157D01*
X35314516Y-28006390D01*
X35221317Y-28218864D01*
X35169117Y-28425000D01*
X36174722Y-28425000D01*
X36126375Y-28508740D01*
X36096190Y-28640992D01*
X36106327Y-28776265D01*
X36155887Y-28902541D01*
X36173797Y-28925000D01*
X35169117Y-28925000D01*
X24685500Y-28925000D01*
X24685500Y-22547024D01*
X24685567Y-22545000D01*
X45153326Y-22545000D01*
X45172143Y-22748082D01*
X45227958Y-22944247D01*
X45227963Y-22944260D01*
X45318868Y-23126821D01*
X45441778Y-23289581D01*
X45592499Y-23426980D01*
X45592501Y-23426982D01*
X45691682Y-23488392D01*
X45765904Y-23534348D01*
X45956085Y-23608024D01*
X46156565Y-23645500D01*
X46156567Y-23645500D01*
X46360515Y-23645500D01*
X46360517Y-23645500D01*
X46560997Y-23608024D01*
X46751178Y-23534348D01*
X46924582Y-23426981D01*
X47075305Y-23289579D01*
X47198214Y-23126821D01*
X47289123Y-22944250D01*
X47331589Y-22795000D01*
X48304117Y-22795000D01*
X48356317Y-23001135D01*
X48449516Y-23213609D01*
X48576414Y-23407842D01*
X48733558Y-23578545D01*
X48733562Y-23578548D01*
X48916644Y-23721047D01*
X48916648Y-23721050D01*
X49120697Y-23831476D01*
X49120706Y-23831479D01*
X49340139Y-23906811D01*
X49434999Y-23922640D01*
X49435000Y-23922639D01*
X49435000Y-22919189D01*
X49487547Y-22955016D01*
X49617173Y-22995000D01*
X49718724Y-22995000D01*
X49819138Y-22979865D01*
X49935000Y-22924068D01*
X49935000Y-23922640D01*
X50029860Y-23906811D01*
X50249293Y-23831479D01*
X50249302Y-23831476D01*
X50453351Y-23721050D01*
X50453355Y-23721047D01*
X50636437Y-23578548D01*
X50636441Y-23578545D01*
X50793585Y-23407842D01*
X50920483Y-23213609D01*
X51013682Y-23001135D01*
X51065883Y-22795000D01*
X50060278Y-22795000D01*
X50108625Y-22711260D01*
X50138810Y-22579008D01*
X50136262Y-22545000D01*
X52006244Y-22545000D01*
X52025061Y-22748082D01*
X52080876Y-22944247D01*
X52080881Y-22944260D01*
X52171786Y-23126821D01*
X52294696Y-23289581D01*
X52445417Y-23426980D01*
X52445419Y-23426982D01*
X52544600Y-23488392D01*
X52618822Y-23534348D01*
X52809003Y-23608024D01*
X53009483Y-23645500D01*
X53009485Y-23645500D01*
X53213433Y-23645500D01*
X53213435Y-23645500D01*
X53413915Y-23608024D01*
X53604096Y-23534348D01*
X53777500Y-23426981D01*
X53928223Y-23289579D01*
X54051132Y-23126821D01*
X54142041Y-22944250D01*
X54197856Y-22748083D01*
X54216674Y-22545000D01*
X54205047Y-22419527D01*
X54197856Y-22341917D01*
X54174907Y-22261260D01*
X54142041Y-22145750D01*
X54136680Y-22134984D01*
X54061250Y-21983499D01*
X54051132Y-21963179D01*
X53928223Y-21800421D01*
X53928221Y-21800418D01*
X53777500Y-21663019D01*
X53777498Y-21663017D01*
X53604101Y-21555655D01*
X53604094Y-21555651D01*
X53474274Y-21505359D01*
X53413915Y-21481976D01*
X53213435Y-21444500D01*
X53009483Y-21444500D01*
X52809003Y-21481976D01*
X52809000Y-21481976D01*
X52809000Y-21481977D01*
X52618823Y-21555651D01*
X52618816Y-21555655D01*
X52445419Y-21663017D01*
X52445417Y-21663019D01*
X52294696Y-21800418D01*
X52171786Y-21963178D01*
X52080881Y-22145739D01*
X52080876Y-22145752D01*
X52025061Y-22341917D01*
X52006244Y-22544999D01*
X52006244Y-22545000D01*
X50136262Y-22545000D01*
X50128673Y-22443735D01*
X50079113Y-22317459D01*
X50061203Y-22295000D01*
X51065883Y-22295000D01*
X51013682Y-22088864D01*
X50920483Y-21876390D01*
X50793585Y-21682157D01*
X50636441Y-21511454D01*
X50636437Y-21511451D01*
X50453355Y-21368952D01*
X50453351Y-21368949D01*
X50249302Y-21258523D01*
X50249293Y-21258520D01*
X50029861Y-21183188D01*
X49935000Y-21167359D01*
X49935000Y-22170810D01*
X49882453Y-22134984D01*
X49752827Y-22095000D01*
X49651276Y-22095000D01*
X49550862Y-22110135D01*
X49435000Y-22165931D01*
X49435000Y-21167359D01*
X49434999Y-21167359D01*
X49340138Y-21183188D01*
X49120706Y-21258520D01*
X49120697Y-21258523D01*
X48916648Y-21368949D01*
X48916644Y-21368952D01*
X48733562Y-21511451D01*
X48733558Y-21511454D01*
X48576414Y-21682157D01*
X48449516Y-21876390D01*
X48356317Y-22088864D01*
X48304117Y-22295000D01*
X49309722Y-22295000D01*
X49261375Y-22378740D01*
X49231190Y-22510992D01*
X49241327Y-22646265D01*
X49290887Y-22772541D01*
X49308797Y-22795000D01*
X48304117Y-22795000D01*
X47331589Y-22795000D01*
X47344938Y-22748083D01*
X47363756Y-22545000D01*
X47352129Y-22419527D01*
X47344938Y-22341917D01*
X47321989Y-22261260D01*
X47289123Y-22145750D01*
X47283762Y-22134984D01*
X47208332Y-21983499D01*
X47198214Y-21963179D01*
X47075305Y-21800421D01*
X47075303Y-21800418D01*
X46924582Y-21663019D01*
X46924580Y-21663017D01*
X46751183Y-21555655D01*
X46751176Y-21555651D01*
X46621356Y-21505359D01*
X46560997Y-21481976D01*
X46360517Y-21444500D01*
X46156565Y-21444500D01*
X45956085Y-21481976D01*
X45956082Y-21481976D01*
X45956082Y-21481977D01*
X45765905Y-21555651D01*
X45765898Y-21555655D01*
X45592501Y-21663017D01*
X45592499Y-21663019D01*
X45441778Y-21800418D01*
X45318868Y-21963178D01*
X45227963Y-22145739D01*
X45227958Y-22145752D01*
X45172143Y-22341917D01*
X45153326Y-22544999D01*
X45153326Y-22545000D01*
X24685567Y-22545000D01*
X24685633Y-22542981D01*
X24687921Y-22508052D01*
X24690993Y-22461181D01*
X24692279Y-22443202D01*
X24693562Y-22425281D01*
X24694244Y-22419527D01*
X24763673Y-22002957D01*
X24768559Y-21983514D01*
X24801546Y-21886336D01*
X24802109Y-21884757D01*
X24818381Y-21841130D01*
X24820127Y-21836934D01*
X24934075Y-21589314D01*
X24935967Y-21585547D01*
X24977177Y-21510078D01*
X24980021Y-21505381D01*
X25051575Y-21398293D01*
X25053415Y-21395693D01*
X25135291Y-21286321D01*
X25138244Y-21282678D01*
X25223503Y-21185459D01*
X25226198Y-21182581D01*
X25322581Y-21086198D01*
X25325459Y-21083503D01*
X25422678Y-20998244D01*
X25426321Y-20995291D01*
X25535676Y-20913428D01*
X25538311Y-20911563D01*
X25645368Y-20840029D01*
X25650066Y-20837184D01*
X25770996Y-20771152D01*
X25773129Y-20770044D01*
X25887530Y-20713628D01*
X25893242Y-20711162D01*
X26024817Y-20662087D01*
X26026335Y-20661547D01*
X26144625Y-20621392D01*
X26151325Y-20619533D01*
X26295521Y-20588164D01*
X26397138Y-20567951D01*
X26403896Y-20566991D01*
X26532420Y-20555912D01*
X26590029Y-20551791D01*
X26601203Y-20550993D01*
X26682982Y-20545633D01*
X26687038Y-20545500D01*
X72682962Y-20545500D01*
X72687018Y-20545633D01*
G37*
%TD.AperFunction*%
%TD*%
M02*
