%TF.GenerationSoftware,KiCad,Pcbnew,7.0.5*%
%TF.CreationDate,2023-06-22T18:40:59-05:00*%
%TF.ProjectId,Single.Channel.Amp,53696e67-6c65-42e4-9368-616e6e656c2e,rev?*%
%TF.SameCoordinates,Original*%
%TF.FileFunction,Drillmap*%
%TF.FilePolarity,Positive*%
%FSLAX45Y45*%
G04 Gerber Fmt 4.5, Leading zero omitted, Abs format (unit mm)*
G04 Created by KiCad (PCBNEW 7.0.5) date 2023-06-22 18:40:59*
%MOMM*%
%LPD*%
G01*
G04 APERTURE LIST*
%ADD10C,0.100000*%
%ADD11C,0.200000*%
G04 APERTURE END LIST*
D10*
X2668500Y-2054500D02*
X7268500Y-2054500D01*
X7468500Y-2254500D02*
G75*
G03*
X7268500Y-2054500I-200000J0D01*
G01*
X2468500Y-6229500D02*
G75*
G03*
X2668500Y-6429500I200000J0D01*
G01*
X2668500Y-2054500D02*
G75*
G03*
X2468500Y-2254500I0J-200000D01*
G01*
X7268500Y-6429500D02*
G75*
G03*
X7468500Y-6229500I0J200000D01*
G01*
X7468500Y-6229500D02*
X7468500Y-2254500D01*
X2668500Y-6429500D02*
X7268500Y-6429500D01*
X2468500Y-2254500D02*
X2468500Y-6229500D01*
D11*
X2724277Y-6745984D02*
X2724277Y-6545984D01*
X2724277Y-6545984D02*
X2771896Y-6545984D01*
X2771896Y-6545984D02*
X2800467Y-6555508D01*
X2800467Y-6555508D02*
X2819515Y-6574555D01*
X2819515Y-6574555D02*
X2829039Y-6593603D01*
X2829039Y-6593603D02*
X2838562Y-6631698D01*
X2838562Y-6631698D02*
X2838562Y-6660269D01*
X2838562Y-6660269D02*
X2829039Y-6698365D01*
X2829039Y-6698365D02*
X2819515Y-6717412D01*
X2819515Y-6717412D02*
X2800467Y-6736460D01*
X2800467Y-6736460D02*
X2771896Y-6745984D01*
X2771896Y-6745984D02*
X2724277Y-6745984D01*
X2924277Y-6745984D02*
X2924277Y-6612650D01*
X2924277Y-6650746D02*
X2933801Y-6631698D01*
X2933801Y-6631698D02*
X2943324Y-6622174D01*
X2943324Y-6622174D02*
X2962372Y-6612650D01*
X2962372Y-6612650D02*
X2981420Y-6612650D01*
X3048086Y-6745984D02*
X3048086Y-6612650D01*
X3048086Y-6545984D02*
X3038562Y-6555508D01*
X3038562Y-6555508D02*
X3048086Y-6565031D01*
X3048086Y-6565031D02*
X3057610Y-6555508D01*
X3057610Y-6555508D02*
X3048086Y-6545984D01*
X3048086Y-6545984D02*
X3048086Y-6565031D01*
X3171896Y-6745984D02*
X3152848Y-6736460D01*
X3152848Y-6736460D02*
X3143324Y-6717412D01*
X3143324Y-6717412D02*
X3143324Y-6545984D01*
X3276658Y-6745984D02*
X3257610Y-6736460D01*
X3257610Y-6736460D02*
X3248086Y-6717412D01*
X3248086Y-6717412D02*
X3248086Y-6545984D01*
X3505229Y-6745984D02*
X3505229Y-6545984D01*
X3505229Y-6545984D02*
X3571896Y-6688841D01*
X3571896Y-6688841D02*
X3638562Y-6545984D01*
X3638562Y-6545984D02*
X3638562Y-6745984D01*
X3819515Y-6745984D02*
X3819515Y-6641222D01*
X3819515Y-6641222D02*
X3809991Y-6622174D01*
X3809991Y-6622174D02*
X3790943Y-6612650D01*
X3790943Y-6612650D02*
X3752848Y-6612650D01*
X3752848Y-6612650D02*
X3733801Y-6622174D01*
X3819515Y-6736460D02*
X3800467Y-6745984D01*
X3800467Y-6745984D02*
X3752848Y-6745984D01*
X3752848Y-6745984D02*
X3733801Y-6736460D01*
X3733801Y-6736460D02*
X3724277Y-6717412D01*
X3724277Y-6717412D02*
X3724277Y-6698365D01*
X3724277Y-6698365D02*
X3733801Y-6679317D01*
X3733801Y-6679317D02*
X3752848Y-6669793D01*
X3752848Y-6669793D02*
X3800467Y-6669793D01*
X3800467Y-6669793D02*
X3819515Y-6660269D01*
X3914753Y-6612650D02*
X3914753Y-6812650D01*
X3914753Y-6622174D02*
X3933801Y-6612650D01*
X3933801Y-6612650D02*
X3971896Y-6612650D01*
X3971896Y-6612650D02*
X3990943Y-6622174D01*
X3990943Y-6622174D02*
X4000467Y-6631698D01*
X4000467Y-6631698D02*
X4009991Y-6650746D01*
X4009991Y-6650746D02*
X4009991Y-6707888D01*
X4009991Y-6707888D02*
X4000467Y-6726936D01*
X4000467Y-6726936D02*
X3990943Y-6736460D01*
X3990943Y-6736460D02*
X3971896Y-6745984D01*
X3971896Y-6745984D02*
X3933801Y-6745984D01*
X3933801Y-6745984D02*
X3914753Y-6736460D01*
X4095705Y-6726936D02*
X4105229Y-6736460D01*
X4105229Y-6736460D02*
X4095705Y-6745984D01*
X4095705Y-6745984D02*
X4086182Y-6736460D01*
X4086182Y-6736460D02*
X4095705Y-6726936D01*
X4095705Y-6726936D02*
X4095705Y-6745984D01*
X4095705Y-6622174D02*
X4105229Y-6631698D01*
X4105229Y-6631698D02*
X4095705Y-6641222D01*
X4095705Y-6641222D02*
X4086182Y-6631698D01*
X4086182Y-6631698D02*
X4095705Y-6622174D01*
X4095705Y-6622174D02*
X4095705Y-6641222D01*
M02*
