M48
; DRILL file {KiCad 7.0.5} date Thu Jun 22 18:40:58 2023
; FORMAT={-:-/ absolute / metric / decimal}
; #@! TF.CreationDate,2023-06-22T18:40:58-05:00
; #@! TF.GenerationSoftware,Kicad,Pcbnew,7.0.5
; #@! TF.FileFunction,Plated,1,2,PTH
FMAT,2
METRIC
; #@! TA.AperFunction,Plated,PTH,ComponentDrill
T1C0.762
; #@! TA.AperFunction,Plated,PTH,ComponentDrill
T2C0.900
; #@! TA.AperFunction,Plated,PTH,ComponentDrill
T3C1.500
; #@! TA.AperFunction,Plated,PTH,ComponentDrill
T4C1.700
%
G90
G05
T1
X40.795Y-52.55
X43.335Y-52.55
X45.875Y-52.55
X48.415Y-52.55
X50.955Y-52.55
X53.495Y-52.55
X56.035Y-52.55
X58.575Y-52.55
T2
X36.55Y-28.675
X36.55Y-38.835
X45.27Y-28.675
X45.27Y-38.835
X46.259Y-22.545
X49.685Y-22.545
X53.111Y-22.545
X54.495Y-28.755
X54.495Y-38.915
X63.21Y-28.765
X63.21Y-38.925
T3
X38.185Y-59.06
X61.185Y-59.06
T4
X35.645Y-56.52
X35.645Y-61.6
X40.725Y-56.52
X40.725Y-61.6
X58.645Y-56.52
X58.645Y-61.6
X63.725Y-56.52
X63.725Y-61.6
T0
M30
