%TF.GenerationSoftware,KiCad,Pcbnew,7.0.5*%
%TF.CreationDate,2023-06-23T15:01:13-05:00*%
%TF.ProjectId,Single.Channel.Amp,53696e67-6c65-42e4-9368-616e6e656c2e,rev?*%
%TF.SameCoordinates,Original*%
%TF.FileFunction,Drillmap*%
%TF.FilePolarity,Positive*%
%FSLAX45Y45*%
G04 Gerber Fmt 4.5, Leading zero omitted, Abs format (unit mm)*
G04 Created by KiCad (PCBNEW 7.0.5) date 2023-06-23 15:01:13*
%MOMM*%
%LPD*%
G01*
G04 APERTURE LIST*
%ADD10C,0.150000*%
%ADD11C,0.200000*%
%ADD12C,0.040000*%
%ADD13C,0.100000*%
%ADD14C,0.170000*%
G04 APERTURE END LIST*
D10*
X7300000Y-7531000D02*
G75*
G03*
X7500000Y-7331000I0J200000D01*
G01*
X5700000Y-1531000D02*
X7300000Y-1531000D01*
X5700000Y-7531000D02*
X7300000Y-7531000D01*
X5500000Y-7331000D02*
G75*
G03*
X5700000Y-7531000I200000J0D01*
G01*
X5500000Y-7331000D02*
X5500000Y-1731000D01*
X7500000Y-1731000D02*
X7500000Y-7331000D01*
X7500000Y-1731000D02*
G75*
G03*
X7300000Y-1531000I-200000J0D01*
G01*
X5700000Y-1531000D02*
G75*
G03*
X5500000Y-1731000I0J-200000D01*
G01*
D11*
D12*
X5907500Y-3991000D02*
X5947500Y-4031000D01*
X5947500Y-3991000D02*
X5907500Y-4031000D01*
X6835500Y-5034500D02*
X6875500Y-5074500D01*
X6875500Y-5034500D02*
X6835500Y-5074500D01*
D13*
X6550000Y-3800000D02*
G75*
G03*
X6550000Y-3800000I-50000J0D01*
G01*
X6550000Y-4054000D02*
G75*
G03*
X6550000Y-4054000I-50000J0D01*
G01*
X6550000Y-4308000D02*
G75*
G03*
X6550000Y-4308000I-50000J0D01*
G01*
X6550000Y-4562000D02*
G75*
G03*
X6550000Y-4562000I-50000J0D01*
G01*
X6550000Y-4816000D02*
G75*
G03*
X6550000Y-4816000I-50000J0D01*
G01*
X6550000Y-5070000D02*
G75*
G03*
X6550000Y-5070000I-50000J0D01*
G01*
X6550000Y-5324000D02*
G75*
G03*
X6550000Y-5324000I-50000J0D01*
G01*
X6550000Y-5578000D02*
G75*
G03*
X6550000Y-5578000I-50000J0D01*
G01*
X7312000Y-1937000D02*
G75*
G03*
X7312000Y-1937000I-50000J0D01*
G01*
X7312000Y-2191000D02*
G75*
G03*
X7312000Y-2191000I-50000J0D01*
G01*
X7312000Y-2445000D02*
G75*
G03*
X7312000Y-2445000I-50000J0D01*
G01*
X7312000Y-2699000D02*
G75*
G03*
X7312000Y-2699000I-50000J0D01*
G01*
D10*
X6500000Y-1925000D02*
X6500000Y-2075000D01*
X6425000Y-2000000D02*
X6575000Y-2000000D01*
X6500000Y-6625000D02*
X6500000Y-6775000D01*
X6425000Y-6700000D02*
X6575000Y-6700000D01*
D14*
X6306105Y-1806105D02*
X6306105Y-1685895D01*
X6185895Y-1685895D01*
X6185895Y-1806105D01*
X6306105Y-1806105D01*
X6306105Y-2314105D02*
X6306105Y-2193895D01*
X6185895Y-2193895D01*
X6185895Y-2314105D01*
X6306105Y-2314105D01*
X6306105Y-6506105D02*
X6306105Y-6385895D01*
X6185895Y-6385895D01*
X6185895Y-6506105D01*
X6306105Y-6506105D01*
X6306105Y-7014105D02*
X6306105Y-6893895D01*
X6185895Y-6893895D01*
X6185895Y-7014105D01*
X6306105Y-7014105D01*
X6814105Y-1806105D02*
X6814105Y-1685895D01*
X6693895Y-1685895D01*
X6693895Y-1806105D01*
X6814105Y-1806105D01*
X6814105Y-2314105D02*
X6814105Y-2193895D01*
X6693895Y-2193895D01*
X6693895Y-2314105D01*
X6814105Y-2314105D01*
X6814105Y-6506105D02*
X6814105Y-6385895D01*
X6693895Y-6385895D01*
X6693895Y-6506105D01*
X6814105Y-6506105D01*
X6814105Y-7014105D02*
X6814105Y-6893895D01*
X6693895Y-6893895D01*
X6693895Y-7014105D01*
X6814105Y-7014105D01*
D11*
X5753277Y-7849984D02*
X5753277Y-7649984D01*
X5753277Y-7649984D02*
X5800896Y-7649984D01*
X5800896Y-7649984D02*
X5829467Y-7659508D01*
X5829467Y-7659508D02*
X5848515Y-7678555D01*
X5848515Y-7678555D02*
X5858039Y-7697603D01*
X5858039Y-7697603D02*
X5867562Y-7735698D01*
X5867562Y-7735698D02*
X5867562Y-7764269D01*
X5867562Y-7764269D02*
X5858039Y-7802365D01*
X5858039Y-7802365D02*
X5848515Y-7821412D01*
X5848515Y-7821412D02*
X5829467Y-7840460D01*
X5829467Y-7840460D02*
X5800896Y-7849984D01*
X5800896Y-7849984D02*
X5753277Y-7849984D01*
X5953277Y-7849984D02*
X5953277Y-7716650D01*
X5953277Y-7754746D02*
X5962801Y-7735698D01*
X5962801Y-7735698D02*
X5972324Y-7726174D01*
X5972324Y-7726174D02*
X5991372Y-7716650D01*
X5991372Y-7716650D02*
X6010420Y-7716650D01*
X6077086Y-7849984D02*
X6077086Y-7716650D01*
X6077086Y-7649984D02*
X6067562Y-7659508D01*
X6067562Y-7659508D02*
X6077086Y-7669031D01*
X6077086Y-7669031D02*
X6086610Y-7659508D01*
X6086610Y-7659508D02*
X6077086Y-7649984D01*
X6077086Y-7649984D02*
X6077086Y-7669031D01*
X6200896Y-7849984D02*
X6181848Y-7840460D01*
X6181848Y-7840460D02*
X6172324Y-7821412D01*
X6172324Y-7821412D02*
X6172324Y-7649984D01*
X6305658Y-7849984D02*
X6286610Y-7840460D01*
X6286610Y-7840460D02*
X6277086Y-7821412D01*
X6277086Y-7821412D02*
X6277086Y-7649984D01*
X6534229Y-7849984D02*
X6534229Y-7649984D01*
X6534229Y-7649984D02*
X6600896Y-7792841D01*
X6600896Y-7792841D02*
X6667562Y-7649984D01*
X6667562Y-7649984D02*
X6667562Y-7849984D01*
X6848515Y-7849984D02*
X6848515Y-7745222D01*
X6848515Y-7745222D02*
X6838991Y-7726174D01*
X6838991Y-7726174D02*
X6819943Y-7716650D01*
X6819943Y-7716650D02*
X6781848Y-7716650D01*
X6781848Y-7716650D02*
X6762801Y-7726174D01*
X6848515Y-7840460D02*
X6829467Y-7849984D01*
X6829467Y-7849984D02*
X6781848Y-7849984D01*
X6781848Y-7849984D02*
X6762801Y-7840460D01*
X6762801Y-7840460D02*
X6753277Y-7821412D01*
X6753277Y-7821412D02*
X6753277Y-7802365D01*
X6753277Y-7802365D02*
X6762801Y-7783317D01*
X6762801Y-7783317D02*
X6781848Y-7773793D01*
X6781848Y-7773793D02*
X6829467Y-7773793D01*
X6829467Y-7773793D02*
X6848515Y-7764269D01*
X6943753Y-7716650D02*
X6943753Y-7916650D01*
X6943753Y-7726174D02*
X6962801Y-7716650D01*
X6962801Y-7716650D02*
X7000896Y-7716650D01*
X7000896Y-7716650D02*
X7019943Y-7726174D01*
X7019943Y-7726174D02*
X7029467Y-7735698D01*
X7029467Y-7735698D02*
X7038991Y-7754746D01*
X7038991Y-7754746D02*
X7038991Y-7811888D01*
X7038991Y-7811888D02*
X7029467Y-7830936D01*
X7029467Y-7830936D02*
X7019943Y-7840460D01*
X7019943Y-7840460D02*
X7000896Y-7849984D01*
X7000896Y-7849984D02*
X6962801Y-7849984D01*
X6962801Y-7849984D02*
X6943753Y-7840460D01*
X7124705Y-7830936D02*
X7134229Y-7840460D01*
X7134229Y-7840460D02*
X7124705Y-7849984D01*
X7124705Y-7849984D02*
X7115182Y-7840460D01*
X7115182Y-7840460D02*
X7124705Y-7830936D01*
X7124705Y-7830936D02*
X7124705Y-7849984D01*
X7124705Y-7726174D02*
X7134229Y-7735698D01*
X7134229Y-7735698D02*
X7124705Y-7745222D01*
X7124705Y-7745222D02*
X7115182Y-7735698D01*
X7115182Y-7735698D02*
X7124705Y-7726174D01*
X7124705Y-7726174D02*
X7124705Y-7745222D01*
D12*
X5452500Y-8158500D02*
X5492500Y-8198500D01*
X5492500Y-8158500D02*
X5452500Y-8198500D01*
D11*
X5791372Y-8069984D02*
X5810420Y-8069984D01*
X5810420Y-8069984D02*
X5829467Y-8079508D01*
X5829467Y-8079508D02*
X5838991Y-8089031D01*
X5838991Y-8089031D02*
X5848515Y-8108079D01*
X5848515Y-8108079D02*
X5858039Y-8146174D01*
X5858039Y-8146174D02*
X5858039Y-8193793D01*
X5858039Y-8193793D02*
X5848515Y-8231888D01*
X5848515Y-8231888D02*
X5838991Y-8250936D01*
X5838991Y-8250936D02*
X5829467Y-8260460D01*
X5829467Y-8260460D02*
X5810420Y-8269984D01*
X5810420Y-8269984D02*
X5791372Y-8269984D01*
X5791372Y-8269984D02*
X5772324Y-8260460D01*
X5772324Y-8260460D02*
X5762801Y-8250936D01*
X5762801Y-8250936D02*
X5753277Y-8231888D01*
X5753277Y-8231888D02*
X5743753Y-8193793D01*
X5743753Y-8193793D02*
X5743753Y-8146174D01*
X5743753Y-8146174D02*
X5753277Y-8108079D01*
X5753277Y-8108079D02*
X5762801Y-8089031D01*
X5762801Y-8089031D02*
X5772324Y-8079508D01*
X5772324Y-8079508D02*
X5791372Y-8069984D01*
X5943753Y-8250936D02*
X5953277Y-8260460D01*
X5953277Y-8260460D02*
X5943753Y-8269984D01*
X5943753Y-8269984D02*
X5934229Y-8260460D01*
X5934229Y-8260460D02*
X5943753Y-8250936D01*
X5943753Y-8250936D02*
X5943753Y-8269984D01*
X6124705Y-8136650D02*
X6124705Y-8269984D01*
X6077086Y-8060460D02*
X6029467Y-8203317D01*
X6029467Y-8203317D02*
X6153277Y-8203317D01*
X6267562Y-8069984D02*
X6286610Y-8069984D01*
X6286610Y-8069984D02*
X6305658Y-8079508D01*
X6305658Y-8079508D02*
X6315182Y-8089031D01*
X6315182Y-8089031D02*
X6324705Y-8108079D01*
X6324705Y-8108079D02*
X6334229Y-8146174D01*
X6334229Y-8146174D02*
X6334229Y-8193793D01*
X6334229Y-8193793D02*
X6324705Y-8231888D01*
X6324705Y-8231888D02*
X6315182Y-8250936D01*
X6315182Y-8250936D02*
X6305658Y-8260460D01*
X6305658Y-8260460D02*
X6286610Y-8269984D01*
X6286610Y-8269984D02*
X6267562Y-8269984D01*
X6267562Y-8269984D02*
X6248515Y-8260460D01*
X6248515Y-8260460D02*
X6238991Y-8250936D01*
X6238991Y-8250936D02*
X6229467Y-8231888D01*
X6229467Y-8231888D02*
X6219943Y-8193793D01*
X6219943Y-8193793D02*
X6219943Y-8146174D01*
X6219943Y-8146174D02*
X6229467Y-8108079D01*
X6229467Y-8108079D02*
X6238991Y-8089031D01*
X6238991Y-8089031D02*
X6248515Y-8079508D01*
X6248515Y-8079508D02*
X6267562Y-8069984D01*
X6458039Y-8069984D02*
X6477086Y-8069984D01*
X6477086Y-8069984D02*
X6496134Y-8079508D01*
X6496134Y-8079508D02*
X6505658Y-8089031D01*
X6505658Y-8089031D02*
X6515182Y-8108079D01*
X6515182Y-8108079D02*
X6524705Y-8146174D01*
X6524705Y-8146174D02*
X6524705Y-8193793D01*
X6524705Y-8193793D02*
X6515182Y-8231888D01*
X6515182Y-8231888D02*
X6505658Y-8250936D01*
X6505658Y-8250936D02*
X6496134Y-8260460D01*
X6496134Y-8260460D02*
X6477086Y-8269984D01*
X6477086Y-8269984D02*
X6458039Y-8269984D01*
X6458039Y-8269984D02*
X6438991Y-8260460D01*
X6438991Y-8260460D02*
X6429467Y-8250936D01*
X6429467Y-8250936D02*
X6419943Y-8231888D01*
X6419943Y-8231888D02*
X6410420Y-8193793D01*
X6410420Y-8193793D02*
X6410420Y-8146174D01*
X6410420Y-8146174D02*
X6419943Y-8108079D01*
X6419943Y-8108079D02*
X6429467Y-8089031D01*
X6429467Y-8089031D02*
X6438991Y-8079508D01*
X6438991Y-8079508D02*
X6458039Y-8069984D01*
X6610420Y-8269984D02*
X6610420Y-8136650D01*
X6610420Y-8155698D02*
X6619943Y-8146174D01*
X6619943Y-8146174D02*
X6638991Y-8136650D01*
X6638991Y-8136650D02*
X6667563Y-8136650D01*
X6667563Y-8136650D02*
X6686610Y-8146174D01*
X6686610Y-8146174D02*
X6696134Y-8165222D01*
X6696134Y-8165222D02*
X6696134Y-8269984D01*
X6696134Y-8165222D02*
X6705658Y-8146174D01*
X6705658Y-8146174D02*
X6724705Y-8136650D01*
X6724705Y-8136650D02*
X6753277Y-8136650D01*
X6753277Y-8136650D02*
X6772324Y-8146174D01*
X6772324Y-8146174D02*
X6781848Y-8165222D01*
X6781848Y-8165222D02*
X6781848Y-8269984D01*
X6877086Y-8269984D02*
X6877086Y-8136650D01*
X6877086Y-8155698D02*
X6886610Y-8146174D01*
X6886610Y-8146174D02*
X6905658Y-8136650D01*
X6905658Y-8136650D02*
X6934229Y-8136650D01*
X6934229Y-8136650D02*
X6953277Y-8146174D01*
X6953277Y-8146174D02*
X6962801Y-8165222D01*
X6962801Y-8165222D02*
X6962801Y-8269984D01*
X6962801Y-8165222D02*
X6972324Y-8146174D01*
X6972324Y-8146174D02*
X6991372Y-8136650D01*
X6991372Y-8136650D02*
X7019943Y-8136650D01*
X7019943Y-8136650D02*
X7038991Y-8146174D01*
X7038991Y-8146174D02*
X7048515Y-8165222D01*
X7048515Y-8165222D02*
X7048515Y-8269984D01*
X7438991Y-8060460D02*
X7267563Y-8317603D01*
X7696134Y-8069984D02*
X7715182Y-8069984D01*
X7715182Y-8069984D02*
X7734229Y-8079508D01*
X7734229Y-8079508D02*
X7743753Y-8089031D01*
X7743753Y-8089031D02*
X7753277Y-8108079D01*
X7753277Y-8108079D02*
X7762801Y-8146174D01*
X7762801Y-8146174D02*
X7762801Y-8193793D01*
X7762801Y-8193793D02*
X7753277Y-8231888D01*
X7753277Y-8231888D02*
X7743753Y-8250936D01*
X7743753Y-8250936D02*
X7734229Y-8260460D01*
X7734229Y-8260460D02*
X7715182Y-8269984D01*
X7715182Y-8269984D02*
X7696134Y-8269984D01*
X7696134Y-8269984D02*
X7677086Y-8260460D01*
X7677086Y-8260460D02*
X7667563Y-8250936D01*
X7667563Y-8250936D02*
X7658039Y-8231888D01*
X7658039Y-8231888D02*
X7648515Y-8193793D01*
X7648515Y-8193793D02*
X7648515Y-8146174D01*
X7648515Y-8146174D02*
X7658039Y-8108079D01*
X7658039Y-8108079D02*
X7667563Y-8089031D01*
X7667563Y-8089031D02*
X7677086Y-8079508D01*
X7677086Y-8079508D02*
X7696134Y-8069984D01*
X7848515Y-8250936D02*
X7858039Y-8260460D01*
X7858039Y-8260460D02*
X7848515Y-8269984D01*
X7848515Y-8269984D02*
X7838991Y-8260460D01*
X7838991Y-8260460D02*
X7848515Y-8250936D01*
X7848515Y-8250936D02*
X7848515Y-8269984D01*
X7981848Y-8069984D02*
X8000896Y-8069984D01*
X8000896Y-8069984D02*
X8019944Y-8079508D01*
X8019944Y-8079508D02*
X8029467Y-8089031D01*
X8029467Y-8089031D02*
X8038991Y-8108079D01*
X8038991Y-8108079D02*
X8048515Y-8146174D01*
X8048515Y-8146174D02*
X8048515Y-8193793D01*
X8048515Y-8193793D02*
X8038991Y-8231888D01*
X8038991Y-8231888D02*
X8029467Y-8250936D01*
X8029467Y-8250936D02*
X8019944Y-8260460D01*
X8019944Y-8260460D02*
X8000896Y-8269984D01*
X8000896Y-8269984D02*
X7981848Y-8269984D01*
X7981848Y-8269984D02*
X7962801Y-8260460D01*
X7962801Y-8260460D02*
X7953277Y-8250936D01*
X7953277Y-8250936D02*
X7943753Y-8231888D01*
X7943753Y-8231888D02*
X7934229Y-8193793D01*
X7934229Y-8193793D02*
X7934229Y-8146174D01*
X7934229Y-8146174D02*
X7943753Y-8108079D01*
X7943753Y-8108079D02*
X7953277Y-8089031D01*
X7953277Y-8089031D02*
X7962801Y-8079508D01*
X7962801Y-8079508D02*
X7981848Y-8069984D01*
X8238991Y-8269984D02*
X8124706Y-8269984D01*
X8181848Y-8269984D02*
X8181848Y-8069984D01*
X8181848Y-8069984D02*
X8162801Y-8098555D01*
X8162801Y-8098555D02*
X8143753Y-8117603D01*
X8143753Y-8117603D02*
X8124706Y-8127127D01*
X8419944Y-8069984D02*
X8324706Y-8069984D01*
X8324706Y-8069984D02*
X8315182Y-8165222D01*
X8315182Y-8165222D02*
X8324706Y-8155698D01*
X8324706Y-8155698D02*
X8343753Y-8146174D01*
X8343753Y-8146174D02*
X8391372Y-8146174D01*
X8391372Y-8146174D02*
X8410420Y-8155698D01*
X8410420Y-8155698D02*
X8419944Y-8165222D01*
X8419944Y-8165222D02*
X8429468Y-8184269D01*
X8429468Y-8184269D02*
X8429468Y-8231888D01*
X8429468Y-8231888D02*
X8419944Y-8250936D01*
X8419944Y-8250936D02*
X8410420Y-8260460D01*
X8410420Y-8260460D02*
X8391372Y-8269984D01*
X8391372Y-8269984D02*
X8343753Y-8269984D01*
X8343753Y-8269984D02*
X8324706Y-8260460D01*
X8324706Y-8260460D02*
X8315182Y-8250936D01*
X8496134Y-8069984D02*
X8629468Y-8069984D01*
X8629468Y-8069984D02*
X8543753Y-8269984D01*
X8696134Y-8069984D02*
X8696134Y-8108079D01*
X8772325Y-8069984D02*
X8772325Y-8108079D01*
X9067563Y-8346174D02*
X9058039Y-8336650D01*
X9058039Y-8336650D02*
X9038991Y-8308079D01*
X9038991Y-8308079D02*
X9029468Y-8289031D01*
X9029468Y-8289031D02*
X9019944Y-8260460D01*
X9019944Y-8260460D02*
X9010420Y-8212841D01*
X9010420Y-8212841D02*
X9010420Y-8174746D01*
X9010420Y-8174746D02*
X9019944Y-8127127D01*
X9019944Y-8127127D02*
X9029468Y-8098555D01*
X9029468Y-8098555D02*
X9038991Y-8079508D01*
X9038991Y-8079508D02*
X9058039Y-8050936D01*
X9058039Y-8050936D02*
X9067563Y-8041412D01*
X9134230Y-8089031D02*
X9143753Y-8079508D01*
X9143753Y-8079508D02*
X9162801Y-8069984D01*
X9162801Y-8069984D02*
X9210420Y-8069984D01*
X9210420Y-8069984D02*
X9229468Y-8079508D01*
X9229468Y-8079508D02*
X9238991Y-8089031D01*
X9238991Y-8089031D02*
X9248515Y-8108079D01*
X9248515Y-8108079D02*
X9248515Y-8127127D01*
X9248515Y-8127127D02*
X9238991Y-8155698D01*
X9238991Y-8155698D02*
X9124706Y-8269984D01*
X9124706Y-8269984D02*
X9248515Y-8269984D01*
X9486611Y-8269984D02*
X9486611Y-8069984D01*
X9572325Y-8269984D02*
X9572325Y-8165222D01*
X9572325Y-8165222D02*
X9562801Y-8146174D01*
X9562801Y-8146174D02*
X9543753Y-8136650D01*
X9543753Y-8136650D02*
X9515182Y-8136650D01*
X9515182Y-8136650D02*
X9496134Y-8146174D01*
X9496134Y-8146174D02*
X9486611Y-8155698D01*
X9696134Y-8269984D02*
X9677087Y-8260460D01*
X9677087Y-8260460D02*
X9667563Y-8250936D01*
X9667563Y-8250936D02*
X9658039Y-8231888D01*
X9658039Y-8231888D02*
X9658039Y-8174746D01*
X9658039Y-8174746D02*
X9667563Y-8155698D01*
X9667563Y-8155698D02*
X9677087Y-8146174D01*
X9677087Y-8146174D02*
X9696134Y-8136650D01*
X9696134Y-8136650D02*
X9724706Y-8136650D01*
X9724706Y-8136650D02*
X9743753Y-8146174D01*
X9743753Y-8146174D02*
X9753277Y-8155698D01*
X9753277Y-8155698D02*
X9762801Y-8174746D01*
X9762801Y-8174746D02*
X9762801Y-8231888D01*
X9762801Y-8231888D02*
X9753277Y-8250936D01*
X9753277Y-8250936D02*
X9743753Y-8260460D01*
X9743753Y-8260460D02*
X9724706Y-8269984D01*
X9724706Y-8269984D02*
X9696134Y-8269984D01*
X9877087Y-8269984D02*
X9858039Y-8260460D01*
X9858039Y-8260460D02*
X9848515Y-8241412D01*
X9848515Y-8241412D02*
X9848515Y-8069984D01*
X10029468Y-8260460D02*
X10010420Y-8269984D01*
X10010420Y-8269984D02*
X9972325Y-8269984D01*
X9972325Y-8269984D02*
X9953277Y-8260460D01*
X9953277Y-8260460D02*
X9943753Y-8241412D01*
X9943753Y-8241412D02*
X9943753Y-8165222D01*
X9943753Y-8165222D02*
X9953277Y-8146174D01*
X9953277Y-8146174D02*
X9972325Y-8136650D01*
X9972325Y-8136650D02*
X10010420Y-8136650D01*
X10010420Y-8136650D02*
X10029468Y-8146174D01*
X10029468Y-8146174D02*
X10038992Y-8165222D01*
X10038992Y-8165222D02*
X10038992Y-8184269D01*
X10038992Y-8184269D02*
X9943753Y-8203317D01*
X10115182Y-8260460D02*
X10134230Y-8269984D01*
X10134230Y-8269984D02*
X10172325Y-8269984D01*
X10172325Y-8269984D02*
X10191373Y-8260460D01*
X10191373Y-8260460D02*
X10200896Y-8241412D01*
X10200896Y-8241412D02*
X10200896Y-8231888D01*
X10200896Y-8231888D02*
X10191373Y-8212841D01*
X10191373Y-8212841D02*
X10172325Y-8203317D01*
X10172325Y-8203317D02*
X10143753Y-8203317D01*
X10143753Y-8203317D02*
X10124706Y-8193793D01*
X10124706Y-8193793D02*
X10115182Y-8174746D01*
X10115182Y-8174746D02*
X10115182Y-8165222D01*
X10115182Y-8165222D02*
X10124706Y-8146174D01*
X10124706Y-8146174D02*
X10143753Y-8136650D01*
X10143753Y-8136650D02*
X10172325Y-8136650D01*
X10172325Y-8136650D02*
X10191373Y-8146174D01*
X10267563Y-8346174D02*
X10277087Y-8336650D01*
X10277087Y-8336650D02*
X10296134Y-8308079D01*
X10296134Y-8308079D02*
X10305658Y-8289031D01*
X10305658Y-8289031D02*
X10315182Y-8260460D01*
X10315182Y-8260460D02*
X10324706Y-8212841D01*
X10324706Y-8212841D02*
X10324706Y-8174746D01*
X10324706Y-8174746D02*
X10315182Y-8127127D01*
X10315182Y-8127127D02*
X10305658Y-8098555D01*
X10305658Y-8098555D02*
X10296134Y-8079508D01*
X10296134Y-8079508D02*
X10277087Y-8050936D01*
X10277087Y-8050936D02*
X10267563Y-8041412D01*
D13*
X5492500Y-8442500D02*
G75*
G03*
X5492500Y-8442500I-50000J0D01*
G01*
D11*
X5858039Y-8533984D02*
X5743753Y-8533984D01*
X5800896Y-8533984D02*
X5800896Y-8333984D01*
X5800896Y-8333984D02*
X5781848Y-8362555D01*
X5781848Y-8362555D02*
X5762801Y-8381603D01*
X5762801Y-8381603D02*
X5743753Y-8391127D01*
X5943753Y-8514936D02*
X5953277Y-8524460D01*
X5953277Y-8524460D02*
X5943753Y-8533984D01*
X5943753Y-8533984D02*
X5934229Y-8524460D01*
X5934229Y-8524460D02*
X5943753Y-8514936D01*
X5943753Y-8514936D02*
X5943753Y-8533984D01*
X6077086Y-8333984D02*
X6096134Y-8333984D01*
X6096134Y-8333984D02*
X6115182Y-8343508D01*
X6115182Y-8343508D02*
X6124705Y-8353031D01*
X6124705Y-8353031D02*
X6134229Y-8372079D01*
X6134229Y-8372079D02*
X6143753Y-8410174D01*
X6143753Y-8410174D02*
X6143753Y-8457793D01*
X6143753Y-8457793D02*
X6134229Y-8495889D01*
X6134229Y-8495889D02*
X6124705Y-8514936D01*
X6124705Y-8514936D02*
X6115182Y-8524460D01*
X6115182Y-8524460D02*
X6096134Y-8533984D01*
X6096134Y-8533984D02*
X6077086Y-8533984D01*
X6077086Y-8533984D02*
X6058039Y-8524460D01*
X6058039Y-8524460D02*
X6048515Y-8514936D01*
X6048515Y-8514936D02*
X6038991Y-8495889D01*
X6038991Y-8495889D02*
X6029467Y-8457793D01*
X6029467Y-8457793D02*
X6029467Y-8410174D01*
X6029467Y-8410174D02*
X6038991Y-8372079D01*
X6038991Y-8372079D02*
X6048515Y-8353031D01*
X6048515Y-8353031D02*
X6058039Y-8343508D01*
X6058039Y-8343508D02*
X6077086Y-8333984D01*
X6267562Y-8333984D02*
X6286610Y-8333984D01*
X6286610Y-8333984D02*
X6305658Y-8343508D01*
X6305658Y-8343508D02*
X6315182Y-8353031D01*
X6315182Y-8353031D02*
X6324705Y-8372079D01*
X6324705Y-8372079D02*
X6334229Y-8410174D01*
X6334229Y-8410174D02*
X6334229Y-8457793D01*
X6334229Y-8457793D02*
X6324705Y-8495889D01*
X6324705Y-8495889D02*
X6315182Y-8514936D01*
X6315182Y-8514936D02*
X6305658Y-8524460D01*
X6305658Y-8524460D02*
X6286610Y-8533984D01*
X6286610Y-8533984D02*
X6267562Y-8533984D01*
X6267562Y-8533984D02*
X6248515Y-8524460D01*
X6248515Y-8524460D02*
X6238991Y-8514936D01*
X6238991Y-8514936D02*
X6229467Y-8495889D01*
X6229467Y-8495889D02*
X6219943Y-8457793D01*
X6219943Y-8457793D02*
X6219943Y-8410174D01*
X6219943Y-8410174D02*
X6229467Y-8372079D01*
X6229467Y-8372079D02*
X6238991Y-8353031D01*
X6238991Y-8353031D02*
X6248515Y-8343508D01*
X6248515Y-8343508D02*
X6267562Y-8333984D01*
X6458039Y-8333984D02*
X6477086Y-8333984D01*
X6477086Y-8333984D02*
X6496134Y-8343508D01*
X6496134Y-8343508D02*
X6505658Y-8353031D01*
X6505658Y-8353031D02*
X6515182Y-8372079D01*
X6515182Y-8372079D02*
X6524705Y-8410174D01*
X6524705Y-8410174D02*
X6524705Y-8457793D01*
X6524705Y-8457793D02*
X6515182Y-8495889D01*
X6515182Y-8495889D02*
X6505658Y-8514936D01*
X6505658Y-8514936D02*
X6496134Y-8524460D01*
X6496134Y-8524460D02*
X6477086Y-8533984D01*
X6477086Y-8533984D02*
X6458039Y-8533984D01*
X6458039Y-8533984D02*
X6438991Y-8524460D01*
X6438991Y-8524460D02*
X6429467Y-8514936D01*
X6429467Y-8514936D02*
X6419943Y-8495889D01*
X6419943Y-8495889D02*
X6410420Y-8457793D01*
X6410420Y-8457793D02*
X6410420Y-8410174D01*
X6410420Y-8410174D02*
X6419943Y-8372079D01*
X6419943Y-8372079D02*
X6429467Y-8353031D01*
X6429467Y-8353031D02*
X6438991Y-8343508D01*
X6438991Y-8343508D02*
X6458039Y-8333984D01*
X6610420Y-8533984D02*
X6610420Y-8400650D01*
X6610420Y-8419698D02*
X6619943Y-8410174D01*
X6619943Y-8410174D02*
X6638991Y-8400650D01*
X6638991Y-8400650D02*
X6667563Y-8400650D01*
X6667563Y-8400650D02*
X6686610Y-8410174D01*
X6686610Y-8410174D02*
X6696134Y-8429222D01*
X6696134Y-8429222D02*
X6696134Y-8533984D01*
X6696134Y-8429222D02*
X6705658Y-8410174D01*
X6705658Y-8410174D02*
X6724705Y-8400650D01*
X6724705Y-8400650D02*
X6753277Y-8400650D01*
X6753277Y-8400650D02*
X6772324Y-8410174D01*
X6772324Y-8410174D02*
X6781848Y-8429222D01*
X6781848Y-8429222D02*
X6781848Y-8533984D01*
X6877086Y-8533984D02*
X6877086Y-8400650D01*
X6877086Y-8419698D02*
X6886610Y-8410174D01*
X6886610Y-8410174D02*
X6905658Y-8400650D01*
X6905658Y-8400650D02*
X6934229Y-8400650D01*
X6934229Y-8400650D02*
X6953277Y-8410174D01*
X6953277Y-8410174D02*
X6962801Y-8429222D01*
X6962801Y-8429222D02*
X6962801Y-8533984D01*
X6962801Y-8429222D02*
X6972324Y-8410174D01*
X6972324Y-8410174D02*
X6991372Y-8400650D01*
X6991372Y-8400650D02*
X7019943Y-8400650D01*
X7019943Y-8400650D02*
X7038991Y-8410174D01*
X7038991Y-8410174D02*
X7048515Y-8429222D01*
X7048515Y-8429222D02*
X7048515Y-8533984D01*
X7438991Y-8324460D02*
X7267563Y-8581603D01*
X7696134Y-8333984D02*
X7715182Y-8333984D01*
X7715182Y-8333984D02*
X7734229Y-8343508D01*
X7734229Y-8343508D02*
X7743753Y-8353031D01*
X7743753Y-8353031D02*
X7753277Y-8372079D01*
X7753277Y-8372079D02*
X7762801Y-8410174D01*
X7762801Y-8410174D02*
X7762801Y-8457793D01*
X7762801Y-8457793D02*
X7753277Y-8495889D01*
X7753277Y-8495889D02*
X7743753Y-8514936D01*
X7743753Y-8514936D02*
X7734229Y-8524460D01*
X7734229Y-8524460D02*
X7715182Y-8533984D01*
X7715182Y-8533984D02*
X7696134Y-8533984D01*
X7696134Y-8533984D02*
X7677086Y-8524460D01*
X7677086Y-8524460D02*
X7667563Y-8514936D01*
X7667563Y-8514936D02*
X7658039Y-8495889D01*
X7658039Y-8495889D02*
X7648515Y-8457793D01*
X7648515Y-8457793D02*
X7648515Y-8410174D01*
X7648515Y-8410174D02*
X7658039Y-8372079D01*
X7658039Y-8372079D02*
X7667563Y-8353031D01*
X7667563Y-8353031D02*
X7677086Y-8343508D01*
X7677086Y-8343508D02*
X7696134Y-8333984D01*
X7848515Y-8514936D02*
X7858039Y-8524460D01*
X7858039Y-8524460D02*
X7848515Y-8533984D01*
X7848515Y-8533984D02*
X7838991Y-8524460D01*
X7838991Y-8524460D02*
X7848515Y-8514936D01*
X7848515Y-8514936D02*
X7848515Y-8533984D01*
X7981848Y-8333984D02*
X8000896Y-8333984D01*
X8000896Y-8333984D02*
X8019944Y-8343508D01*
X8019944Y-8343508D02*
X8029467Y-8353031D01*
X8029467Y-8353031D02*
X8038991Y-8372079D01*
X8038991Y-8372079D02*
X8048515Y-8410174D01*
X8048515Y-8410174D02*
X8048515Y-8457793D01*
X8048515Y-8457793D02*
X8038991Y-8495889D01*
X8038991Y-8495889D02*
X8029467Y-8514936D01*
X8029467Y-8514936D02*
X8019944Y-8524460D01*
X8019944Y-8524460D02*
X8000896Y-8533984D01*
X8000896Y-8533984D02*
X7981848Y-8533984D01*
X7981848Y-8533984D02*
X7962801Y-8524460D01*
X7962801Y-8524460D02*
X7953277Y-8514936D01*
X7953277Y-8514936D02*
X7943753Y-8495889D01*
X7943753Y-8495889D02*
X7934229Y-8457793D01*
X7934229Y-8457793D02*
X7934229Y-8410174D01*
X7934229Y-8410174D02*
X7943753Y-8372079D01*
X7943753Y-8372079D02*
X7953277Y-8353031D01*
X7953277Y-8353031D02*
X7962801Y-8343508D01*
X7962801Y-8343508D02*
X7981848Y-8333984D01*
X8115182Y-8333984D02*
X8238991Y-8333984D01*
X8238991Y-8333984D02*
X8172325Y-8410174D01*
X8172325Y-8410174D02*
X8200896Y-8410174D01*
X8200896Y-8410174D02*
X8219944Y-8419698D01*
X8219944Y-8419698D02*
X8229467Y-8429222D01*
X8229467Y-8429222D02*
X8238991Y-8448270D01*
X8238991Y-8448270D02*
X8238991Y-8495889D01*
X8238991Y-8495889D02*
X8229467Y-8514936D01*
X8229467Y-8514936D02*
X8219944Y-8524460D01*
X8219944Y-8524460D02*
X8200896Y-8533984D01*
X8200896Y-8533984D02*
X8143753Y-8533984D01*
X8143753Y-8533984D02*
X8124706Y-8524460D01*
X8124706Y-8524460D02*
X8115182Y-8514936D01*
X8334229Y-8533984D02*
X8372325Y-8533984D01*
X8372325Y-8533984D02*
X8391372Y-8524460D01*
X8391372Y-8524460D02*
X8400896Y-8514936D01*
X8400896Y-8514936D02*
X8419944Y-8486365D01*
X8419944Y-8486365D02*
X8429468Y-8448270D01*
X8429468Y-8448270D02*
X8429468Y-8372079D01*
X8429468Y-8372079D02*
X8419944Y-8353031D01*
X8419944Y-8353031D02*
X8410420Y-8343508D01*
X8410420Y-8343508D02*
X8391372Y-8333984D01*
X8391372Y-8333984D02*
X8353277Y-8333984D01*
X8353277Y-8333984D02*
X8334229Y-8343508D01*
X8334229Y-8343508D02*
X8324706Y-8353031D01*
X8324706Y-8353031D02*
X8315182Y-8372079D01*
X8315182Y-8372079D02*
X8315182Y-8419698D01*
X8315182Y-8419698D02*
X8324706Y-8438746D01*
X8324706Y-8438746D02*
X8334229Y-8448270D01*
X8334229Y-8448270D02*
X8353277Y-8457793D01*
X8353277Y-8457793D02*
X8391372Y-8457793D01*
X8391372Y-8457793D02*
X8410420Y-8448270D01*
X8410420Y-8448270D02*
X8419944Y-8438746D01*
X8419944Y-8438746D02*
X8429468Y-8419698D01*
X8600896Y-8400650D02*
X8600896Y-8533984D01*
X8553277Y-8324460D02*
X8505658Y-8467317D01*
X8505658Y-8467317D02*
X8629468Y-8467317D01*
X8696134Y-8333984D02*
X8696134Y-8372079D01*
X8772325Y-8333984D02*
X8772325Y-8372079D01*
X9067563Y-8610174D02*
X9058039Y-8600650D01*
X9058039Y-8600650D02*
X9038991Y-8572079D01*
X9038991Y-8572079D02*
X9029468Y-8553031D01*
X9029468Y-8553031D02*
X9019944Y-8524460D01*
X9019944Y-8524460D02*
X9010420Y-8476841D01*
X9010420Y-8476841D02*
X9010420Y-8438746D01*
X9010420Y-8438746D02*
X9019944Y-8391127D01*
X9019944Y-8391127D02*
X9029468Y-8362555D01*
X9029468Y-8362555D02*
X9038991Y-8343508D01*
X9038991Y-8343508D02*
X9058039Y-8314936D01*
X9058039Y-8314936D02*
X9067563Y-8305412D01*
X9248515Y-8533984D02*
X9134230Y-8533984D01*
X9191372Y-8533984D02*
X9191372Y-8333984D01*
X9191372Y-8333984D02*
X9172325Y-8362555D01*
X9172325Y-8362555D02*
X9153277Y-8381603D01*
X9153277Y-8381603D02*
X9134230Y-8391127D01*
X9324706Y-8353031D02*
X9334230Y-8343508D01*
X9334230Y-8343508D02*
X9353277Y-8333984D01*
X9353277Y-8333984D02*
X9400896Y-8333984D01*
X9400896Y-8333984D02*
X9419944Y-8343508D01*
X9419944Y-8343508D02*
X9429468Y-8353031D01*
X9429468Y-8353031D02*
X9438991Y-8372079D01*
X9438991Y-8372079D02*
X9438991Y-8391127D01*
X9438991Y-8391127D02*
X9429468Y-8419698D01*
X9429468Y-8419698D02*
X9315182Y-8533984D01*
X9315182Y-8533984D02*
X9438991Y-8533984D01*
X9677087Y-8533984D02*
X9677087Y-8333984D01*
X9762801Y-8533984D02*
X9762801Y-8429222D01*
X9762801Y-8429222D02*
X9753277Y-8410174D01*
X9753277Y-8410174D02*
X9734230Y-8400650D01*
X9734230Y-8400650D02*
X9705658Y-8400650D01*
X9705658Y-8400650D02*
X9686611Y-8410174D01*
X9686611Y-8410174D02*
X9677087Y-8419698D01*
X9886611Y-8533984D02*
X9867563Y-8524460D01*
X9867563Y-8524460D02*
X9858039Y-8514936D01*
X9858039Y-8514936D02*
X9848515Y-8495889D01*
X9848515Y-8495889D02*
X9848515Y-8438746D01*
X9848515Y-8438746D02*
X9858039Y-8419698D01*
X9858039Y-8419698D02*
X9867563Y-8410174D01*
X9867563Y-8410174D02*
X9886611Y-8400650D01*
X9886611Y-8400650D02*
X9915182Y-8400650D01*
X9915182Y-8400650D02*
X9934230Y-8410174D01*
X9934230Y-8410174D02*
X9943753Y-8419698D01*
X9943753Y-8419698D02*
X9953277Y-8438746D01*
X9953277Y-8438746D02*
X9953277Y-8495889D01*
X9953277Y-8495889D02*
X9943753Y-8514936D01*
X9943753Y-8514936D02*
X9934230Y-8524460D01*
X9934230Y-8524460D02*
X9915182Y-8533984D01*
X9915182Y-8533984D02*
X9886611Y-8533984D01*
X10067563Y-8533984D02*
X10048515Y-8524460D01*
X10048515Y-8524460D02*
X10038992Y-8505412D01*
X10038992Y-8505412D02*
X10038992Y-8333984D01*
X10219944Y-8524460D02*
X10200896Y-8533984D01*
X10200896Y-8533984D02*
X10162801Y-8533984D01*
X10162801Y-8533984D02*
X10143753Y-8524460D01*
X10143753Y-8524460D02*
X10134230Y-8505412D01*
X10134230Y-8505412D02*
X10134230Y-8429222D01*
X10134230Y-8429222D02*
X10143753Y-8410174D01*
X10143753Y-8410174D02*
X10162801Y-8400650D01*
X10162801Y-8400650D02*
X10200896Y-8400650D01*
X10200896Y-8400650D02*
X10219944Y-8410174D01*
X10219944Y-8410174D02*
X10229468Y-8429222D01*
X10229468Y-8429222D02*
X10229468Y-8448270D01*
X10229468Y-8448270D02*
X10134230Y-8467317D01*
X10305658Y-8524460D02*
X10324706Y-8533984D01*
X10324706Y-8533984D02*
X10362801Y-8533984D01*
X10362801Y-8533984D02*
X10381849Y-8524460D01*
X10381849Y-8524460D02*
X10391373Y-8505412D01*
X10391373Y-8505412D02*
X10391373Y-8495889D01*
X10391373Y-8495889D02*
X10381849Y-8476841D01*
X10381849Y-8476841D02*
X10362801Y-8467317D01*
X10362801Y-8467317D02*
X10334230Y-8467317D01*
X10334230Y-8467317D02*
X10315182Y-8457793D01*
X10315182Y-8457793D02*
X10305658Y-8438746D01*
X10305658Y-8438746D02*
X10305658Y-8429222D01*
X10305658Y-8429222D02*
X10315182Y-8410174D01*
X10315182Y-8410174D02*
X10334230Y-8400650D01*
X10334230Y-8400650D02*
X10362801Y-8400650D01*
X10362801Y-8400650D02*
X10381849Y-8410174D01*
X10458039Y-8610174D02*
X10467563Y-8600650D01*
X10467563Y-8600650D02*
X10486611Y-8572079D01*
X10486611Y-8572079D02*
X10496134Y-8553031D01*
X10496134Y-8553031D02*
X10505658Y-8524460D01*
X10505658Y-8524460D02*
X10515182Y-8476841D01*
X10515182Y-8476841D02*
X10515182Y-8438746D01*
X10515182Y-8438746D02*
X10505658Y-8391127D01*
X10505658Y-8391127D02*
X10496134Y-8362555D01*
X10496134Y-8362555D02*
X10486611Y-8343508D01*
X10486611Y-8343508D02*
X10467563Y-8314936D01*
X10467563Y-8314936D02*
X10458039Y-8305412D01*
D10*
X5417500Y-8631500D02*
X5417500Y-8781500D01*
X5342500Y-8706500D02*
X5492500Y-8706500D01*
D11*
X5858039Y-8797984D02*
X5743753Y-8797984D01*
X5800896Y-8797984D02*
X5800896Y-8597984D01*
X5800896Y-8597984D02*
X5781848Y-8626555D01*
X5781848Y-8626555D02*
X5762801Y-8645603D01*
X5762801Y-8645603D02*
X5743753Y-8655127D01*
X5943753Y-8778936D02*
X5953277Y-8788460D01*
X5953277Y-8788460D02*
X5943753Y-8797984D01*
X5943753Y-8797984D02*
X5934229Y-8788460D01*
X5934229Y-8788460D02*
X5943753Y-8778936D01*
X5943753Y-8778936D02*
X5943753Y-8797984D01*
X6134229Y-8597984D02*
X6038991Y-8597984D01*
X6038991Y-8597984D02*
X6029467Y-8693222D01*
X6029467Y-8693222D02*
X6038991Y-8683698D01*
X6038991Y-8683698D02*
X6058039Y-8674174D01*
X6058039Y-8674174D02*
X6105658Y-8674174D01*
X6105658Y-8674174D02*
X6124705Y-8683698D01*
X6124705Y-8683698D02*
X6134229Y-8693222D01*
X6134229Y-8693222D02*
X6143753Y-8712270D01*
X6143753Y-8712270D02*
X6143753Y-8759889D01*
X6143753Y-8759889D02*
X6134229Y-8778936D01*
X6134229Y-8778936D02*
X6124705Y-8788460D01*
X6124705Y-8788460D02*
X6105658Y-8797984D01*
X6105658Y-8797984D02*
X6058039Y-8797984D01*
X6058039Y-8797984D02*
X6038991Y-8788460D01*
X6038991Y-8788460D02*
X6029467Y-8778936D01*
X6267562Y-8597984D02*
X6286610Y-8597984D01*
X6286610Y-8597984D02*
X6305658Y-8607508D01*
X6305658Y-8607508D02*
X6315182Y-8617031D01*
X6315182Y-8617031D02*
X6324705Y-8636079D01*
X6324705Y-8636079D02*
X6334229Y-8674174D01*
X6334229Y-8674174D02*
X6334229Y-8721793D01*
X6334229Y-8721793D02*
X6324705Y-8759889D01*
X6324705Y-8759889D02*
X6315182Y-8778936D01*
X6315182Y-8778936D02*
X6305658Y-8788460D01*
X6305658Y-8788460D02*
X6286610Y-8797984D01*
X6286610Y-8797984D02*
X6267562Y-8797984D01*
X6267562Y-8797984D02*
X6248515Y-8788460D01*
X6248515Y-8788460D02*
X6238991Y-8778936D01*
X6238991Y-8778936D02*
X6229467Y-8759889D01*
X6229467Y-8759889D02*
X6219943Y-8721793D01*
X6219943Y-8721793D02*
X6219943Y-8674174D01*
X6219943Y-8674174D02*
X6229467Y-8636079D01*
X6229467Y-8636079D02*
X6238991Y-8617031D01*
X6238991Y-8617031D02*
X6248515Y-8607508D01*
X6248515Y-8607508D02*
X6267562Y-8597984D01*
X6458039Y-8597984D02*
X6477086Y-8597984D01*
X6477086Y-8597984D02*
X6496134Y-8607508D01*
X6496134Y-8607508D02*
X6505658Y-8617031D01*
X6505658Y-8617031D02*
X6515182Y-8636079D01*
X6515182Y-8636079D02*
X6524705Y-8674174D01*
X6524705Y-8674174D02*
X6524705Y-8721793D01*
X6524705Y-8721793D02*
X6515182Y-8759889D01*
X6515182Y-8759889D02*
X6505658Y-8778936D01*
X6505658Y-8778936D02*
X6496134Y-8788460D01*
X6496134Y-8788460D02*
X6477086Y-8797984D01*
X6477086Y-8797984D02*
X6458039Y-8797984D01*
X6458039Y-8797984D02*
X6438991Y-8788460D01*
X6438991Y-8788460D02*
X6429467Y-8778936D01*
X6429467Y-8778936D02*
X6419943Y-8759889D01*
X6419943Y-8759889D02*
X6410420Y-8721793D01*
X6410420Y-8721793D02*
X6410420Y-8674174D01*
X6410420Y-8674174D02*
X6419943Y-8636079D01*
X6419943Y-8636079D02*
X6429467Y-8617031D01*
X6429467Y-8617031D02*
X6438991Y-8607508D01*
X6438991Y-8607508D02*
X6458039Y-8597984D01*
X6610420Y-8797984D02*
X6610420Y-8664650D01*
X6610420Y-8683698D02*
X6619943Y-8674174D01*
X6619943Y-8674174D02*
X6638991Y-8664650D01*
X6638991Y-8664650D02*
X6667563Y-8664650D01*
X6667563Y-8664650D02*
X6686610Y-8674174D01*
X6686610Y-8674174D02*
X6696134Y-8693222D01*
X6696134Y-8693222D02*
X6696134Y-8797984D01*
X6696134Y-8693222D02*
X6705658Y-8674174D01*
X6705658Y-8674174D02*
X6724705Y-8664650D01*
X6724705Y-8664650D02*
X6753277Y-8664650D01*
X6753277Y-8664650D02*
X6772324Y-8674174D01*
X6772324Y-8674174D02*
X6781848Y-8693222D01*
X6781848Y-8693222D02*
X6781848Y-8797984D01*
X6877086Y-8797984D02*
X6877086Y-8664650D01*
X6877086Y-8683698D02*
X6886610Y-8674174D01*
X6886610Y-8674174D02*
X6905658Y-8664650D01*
X6905658Y-8664650D02*
X6934229Y-8664650D01*
X6934229Y-8664650D02*
X6953277Y-8674174D01*
X6953277Y-8674174D02*
X6962801Y-8693222D01*
X6962801Y-8693222D02*
X6962801Y-8797984D01*
X6962801Y-8693222D02*
X6972324Y-8674174D01*
X6972324Y-8674174D02*
X6991372Y-8664650D01*
X6991372Y-8664650D02*
X7019943Y-8664650D01*
X7019943Y-8664650D02*
X7038991Y-8674174D01*
X7038991Y-8674174D02*
X7048515Y-8693222D01*
X7048515Y-8693222D02*
X7048515Y-8797984D01*
X7438991Y-8588460D02*
X7267563Y-8845603D01*
X7696134Y-8597984D02*
X7715182Y-8597984D01*
X7715182Y-8597984D02*
X7734229Y-8607508D01*
X7734229Y-8607508D02*
X7743753Y-8617031D01*
X7743753Y-8617031D02*
X7753277Y-8636079D01*
X7753277Y-8636079D02*
X7762801Y-8674174D01*
X7762801Y-8674174D02*
X7762801Y-8721793D01*
X7762801Y-8721793D02*
X7753277Y-8759889D01*
X7753277Y-8759889D02*
X7743753Y-8778936D01*
X7743753Y-8778936D02*
X7734229Y-8788460D01*
X7734229Y-8788460D02*
X7715182Y-8797984D01*
X7715182Y-8797984D02*
X7696134Y-8797984D01*
X7696134Y-8797984D02*
X7677086Y-8788460D01*
X7677086Y-8788460D02*
X7667563Y-8778936D01*
X7667563Y-8778936D02*
X7658039Y-8759889D01*
X7658039Y-8759889D02*
X7648515Y-8721793D01*
X7648515Y-8721793D02*
X7648515Y-8674174D01*
X7648515Y-8674174D02*
X7658039Y-8636079D01*
X7658039Y-8636079D02*
X7667563Y-8617031D01*
X7667563Y-8617031D02*
X7677086Y-8607508D01*
X7677086Y-8607508D02*
X7696134Y-8597984D01*
X7848515Y-8778936D02*
X7858039Y-8788460D01*
X7858039Y-8788460D02*
X7848515Y-8797984D01*
X7848515Y-8797984D02*
X7838991Y-8788460D01*
X7838991Y-8788460D02*
X7848515Y-8778936D01*
X7848515Y-8778936D02*
X7848515Y-8797984D01*
X7981848Y-8597984D02*
X8000896Y-8597984D01*
X8000896Y-8597984D02*
X8019944Y-8607508D01*
X8019944Y-8607508D02*
X8029467Y-8617031D01*
X8029467Y-8617031D02*
X8038991Y-8636079D01*
X8038991Y-8636079D02*
X8048515Y-8674174D01*
X8048515Y-8674174D02*
X8048515Y-8721793D01*
X8048515Y-8721793D02*
X8038991Y-8759889D01*
X8038991Y-8759889D02*
X8029467Y-8778936D01*
X8029467Y-8778936D02*
X8019944Y-8788460D01*
X8019944Y-8788460D02*
X8000896Y-8797984D01*
X8000896Y-8797984D02*
X7981848Y-8797984D01*
X7981848Y-8797984D02*
X7962801Y-8788460D01*
X7962801Y-8788460D02*
X7953277Y-8778936D01*
X7953277Y-8778936D02*
X7943753Y-8759889D01*
X7943753Y-8759889D02*
X7934229Y-8721793D01*
X7934229Y-8721793D02*
X7934229Y-8674174D01*
X7934229Y-8674174D02*
X7943753Y-8636079D01*
X7943753Y-8636079D02*
X7953277Y-8617031D01*
X7953277Y-8617031D02*
X7962801Y-8607508D01*
X7962801Y-8607508D02*
X7981848Y-8597984D01*
X8229467Y-8597984D02*
X8134229Y-8597984D01*
X8134229Y-8597984D02*
X8124706Y-8693222D01*
X8124706Y-8693222D02*
X8134229Y-8683698D01*
X8134229Y-8683698D02*
X8153277Y-8674174D01*
X8153277Y-8674174D02*
X8200896Y-8674174D01*
X8200896Y-8674174D02*
X8219944Y-8683698D01*
X8219944Y-8683698D02*
X8229467Y-8693222D01*
X8229467Y-8693222D02*
X8238991Y-8712270D01*
X8238991Y-8712270D02*
X8238991Y-8759889D01*
X8238991Y-8759889D02*
X8229467Y-8778936D01*
X8229467Y-8778936D02*
X8219944Y-8788460D01*
X8219944Y-8788460D02*
X8200896Y-8797984D01*
X8200896Y-8797984D02*
X8153277Y-8797984D01*
X8153277Y-8797984D02*
X8134229Y-8788460D01*
X8134229Y-8788460D02*
X8124706Y-8778936D01*
X8334229Y-8797984D02*
X8372325Y-8797984D01*
X8372325Y-8797984D02*
X8391372Y-8788460D01*
X8391372Y-8788460D02*
X8400896Y-8778936D01*
X8400896Y-8778936D02*
X8419944Y-8750365D01*
X8419944Y-8750365D02*
X8429468Y-8712270D01*
X8429468Y-8712270D02*
X8429468Y-8636079D01*
X8429468Y-8636079D02*
X8419944Y-8617031D01*
X8419944Y-8617031D02*
X8410420Y-8607508D01*
X8410420Y-8607508D02*
X8391372Y-8597984D01*
X8391372Y-8597984D02*
X8353277Y-8597984D01*
X8353277Y-8597984D02*
X8334229Y-8607508D01*
X8334229Y-8607508D02*
X8324706Y-8617031D01*
X8324706Y-8617031D02*
X8315182Y-8636079D01*
X8315182Y-8636079D02*
X8315182Y-8683698D01*
X8315182Y-8683698D02*
X8324706Y-8702746D01*
X8324706Y-8702746D02*
X8334229Y-8712270D01*
X8334229Y-8712270D02*
X8353277Y-8721793D01*
X8353277Y-8721793D02*
X8391372Y-8721793D01*
X8391372Y-8721793D02*
X8410420Y-8712270D01*
X8410420Y-8712270D02*
X8419944Y-8702746D01*
X8419944Y-8702746D02*
X8429468Y-8683698D01*
X8619944Y-8797984D02*
X8505658Y-8797984D01*
X8562801Y-8797984D02*
X8562801Y-8597984D01*
X8562801Y-8597984D02*
X8543753Y-8626555D01*
X8543753Y-8626555D02*
X8524706Y-8645603D01*
X8524706Y-8645603D02*
X8505658Y-8655127D01*
X8696134Y-8597984D02*
X8696134Y-8636079D01*
X8772325Y-8597984D02*
X8772325Y-8636079D01*
X9067563Y-8874174D02*
X9058039Y-8864650D01*
X9058039Y-8864650D02*
X9038991Y-8836079D01*
X9038991Y-8836079D02*
X9029468Y-8817031D01*
X9029468Y-8817031D02*
X9019944Y-8788460D01*
X9019944Y-8788460D02*
X9010420Y-8740841D01*
X9010420Y-8740841D02*
X9010420Y-8702746D01*
X9010420Y-8702746D02*
X9019944Y-8655127D01*
X9019944Y-8655127D02*
X9029468Y-8626555D01*
X9029468Y-8626555D02*
X9038991Y-8607508D01*
X9038991Y-8607508D02*
X9058039Y-8578936D01*
X9058039Y-8578936D02*
X9067563Y-8569412D01*
X9134230Y-8617031D02*
X9143753Y-8607508D01*
X9143753Y-8607508D02*
X9162801Y-8597984D01*
X9162801Y-8597984D02*
X9210420Y-8597984D01*
X9210420Y-8597984D02*
X9229468Y-8607508D01*
X9229468Y-8607508D02*
X9238991Y-8617031D01*
X9238991Y-8617031D02*
X9248515Y-8636079D01*
X9248515Y-8636079D02*
X9248515Y-8655127D01*
X9248515Y-8655127D02*
X9238991Y-8683698D01*
X9238991Y-8683698D02*
X9124706Y-8797984D01*
X9124706Y-8797984D02*
X9248515Y-8797984D01*
X9486611Y-8797984D02*
X9486611Y-8597984D01*
X9572325Y-8797984D02*
X9572325Y-8693222D01*
X9572325Y-8693222D02*
X9562801Y-8674174D01*
X9562801Y-8674174D02*
X9543753Y-8664650D01*
X9543753Y-8664650D02*
X9515182Y-8664650D01*
X9515182Y-8664650D02*
X9496134Y-8674174D01*
X9496134Y-8674174D02*
X9486611Y-8683698D01*
X9696134Y-8797984D02*
X9677087Y-8788460D01*
X9677087Y-8788460D02*
X9667563Y-8778936D01*
X9667563Y-8778936D02*
X9658039Y-8759889D01*
X9658039Y-8759889D02*
X9658039Y-8702746D01*
X9658039Y-8702746D02*
X9667563Y-8683698D01*
X9667563Y-8683698D02*
X9677087Y-8674174D01*
X9677087Y-8674174D02*
X9696134Y-8664650D01*
X9696134Y-8664650D02*
X9724706Y-8664650D01*
X9724706Y-8664650D02*
X9743753Y-8674174D01*
X9743753Y-8674174D02*
X9753277Y-8683698D01*
X9753277Y-8683698D02*
X9762801Y-8702746D01*
X9762801Y-8702746D02*
X9762801Y-8759889D01*
X9762801Y-8759889D02*
X9753277Y-8778936D01*
X9753277Y-8778936D02*
X9743753Y-8788460D01*
X9743753Y-8788460D02*
X9724706Y-8797984D01*
X9724706Y-8797984D02*
X9696134Y-8797984D01*
X9877087Y-8797984D02*
X9858039Y-8788460D01*
X9858039Y-8788460D02*
X9848515Y-8769412D01*
X9848515Y-8769412D02*
X9848515Y-8597984D01*
X10029468Y-8788460D02*
X10010420Y-8797984D01*
X10010420Y-8797984D02*
X9972325Y-8797984D01*
X9972325Y-8797984D02*
X9953277Y-8788460D01*
X9953277Y-8788460D02*
X9943753Y-8769412D01*
X9943753Y-8769412D02*
X9943753Y-8693222D01*
X9943753Y-8693222D02*
X9953277Y-8674174D01*
X9953277Y-8674174D02*
X9972325Y-8664650D01*
X9972325Y-8664650D02*
X10010420Y-8664650D01*
X10010420Y-8664650D02*
X10029468Y-8674174D01*
X10029468Y-8674174D02*
X10038992Y-8693222D01*
X10038992Y-8693222D02*
X10038992Y-8712270D01*
X10038992Y-8712270D02*
X9943753Y-8731317D01*
X10115182Y-8788460D02*
X10134230Y-8797984D01*
X10134230Y-8797984D02*
X10172325Y-8797984D01*
X10172325Y-8797984D02*
X10191373Y-8788460D01*
X10191373Y-8788460D02*
X10200896Y-8769412D01*
X10200896Y-8769412D02*
X10200896Y-8759889D01*
X10200896Y-8759889D02*
X10191373Y-8740841D01*
X10191373Y-8740841D02*
X10172325Y-8731317D01*
X10172325Y-8731317D02*
X10143753Y-8731317D01*
X10143753Y-8731317D02*
X10124706Y-8721793D01*
X10124706Y-8721793D02*
X10115182Y-8702746D01*
X10115182Y-8702746D02*
X10115182Y-8693222D01*
X10115182Y-8693222D02*
X10124706Y-8674174D01*
X10124706Y-8674174D02*
X10143753Y-8664650D01*
X10143753Y-8664650D02*
X10172325Y-8664650D01*
X10172325Y-8664650D02*
X10191373Y-8674174D01*
X10267563Y-8874174D02*
X10277087Y-8864650D01*
X10277087Y-8864650D02*
X10296134Y-8836079D01*
X10296134Y-8836079D02*
X10305658Y-8817031D01*
X10305658Y-8817031D02*
X10315182Y-8788460D01*
X10315182Y-8788460D02*
X10324706Y-8740841D01*
X10324706Y-8740841D02*
X10324706Y-8702746D01*
X10324706Y-8702746D02*
X10315182Y-8655127D01*
X10315182Y-8655127D02*
X10305658Y-8626555D01*
X10305658Y-8626555D02*
X10296134Y-8607508D01*
X10296134Y-8607508D02*
X10277087Y-8578936D01*
X10277087Y-8578936D02*
X10267563Y-8569412D01*
D14*
X5467605Y-9036605D02*
X5467605Y-8916395D01*
X5347395Y-8916395D01*
X5347395Y-9036605D01*
X5467605Y-9036605D01*
D11*
X5858039Y-9067984D02*
X5743753Y-9067984D01*
X5800896Y-9067984D02*
X5800896Y-8867984D01*
X5800896Y-8867984D02*
X5781848Y-8896555D01*
X5781848Y-8896555D02*
X5762801Y-8915603D01*
X5762801Y-8915603D02*
X5743753Y-8925127D01*
X5943753Y-9048936D02*
X5953277Y-9058460D01*
X5953277Y-9058460D02*
X5943753Y-9067984D01*
X5943753Y-9067984D02*
X5934229Y-9058460D01*
X5934229Y-9058460D02*
X5943753Y-9048936D01*
X5943753Y-9048936D02*
X5943753Y-9067984D01*
X6019943Y-8867984D02*
X6153277Y-8867984D01*
X6153277Y-8867984D02*
X6067562Y-9067984D01*
X6267562Y-8867984D02*
X6286610Y-8867984D01*
X6286610Y-8867984D02*
X6305658Y-8877508D01*
X6305658Y-8877508D02*
X6315182Y-8887031D01*
X6315182Y-8887031D02*
X6324705Y-8906079D01*
X6324705Y-8906079D02*
X6334229Y-8944174D01*
X6334229Y-8944174D02*
X6334229Y-8991793D01*
X6334229Y-8991793D02*
X6324705Y-9029889D01*
X6324705Y-9029889D02*
X6315182Y-9048936D01*
X6315182Y-9048936D02*
X6305658Y-9058460D01*
X6305658Y-9058460D02*
X6286610Y-9067984D01*
X6286610Y-9067984D02*
X6267562Y-9067984D01*
X6267562Y-9067984D02*
X6248515Y-9058460D01*
X6248515Y-9058460D02*
X6238991Y-9048936D01*
X6238991Y-9048936D02*
X6229467Y-9029889D01*
X6229467Y-9029889D02*
X6219943Y-8991793D01*
X6219943Y-8991793D02*
X6219943Y-8944174D01*
X6219943Y-8944174D02*
X6229467Y-8906079D01*
X6229467Y-8906079D02*
X6238991Y-8887031D01*
X6238991Y-8887031D02*
X6248515Y-8877508D01*
X6248515Y-8877508D02*
X6267562Y-8867984D01*
X6458039Y-8867984D02*
X6477086Y-8867984D01*
X6477086Y-8867984D02*
X6496134Y-8877508D01*
X6496134Y-8877508D02*
X6505658Y-8887031D01*
X6505658Y-8887031D02*
X6515182Y-8906079D01*
X6515182Y-8906079D02*
X6524705Y-8944174D01*
X6524705Y-8944174D02*
X6524705Y-8991793D01*
X6524705Y-8991793D02*
X6515182Y-9029889D01*
X6515182Y-9029889D02*
X6505658Y-9048936D01*
X6505658Y-9048936D02*
X6496134Y-9058460D01*
X6496134Y-9058460D02*
X6477086Y-9067984D01*
X6477086Y-9067984D02*
X6458039Y-9067984D01*
X6458039Y-9067984D02*
X6438991Y-9058460D01*
X6438991Y-9058460D02*
X6429467Y-9048936D01*
X6429467Y-9048936D02*
X6419943Y-9029889D01*
X6419943Y-9029889D02*
X6410420Y-8991793D01*
X6410420Y-8991793D02*
X6410420Y-8944174D01*
X6410420Y-8944174D02*
X6419943Y-8906079D01*
X6419943Y-8906079D02*
X6429467Y-8887031D01*
X6429467Y-8887031D02*
X6438991Y-8877508D01*
X6438991Y-8877508D02*
X6458039Y-8867984D01*
X6610420Y-9067984D02*
X6610420Y-8934650D01*
X6610420Y-8953698D02*
X6619943Y-8944174D01*
X6619943Y-8944174D02*
X6638991Y-8934650D01*
X6638991Y-8934650D02*
X6667563Y-8934650D01*
X6667563Y-8934650D02*
X6686610Y-8944174D01*
X6686610Y-8944174D02*
X6696134Y-8963222D01*
X6696134Y-8963222D02*
X6696134Y-9067984D01*
X6696134Y-8963222D02*
X6705658Y-8944174D01*
X6705658Y-8944174D02*
X6724705Y-8934650D01*
X6724705Y-8934650D02*
X6753277Y-8934650D01*
X6753277Y-8934650D02*
X6772324Y-8944174D01*
X6772324Y-8944174D02*
X6781848Y-8963222D01*
X6781848Y-8963222D02*
X6781848Y-9067984D01*
X6877086Y-9067984D02*
X6877086Y-8934650D01*
X6877086Y-8953698D02*
X6886610Y-8944174D01*
X6886610Y-8944174D02*
X6905658Y-8934650D01*
X6905658Y-8934650D02*
X6934229Y-8934650D01*
X6934229Y-8934650D02*
X6953277Y-8944174D01*
X6953277Y-8944174D02*
X6962801Y-8963222D01*
X6962801Y-8963222D02*
X6962801Y-9067984D01*
X6962801Y-8963222D02*
X6972324Y-8944174D01*
X6972324Y-8944174D02*
X6991372Y-8934650D01*
X6991372Y-8934650D02*
X7019943Y-8934650D01*
X7019943Y-8934650D02*
X7038991Y-8944174D01*
X7038991Y-8944174D02*
X7048515Y-8963222D01*
X7048515Y-8963222D02*
X7048515Y-9067984D01*
X7438991Y-8858460D02*
X7267563Y-9115603D01*
X7696134Y-8867984D02*
X7715182Y-8867984D01*
X7715182Y-8867984D02*
X7734229Y-8877508D01*
X7734229Y-8877508D02*
X7743753Y-8887031D01*
X7743753Y-8887031D02*
X7753277Y-8906079D01*
X7753277Y-8906079D02*
X7762801Y-8944174D01*
X7762801Y-8944174D02*
X7762801Y-8991793D01*
X7762801Y-8991793D02*
X7753277Y-9029889D01*
X7753277Y-9029889D02*
X7743753Y-9048936D01*
X7743753Y-9048936D02*
X7734229Y-9058460D01*
X7734229Y-9058460D02*
X7715182Y-9067984D01*
X7715182Y-9067984D02*
X7696134Y-9067984D01*
X7696134Y-9067984D02*
X7677086Y-9058460D01*
X7677086Y-9058460D02*
X7667563Y-9048936D01*
X7667563Y-9048936D02*
X7658039Y-9029889D01*
X7658039Y-9029889D02*
X7648515Y-8991793D01*
X7648515Y-8991793D02*
X7648515Y-8944174D01*
X7648515Y-8944174D02*
X7658039Y-8906079D01*
X7658039Y-8906079D02*
X7667563Y-8887031D01*
X7667563Y-8887031D02*
X7677086Y-8877508D01*
X7677086Y-8877508D02*
X7696134Y-8867984D01*
X7848515Y-9048936D02*
X7858039Y-9058460D01*
X7858039Y-9058460D02*
X7848515Y-9067984D01*
X7848515Y-9067984D02*
X7838991Y-9058460D01*
X7838991Y-9058460D02*
X7848515Y-9048936D01*
X7848515Y-9048936D02*
X7848515Y-9067984D01*
X7981848Y-8867984D02*
X8000896Y-8867984D01*
X8000896Y-8867984D02*
X8019944Y-8877508D01*
X8019944Y-8877508D02*
X8029467Y-8887031D01*
X8029467Y-8887031D02*
X8038991Y-8906079D01*
X8038991Y-8906079D02*
X8048515Y-8944174D01*
X8048515Y-8944174D02*
X8048515Y-8991793D01*
X8048515Y-8991793D02*
X8038991Y-9029889D01*
X8038991Y-9029889D02*
X8029467Y-9048936D01*
X8029467Y-9048936D02*
X8019944Y-9058460D01*
X8019944Y-9058460D02*
X8000896Y-9067984D01*
X8000896Y-9067984D02*
X7981848Y-9067984D01*
X7981848Y-9067984D02*
X7962801Y-9058460D01*
X7962801Y-9058460D02*
X7953277Y-9048936D01*
X7953277Y-9048936D02*
X7943753Y-9029889D01*
X7943753Y-9029889D02*
X7934229Y-8991793D01*
X7934229Y-8991793D02*
X7934229Y-8944174D01*
X7934229Y-8944174D02*
X7943753Y-8906079D01*
X7943753Y-8906079D02*
X7953277Y-8887031D01*
X7953277Y-8887031D02*
X7962801Y-8877508D01*
X7962801Y-8877508D02*
X7981848Y-8867984D01*
X8219944Y-8867984D02*
X8181848Y-8867984D01*
X8181848Y-8867984D02*
X8162801Y-8877508D01*
X8162801Y-8877508D02*
X8153277Y-8887031D01*
X8153277Y-8887031D02*
X8134229Y-8915603D01*
X8134229Y-8915603D02*
X8124706Y-8953698D01*
X8124706Y-8953698D02*
X8124706Y-9029889D01*
X8124706Y-9029889D02*
X8134229Y-9048936D01*
X8134229Y-9048936D02*
X8143753Y-9058460D01*
X8143753Y-9058460D02*
X8162801Y-9067984D01*
X8162801Y-9067984D02*
X8200896Y-9067984D01*
X8200896Y-9067984D02*
X8219944Y-9058460D01*
X8219944Y-9058460D02*
X8229467Y-9048936D01*
X8229467Y-9048936D02*
X8238991Y-9029889D01*
X8238991Y-9029889D02*
X8238991Y-8982270D01*
X8238991Y-8982270D02*
X8229467Y-8963222D01*
X8229467Y-8963222D02*
X8219944Y-8953698D01*
X8219944Y-8953698D02*
X8200896Y-8944174D01*
X8200896Y-8944174D02*
X8162801Y-8944174D01*
X8162801Y-8944174D02*
X8143753Y-8953698D01*
X8143753Y-8953698D02*
X8134229Y-8963222D01*
X8134229Y-8963222D02*
X8124706Y-8982270D01*
X8410420Y-8867984D02*
X8372325Y-8867984D01*
X8372325Y-8867984D02*
X8353277Y-8877508D01*
X8353277Y-8877508D02*
X8343753Y-8887031D01*
X8343753Y-8887031D02*
X8324706Y-8915603D01*
X8324706Y-8915603D02*
X8315182Y-8953698D01*
X8315182Y-8953698D02*
X8315182Y-9029889D01*
X8315182Y-9029889D02*
X8324706Y-9048936D01*
X8324706Y-9048936D02*
X8334229Y-9058460D01*
X8334229Y-9058460D02*
X8353277Y-9067984D01*
X8353277Y-9067984D02*
X8391372Y-9067984D01*
X8391372Y-9067984D02*
X8410420Y-9058460D01*
X8410420Y-9058460D02*
X8419944Y-9048936D01*
X8419944Y-9048936D02*
X8429468Y-9029889D01*
X8429468Y-9029889D02*
X8429468Y-8982270D01*
X8429468Y-8982270D02*
X8419944Y-8963222D01*
X8419944Y-8963222D02*
X8410420Y-8953698D01*
X8410420Y-8953698D02*
X8391372Y-8944174D01*
X8391372Y-8944174D02*
X8353277Y-8944174D01*
X8353277Y-8944174D02*
X8334229Y-8953698D01*
X8334229Y-8953698D02*
X8324706Y-8963222D01*
X8324706Y-8963222D02*
X8315182Y-8982270D01*
X8524706Y-9067984D02*
X8562801Y-9067984D01*
X8562801Y-9067984D02*
X8581849Y-9058460D01*
X8581849Y-9058460D02*
X8591372Y-9048936D01*
X8591372Y-9048936D02*
X8610420Y-9020365D01*
X8610420Y-9020365D02*
X8619944Y-8982270D01*
X8619944Y-8982270D02*
X8619944Y-8906079D01*
X8619944Y-8906079D02*
X8610420Y-8887031D01*
X8610420Y-8887031D02*
X8600896Y-8877508D01*
X8600896Y-8877508D02*
X8581849Y-8867984D01*
X8581849Y-8867984D02*
X8543753Y-8867984D01*
X8543753Y-8867984D02*
X8524706Y-8877508D01*
X8524706Y-8877508D02*
X8515182Y-8887031D01*
X8515182Y-8887031D02*
X8505658Y-8906079D01*
X8505658Y-8906079D02*
X8505658Y-8953698D01*
X8505658Y-8953698D02*
X8515182Y-8972746D01*
X8515182Y-8972746D02*
X8524706Y-8982270D01*
X8524706Y-8982270D02*
X8543753Y-8991793D01*
X8543753Y-8991793D02*
X8581849Y-8991793D01*
X8581849Y-8991793D02*
X8600896Y-8982270D01*
X8600896Y-8982270D02*
X8610420Y-8972746D01*
X8610420Y-8972746D02*
X8619944Y-8953698D01*
X8696134Y-8867984D02*
X8696134Y-8906079D01*
X8772325Y-8867984D02*
X8772325Y-8906079D01*
X9067563Y-9144174D02*
X9058039Y-9134650D01*
X9058039Y-9134650D02*
X9038991Y-9106079D01*
X9038991Y-9106079D02*
X9029468Y-9087031D01*
X9029468Y-9087031D02*
X9019944Y-9058460D01*
X9019944Y-9058460D02*
X9010420Y-9010841D01*
X9010420Y-9010841D02*
X9010420Y-8972746D01*
X9010420Y-8972746D02*
X9019944Y-8925127D01*
X9019944Y-8925127D02*
X9029468Y-8896555D01*
X9029468Y-8896555D02*
X9038991Y-8877508D01*
X9038991Y-8877508D02*
X9058039Y-8848936D01*
X9058039Y-8848936D02*
X9067563Y-8839412D01*
X9172325Y-8953698D02*
X9153277Y-8944174D01*
X9153277Y-8944174D02*
X9143753Y-8934650D01*
X9143753Y-8934650D02*
X9134230Y-8915603D01*
X9134230Y-8915603D02*
X9134230Y-8906079D01*
X9134230Y-8906079D02*
X9143753Y-8887031D01*
X9143753Y-8887031D02*
X9153277Y-8877508D01*
X9153277Y-8877508D02*
X9172325Y-8867984D01*
X9172325Y-8867984D02*
X9210420Y-8867984D01*
X9210420Y-8867984D02*
X9229468Y-8877508D01*
X9229468Y-8877508D02*
X9238991Y-8887031D01*
X9238991Y-8887031D02*
X9248515Y-8906079D01*
X9248515Y-8906079D02*
X9248515Y-8915603D01*
X9248515Y-8915603D02*
X9238991Y-8934650D01*
X9238991Y-8934650D02*
X9229468Y-8944174D01*
X9229468Y-8944174D02*
X9210420Y-8953698D01*
X9210420Y-8953698D02*
X9172325Y-8953698D01*
X9172325Y-8953698D02*
X9153277Y-8963222D01*
X9153277Y-8963222D02*
X9143753Y-8972746D01*
X9143753Y-8972746D02*
X9134230Y-8991793D01*
X9134230Y-8991793D02*
X9134230Y-9029889D01*
X9134230Y-9029889D02*
X9143753Y-9048936D01*
X9143753Y-9048936D02*
X9153277Y-9058460D01*
X9153277Y-9058460D02*
X9172325Y-9067984D01*
X9172325Y-9067984D02*
X9210420Y-9067984D01*
X9210420Y-9067984D02*
X9229468Y-9058460D01*
X9229468Y-9058460D02*
X9238991Y-9048936D01*
X9238991Y-9048936D02*
X9248515Y-9029889D01*
X9248515Y-9029889D02*
X9248515Y-8991793D01*
X9248515Y-8991793D02*
X9238991Y-8972746D01*
X9238991Y-8972746D02*
X9229468Y-8963222D01*
X9229468Y-8963222D02*
X9210420Y-8953698D01*
X9486611Y-9067984D02*
X9486611Y-8867984D01*
X9572325Y-9067984D02*
X9572325Y-8963222D01*
X9572325Y-8963222D02*
X9562801Y-8944174D01*
X9562801Y-8944174D02*
X9543753Y-8934650D01*
X9543753Y-8934650D02*
X9515182Y-8934650D01*
X9515182Y-8934650D02*
X9496134Y-8944174D01*
X9496134Y-8944174D02*
X9486611Y-8953698D01*
X9696134Y-9067984D02*
X9677087Y-9058460D01*
X9677087Y-9058460D02*
X9667563Y-9048936D01*
X9667563Y-9048936D02*
X9658039Y-9029889D01*
X9658039Y-9029889D02*
X9658039Y-8972746D01*
X9658039Y-8972746D02*
X9667563Y-8953698D01*
X9667563Y-8953698D02*
X9677087Y-8944174D01*
X9677087Y-8944174D02*
X9696134Y-8934650D01*
X9696134Y-8934650D02*
X9724706Y-8934650D01*
X9724706Y-8934650D02*
X9743753Y-8944174D01*
X9743753Y-8944174D02*
X9753277Y-8953698D01*
X9753277Y-8953698D02*
X9762801Y-8972746D01*
X9762801Y-8972746D02*
X9762801Y-9029889D01*
X9762801Y-9029889D02*
X9753277Y-9048936D01*
X9753277Y-9048936D02*
X9743753Y-9058460D01*
X9743753Y-9058460D02*
X9724706Y-9067984D01*
X9724706Y-9067984D02*
X9696134Y-9067984D01*
X9877087Y-9067984D02*
X9858039Y-9058460D01*
X9858039Y-9058460D02*
X9848515Y-9039412D01*
X9848515Y-9039412D02*
X9848515Y-8867984D01*
X10029468Y-9058460D02*
X10010420Y-9067984D01*
X10010420Y-9067984D02*
X9972325Y-9067984D01*
X9972325Y-9067984D02*
X9953277Y-9058460D01*
X9953277Y-9058460D02*
X9943753Y-9039412D01*
X9943753Y-9039412D02*
X9943753Y-8963222D01*
X9943753Y-8963222D02*
X9953277Y-8944174D01*
X9953277Y-8944174D02*
X9972325Y-8934650D01*
X9972325Y-8934650D02*
X10010420Y-8934650D01*
X10010420Y-8934650D02*
X10029468Y-8944174D01*
X10029468Y-8944174D02*
X10038992Y-8963222D01*
X10038992Y-8963222D02*
X10038992Y-8982270D01*
X10038992Y-8982270D02*
X9943753Y-9001317D01*
X10115182Y-9058460D02*
X10134230Y-9067984D01*
X10134230Y-9067984D02*
X10172325Y-9067984D01*
X10172325Y-9067984D02*
X10191373Y-9058460D01*
X10191373Y-9058460D02*
X10200896Y-9039412D01*
X10200896Y-9039412D02*
X10200896Y-9029889D01*
X10200896Y-9029889D02*
X10191373Y-9010841D01*
X10191373Y-9010841D02*
X10172325Y-9001317D01*
X10172325Y-9001317D02*
X10143753Y-9001317D01*
X10143753Y-9001317D02*
X10124706Y-8991793D01*
X10124706Y-8991793D02*
X10115182Y-8972746D01*
X10115182Y-8972746D02*
X10115182Y-8963222D01*
X10115182Y-8963222D02*
X10124706Y-8944174D01*
X10124706Y-8944174D02*
X10143753Y-8934650D01*
X10143753Y-8934650D02*
X10172325Y-8934650D01*
X10172325Y-8934650D02*
X10191373Y-8944174D01*
X10267563Y-9144174D02*
X10277087Y-9134650D01*
X10277087Y-9134650D02*
X10296134Y-9106079D01*
X10296134Y-9106079D02*
X10305658Y-9087031D01*
X10305658Y-9087031D02*
X10315182Y-9058460D01*
X10315182Y-9058460D02*
X10324706Y-9010841D01*
X10324706Y-9010841D02*
X10324706Y-8972746D01*
X10324706Y-8972746D02*
X10315182Y-8925127D01*
X10315182Y-8925127D02*
X10305658Y-8896555D01*
X10305658Y-8896555D02*
X10296134Y-8877508D01*
X10296134Y-8877508D02*
X10277087Y-8848936D01*
X10277087Y-8848936D02*
X10267563Y-8839412D01*
M02*
