%TF.GenerationSoftware,KiCad,Pcbnew,7.0.5*%
%TF.CreationDate,2023-06-23T15:01:08-05:00*%
%TF.ProjectId,Single.Channel.Amp,53696e67-6c65-42e4-9368-616e6e656c2e,rev?*%
%TF.SameCoordinates,Original*%
%TF.FileFunction,Copper,L3,Inr*%
%TF.FilePolarity,Positive*%
%FSLAX46Y46*%
G04 Gerber Fmt 4.6, Leading zero omitted, Abs format (unit mm)*
G04 Created by KiCad (PCBNEW 7.0.5) date 2023-06-23 15:01:08*
%MOMM*%
%LPD*%
G01*
G04 APERTURE LIST*
%TA.AperFunction,ComponentPad*%
%ADD10R,1.700000X1.700000*%
%TD*%
%TA.AperFunction,ComponentPad*%
%ADD11O,1.700000X1.700000*%
%TD*%
%TA.AperFunction,ComponentPad*%
%ADD12C,2.050000*%
%TD*%
%TA.AperFunction,ComponentPad*%
%ADD13C,2.250000*%
%TD*%
G04 APERTURE END LIST*
D10*
%TO.N,Net-(D1-A)*%
%TO.C,J3*%
X72620000Y-19370000D03*
D11*
%TO.N,GND*%
X72620000Y-21910000D03*
%TO.N,GND1*%
X72620000Y-24450000D03*
%TO.N,Net-(D2-K)*%
X72620000Y-26990000D03*
%TD*%
D12*
%TO.N,Net-(J2-Input)*%
%TO.C,J4*%
X65000000Y-67000000D03*
D13*
%TO.N,GND*%
X62460000Y-64460000D03*
X62460000Y-69540000D03*
X67540000Y-64460000D03*
X67540000Y-69540000D03*
%TD*%
D12*
%TO.N,Net-(J2-Output)*%
%TO.C,J5*%
X65000000Y-20000000D03*
D13*
%TO.N,GND*%
X62460000Y-17460000D03*
X62460000Y-22540000D03*
X67540000Y-17460000D03*
X67540000Y-22540000D03*
%TD*%
%TA.AperFunction,Conductor*%
%TO.N,GND*%
G36*
X73002019Y-15310633D02*
G01*
X73040149Y-15313131D01*
X73083793Y-15315992D01*
X73265459Y-15328985D01*
X73273102Y-15330015D01*
X73367572Y-15348806D01*
X73372190Y-15349912D01*
X73543719Y-15398061D01*
X73697413Y-15441204D01*
X73702315Y-15442802D01*
X73791762Y-15476164D01*
X73797481Y-15478634D01*
X73862544Y-15510719D01*
X73868651Y-15514176D01*
X74033108Y-15620000D01*
X74054728Y-15633912D01*
X74272782Y-15774225D01*
X74287440Y-15785274D01*
X74307332Y-15802718D01*
X74359510Y-15848476D01*
X74362463Y-15851243D01*
X74458770Y-15947550D01*
X74461531Y-15950498D01*
X74475243Y-15966135D01*
X74477144Y-15968410D01*
X74638444Y-16171187D01*
X74641459Y-16175318D01*
X74655410Y-16196197D01*
X74704958Y-16270351D01*
X74707824Y-16275085D01*
X74773806Y-16395921D01*
X74774996Y-16398213D01*
X74831352Y-16512492D01*
X74833839Y-16518251D01*
X74882881Y-16649737D01*
X74883500Y-16651475D01*
X74923597Y-16769597D01*
X74925472Y-16776353D01*
X74956848Y-16920589D01*
X74979980Y-17036880D01*
X74981015Y-17044560D01*
X74994021Y-17226413D01*
X74999367Y-17307966D01*
X74999500Y-17312023D01*
X74999500Y-73307976D01*
X74999367Y-73312033D01*
X74994022Y-73393558D01*
X74986015Y-73505514D01*
X74985608Y-73509442D01*
X74966386Y-73650854D01*
X74965760Y-73654599D01*
X74956842Y-73699440D01*
X74925471Y-73843647D01*
X74923596Y-73850403D01*
X74883496Y-73968531D01*
X74882879Y-73970265D01*
X74872626Y-73997758D01*
X74871277Y-74001080D01*
X74771176Y-74228425D01*
X74768848Y-74233157D01*
X74707824Y-74344914D01*
X74704958Y-74349648D01*
X74633467Y-74456641D01*
X74631549Y-74459351D01*
X74549744Y-74568631D01*
X74546723Y-74572357D01*
X74461529Y-74669502D01*
X74458755Y-74672464D01*
X74362464Y-74768755D01*
X74359502Y-74771529D01*
X74262357Y-74856723D01*
X74258631Y-74859744D01*
X74149351Y-74941549D01*
X74146641Y-74943467D01*
X74039649Y-75014957D01*
X74034914Y-75017823D01*
X73914075Y-75083806D01*
X73911790Y-75084993D01*
X73904596Y-75088541D01*
X73902019Y-75089740D01*
X73702563Y-75177002D01*
X73699377Y-75178292D01*
X73660275Y-75192876D01*
X73658538Y-75193494D01*
X73540402Y-75233596D01*
X73533647Y-75235471D01*
X73462130Y-75251029D01*
X73455117Y-75252554D01*
X73451369Y-75253250D01*
X73156664Y-75298589D01*
X73151657Y-75299152D01*
X73083568Y-75304022D01*
X73077972Y-75304389D01*
X73070672Y-75304867D01*
X73066636Y-75305000D01*
X56947817Y-75305000D01*
X56942201Y-75304745D01*
X56685599Y-75281417D01*
X56679129Y-75280482D01*
X56638251Y-75272351D01*
X56610617Y-75266854D01*
X56466352Y-75235471D01*
X56459597Y-75233596D01*
X56341465Y-75193496D01*
X56339728Y-75192877D01*
X56210480Y-75144670D01*
X56205300Y-75142466D01*
X56184183Y-75132323D01*
X56088201Y-75084990D01*
X56085909Y-75083800D01*
X56035990Y-75056542D01*
X55965081Y-75017823D01*
X55960357Y-75014962D01*
X55853348Y-74943461D01*
X55850639Y-74941543D01*
X55810592Y-74911564D01*
X55741353Y-74859732D01*
X55737648Y-74856729D01*
X55640680Y-74771690D01*
X55636671Y-74767843D01*
X55487338Y-74611116D01*
X55485610Y-74609226D01*
X55453281Y-74572362D01*
X55450260Y-74568637D01*
X55368449Y-74459351D01*
X55366531Y-74456640D01*
X55295037Y-74349641D01*
X55292170Y-74344907D01*
X55226173Y-74224042D01*
X55225024Y-74221830D01*
X55168635Y-74107483D01*
X55166160Y-74101750D01*
X55117093Y-73970198D01*
X55116540Y-73968646D01*
X55076394Y-73850378D01*
X55074529Y-73843659D01*
X55067509Y-73811387D01*
X55067137Y-73809545D01*
X55016592Y-73536600D01*
X55015715Y-73529742D01*
X55005991Y-73393778D01*
X55000632Y-73312019D01*
X55000499Y-73307993D01*
X55000499Y-69540000D01*
X60829975Y-69540000D01*
X60850042Y-69794989D01*
X60909752Y-70043702D01*
X61007634Y-70280012D01*
X61007636Y-70280015D01*
X61141275Y-70498095D01*
X61141286Y-70498110D01*
X61144533Y-70501911D01*
X61144535Y-70501911D01*
X61708766Y-69937679D01*
X61752316Y-70019822D01*
X61872009Y-70160735D01*
X62019195Y-70272623D01*
X62061402Y-70292150D01*
X61498087Y-70855464D01*
X61498087Y-70855465D01*
X61501888Y-70858712D01*
X61501898Y-70858719D01*
X61719984Y-70992363D01*
X61719987Y-70992365D01*
X61956297Y-71090247D01*
X62205011Y-71149957D01*
X62205010Y-71149957D01*
X62460000Y-71170024D01*
X62714989Y-71149957D01*
X62963702Y-71090247D01*
X63200012Y-70992365D01*
X63200015Y-70992363D01*
X63418103Y-70858719D01*
X63421912Y-70855464D01*
X62858609Y-70292161D01*
X62977431Y-70220669D01*
X63111658Y-70093523D01*
X63214861Y-69941309D01*
X63775464Y-70501912D01*
X63778719Y-70498103D01*
X63912363Y-70280015D01*
X63912365Y-70280012D01*
X64010247Y-70043702D01*
X64069957Y-69794989D01*
X64090024Y-69540000D01*
X65909975Y-69540000D01*
X65930042Y-69794989D01*
X65989752Y-70043702D01*
X66087634Y-70280012D01*
X66087636Y-70280015D01*
X66221275Y-70498095D01*
X66221286Y-70498110D01*
X66224533Y-70501911D01*
X66224535Y-70501911D01*
X66788766Y-69937679D01*
X66832316Y-70019822D01*
X66952009Y-70160735D01*
X67099195Y-70272623D01*
X67141402Y-70292150D01*
X66578087Y-70855464D01*
X66578087Y-70855465D01*
X66581888Y-70858712D01*
X66581898Y-70858719D01*
X66799984Y-70992363D01*
X66799987Y-70992365D01*
X67036297Y-71090247D01*
X67285011Y-71149957D01*
X67285010Y-71149957D01*
X67540000Y-71170024D01*
X67794989Y-71149957D01*
X68043702Y-71090247D01*
X68280012Y-70992365D01*
X68280015Y-70992363D01*
X68498103Y-70858719D01*
X68501912Y-70855464D01*
X67938609Y-70292161D01*
X68057431Y-70220669D01*
X68191658Y-70093523D01*
X68294861Y-69941309D01*
X68855464Y-70501912D01*
X68858719Y-70498103D01*
X68992363Y-70280015D01*
X68992365Y-70280012D01*
X69090247Y-70043702D01*
X69149957Y-69794989D01*
X69170024Y-69540000D01*
X69149957Y-69285010D01*
X69090247Y-69036297D01*
X68992365Y-68799987D01*
X68992363Y-68799984D01*
X68858719Y-68581898D01*
X68858712Y-68581888D01*
X68855465Y-68578087D01*
X68855464Y-68578087D01*
X68291232Y-69142319D01*
X68247684Y-69060178D01*
X68127991Y-68919265D01*
X67980805Y-68807377D01*
X67938597Y-68787849D01*
X68501911Y-68224535D01*
X68501911Y-68224533D01*
X68498110Y-68221286D01*
X68498095Y-68221275D01*
X68280015Y-68087636D01*
X68280012Y-68087634D01*
X68043702Y-67989752D01*
X67794988Y-67930042D01*
X67794989Y-67930042D01*
X67540000Y-67909975D01*
X67285010Y-67930042D01*
X67036297Y-67989752D01*
X66799987Y-68087634D01*
X66799984Y-68087636D01*
X66581897Y-68221280D01*
X66578087Y-68224534D01*
X67141390Y-68787837D01*
X67022569Y-68859331D01*
X66888342Y-68986477D01*
X66785138Y-69138691D01*
X66224534Y-68578087D01*
X66221280Y-68581897D01*
X66087636Y-68799984D01*
X66087634Y-68799987D01*
X65989752Y-69036297D01*
X65930042Y-69285010D01*
X65909975Y-69540000D01*
X64090024Y-69540000D01*
X64069957Y-69285010D01*
X64010247Y-69036297D01*
X63912365Y-68799987D01*
X63912363Y-68799984D01*
X63778719Y-68581898D01*
X63778712Y-68581888D01*
X63775465Y-68578087D01*
X63775464Y-68578087D01*
X63211232Y-69142319D01*
X63167684Y-69060178D01*
X63047991Y-68919265D01*
X62900805Y-68807377D01*
X62858596Y-68787849D01*
X63421911Y-68224535D01*
X63421911Y-68224533D01*
X63418110Y-68221286D01*
X63418095Y-68221275D01*
X63200015Y-68087636D01*
X63200012Y-68087634D01*
X62963702Y-67989752D01*
X62714988Y-67930042D01*
X62714989Y-67930042D01*
X62460000Y-67909975D01*
X62205010Y-67930042D01*
X61956297Y-67989752D01*
X61719987Y-68087634D01*
X61719984Y-68087636D01*
X61501897Y-68221280D01*
X61498087Y-68224534D01*
X62061390Y-68787838D01*
X61942569Y-68859331D01*
X61808342Y-68986477D01*
X61705138Y-69138691D01*
X61144533Y-68578087D01*
X61141280Y-68581897D01*
X61007636Y-68799984D01*
X61007634Y-68799987D01*
X60909752Y-69036297D01*
X60850042Y-69285010D01*
X60829975Y-69540000D01*
X55000499Y-69540000D01*
X55000499Y-67000001D01*
X63769819Y-67000001D01*
X63788507Y-67213613D01*
X63788509Y-67213624D01*
X63844005Y-67420739D01*
X63844007Y-67420743D01*
X63844008Y-67420747D01*
X63889320Y-67517918D01*
X63934631Y-67615090D01*
X63934632Y-67615091D01*
X64057627Y-67790745D01*
X64209255Y-67942373D01*
X64384909Y-68065368D01*
X64579253Y-68155992D01*
X64786381Y-68211492D01*
X64935442Y-68224533D01*
X64999998Y-68230181D01*
X65000000Y-68230181D01*
X65000002Y-68230181D01*
X65053404Y-68225508D01*
X65213619Y-68211492D01*
X65420747Y-68155992D01*
X65615091Y-68065368D01*
X65790745Y-67942373D01*
X65942373Y-67790745D01*
X66065368Y-67615091D01*
X66155992Y-67420747D01*
X66211492Y-67213619D01*
X66230181Y-67000000D01*
X66211492Y-66786381D01*
X66155992Y-66579253D01*
X66065368Y-66384910D01*
X65942373Y-66209255D01*
X65790745Y-66057627D01*
X65615091Y-65934632D01*
X65615092Y-65934632D01*
X65615090Y-65934631D01*
X65517918Y-65889320D01*
X65420747Y-65844008D01*
X65420743Y-65844007D01*
X65420739Y-65844005D01*
X65213624Y-65788509D01*
X65213620Y-65788508D01*
X65213619Y-65788508D01*
X65213618Y-65788507D01*
X65213613Y-65788507D01*
X65000002Y-65769819D01*
X64999998Y-65769819D01*
X64786386Y-65788507D01*
X64786375Y-65788509D01*
X64579260Y-65844005D01*
X64579251Y-65844009D01*
X64384910Y-65934631D01*
X64384908Y-65934632D01*
X64209259Y-66057623D01*
X64209253Y-66057628D01*
X64057628Y-66209253D01*
X64057623Y-66209259D01*
X63934632Y-66384908D01*
X63934631Y-66384910D01*
X63844009Y-66579251D01*
X63844005Y-66579260D01*
X63788509Y-66786375D01*
X63788507Y-66786386D01*
X63769819Y-66999998D01*
X63769819Y-67000001D01*
X55000499Y-67000001D01*
X55000499Y-64460000D01*
X60829975Y-64460000D01*
X60850042Y-64714989D01*
X60909752Y-64963702D01*
X61007634Y-65200012D01*
X61007636Y-65200015D01*
X61141275Y-65418095D01*
X61141286Y-65418110D01*
X61144533Y-65421911D01*
X61144535Y-65421911D01*
X61708766Y-64857679D01*
X61752316Y-64939822D01*
X61872009Y-65080735D01*
X62019195Y-65192623D01*
X62061402Y-65212150D01*
X61498087Y-65775464D01*
X61498087Y-65775465D01*
X61501888Y-65778712D01*
X61501898Y-65778719D01*
X61719984Y-65912363D01*
X61719987Y-65912365D01*
X61956297Y-66010247D01*
X62205011Y-66069957D01*
X62205010Y-66069957D01*
X62459999Y-66090024D01*
X62714989Y-66069957D01*
X62963702Y-66010247D01*
X63200012Y-65912365D01*
X63200015Y-65912363D01*
X63418103Y-65778719D01*
X63421912Y-65775464D01*
X62858609Y-65212161D01*
X62977431Y-65140669D01*
X63111658Y-65013523D01*
X63214861Y-64861309D01*
X63775464Y-65421912D01*
X63778719Y-65418103D01*
X63912363Y-65200015D01*
X63912365Y-65200012D01*
X64010247Y-64963702D01*
X64069957Y-64714989D01*
X64090024Y-64460000D01*
X65909975Y-64460000D01*
X65930042Y-64714989D01*
X65989752Y-64963702D01*
X66087634Y-65200012D01*
X66087636Y-65200015D01*
X66221275Y-65418095D01*
X66221286Y-65418110D01*
X66224533Y-65421911D01*
X66224535Y-65421911D01*
X66788766Y-64857679D01*
X66832316Y-64939822D01*
X66952009Y-65080735D01*
X67099195Y-65192623D01*
X67141402Y-65212150D01*
X66578087Y-65775464D01*
X66578087Y-65775465D01*
X66581888Y-65778712D01*
X66581898Y-65778719D01*
X66799984Y-65912363D01*
X66799987Y-65912365D01*
X67036297Y-66010247D01*
X67285011Y-66069957D01*
X67285010Y-66069957D01*
X67539999Y-66090024D01*
X67794989Y-66069957D01*
X68043702Y-66010247D01*
X68280012Y-65912365D01*
X68280015Y-65912363D01*
X68498103Y-65778719D01*
X68501912Y-65775464D01*
X67938609Y-65212161D01*
X68057431Y-65140669D01*
X68191658Y-65013523D01*
X68294861Y-64861308D01*
X68855464Y-65421912D01*
X68858719Y-65418103D01*
X68992363Y-65200015D01*
X68992365Y-65200012D01*
X69090247Y-64963702D01*
X69149957Y-64714989D01*
X69170024Y-64460000D01*
X69149957Y-64205010D01*
X69090247Y-63956297D01*
X68992365Y-63719987D01*
X68992363Y-63719984D01*
X68858719Y-63501898D01*
X68858712Y-63501888D01*
X68855465Y-63498087D01*
X68855464Y-63498087D01*
X68291232Y-64062319D01*
X68247684Y-63980178D01*
X68127991Y-63839265D01*
X67980805Y-63727377D01*
X67938597Y-63707849D01*
X68501911Y-63144535D01*
X68501911Y-63144533D01*
X68498110Y-63141286D01*
X68498095Y-63141275D01*
X68280015Y-63007636D01*
X68280012Y-63007634D01*
X68043702Y-62909752D01*
X67794988Y-62850042D01*
X67794989Y-62850042D01*
X67539999Y-62829975D01*
X67285010Y-62850042D01*
X67036297Y-62909752D01*
X66799987Y-63007634D01*
X66799984Y-63007636D01*
X66581897Y-63141280D01*
X66578087Y-63144534D01*
X67141390Y-63707837D01*
X67022569Y-63779331D01*
X66888342Y-63906477D01*
X66785139Y-64058690D01*
X66224534Y-63498087D01*
X66221280Y-63501897D01*
X66087636Y-63719984D01*
X66087634Y-63719987D01*
X65989752Y-63956297D01*
X65930042Y-64205010D01*
X65909975Y-64460000D01*
X64090024Y-64460000D01*
X64069957Y-64205010D01*
X64010247Y-63956297D01*
X63912365Y-63719987D01*
X63912363Y-63719984D01*
X63778719Y-63501898D01*
X63778712Y-63501888D01*
X63775465Y-63498087D01*
X63775464Y-63498087D01*
X63211232Y-64062318D01*
X63167684Y-63980178D01*
X63047991Y-63839265D01*
X62900805Y-63727377D01*
X62858597Y-63707849D01*
X63421911Y-63144535D01*
X63421911Y-63144533D01*
X63418110Y-63141286D01*
X63418095Y-63141275D01*
X63200015Y-63007636D01*
X63200012Y-63007634D01*
X62963702Y-62909752D01*
X62714988Y-62850042D01*
X62714989Y-62850042D01*
X62459999Y-62829975D01*
X62205010Y-62850042D01*
X61956297Y-62909752D01*
X61719987Y-63007634D01*
X61719984Y-63007636D01*
X61501897Y-63141280D01*
X61498087Y-63144534D01*
X62061390Y-63707837D01*
X61942569Y-63779331D01*
X61808342Y-63906477D01*
X61705138Y-64058691D01*
X61144534Y-63498087D01*
X61141280Y-63501897D01*
X61007636Y-63719984D01*
X61007634Y-63719987D01*
X60909752Y-63956297D01*
X60850042Y-64205010D01*
X60829975Y-64460000D01*
X55000499Y-64460000D01*
X55000499Y-55823933D01*
X64245668Y-55823933D01*
X64261058Y-55911210D01*
X64276135Y-55996711D01*
X64345623Y-56157804D01*
X64345624Y-56157806D01*
X64345626Y-56157809D01*
X64400278Y-56231218D01*
X64450390Y-56298530D01*
X64584786Y-56411302D01*
X64662488Y-56450325D01*
X64741562Y-56490038D01*
X64741563Y-56490038D01*
X64741567Y-56490040D01*
X64912279Y-56530500D01*
X64912282Y-56530500D01*
X65043701Y-56530500D01*
X65043709Y-56530500D01*
X65174255Y-56515241D01*
X65339117Y-56455237D01*
X65485696Y-56358830D01*
X65606092Y-56231218D01*
X65693812Y-56079281D01*
X65744130Y-55911210D01*
X65754331Y-55736065D01*
X65723865Y-55563289D01*
X65654377Y-55402196D01*
X65549610Y-55261470D01*
X65477747Y-55201170D01*
X65415214Y-55148698D01*
X65415212Y-55148697D01*
X65258437Y-55069961D01*
X65258433Y-55069960D01*
X65087721Y-55029500D01*
X64956291Y-55029500D01*
X64851854Y-55041707D01*
X64825743Y-55044759D01*
X64825740Y-55044760D01*
X64660884Y-55104762D01*
X64660880Y-55104764D01*
X64514306Y-55201167D01*
X64514305Y-55201168D01*
X64393910Y-55328778D01*
X64306188Y-55480718D01*
X64255870Y-55648789D01*
X64255869Y-55648794D01*
X64245668Y-55823933D01*
X55000499Y-55823933D01*
X55000499Y-53283933D01*
X64245668Y-53283933D01*
X64261058Y-53371210D01*
X64276135Y-53456711D01*
X64345623Y-53617804D01*
X64345624Y-53617806D01*
X64345626Y-53617809D01*
X64400278Y-53691218D01*
X64450390Y-53758530D01*
X64584786Y-53871302D01*
X64662488Y-53910325D01*
X64741562Y-53950038D01*
X64741563Y-53950038D01*
X64741567Y-53950040D01*
X64912279Y-53990500D01*
X64912282Y-53990500D01*
X65043701Y-53990500D01*
X65043709Y-53990500D01*
X65174255Y-53975241D01*
X65339117Y-53915237D01*
X65485696Y-53818830D01*
X65606092Y-53691218D01*
X65693812Y-53539281D01*
X65744130Y-53371210D01*
X65754331Y-53196065D01*
X65723865Y-53023289D01*
X65654377Y-52862196D01*
X65549610Y-52721470D01*
X65477747Y-52661170D01*
X65415214Y-52608698D01*
X65415212Y-52608697D01*
X65258437Y-52529961D01*
X65258433Y-52529960D01*
X65087721Y-52489500D01*
X64956291Y-52489500D01*
X64851854Y-52501707D01*
X64825743Y-52504759D01*
X64825740Y-52504760D01*
X64660884Y-52564762D01*
X64660880Y-52564764D01*
X64514306Y-52661167D01*
X64514305Y-52661168D01*
X64393910Y-52788778D01*
X64306188Y-52940718D01*
X64255870Y-53108789D01*
X64255869Y-53108794D01*
X64245668Y-53283933D01*
X55000499Y-53283933D01*
X55000499Y-50743933D01*
X64245668Y-50743933D01*
X64271243Y-50888967D01*
X64276135Y-50916711D01*
X64345623Y-51077804D01*
X64345624Y-51077806D01*
X64345626Y-51077809D01*
X64400278Y-51151218D01*
X64450390Y-51218530D01*
X64584786Y-51331302D01*
X64662488Y-51370325D01*
X64741562Y-51410038D01*
X64741563Y-51410038D01*
X64741567Y-51410040D01*
X64912279Y-51450500D01*
X64912282Y-51450500D01*
X65043701Y-51450500D01*
X65043709Y-51450500D01*
X65174255Y-51435241D01*
X65339117Y-51375237D01*
X65485696Y-51278830D01*
X65606092Y-51151218D01*
X65693812Y-50999281D01*
X65744130Y-50831210D01*
X65754331Y-50656065D01*
X65734747Y-50545000D01*
X68099867Y-50545000D01*
X68118302Y-50673225D01*
X68150594Y-50743933D01*
X68172118Y-50791063D01*
X68256951Y-50888967D01*
X68365931Y-50959004D01*
X68490225Y-50995499D01*
X68490227Y-50995500D01*
X68490228Y-50995500D01*
X68619773Y-50995500D01*
X68619773Y-50995499D01*
X68744069Y-50959004D01*
X68853049Y-50888967D01*
X68937882Y-50791063D01*
X68991697Y-50673226D01*
X69010133Y-50545000D01*
X68991697Y-50416774D01*
X68937882Y-50298937D01*
X68853049Y-50201033D01*
X68744069Y-50130996D01*
X68744065Y-50130994D01*
X68744064Y-50130994D01*
X68619774Y-50094500D01*
X68619772Y-50094500D01*
X68490228Y-50094500D01*
X68490226Y-50094500D01*
X68365935Y-50130994D01*
X68365932Y-50130995D01*
X68365931Y-50130996D01*
X68314677Y-50163934D01*
X68256950Y-50201033D01*
X68172118Y-50298937D01*
X68172117Y-50298938D01*
X68118302Y-50416774D01*
X68099867Y-50545000D01*
X65734747Y-50545000D01*
X65723865Y-50483289D01*
X65654377Y-50322196D01*
X65637061Y-50298937D01*
X65549609Y-50181469D01*
X65415214Y-50068698D01*
X65415212Y-50068697D01*
X65258437Y-49989961D01*
X65258433Y-49989960D01*
X65087721Y-49949500D01*
X64956291Y-49949500D01*
X64851854Y-49961707D01*
X64825743Y-49964759D01*
X64825740Y-49964760D01*
X64660884Y-50024762D01*
X64660880Y-50024764D01*
X64514306Y-50121167D01*
X64514305Y-50121168D01*
X64393910Y-50248778D01*
X64306188Y-50400718D01*
X64255870Y-50568789D01*
X64255869Y-50568794D01*
X64245668Y-50743933D01*
X55000499Y-50743933D01*
X55000499Y-48203933D01*
X64245668Y-48203933D01*
X64261058Y-48291210D01*
X64276135Y-48376711D01*
X64345623Y-48537804D01*
X64345624Y-48537806D01*
X64345626Y-48537809D01*
X64400278Y-48611218D01*
X64450390Y-48678530D01*
X64584786Y-48791302D01*
X64662488Y-48830325D01*
X64741562Y-48870038D01*
X64741563Y-48870038D01*
X64741567Y-48870040D01*
X64912279Y-48910500D01*
X64912282Y-48910500D01*
X65043701Y-48910500D01*
X65043709Y-48910500D01*
X65174255Y-48895241D01*
X65339117Y-48835237D01*
X65485696Y-48738830D01*
X65606092Y-48611218D01*
X65693812Y-48459281D01*
X65744130Y-48291210D01*
X65754331Y-48116065D01*
X65723865Y-47943289D01*
X65654377Y-47782196D01*
X65549610Y-47641470D01*
X65477747Y-47581170D01*
X65415214Y-47528698D01*
X65415212Y-47528697D01*
X65258437Y-47449961D01*
X65258433Y-47449960D01*
X65087721Y-47409500D01*
X64956291Y-47409500D01*
X64851854Y-47421707D01*
X64825743Y-47424759D01*
X64825740Y-47424760D01*
X64660884Y-47484762D01*
X64660880Y-47484764D01*
X64514306Y-47581167D01*
X64514305Y-47581168D01*
X64393910Y-47708778D01*
X64306188Y-47860718D01*
X64255870Y-48028789D01*
X64255869Y-48028794D01*
X64245668Y-48203933D01*
X55000499Y-48203933D01*
X55000499Y-45663933D01*
X64245668Y-45663933D01*
X64261058Y-45751210D01*
X64276135Y-45836711D01*
X64345623Y-45997804D01*
X64345624Y-45997806D01*
X64345626Y-45997809D01*
X64400278Y-46071218D01*
X64450390Y-46138530D01*
X64584786Y-46251302D01*
X64662488Y-46290325D01*
X64741562Y-46330038D01*
X64741563Y-46330038D01*
X64741567Y-46330040D01*
X64912279Y-46370500D01*
X64912282Y-46370500D01*
X65043701Y-46370500D01*
X65043709Y-46370500D01*
X65174255Y-46355241D01*
X65339117Y-46295237D01*
X65485696Y-46198830D01*
X65606092Y-46071218D01*
X65693812Y-45919281D01*
X65744130Y-45751210D01*
X65754331Y-45576065D01*
X65723865Y-45403289D01*
X65654377Y-45242196D01*
X65549610Y-45101470D01*
X65477747Y-45041170D01*
X65415214Y-44988698D01*
X65415212Y-44988697D01*
X65258437Y-44909961D01*
X65258433Y-44909960D01*
X65087721Y-44869500D01*
X64956291Y-44869500D01*
X64851854Y-44881707D01*
X64825743Y-44884759D01*
X64825740Y-44884760D01*
X64660884Y-44944762D01*
X64660880Y-44944764D01*
X64514306Y-45041167D01*
X64514305Y-45041168D01*
X64393910Y-45168778D01*
X64306188Y-45320718D01*
X64255870Y-45488789D01*
X64255869Y-45488794D01*
X64245668Y-45663933D01*
X55000499Y-45663933D01*
X55000499Y-43123933D01*
X64245668Y-43123933D01*
X64261058Y-43211210D01*
X64276135Y-43296711D01*
X64345623Y-43457804D01*
X64345624Y-43457806D01*
X64345626Y-43457809D01*
X64400278Y-43531218D01*
X64450390Y-43598530D01*
X64584786Y-43711302D01*
X64662488Y-43750325D01*
X64741562Y-43790038D01*
X64741563Y-43790038D01*
X64741567Y-43790040D01*
X64912279Y-43830500D01*
X64912282Y-43830500D01*
X65043701Y-43830500D01*
X65043709Y-43830500D01*
X65174255Y-43815241D01*
X65339117Y-43755237D01*
X65485696Y-43658830D01*
X65606092Y-43531218D01*
X65693812Y-43379281D01*
X65744130Y-43211210D01*
X65754331Y-43036065D01*
X65723865Y-42863289D01*
X65654377Y-42702196D01*
X65549610Y-42561470D01*
X65477747Y-42501170D01*
X65415214Y-42448698D01*
X65415212Y-42448697D01*
X65258437Y-42369961D01*
X65258433Y-42369960D01*
X65087721Y-42329500D01*
X64956291Y-42329500D01*
X64851854Y-42341707D01*
X64825743Y-42344759D01*
X64825740Y-42344760D01*
X64660884Y-42404762D01*
X64660880Y-42404764D01*
X64514306Y-42501167D01*
X64514305Y-42501168D01*
X64393910Y-42628778D01*
X64306188Y-42780718D01*
X64255870Y-42948789D01*
X64255869Y-42948794D01*
X64245668Y-43123933D01*
X55000499Y-43123933D01*
X55000499Y-40583933D01*
X64245668Y-40583933D01*
X64261058Y-40671210D01*
X64276135Y-40756711D01*
X64345623Y-40917804D01*
X64345624Y-40917806D01*
X64345626Y-40917809D01*
X64400278Y-40991218D01*
X64450390Y-41058530D01*
X64584786Y-41171302D01*
X64662488Y-41210325D01*
X64741562Y-41250038D01*
X64741563Y-41250038D01*
X64741567Y-41250040D01*
X64912279Y-41290500D01*
X64912282Y-41290500D01*
X65043701Y-41290500D01*
X65043709Y-41290500D01*
X65174255Y-41275241D01*
X65339117Y-41215237D01*
X65485696Y-41118830D01*
X65606092Y-40991218D01*
X65693812Y-40839281D01*
X65744130Y-40671210D01*
X65754331Y-40496065D01*
X65723865Y-40323289D01*
X65654377Y-40162196D01*
X65615518Y-40110000D01*
X65549609Y-40021469D01*
X65415214Y-39908698D01*
X65415212Y-39908697D01*
X65258437Y-39829961D01*
X65258433Y-39829960D01*
X65087721Y-39789500D01*
X64956291Y-39789500D01*
X64851854Y-39801707D01*
X64825743Y-39804759D01*
X64825740Y-39804760D01*
X64660884Y-39864762D01*
X64660880Y-39864764D01*
X64514306Y-39961167D01*
X64514305Y-39961168D01*
X64393910Y-40088778D01*
X64306188Y-40240718D01*
X64255870Y-40408789D01*
X64255869Y-40408794D01*
X64245668Y-40583933D01*
X55000499Y-40583933D01*
X55000499Y-40110000D01*
X58819867Y-40110000D01*
X58838302Y-40238225D01*
X58877150Y-40323289D01*
X58892118Y-40356063D01*
X58976951Y-40453967D01*
X59085931Y-40524004D01*
X59210225Y-40560499D01*
X59210227Y-40560500D01*
X59210228Y-40560500D01*
X59339773Y-40560500D01*
X59339773Y-40560499D01*
X59464069Y-40524004D01*
X59573049Y-40453967D01*
X59657882Y-40356063D01*
X59711697Y-40238226D01*
X59730133Y-40110000D01*
X59711697Y-39981774D01*
X59657882Y-39863937D01*
X59573049Y-39766033D01*
X59464069Y-39695996D01*
X59464065Y-39695994D01*
X59464064Y-39695994D01*
X59339774Y-39659500D01*
X59339772Y-39659500D01*
X59210228Y-39659500D01*
X59210226Y-39659500D01*
X59085935Y-39695994D01*
X59085932Y-39695995D01*
X59085931Y-39695996D01*
X59034677Y-39728934D01*
X58976950Y-39766033D01*
X58892118Y-39863937D01*
X58892117Y-39863938D01*
X58838302Y-39981774D01*
X58819867Y-40110000D01*
X55000499Y-40110000D01*
X55000499Y-38043933D01*
X64245668Y-38043933D01*
X64261058Y-38131210D01*
X64276135Y-38216711D01*
X64345623Y-38377804D01*
X64345624Y-38377806D01*
X64345626Y-38377809D01*
X64400278Y-38451218D01*
X64450390Y-38518530D01*
X64584786Y-38631302D01*
X64662488Y-38670325D01*
X64741562Y-38710038D01*
X64741563Y-38710038D01*
X64741567Y-38710040D01*
X64912279Y-38750500D01*
X64912282Y-38750500D01*
X65043701Y-38750500D01*
X65043709Y-38750500D01*
X65174255Y-38735241D01*
X65339117Y-38675237D01*
X65485696Y-38578830D01*
X65606092Y-38451218D01*
X65693812Y-38299281D01*
X65744130Y-38131210D01*
X65754331Y-37956065D01*
X65723865Y-37783289D01*
X65654377Y-37622196D01*
X65549610Y-37481470D01*
X65477747Y-37421170D01*
X65415214Y-37368698D01*
X65415212Y-37368697D01*
X65258437Y-37289961D01*
X65258433Y-37289960D01*
X65087721Y-37249500D01*
X64956291Y-37249500D01*
X64851854Y-37261707D01*
X64825743Y-37264759D01*
X64825740Y-37264760D01*
X64660884Y-37324762D01*
X64660880Y-37324764D01*
X64514306Y-37421167D01*
X64514305Y-37421168D01*
X64393910Y-37548778D01*
X64306188Y-37700718D01*
X64255870Y-37868789D01*
X64255869Y-37868794D01*
X64245668Y-38043933D01*
X55000499Y-38043933D01*
X55000499Y-26990000D01*
X71564417Y-26990000D01*
X71584699Y-27195932D01*
X71584700Y-27195934D01*
X71644768Y-27393954D01*
X71742315Y-27576450D01*
X71742317Y-27576452D01*
X71873589Y-27736410D01*
X71970209Y-27815702D01*
X72033550Y-27867685D01*
X72216046Y-27965232D01*
X72414066Y-28025300D01*
X72414065Y-28025300D01*
X72432529Y-28027118D01*
X72620000Y-28045583D01*
X72825934Y-28025300D01*
X73023954Y-27965232D01*
X73206450Y-27867685D01*
X73366410Y-27736410D01*
X73497685Y-27576450D01*
X73595232Y-27393954D01*
X73655300Y-27195934D01*
X73675583Y-26990000D01*
X73655300Y-26784066D01*
X73595232Y-26586046D01*
X73497685Y-26403550D01*
X73445702Y-26340209D01*
X73366410Y-26243589D01*
X73206452Y-26112317D01*
X73206453Y-26112317D01*
X73206450Y-26112315D01*
X73023954Y-26014768D01*
X72825934Y-25954700D01*
X72825932Y-25954699D01*
X72825934Y-25954699D01*
X72620000Y-25934417D01*
X72414067Y-25954699D01*
X72216043Y-26014769D01*
X72105898Y-26073643D01*
X72033550Y-26112315D01*
X72033548Y-26112316D01*
X72033547Y-26112317D01*
X71873589Y-26243589D01*
X71742317Y-26403547D01*
X71644769Y-26586043D01*
X71584699Y-26784067D01*
X71564417Y-26990000D01*
X55000499Y-26990000D01*
X55000499Y-22540000D01*
X60829975Y-22540000D01*
X60850042Y-22794989D01*
X60909752Y-23043702D01*
X61007634Y-23280012D01*
X61007636Y-23280015D01*
X61141275Y-23498095D01*
X61141286Y-23498110D01*
X61144533Y-23501911D01*
X61144535Y-23501911D01*
X61708766Y-22937679D01*
X61752316Y-23019822D01*
X61872009Y-23160735D01*
X62019195Y-23272623D01*
X62061402Y-23292150D01*
X61498087Y-23855464D01*
X61498087Y-23855465D01*
X61501888Y-23858712D01*
X61501898Y-23858719D01*
X61719984Y-23992363D01*
X61719987Y-23992365D01*
X61956297Y-24090247D01*
X62205011Y-24149957D01*
X62205010Y-24149957D01*
X62460000Y-24170024D01*
X62714989Y-24149957D01*
X62963702Y-24090247D01*
X63200012Y-23992365D01*
X63200015Y-23992363D01*
X63418103Y-23858719D01*
X63421912Y-23855464D01*
X62858609Y-23292161D01*
X62977431Y-23220669D01*
X63111658Y-23093523D01*
X63214861Y-22941309D01*
X63775464Y-23501912D01*
X63778719Y-23498103D01*
X63912363Y-23280015D01*
X63912365Y-23280012D01*
X64010247Y-23043702D01*
X64069957Y-22794989D01*
X64090024Y-22540000D01*
X65909975Y-22540000D01*
X65930042Y-22794989D01*
X65989752Y-23043702D01*
X66087634Y-23280012D01*
X66087636Y-23280015D01*
X66221275Y-23498095D01*
X66221286Y-23498110D01*
X66224533Y-23501911D01*
X66224535Y-23501911D01*
X66788766Y-22937679D01*
X66832316Y-23019822D01*
X66952009Y-23160735D01*
X67099195Y-23272623D01*
X67141402Y-23292150D01*
X66578087Y-23855464D01*
X66578087Y-23855465D01*
X66581888Y-23858712D01*
X66581898Y-23858719D01*
X66799984Y-23992363D01*
X66799987Y-23992365D01*
X67036297Y-24090247D01*
X67285011Y-24149957D01*
X67285010Y-24149957D01*
X67540000Y-24170024D01*
X67794989Y-24149957D01*
X68043702Y-24090247D01*
X68280012Y-23992365D01*
X68280015Y-23992363D01*
X68498103Y-23858719D01*
X68501912Y-23855464D01*
X67938609Y-23292161D01*
X68057431Y-23220669D01*
X68191658Y-23093523D01*
X68294861Y-22941309D01*
X68855464Y-23501912D01*
X68858719Y-23498103D01*
X68992363Y-23280015D01*
X68992365Y-23280012D01*
X69090247Y-23043702D01*
X69149957Y-22794989D01*
X69170024Y-22540000D01*
X69149957Y-22285010D01*
X69119945Y-22160000D01*
X71289364Y-22160000D01*
X71346567Y-22373486D01*
X71346570Y-22373492D01*
X71446399Y-22587578D01*
X71581894Y-22781082D01*
X71748917Y-22948105D01*
X71942421Y-23083600D01*
X72156507Y-23183429D01*
X72156516Y-23183433D01*
X72278649Y-23216158D01*
X72338310Y-23252523D01*
X72368839Y-23315369D01*
X72360545Y-23384745D01*
X72316059Y-23438623D01*
X72282552Y-23454593D01*
X72216046Y-23474767D01*
X72085358Y-23544622D01*
X72033550Y-23572315D01*
X72033548Y-23572316D01*
X72033547Y-23572317D01*
X71873589Y-23703589D01*
X71742317Y-23863547D01*
X71644769Y-24046043D01*
X71584699Y-24244067D01*
X71564417Y-24450000D01*
X71584699Y-24655932D01*
X71584700Y-24655934D01*
X71644768Y-24853954D01*
X71742315Y-25036450D01*
X71742317Y-25036452D01*
X71873589Y-25196410D01*
X71970209Y-25275702D01*
X72033550Y-25327685D01*
X72216046Y-25425232D01*
X72414066Y-25485300D01*
X72414065Y-25485300D01*
X72432529Y-25487118D01*
X72620000Y-25505583D01*
X72825934Y-25485300D01*
X73023954Y-25425232D01*
X73206450Y-25327685D01*
X73366410Y-25196410D01*
X73497685Y-25036450D01*
X73595232Y-24853954D01*
X73655300Y-24655934D01*
X73675583Y-24450000D01*
X73655300Y-24244066D01*
X73595232Y-24046046D01*
X73497685Y-23863550D01*
X73445702Y-23800209D01*
X73366410Y-23703589D01*
X73206452Y-23572317D01*
X73206453Y-23572317D01*
X73206450Y-23572315D01*
X73023954Y-23474768D01*
X72957447Y-23454593D01*
X72899009Y-23416296D01*
X72870553Y-23352484D01*
X72881113Y-23283417D01*
X72927337Y-23231023D01*
X72961350Y-23216158D01*
X73083483Y-23183433D01*
X73083492Y-23183429D01*
X73297578Y-23083600D01*
X73491082Y-22948105D01*
X73658105Y-22781082D01*
X73793600Y-22587578D01*
X73893429Y-22373492D01*
X73893432Y-22373486D01*
X73950636Y-22160000D01*
X73053686Y-22160000D01*
X73079493Y-22119844D01*
X73120000Y-21981889D01*
X73120000Y-21838111D01*
X73079493Y-21700156D01*
X73053686Y-21660000D01*
X73950636Y-21660000D01*
X73950635Y-21659999D01*
X73893432Y-21446513D01*
X73893429Y-21446507D01*
X73793600Y-21232422D01*
X73793599Y-21232420D01*
X73658113Y-21038926D01*
X73658108Y-21038920D01*
X73491082Y-20871894D01*
X73297578Y-20736399D01*
X73127052Y-20656882D01*
X73074613Y-20610710D01*
X73055461Y-20543516D01*
X73075677Y-20476635D01*
X73128842Y-20431300D01*
X73179457Y-20420500D01*
X73489750Y-20420500D01*
X73489751Y-20420499D01*
X73504568Y-20417552D01*
X73548229Y-20408868D01*
X73548229Y-20408867D01*
X73548231Y-20408867D01*
X73614552Y-20364552D01*
X73658867Y-20298231D01*
X73658867Y-20298229D01*
X73658868Y-20298229D01*
X73670499Y-20239752D01*
X73670500Y-20239750D01*
X73670500Y-18500249D01*
X73670499Y-18500247D01*
X73658868Y-18441770D01*
X73658867Y-18441769D01*
X73614552Y-18375447D01*
X73548230Y-18331132D01*
X73548229Y-18331131D01*
X73489752Y-18319500D01*
X73489748Y-18319500D01*
X71750252Y-18319500D01*
X71750247Y-18319500D01*
X71691770Y-18331131D01*
X71691769Y-18331132D01*
X71625447Y-18375447D01*
X71581132Y-18441769D01*
X71581131Y-18441770D01*
X71569500Y-18500247D01*
X71569500Y-20239752D01*
X71581131Y-20298229D01*
X71581132Y-20298230D01*
X71625447Y-20364552D01*
X71691769Y-20408867D01*
X71691770Y-20408868D01*
X71750247Y-20420499D01*
X71750250Y-20420500D01*
X72060543Y-20420500D01*
X72127582Y-20440185D01*
X72173337Y-20492989D01*
X72183281Y-20562147D01*
X72154256Y-20625703D01*
X72112948Y-20656882D01*
X71942422Y-20736399D01*
X71942420Y-20736400D01*
X71748926Y-20871886D01*
X71748920Y-20871891D01*
X71581891Y-21038920D01*
X71581886Y-21038926D01*
X71446400Y-21232420D01*
X71446399Y-21232422D01*
X71346570Y-21446507D01*
X71346567Y-21446513D01*
X71289364Y-21659999D01*
X71289364Y-21660000D01*
X72186314Y-21660000D01*
X72160507Y-21700156D01*
X72120000Y-21838111D01*
X72120000Y-21981889D01*
X72160507Y-22119844D01*
X72186314Y-22160000D01*
X71289364Y-22160000D01*
X69119945Y-22160000D01*
X69090247Y-22036297D01*
X68992365Y-21799987D01*
X68992363Y-21799984D01*
X68858719Y-21581898D01*
X68858712Y-21581888D01*
X68855465Y-21578087D01*
X68855464Y-21578087D01*
X68291232Y-22142319D01*
X68247684Y-22060178D01*
X68127991Y-21919265D01*
X67980805Y-21807377D01*
X67938597Y-21787849D01*
X68501911Y-21224535D01*
X68501911Y-21224533D01*
X68498110Y-21221286D01*
X68498095Y-21221275D01*
X68280015Y-21087636D01*
X68280012Y-21087634D01*
X68043702Y-20989752D01*
X67794988Y-20930042D01*
X67794989Y-20930042D01*
X67540000Y-20909975D01*
X67285010Y-20930042D01*
X67036297Y-20989752D01*
X66799987Y-21087634D01*
X66799984Y-21087636D01*
X66581897Y-21221280D01*
X66578087Y-21224534D01*
X67141390Y-21787837D01*
X67022569Y-21859331D01*
X66888342Y-21986477D01*
X66785138Y-22138691D01*
X66224534Y-21578087D01*
X66221280Y-21581897D01*
X66087636Y-21799984D01*
X66087634Y-21799987D01*
X65989752Y-22036297D01*
X65930042Y-22285010D01*
X65909975Y-22540000D01*
X64090024Y-22540000D01*
X64069957Y-22285010D01*
X64010247Y-22036297D01*
X63912365Y-21799987D01*
X63912363Y-21799984D01*
X63778719Y-21581898D01*
X63778712Y-21581888D01*
X63775465Y-21578087D01*
X63775464Y-21578087D01*
X63211232Y-22142318D01*
X63167684Y-22060178D01*
X63047991Y-21919265D01*
X62900805Y-21807377D01*
X62858597Y-21787849D01*
X63421911Y-21224535D01*
X63421911Y-21224533D01*
X63418110Y-21221286D01*
X63418095Y-21221275D01*
X63200015Y-21087636D01*
X63200012Y-21087634D01*
X62963702Y-20989752D01*
X62714988Y-20930042D01*
X62714989Y-20930042D01*
X62460000Y-20909975D01*
X62205010Y-20930042D01*
X61956297Y-20989752D01*
X61719987Y-21087634D01*
X61719984Y-21087636D01*
X61501897Y-21221280D01*
X61498087Y-21224534D01*
X62061390Y-21787837D01*
X61942569Y-21859331D01*
X61808342Y-21986477D01*
X61705138Y-22138691D01*
X61144534Y-21578087D01*
X61141280Y-21581897D01*
X61007636Y-21799984D01*
X61007634Y-21799987D01*
X60909752Y-22036297D01*
X60850042Y-22285010D01*
X60829975Y-22540000D01*
X55000499Y-22540000D01*
X55000499Y-20000001D01*
X63769819Y-20000001D01*
X63788507Y-20213613D01*
X63788509Y-20213624D01*
X63844005Y-20420739D01*
X63844007Y-20420743D01*
X63844008Y-20420747D01*
X63870069Y-20476635D01*
X63934631Y-20615090D01*
X64019573Y-20736399D01*
X64057627Y-20790745D01*
X64209255Y-20942373D01*
X64384909Y-21065368D01*
X64579253Y-21155992D01*
X64786381Y-21211492D01*
X64935442Y-21224533D01*
X64999998Y-21230181D01*
X65000000Y-21230181D01*
X65000002Y-21230181D01*
X65053404Y-21225508D01*
X65213619Y-21211492D01*
X65420747Y-21155992D01*
X65615091Y-21065368D01*
X65790745Y-20942373D01*
X65942373Y-20790745D01*
X66065368Y-20615091D01*
X66155992Y-20420747D01*
X66211492Y-20213619D01*
X66230181Y-20000000D01*
X66211492Y-19786381D01*
X66155992Y-19579253D01*
X66065368Y-19384910D01*
X65942373Y-19209255D01*
X65790745Y-19057627D01*
X65615091Y-18934632D01*
X65615092Y-18934632D01*
X65615090Y-18934631D01*
X65517919Y-18889320D01*
X65420747Y-18844008D01*
X65420743Y-18844007D01*
X65420739Y-18844005D01*
X65213624Y-18788509D01*
X65213620Y-18788508D01*
X65213619Y-18788508D01*
X65213618Y-18788507D01*
X65213613Y-18788507D01*
X65000002Y-18769819D01*
X64999998Y-18769819D01*
X64786386Y-18788507D01*
X64786375Y-18788509D01*
X64579260Y-18844005D01*
X64579251Y-18844009D01*
X64384910Y-18934631D01*
X64384908Y-18934632D01*
X64209259Y-19057623D01*
X64209253Y-19057628D01*
X64057628Y-19209253D01*
X64057623Y-19209259D01*
X63934632Y-19384908D01*
X63934631Y-19384910D01*
X63844009Y-19579251D01*
X63844005Y-19579260D01*
X63788509Y-19786375D01*
X63788507Y-19786386D01*
X63769819Y-19999998D01*
X63769819Y-20000001D01*
X55000499Y-20000001D01*
X55000499Y-17460000D01*
X60829975Y-17460000D01*
X60850042Y-17714989D01*
X60909752Y-17963702D01*
X61007634Y-18200012D01*
X61007636Y-18200015D01*
X61141275Y-18418095D01*
X61141286Y-18418110D01*
X61144533Y-18421911D01*
X61144535Y-18421911D01*
X61708766Y-17857679D01*
X61752316Y-17939822D01*
X61872009Y-18080735D01*
X62019195Y-18192623D01*
X62061402Y-18212150D01*
X61498087Y-18775464D01*
X61498087Y-18775465D01*
X61501888Y-18778712D01*
X61501898Y-18778719D01*
X61719984Y-18912363D01*
X61719987Y-18912365D01*
X61956297Y-19010247D01*
X62205011Y-19069957D01*
X62205010Y-19069957D01*
X62460000Y-19090024D01*
X62714989Y-19069957D01*
X62963702Y-19010247D01*
X63200012Y-18912365D01*
X63200015Y-18912363D01*
X63418103Y-18778719D01*
X63421912Y-18775464D01*
X62858609Y-18212161D01*
X62977431Y-18140669D01*
X63111658Y-18013523D01*
X63214861Y-17861309D01*
X63775464Y-18421912D01*
X63778719Y-18418103D01*
X63912363Y-18200015D01*
X63912365Y-18200012D01*
X64010247Y-17963702D01*
X64069957Y-17714989D01*
X64090024Y-17460000D01*
X65909975Y-17460000D01*
X65930042Y-17714989D01*
X65989752Y-17963702D01*
X66087634Y-18200012D01*
X66087636Y-18200015D01*
X66221275Y-18418095D01*
X66221286Y-18418110D01*
X66224533Y-18421911D01*
X66224535Y-18421911D01*
X66788766Y-17857679D01*
X66832316Y-17939822D01*
X66952009Y-18080735D01*
X67099195Y-18192623D01*
X67141402Y-18212150D01*
X66578087Y-18775464D01*
X66578087Y-18775465D01*
X66581888Y-18778712D01*
X66581898Y-18778719D01*
X66799984Y-18912363D01*
X66799987Y-18912365D01*
X67036297Y-19010247D01*
X67285011Y-19069957D01*
X67285010Y-19069957D01*
X67540000Y-19090024D01*
X67794989Y-19069957D01*
X68043702Y-19010247D01*
X68280012Y-18912365D01*
X68280015Y-18912363D01*
X68498103Y-18778719D01*
X68501912Y-18775464D01*
X67938609Y-18212161D01*
X68057431Y-18140669D01*
X68191658Y-18013523D01*
X68294861Y-17861309D01*
X68855464Y-18421912D01*
X68858719Y-18418103D01*
X68992363Y-18200015D01*
X68992365Y-18200012D01*
X69090247Y-17963702D01*
X69149957Y-17714989D01*
X69170024Y-17460000D01*
X69149957Y-17205010D01*
X69090247Y-16956297D01*
X68992365Y-16719987D01*
X68992363Y-16719984D01*
X68858719Y-16501898D01*
X68858712Y-16501888D01*
X68855465Y-16498087D01*
X68855464Y-16498087D01*
X68291232Y-17062319D01*
X68247684Y-16980178D01*
X68127991Y-16839265D01*
X67980805Y-16727377D01*
X67938597Y-16707849D01*
X68501911Y-16144535D01*
X68501911Y-16144533D01*
X68498110Y-16141286D01*
X68498095Y-16141275D01*
X68280015Y-16007636D01*
X68280012Y-16007634D01*
X68043702Y-15909752D01*
X67794988Y-15850042D01*
X67794989Y-15850042D01*
X67540000Y-15829975D01*
X67285010Y-15850042D01*
X67036297Y-15909752D01*
X66799987Y-16007634D01*
X66799984Y-16007636D01*
X66581897Y-16141280D01*
X66578087Y-16144534D01*
X67141390Y-16707837D01*
X67022569Y-16779331D01*
X66888342Y-16906477D01*
X66785138Y-17058691D01*
X66224534Y-16498087D01*
X66221280Y-16501897D01*
X66087636Y-16719984D01*
X66087634Y-16719987D01*
X65989752Y-16956297D01*
X65930042Y-17205010D01*
X65909975Y-17460000D01*
X64090024Y-17460000D01*
X64069957Y-17205010D01*
X64010247Y-16956297D01*
X63912365Y-16719987D01*
X63912363Y-16719984D01*
X63778719Y-16501898D01*
X63778712Y-16501888D01*
X63775465Y-16498087D01*
X63775464Y-16498087D01*
X63211232Y-17062318D01*
X63167684Y-16980178D01*
X63047991Y-16839265D01*
X62900805Y-16727377D01*
X62858596Y-16707849D01*
X63421911Y-16144535D01*
X63421911Y-16144533D01*
X63418110Y-16141286D01*
X63418095Y-16141275D01*
X63200015Y-16007636D01*
X63200012Y-16007634D01*
X62963702Y-15909752D01*
X62714988Y-15850042D01*
X62714989Y-15850042D01*
X62460000Y-15829975D01*
X62205010Y-15850042D01*
X61956297Y-15909752D01*
X61719987Y-16007634D01*
X61719984Y-16007636D01*
X61501897Y-16141280D01*
X61498087Y-16144534D01*
X62061390Y-16707838D01*
X61942569Y-16779331D01*
X61808342Y-16906477D01*
X61705138Y-17058691D01*
X61144534Y-16498087D01*
X61141280Y-16501897D01*
X61007636Y-16719984D01*
X61007634Y-16719987D01*
X60909752Y-16956297D01*
X60850042Y-17205010D01*
X60829975Y-17460000D01*
X55000499Y-17460000D01*
X55000499Y-17312023D01*
X55000632Y-17307981D01*
X55002463Y-17280034D01*
X55005990Y-17226226D01*
X55010715Y-17160169D01*
X55011798Y-17152250D01*
X55108157Y-16677592D01*
X55110194Y-16670050D01*
X55116530Y-16651385D01*
X55117123Y-16649719D01*
X55164736Y-16522063D01*
X55176970Y-16497790D01*
X55456059Y-16068744D01*
X55477205Y-16044052D01*
X55934491Y-15633910D01*
X55969200Y-15611923D01*
X56545807Y-15369381D01*
X56567512Y-15362520D01*
X56610457Y-15353177D01*
X56626483Y-15349989D01*
X56631595Y-15349195D01*
X56940034Y-15314495D01*
X56942834Y-15314246D01*
X56965993Y-15312728D01*
X56997981Y-15310633D01*
X57002035Y-15310500D01*
X72997964Y-15310500D01*
X73002019Y-15310633D01*
G37*
%TD.AperFunction*%
%TD*%
M02*
