%TF.GenerationSoftware,KiCad,Pcbnew,7.0.5*%
%TF.CreationDate,2023-06-23T15:01:13-05:00*%
%TF.ProjectId,Single.Channel.Amp,53696e67-6c65-42e4-9368-616e6e656c2e,rev?*%
%TF.SameCoordinates,Original*%
%TF.FileFunction,Drillmap*%
%TF.FilePolarity,Positive*%
%FSLAX45Y45*%
G04 Gerber Fmt 4.5, Leading zero omitted, Abs format (unit mm)*
G04 Created by KiCad (PCBNEW 7.0.5) date 2023-06-23 15:01:13*
%MOMM*%
%LPD*%
G01*
G04 APERTURE LIST*
%ADD10C,0.150000*%
%ADD11C,0.200000*%
G04 APERTURE END LIST*
D10*
X7300000Y-7531000D02*
G75*
G03*
X7500000Y-7331000I0J200000D01*
G01*
X5700000Y-1531000D02*
X7300000Y-1531000D01*
X5700000Y-7531000D02*
X7300000Y-7531000D01*
X5500000Y-7331000D02*
G75*
G03*
X5700000Y-7531000I200000J0D01*
G01*
X5500000Y-7331000D02*
X5500000Y-1731000D01*
X7500000Y-1731000D02*
X7500000Y-7331000D01*
X7500000Y-1731000D02*
G75*
G03*
X7300000Y-1531000I-200000J0D01*
G01*
X5700000Y-1531000D02*
G75*
G03*
X5500000Y-1731000I0J-200000D01*
G01*
D11*
X5753277Y-7849984D02*
X5753277Y-7649984D01*
X5753277Y-7649984D02*
X5800896Y-7649984D01*
X5800896Y-7649984D02*
X5829467Y-7659508D01*
X5829467Y-7659508D02*
X5848515Y-7678555D01*
X5848515Y-7678555D02*
X5858039Y-7697603D01*
X5858039Y-7697603D02*
X5867562Y-7735698D01*
X5867562Y-7735698D02*
X5867562Y-7764269D01*
X5867562Y-7764269D02*
X5858039Y-7802365D01*
X5858039Y-7802365D02*
X5848515Y-7821412D01*
X5848515Y-7821412D02*
X5829467Y-7840460D01*
X5829467Y-7840460D02*
X5800896Y-7849984D01*
X5800896Y-7849984D02*
X5753277Y-7849984D01*
X5953277Y-7849984D02*
X5953277Y-7716650D01*
X5953277Y-7754746D02*
X5962801Y-7735698D01*
X5962801Y-7735698D02*
X5972324Y-7726174D01*
X5972324Y-7726174D02*
X5991372Y-7716650D01*
X5991372Y-7716650D02*
X6010420Y-7716650D01*
X6077086Y-7849984D02*
X6077086Y-7716650D01*
X6077086Y-7649984D02*
X6067562Y-7659508D01*
X6067562Y-7659508D02*
X6077086Y-7669031D01*
X6077086Y-7669031D02*
X6086610Y-7659508D01*
X6086610Y-7659508D02*
X6077086Y-7649984D01*
X6077086Y-7649984D02*
X6077086Y-7669031D01*
X6200896Y-7849984D02*
X6181848Y-7840460D01*
X6181848Y-7840460D02*
X6172324Y-7821412D01*
X6172324Y-7821412D02*
X6172324Y-7649984D01*
X6305658Y-7849984D02*
X6286610Y-7840460D01*
X6286610Y-7840460D02*
X6277086Y-7821412D01*
X6277086Y-7821412D02*
X6277086Y-7649984D01*
X6534229Y-7849984D02*
X6534229Y-7649984D01*
X6534229Y-7649984D02*
X6600896Y-7792841D01*
X6600896Y-7792841D02*
X6667562Y-7649984D01*
X6667562Y-7649984D02*
X6667562Y-7849984D01*
X6848515Y-7849984D02*
X6848515Y-7745222D01*
X6848515Y-7745222D02*
X6838991Y-7726174D01*
X6838991Y-7726174D02*
X6819943Y-7716650D01*
X6819943Y-7716650D02*
X6781848Y-7716650D01*
X6781848Y-7716650D02*
X6762801Y-7726174D01*
X6848515Y-7840460D02*
X6829467Y-7849984D01*
X6829467Y-7849984D02*
X6781848Y-7849984D01*
X6781848Y-7849984D02*
X6762801Y-7840460D01*
X6762801Y-7840460D02*
X6753277Y-7821412D01*
X6753277Y-7821412D02*
X6753277Y-7802365D01*
X6753277Y-7802365D02*
X6762801Y-7783317D01*
X6762801Y-7783317D02*
X6781848Y-7773793D01*
X6781848Y-7773793D02*
X6829467Y-7773793D01*
X6829467Y-7773793D02*
X6848515Y-7764269D01*
X6943753Y-7716650D02*
X6943753Y-7916650D01*
X6943753Y-7726174D02*
X6962801Y-7716650D01*
X6962801Y-7716650D02*
X7000896Y-7716650D01*
X7000896Y-7716650D02*
X7019943Y-7726174D01*
X7019943Y-7726174D02*
X7029467Y-7735698D01*
X7029467Y-7735698D02*
X7038991Y-7754746D01*
X7038991Y-7754746D02*
X7038991Y-7811888D01*
X7038991Y-7811888D02*
X7029467Y-7830936D01*
X7029467Y-7830936D02*
X7019943Y-7840460D01*
X7019943Y-7840460D02*
X7000896Y-7849984D01*
X7000896Y-7849984D02*
X6962801Y-7849984D01*
X6962801Y-7849984D02*
X6943753Y-7840460D01*
X7124705Y-7830936D02*
X7134229Y-7840460D01*
X7134229Y-7840460D02*
X7124705Y-7849984D01*
X7124705Y-7849984D02*
X7115182Y-7840460D01*
X7115182Y-7840460D02*
X7124705Y-7830936D01*
X7124705Y-7830936D02*
X7124705Y-7849984D01*
X7124705Y-7726174D02*
X7134229Y-7735698D01*
X7134229Y-7735698D02*
X7124705Y-7745222D01*
X7124705Y-7745222D02*
X7115182Y-7735698D01*
X7115182Y-7735698D02*
X7124705Y-7726174D01*
X7124705Y-7726174D02*
X7124705Y-7745222D01*
M02*
