%TF.GenerationSoftware,KiCad,Pcbnew,7.0.5*%
%TF.CreationDate,2023-06-23T15:01:08-05:00*%
%TF.ProjectId,Single.Channel.Amp,53696e67-6c65-42e4-9368-616e6e656c2e,rev?*%
%TF.SameCoordinates,Original*%
%TF.FileFunction,Copper,L2,Inr*%
%TF.FilePolarity,Positive*%
%FSLAX46Y46*%
G04 Gerber Fmt 4.6, Leading zero omitted, Abs format (unit mm)*
G04 Created by KiCad (PCBNEW 7.0.5) date 2023-06-23 15:01:08*
%MOMM*%
%LPD*%
G01*
G04 APERTURE LIST*
%TA.AperFunction,ComponentPad*%
%ADD10R,1.700000X1.700000*%
%TD*%
%TA.AperFunction,ComponentPad*%
%ADD11O,1.700000X1.700000*%
%TD*%
%TA.AperFunction,ComponentPad*%
%ADD12C,2.050000*%
%TD*%
%TA.AperFunction,ComponentPad*%
%ADD13C,2.250000*%
%TD*%
G04 APERTURE END LIST*
D10*
%TO.N,Net-(D1-A)*%
%TO.C,J3*%
X72620000Y-19370000D03*
D11*
%TO.N,GND*%
X72620000Y-21910000D03*
%TO.N,GND1*%
X72620000Y-24450000D03*
%TO.N,Net-(D2-K)*%
X72620000Y-26990000D03*
%TD*%
D12*
%TO.N,Net-(J2-Input)*%
%TO.C,J4*%
X65000000Y-67000000D03*
D13*
%TO.N,GND*%
X62460000Y-64460000D03*
X62460000Y-69540000D03*
X67540000Y-64460000D03*
X67540000Y-69540000D03*
%TD*%
D12*
%TO.N,Net-(J2-Output)*%
%TO.C,J5*%
X65000000Y-20000000D03*
D13*
%TO.N,GND*%
X62460000Y-17460000D03*
X62460000Y-22540000D03*
X67540000Y-17460000D03*
X67540000Y-22540000D03*
%TD*%
D11*
%TO.N,GND1*%
%TO.C,J2*%
X65000000Y-40540000D03*
X65000000Y-48160000D03*
X65000000Y-50700000D03*
X65000000Y-53240000D03*
%TD*%
%TA.AperFunction,Conductor*%
%TO.N,GND1*%
G36*
X65250000Y-52804498D02*
G01*
X65142315Y-52755320D01*
X65035763Y-52740000D01*
X64964237Y-52740000D01*
X64857685Y-52755320D01*
X64749999Y-52804498D01*
X64749999Y-51135501D01*
X64857685Y-51184680D01*
X64964237Y-51200000D01*
X65035763Y-51200000D01*
X65142315Y-51184680D01*
X65250000Y-51135501D01*
X65250000Y-52804498D01*
G37*
%TD.AperFunction*%
%TA.AperFunction,Conductor*%
G36*
X65250000Y-50264498D02*
G01*
X65142315Y-50215320D01*
X65035763Y-50200000D01*
X64964237Y-50200000D01*
X64857685Y-50215320D01*
X64749999Y-50264498D01*
X64749999Y-48595501D01*
X64857685Y-48644680D01*
X64964237Y-48660000D01*
X65035763Y-48660000D01*
X65142315Y-48644680D01*
X65250000Y-48595501D01*
X65250000Y-50264498D01*
G37*
%TD.AperFunction*%
%TA.AperFunction,Conductor*%
G36*
X73002019Y-15310633D02*
G01*
X73040149Y-15313131D01*
X73083793Y-15315992D01*
X73265459Y-15328985D01*
X73273102Y-15330015D01*
X73367572Y-15348806D01*
X73372190Y-15349912D01*
X73543719Y-15398061D01*
X73697413Y-15441204D01*
X73702315Y-15442802D01*
X73791762Y-15476164D01*
X73797481Y-15478634D01*
X73862544Y-15510719D01*
X73868651Y-15514176D01*
X74033108Y-15620000D01*
X74054728Y-15633912D01*
X74272782Y-15774225D01*
X74287440Y-15785274D01*
X74307332Y-15802718D01*
X74359510Y-15848476D01*
X74362463Y-15851243D01*
X74458770Y-15947550D01*
X74461531Y-15950498D01*
X74475243Y-15966135D01*
X74477144Y-15968410D01*
X74638444Y-16171187D01*
X74641459Y-16175318D01*
X74655410Y-16196197D01*
X74704958Y-16270351D01*
X74707824Y-16275085D01*
X74773806Y-16395921D01*
X74774996Y-16398213D01*
X74831352Y-16512492D01*
X74833839Y-16518251D01*
X74882881Y-16649737D01*
X74883500Y-16651475D01*
X74923597Y-16769597D01*
X74925472Y-16776353D01*
X74956848Y-16920589D01*
X74979980Y-17036880D01*
X74981015Y-17044560D01*
X74994021Y-17226413D01*
X74999367Y-17307966D01*
X74999500Y-17312023D01*
X74999500Y-73307976D01*
X74999367Y-73312033D01*
X74994022Y-73393558D01*
X74986015Y-73505514D01*
X74985608Y-73509442D01*
X74966386Y-73650854D01*
X74965760Y-73654599D01*
X74956842Y-73699440D01*
X74925471Y-73843647D01*
X74923596Y-73850403D01*
X74883496Y-73968531D01*
X74882879Y-73970265D01*
X74872626Y-73997758D01*
X74871277Y-74001080D01*
X74771176Y-74228425D01*
X74768848Y-74233157D01*
X74707824Y-74344914D01*
X74704958Y-74349648D01*
X74633467Y-74456641D01*
X74631549Y-74459351D01*
X74549744Y-74568631D01*
X74546723Y-74572357D01*
X74461529Y-74669502D01*
X74458755Y-74672464D01*
X74362464Y-74768755D01*
X74359502Y-74771529D01*
X74262357Y-74856723D01*
X74258631Y-74859744D01*
X74149351Y-74941549D01*
X74146641Y-74943467D01*
X74039649Y-75014957D01*
X74034914Y-75017823D01*
X73914075Y-75083806D01*
X73911790Y-75084993D01*
X73904596Y-75088541D01*
X73902019Y-75089740D01*
X73702563Y-75177002D01*
X73699377Y-75178292D01*
X73660275Y-75192876D01*
X73658538Y-75193494D01*
X73540402Y-75233596D01*
X73533647Y-75235471D01*
X73462130Y-75251029D01*
X73455117Y-75252554D01*
X73451369Y-75253250D01*
X73156664Y-75298589D01*
X73151657Y-75299152D01*
X73083568Y-75304022D01*
X73077972Y-75304389D01*
X73070672Y-75304867D01*
X73066636Y-75305000D01*
X56947817Y-75305000D01*
X56942201Y-75304745D01*
X56685599Y-75281417D01*
X56679129Y-75280482D01*
X56638251Y-75272351D01*
X56610617Y-75266854D01*
X56466352Y-75235471D01*
X56459597Y-75233596D01*
X56341465Y-75193496D01*
X56339728Y-75192877D01*
X56210480Y-75144670D01*
X56205300Y-75142466D01*
X56184183Y-75132323D01*
X56088201Y-75084990D01*
X56085909Y-75083800D01*
X56035990Y-75056542D01*
X55965081Y-75017823D01*
X55960357Y-75014962D01*
X55853348Y-74943461D01*
X55850639Y-74941543D01*
X55810592Y-74911564D01*
X55741353Y-74859732D01*
X55737648Y-74856729D01*
X55640680Y-74771690D01*
X55636671Y-74767843D01*
X55487338Y-74611116D01*
X55485610Y-74609226D01*
X55453281Y-74572362D01*
X55450260Y-74568637D01*
X55368449Y-74459351D01*
X55366531Y-74456640D01*
X55295037Y-74349641D01*
X55292170Y-74344907D01*
X55226173Y-74224042D01*
X55225024Y-74221830D01*
X55168635Y-74107483D01*
X55166160Y-74101750D01*
X55117093Y-73970198D01*
X55116540Y-73968646D01*
X55076394Y-73850378D01*
X55074529Y-73843659D01*
X55067509Y-73811387D01*
X55067137Y-73809545D01*
X55016592Y-73536600D01*
X55015715Y-73529742D01*
X55005991Y-73393778D01*
X55000632Y-73312019D01*
X55000499Y-73307993D01*
X55000499Y-69540001D01*
X61129437Y-69540001D01*
X61149650Y-69771044D01*
X61149651Y-69771051D01*
X61209678Y-69995074D01*
X61209679Y-69995076D01*
X61209680Y-69995079D01*
X61307699Y-70205282D01*
X61440730Y-70395269D01*
X61604731Y-70559270D01*
X61794718Y-70692301D01*
X62004921Y-70790320D01*
X62228950Y-70850349D01*
X62393985Y-70864787D01*
X62459998Y-70870563D01*
X62460000Y-70870563D01*
X62460002Y-70870563D01*
X62517762Y-70865509D01*
X62691050Y-70850349D01*
X62915079Y-70790320D01*
X63125282Y-70692301D01*
X63315269Y-70559270D01*
X63479270Y-70395269D01*
X63612301Y-70205282D01*
X63710320Y-69995079D01*
X63770349Y-69771050D01*
X63790563Y-69540001D01*
X66209437Y-69540001D01*
X66229650Y-69771044D01*
X66229651Y-69771051D01*
X66289678Y-69995074D01*
X66289679Y-69995076D01*
X66289680Y-69995079D01*
X66387699Y-70205282D01*
X66520730Y-70395269D01*
X66684731Y-70559270D01*
X66874718Y-70692301D01*
X67084921Y-70790320D01*
X67308950Y-70850349D01*
X67473985Y-70864787D01*
X67539998Y-70870563D01*
X67540000Y-70870563D01*
X67540002Y-70870563D01*
X67597762Y-70865509D01*
X67771050Y-70850349D01*
X67995079Y-70790320D01*
X68205282Y-70692301D01*
X68395269Y-70559270D01*
X68559270Y-70395269D01*
X68692301Y-70205282D01*
X68790320Y-69995079D01*
X68850349Y-69771050D01*
X68870563Y-69540000D01*
X68850349Y-69308950D01*
X68790320Y-69084921D01*
X68692301Y-68874719D01*
X68692299Y-68874716D01*
X68692298Y-68874714D01*
X68559273Y-68684735D01*
X68559268Y-68684729D01*
X68395269Y-68520730D01*
X68395263Y-68520726D01*
X68205282Y-68387699D01*
X67995079Y-68289680D01*
X67995076Y-68289679D01*
X67995074Y-68289678D01*
X67771051Y-68229651D01*
X67771044Y-68229650D01*
X67540002Y-68209437D01*
X67539998Y-68209437D01*
X67308955Y-68229650D01*
X67308948Y-68229651D01*
X67084917Y-68289681D01*
X66874718Y-68387699D01*
X66874714Y-68387701D01*
X66684735Y-68520726D01*
X66684729Y-68520731D01*
X66520731Y-68684729D01*
X66520726Y-68684735D01*
X66387701Y-68874714D01*
X66387699Y-68874718D01*
X66289681Y-69084917D01*
X66229651Y-69308948D01*
X66229650Y-69308955D01*
X66209437Y-69539998D01*
X66209437Y-69540001D01*
X63790563Y-69540001D01*
X63790563Y-69540000D01*
X63770349Y-69308950D01*
X63710320Y-69084921D01*
X63612301Y-68874719D01*
X63612299Y-68874716D01*
X63612298Y-68874714D01*
X63479273Y-68684735D01*
X63479268Y-68684729D01*
X63315269Y-68520730D01*
X63315263Y-68520726D01*
X63125282Y-68387699D01*
X62915079Y-68289680D01*
X62915076Y-68289679D01*
X62915074Y-68289678D01*
X62691051Y-68229651D01*
X62691044Y-68229650D01*
X62460002Y-68209437D01*
X62459998Y-68209437D01*
X62228955Y-68229650D01*
X62228948Y-68229651D01*
X62004917Y-68289681D01*
X61794718Y-68387699D01*
X61794714Y-68387701D01*
X61604735Y-68520726D01*
X61604729Y-68520731D01*
X61440731Y-68684729D01*
X61440726Y-68684735D01*
X61307701Y-68874714D01*
X61307699Y-68874718D01*
X61209681Y-69084917D01*
X61149651Y-69308948D01*
X61149650Y-69308955D01*
X61129437Y-69539998D01*
X61129437Y-69540001D01*
X55000499Y-69540001D01*
X55000499Y-67000001D01*
X63769819Y-67000001D01*
X63788507Y-67213613D01*
X63788509Y-67213624D01*
X63844005Y-67420739D01*
X63844007Y-67420743D01*
X63844008Y-67420747D01*
X63889320Y-67517918D01*
X63934631Y-67615090D01*
X63934632Y-67615091D01*
X64057627Y-67790745D01*
X64209255Y-67942373D01*
X64384909Y-68065368D01*
X64579253Y-68155992D01*
X64786381Y-68211492D01*
X64938965Y-68224841D01*
X64999998Y-68230181D01*
X65000000Y-68230181D01*
X65000002Y-68230181D01*
X65053404Y-68225508D01*
X65213619Y-68211492D01*
X65420747Y-68155992D01*
X65615091Y-68065368D01*
X65790745Y-67942373D01*
X65942373Y-67790745D01*
X66065368Y-67615091D01*
X66155992Y-67420747D01*
X66211492Y-67213619D01*
X66230181Y-67000000D01*
X66211492Y-66786381D01*
X66155992Y-66579253D01*
X66065368Y-66384910D01*
X65942373Y-66209255D01*
X65790745Y-66057627D01*
X65615091Y-65934632D01*
X65615092Y-65934632D01*
X65615090Y-65934631D01*
X65517918Y-65889320D01*
X65420747Y-65844008D01*
X65420743Y-65844007D01*
X65420739Y-65844005D01*
X65213624Y-65788509D01*
X65213620Y-65788508D01*
X65213619Y-65788508D01*
X65213618Y-65788507D01*
X65213613Y-65788507D01*
X65000002Y-65769819D01*
X64999998Y-65769819D01*
X64786386Y-65788507D01*
X64786375Y-65788509D01*
X64579260Y-65844005D01*
X64579251Y-65844009D01*
X64384910Y-65934631D01*
X64384908Y-65934632D01*
X64209259Y-66057623D01*
X64209253Y-66057628D01*
X64057628Y-66209253D01*
X64057623Y-66209259D01*
X63934632Y-66384908D01*
X63934631Y-66384910D01*
X63844009Y-66579251D01*
X63844005Y-66579260D01*
X63788509Y-66786375D01*
X63788507Y-66786386D01*
X63769819Y-66999998D01*
X63769819Y-67000001D01*
X55000499Y-67000001D01*
X55000499Y-64460001D01*
X61129437Y-64460001D01*
X61149650Y-64691044D01*
X61149651Y-64691051D01*
X61209678Y-64915074D01*
X61209679Y-64915076D01*
X61209680Y-64915079D01*
X61307699Y-65125282D01*
X61440730Y-65315269D01*
X61604731Y-65479270D01*
X61794718Y-65612301D01*
X62004921Y-65710320D01*
X62228950Y-65770349D01*
X62393985Y-65784787D01*
X62459998Y-65790563D01*
X62460000Y-65790563D01*
X62460002Y-65790563D01*
X62517762Y-65785509D01*
X62691050Y-65770349D01*
X62915079Y-65710320D01*
X63125282Y-65612301D01*
X63315269Y-65479270D01*
X63479270Y-65315269D01*
X63612301Y-65125282D01*
X63710320Y-64915079D01*
X63770349Y-64691050D01*
X63790563Y-64460001D01*
X66209437Y-64460001D01*
X66229650Y-64691044D01*
X66229651Y-64691051D01*
X66289678Y-64915074D01*
X66289679Y-64915076D01*
X66289680Y-64915079D01*
X66387699Y-65125282D01*
X66520730Y-65315269D01*
X66684731Y-65479270D01*
X66874718Y-65612301D01*
X67084921Y-65710320D01*
X67308950Y-65770349D01*
X67473985Y-65784787D01*
X67539998Y-65790563D01*
X67540000Y-65790563D01*
X67540002Y-65790563D01*
X67597762Y-65785509D01*
X67771050Y-65770349D01*
X67995079Y-65710320D01*
X68205282Y-65612301D01*
X68395269Y-65479270D01*
X68559270Y-65315269D01*
X68692301Y-65125282D01*
X68790320Y-64915079D01*
X68850349Y-64691050D01*
X68870563Y-64460000D01*
X68850349Y-64228950D01*
X68790320Y-64004921D01*
X68692301Y-63794719D01*
X68692299Y-63794716D01*
X68692298Y-63794714D01*
X68559273Y-63604735D01*
X68559268Y-63604729D01*
X68395269Y-63440730D01*
X68395263Y-63440726D01*
X68205282Y-63307699D01*
X67995079Y-63209680D01*
X67995076Y-63209679D01*
X67995074Y-63209678D01*
X67771051Y-63149651D01*
X67771044Y-63149650D01*
X67540002Y-63129437D01*
X67539998Y-63129437D01*
X67308955Y-63149650D01*
X67308948Y-63149651D01*
X67084917Y-63209681D01*
X66874718Y-63307699D01*
X66874714Y-63307701D01*
X66684735Y-63440726D01*
X66684729Y-63440731D01*
X66520731Y-63604729D01*
X66520726Y-63604735D01*
X66387701Y-63794714D01*
X66387699Y-63794718D01*
X66289681Y-64004917D01*
X66229651Y-64228948D01*
X66229650Y-64228955D01*
X66209437Y-64459998D01*
X66209437Y-64460001D01*
X63790563Y-64460001D01*
X63790563Y-64460000D01*
X63770349Y-64228950D01*
X63710320Y-64004921D01*
X63612301Y-63794719D01*
X63612299Y-63794716D01*
X63612298Y-63794714D01*
X63479273Y-63604735D01*
X63479268Y-63604729D01*
X63315269Y-63440730D01*
X63315263Y-63440726D01*
X63125282Y-63307699D01*
X62915079Y-63209680D01*
X62915076Y-63209679D01*
X62915074Y-63209678D01*
X62691051Y-63149651D01*
X62691044Y-63149650D01*
X62460002Y-63129437D01*
X62459998Y-63129437D01*
X62228955Y-63149650D01*
X62228948Y-63149651D01*
X62004917Y-63209681D01*
X61794718Y-63307699D01*
X61794714Y-63307701D01*
X61604735Y-63440726D01*
X61604729Y-63440731D01*
X61440731Y-63604729D01*
X61440726Y-63604735D01*
X61307701Y-63794714D01*
X61307699Y-63794718D01*
X61209681Y-64004917D01*
X61149651Y-64228948D01*
X61149650Y-64228955D01*
X61129437Y-64459998D01*
X61129437Y-64460001D01*
X55000499Y-64460001D01*
X55000499Y-55823933D01*
X64245668Y-55823933D01*
X64261058Y-55911210D01*
X64276135Y-55996711D01*
X64345623Y-56157804D01*
X64345624Y-56157806D01*
X64345626Y-56157809D01*
X64400278Y-56231218D01*
X64450390Y-56298530D01*
X64584786Y-56411302D01*
X64662488Y-56450325D01*
X64741562Y-56490038D01*
X64741563Y-56490038D01*
X64741567Y-56490040D01*
X64912279Y-56530500D01*
X64912282Y-56530500D01*
X65043701Y-56530500D01*
X65043709Y-56530500D01*
X65174255Y-56515241D01*
X65339117Y-56455237D01*
X65485696Y-56358830D01*
X65606092Y-56231218D01*
X65693812Y-56079281D01*
X65744130Y-55911210D01*
X65754331Y-55736065D01*
X65723865Y-55563289D01*
X65654377Y-55402196D01*
X65549610Y-55261470D01*
X65477747Y-55201170D01*
X65415214Y-55148698D01*
X65415212Y-55148697D01*
X65258437Y-55069961D01*
X65258433Y-55069960D01*
X65087721Y-55029500D01*
X64956291Y-55029500D01*
X64851854Y-55041707D01*
X64825743Y-55044759D01*
X64825740Y-55044760D01*
X64660884Y-55104762D01*
X64660880Y-55104764D01*
X64514306Y-55201167D01*
X64514305Y-55201168D01*
X64393910Y-55328778D01*
X64306188Y-55480718D01*
X64255870Y-55648789D01*
X64255869Y-55648794D01*
X64245668Y-55823933D01*
X55000499Y-55823933D01*
X55000499Y-53490000D01*
X63669364Y-53490000D01*
X63726567Y-53703486D01*
X63726570Y-53703492D01*
X63826399Y-53917578D01*
X63961894Y-54111082D01*
X64128917Y-54278105D01*
X64322421Y-54413600D01*
X64536507Y-54513429D01*
X64536516Y-54513433D01*
X64750000Y-54570634D01*
X64750000Y-53675501D01*
X64857685Y-53724680D01*
X64964237Y-53740000D01*
X65035763Y-53740000D01*
X65142315Y-53724680D01*
X65249998Y-53675502D01*
X65249998Y-54570633D01*
X65463483Y-54513433D01*
X65463492Y-54513429D01*
X65677578Y-54413600D01*
X65871082Y-54278105D01*
X66038105Y-54111082D01*
X66173600Y-53917578D01*
X66273429Y-53703492D01*
X66273432Y-53703486D01*
X66330636Y-53490000D01*
X65433686Y-53490000D01*
X65459493Y-53449844D01*
X65500000Y-53311889D01*
X65500000Y-53168111D01*
X65459493Y-53030156D01*
X65433686Y-52990000D01*
X66330636Y-52990000D01*
X66330635Y-52989999D01*
X66273432Y-52776513D01*
X66273429Y-52776507D01*
X66173600Y-52562422D01*
X66173599Y-52562420D01*
X66038113Y-52368926D01*
X66038108Y-52368920D01*
X65871082Y-52201894D01*
X65684968Y-52071575D01*
X65641344Y-52016998D01*
X65634151Y-51947499D01*
X65665673Y-51885145D01*
X65684968Y-51868425D01*
X65871082Y-51738105D01*
X66038105Y-51571082D01*
X66173600Y-51377578D01*
X66273429Y-51163492D01*
X66273432Y-51163486D01*
X66330636Y-50950000D01*
X65433686Y-50950000D01*
X65459493Y-50909844D01*
X65500000Y-50771889D01*
X65500000Y-50628111D01*
X65475597Y-50545000D01*
X68099867Y-50545000D01*
X68118302Y-50673225D01*
X68163361Y-50771889D01*
X68172118Y-50791063D01*
X68256951Y-50888967D01*
X68365931Y-50959004D01*
X68490225Y-50995499D01*
X68490227Y-50995500D01*
X68490228Y-50995500D01*
X68619773Y-50995500D01*
X68619773Y-50995499D01*
X68744069Y-50959004D01*
X68853049Y-50888967D01*
X68937882Y-50791063D01*
X68991697Y-50673226D01*
X69010133Y-50545000D01*
X68991697Y-50416774D01*
X68937882Y-50298937D01*
X68853049Y-50201033D01*
X68744069Y-50130996D01*
X68744065Y-50130994D01*
X68744064Y-50130994D01*
X68619774Y-50094500D01*
X68619772Y-50094500D01*
X68490228Y-50094500D01*
X68490226Y-50094500D01*
X68365935Y-50130994D01*
X68365932Y-50130995D01*
X68365931Y-50130996D01*
X68314677Y-50163934D01*
X68256950Y-50201033D01*
X68172118Y-50298937D01*
X68172117Y-50298938D01*
X68118302Y-50416774D01*
X68099867Y-50545000D01*
X65475597Y-50545000D01*
X65459493Y-50490156D01*
X65433686Y-50450000D01*
X66330636Y-50450000D01*
X66330635Y-50449999D01*
X66273432Y-50236513D01*
X66273429Y-50236507D01*
X66173600Y-50022422D01*
X66173599Y-50022420D01*
X66038113Y-49828926D01*
X66038108Y-49828920D01*
X65871082Y-49661894D01*
X65684968Y-49531575D01*
X65641344Y-49476998D01*
X65634151Y-49407499D01*
X65665673Y-49345145D01*
X65684968Y-49328425D01*
X65871082Y-49198105D01*
X66038105Y-49031082D01*
X66173600Y-48837578D01*
X66273429Y-48623492D01*
X66273432Y-48623486D01*
X66330636Y-48410000D01*
X65433686Y-48410000D01*
X65459493Y-48369844D01*
X65500000Y-48231889D01*
X65500000Y-48088111D01*
X65459493Y-47950156D01*
X65433686Y-47910000D01*
X66330636Y-47910000D01*
X66330635Y-47909999D01*
X66273432Y-47696513D01*
X66273429Y-47696507D01*
X66173600Y-47482422D01*
X66173599Y-47482420D01*
X66038113Y-47288926D01*
X66038108Y-47288920D01*
X65871082Y-47121894D01*
X65677578Y-46986399D01*
X65463492Y-46886570D01*
X65463486Y-46886567D01*
X65249999Y-46829364D01*
X65249999Y-47724498D01*
X65142315Y-47675320D01*
X65035763Y-47660000D01*
X64964237Y-47660000D01*
X64857685Y-47675320D01*
X64749999Y-47724498D01*
X64750000Y-46829364D01*
X64749999Y-46829364D01*
X64536513Y-46886567D01*
X64536507Y-46886570D01*
X64322422Y-46986399D01*
X64322420Y-46986400D01*
X64128926Y-47121886D01*
X64128920Y-47121891D01*
X63961891Y-47288920D01*
X63961886Y-47288926D01*
X63826400Y-47482420D01*
X63826399Y-47482422D01*
X63726570Y-47696507D01*
X63726567Y-47696513D01*
X63669364Y-47909999D01*
X63669364Y-47910000D01*
X64566314Y-47910000D01*
X64540507Y-47950156D01*
X64500000Y-48088111D01*
X64500000Y-48231889D01*
X64540507Y-48369844D01*
X64566314Y-48410000D01*
X63669364Y-48410000D01*
X63726567Y-48623486D01*
X63726570Y-48623492D01*
X63826399Y-48837578D01*
X63961894Y-49031082D01*
X64128917Y-49198105D01*
X64315031Y-49328425D01*
X64358656Y-49383003D01*
X64365848Y-49452501D01*
X64334326Y-49514856D01*
X64315031Y-49531575D01*
X64128922Y-49661890D01*
X64128920Y-49661891D01*
X63961891Y-49828920D01*
X63961886Y-49828926D01*
X63826400Y-50022420D01*
X63826399Y-50022422D01*
X63726570Y-50236507D01*
X63726567Y-50236513D01*
X63669364Y-50449999D01*
X63669364Y-50450000D01*
X64566314Y-50450000D01*
X64540507Y-50490156D01*
X64500000Y-50628111D01*
X64500000Y-50771889D01*
X64540507Y-50909844D01*
X64566314Y-50950000D01*
X63669364Y-50950000D01*
X63726567Y-51163486D01*
X63726570Y-51163492D01*
X63826399Y-51377578D01*
X63961894Y-51571082D01*
X64128917Y-51738105D01*
X64315031Y-51868425D01*
X64358656Y-51923003D01*
X64365848Y-51992501D01*
X64334326Y-52054856D01*
X64315031Y-52071575D01*
X64128922Y-52201890D01*
X64128920Y-52201891D01*
X63961891Y-52368920D01*
X63961886Y-52368926D01*
X63826400Y-52562420D01*
X63826399Y-52562422D01*
X63726570Y-52776507D01*
X63726567Y-52776513D01*
X63669364Y-52989999D01*
X63669364Y-52990000D01*
X64566314Y-52990000D01*
X64540507Y-53030156D01*
X64500000Y-53168111D01*
X64500000Y-53311889D01*
X64540507Y-53449844D01*
X64566314Y-53490000D01*
X63669364Y-53490000D01*
X55000499Y-53490000D01*
X55000499Y-45663933D01*
X64245668Y-45663933D01*
X64261058Y-45751210D01*
X64276135Y-45836711D01*
X64345623Y-45997804D01*
X64345624Y-45997806D01*
X64345626Y-45997809D01*
X64400278Y-46071218D01*
X64450390Y-46138530D01*
X64584786Y-46251302D01*
X64662488Y-46290325D01*
X64741562Y-46330038D01*
X64741563Y-46330038D01*
X64741567Y-46330040D01*
X64912279Y-46370500D01*
X64912282Y-46370500D01*
X65043701Y-46370500D01*
X65043709Y-46370500D01*
X65174255Y-46355241D01*
X65339117Y-46295237D01*
X65485696Y-46198830D01*
X65606092Y-46071218D01*
X65693812Y-45919281D01*
X65744130Y-45751210D01*
X65754331Y-45576065D01*
X65723865Y-45403289D01*
X65654377Y-45242196D01*
X65549610Y-45101470D01*
X65477747Y-45041170D01*
X65415214Y-44988698D01*
X65415212Y-44988697D01*
X65258437Y-44909961D01*
X65258433Y-44909960D01*
X65087721Y-44869500D01*
X64956291Y-44869500D01*
X64851854Y-44881707D01*
X64825743Y-44884759D01*
X64825740Y-44884760D01*
X64660884Y-44944762D01*
X64660880Y-44944764D01*
X64514306Y-45041167D01*
X64514305Y-45041168D01*
X64393910Y-45168778D01*
X64306188Y-45320718D01*
X64255870Y-45488789D01*
X64255869Y-45488794D01*
X64245668Y-45663933D01*
X55000499Y-45663933D01*
X55000499Y-43123933D01*
X64245668Y-43123933D01*
X64261058Y-43211210D01*
X64276135Y-43296711D01*
X64345623Y-43457804D01*
X64345624Y-43457806D01*
X64345626Y-43457809D01*
X64400278Y-43531218D01*
X64450390Y-43598530D01*
X64584786Y-43711302D01*
X64662488Y-43750325D01*
X64741562Y-43790038D01*
X64741563Y-43790038D01*
X64741567Y-43790040D01*
X64912279Y-43830500D01*
X64912282Y-43830500D01*
X65043701Y-43830500D01*
X65043709Y-43830500D01*
X65174255Y-43815241D01*
X65339117Y-43755237D01*
X65485696Y-43658830D01*
X65606092Y-43531218D01*
X65693812Y-43379281D01*
X65744130Y-43211210D01*
X65754331Y-43036065D01*
X65723865Y-42863289D01*
X65654377Y-42702196D01*
X65549610Y-42561470D01*
X65477747Y-42501170D01*
X65415214Y-42448698D01*
X65415212Y-42448697D01*
X65258437Y-42369961D01*
X65258433Y-42369960D01*
X65087721Y-42329500D01*
X64956291Y-42329500D01*
X64851854Y-42341707D01*
X64825743Y-42344759D01*
X64825740Y-42344760D01*
X64660884Y-42404762D01*
X64660880Y-42404764D01*
X64514306Y-42501167D01*
X64514305Y-42501168D01*
X64393910Y-42628778D01*
X64306188Y-42780718D01*
X64255870Y-42948789D01*
X64255869Y-42948794D01*
X64245668Y-43123933D01*
X55000499Y-43123933D01*
X55000499Y-40790000D01*
X63669364Y-40790000D01*
X63726567Y-41003486D01*
X63726570Y-41003492D01*
X63826399Y-41217578D01*
X63961894Y-41411082D01*
X64128917Y-41578105D01*
X64322421Y-41713600D01*
X64536507Y-41813429D01*
X64536516Y-41813433D01*
X64750000Y-41870634D01*
X64750000Y-40975501D01*
X64857685Y-41024680D01*
X64964237Y-41040000D01*
X65035763Y-41040000D01*
X65142315Y-41024680D01*
X65249998Y-40975502D01*
X65249998Y-41870633D01*
X65463483Y-41813433D01*
X65463492Y-41813429D01*
X65677578Y-41713600D01*
X65871082Y-41578105D01*
X66038105Y-41411082D01*
X66173600Y-41217578D01*
X66273429Y-41003492D01*
X66273432Y-41003486D01*
X66330636Y-40790000D01*
X65433686Y-40790000D01*
X65459493Y-40749844D01*
X65500000Y-40611889D01*
X65500000Y-40468111D01*
X65459493Y-40330156D01*
X65433686Y-40290000D01*
X66330636Y-40290000D01*
X66330635Y-40289999D01*
X66273432Y-40076513D01*
X66273429Y-40076507D01*
X66173600Y-39862422D01*
X66173599Y-39862420D01*
X66038113Y-39668926D01*
X66038108Y-39668920D01*
X65871082Y-39501894D01*
X65677578Y-39366399D01*
X65463492Y-39266570D01*
X65463486Y-39266567D01*
X65249999Y-39209364D01*
X65249999Y-40104498D01*
X65142315Y-40055320D01*
X65035763Y-40040000D01*
X64964237Y-40040000D01*
X64857685Y-40055320D01*
X64749999Y-40104498D01*
X64750000Y-39209364D01*
X64749999Y-39209364D01*
X64536513Y-39266567D01*
X64536507Y-39266570D01*
X64322422Y-39366399D01*
X64322420Y-39366400D01*
X64128926Y-39501886D01*
X64128920Y-39501891D01*
X63961891Y-39668920D01*
X63961886Y-39668926D01*
X63826400Y-39862420D01*
X63826399Y-39862422D01*
X63726570Y-40076507D01*
X63726567Y-40076513D01*
X63669364Y-40289999D01*
X63669364Y-40290000D01*
X64566314Y-40290000D01*
X64540507Y-40330156D01*
X64500000Y-40468111D01*
X64500000Y-40611889D01*
X64540507Y-40749844D01*
X64566314Y-40790000D01*
X63669364Y-40790000D01*
X55000499Y-40790000D01*
X55000499Y-40110000D01*
X58819867Y-40110000D01*
X58838302Y-40238225D01*
X58892117Y-40356061D01*
X58892118Y-40356063D01*
X58976951Y-40453967D01*
X59085931Y-40524004D01*
X59210225Y-40560499D01*
X59210227Y-40560500D01*
X59210228Y-40560500D01*
X59339773Y-40560500D01*
X59339773Y-40560499D01*
X59464069Y-40524004D01*
X59573049Y-40453967D01*
X59657882Y-40356063D01*
X59711697Y-40238226D01*
X59730133Y-40110000D01*
X59711697Y-39981774D01*
X59657882Y-39863937D01*
X59573049Y-39766033D01*
X59464069Y-39695996D01*
X59464065Y-39695994D01*
X59464064Y-39695994D01*
X59339774Y-39659500D01*
X59339772Y-39659500D01*
X59210228Y-39659500D01*
X59210226Y-39659500D01*
X59085935Y-39695994D01*
X59085932Y-39695995D01*
X59085931Y-39695996D01*
X59034677Y-39728934D01*
X58976950Y-39766033D01*
X58892118Y-39863937D01*
X58892117Y-39863938D01*
X58838302Y-39981774D01*
X58819867Y-40110000D01*
X55000499Y-40110000D01*
X55000499Y-38043933D01*
X64245668Y-38043933D01*
X64261058Y-38131210D01*
X64276135Y-38216711D01*
X64345623Y-38377804D01*
X64345624Y-38377806D01*
X64345626Y-38377809D01*
X64400278Y-38451218D01*
X64450390Y-38518530D01*
X64584786Y-38631302D01*
X64662488Y-38670325D01*
X64741562Y-38710038D01*
X64741563Y-38710038D01*
X64741567Y-38710040D01*
X64912279Y-38750500D01*
X64912282Y-38750500D01*
X65043701Y-38750500D01*
X65043709Y-38750500D01*
X65174255Y-38735241D01*
X65339117Y-38675237D01*
X65485696Y-38578830D01*
X65606092Y-38451218D01*
X65693812Y-38299281D01*
X65744130Y-38131210D01*
X65754331Y-37956065D01*
X65723865Y-37783289D01*
X65654377Y-37622196D01*
X65549610Y-37481470D01*
X65477747Y-37421170D01*
X65415214Y-37368698D01*
X65415212Y-37368697D01*
X65258437Y-37289961D01*
X65258433Y-37289960D01*
X65087721Y-37249500D01*
X64956291Y-37249500D01*
X64851854Y-37261707D01*
X64825743Y-37264759D01*
X64825740Y-37264760D01*
X64660884Y-37324762D01*
X64660880Y-37324764D01*
X64514306Y-37421167D01*
X64514305Y-37421168D01*
X64393910Y-37548778D01*
X64306188Y-37700718D01*
X64255870Y-37868789D01*
X64255869Y-37868794D01*
X64245668Y-38043933D01*
X55000499Y-38043933D01*
X55000499Y-24700000D01*
X71289364Y-24700000D01*
X71346567Y-24913486D01*
X71346570Y-24913492D01*
X71446399Y-25127578D01*
X71581894Y-25321082D01*
X71748917Y-25488105D01*
X71942421Y-25623600D01*
X72156507Y-25723429D01*
X72156516Y-25723433D01*
X72278649Y-25756158D01*
X72338310Y-25792523D01*
X72368839Y-25855369D01*
X72360545Y-25924745D01*
X72316059Y-25978623D01*
X72282552Y-25994593D01*
X72216046Y-26014767D01*
X72085358Y-26084622D01*
X72033550Y-26112315D01*
X72033548Y-26112316D01*
X72033547Y-26112317D01*
X71873589Y-26243589D01*
X71742317Y-26403547D01*
X71644769Y-26586043D01*
X71584699Y-26784067D01*
X71564417Y-26990000D01*
X71584699Y-27195932D01*
X71584700Y-27195934D01*
X71644768Y-27393954D01*
X71742315Y-27576450D01*
X71742317Y-27576452D01*
X71873589Y-27736410D01*
X71970209Y-27815702D01*
X72033550Y-27867685D01*
X72216046Y-27965232D01*
X72414066Y-28025300D01*
X72414065Y-28025300D01*
X72432529Y-28027118D01*
X72620000Y-28045583D01*
X72825934Y-28025300D01*
X73023954Y-27965232D01*
X73206450Y-27867685D01*
X73366410Y-27736410D01*
X73497685Y-27576450D01*
X73595232Y-27393954D01*
X73655300Y-27195934D01*
X73675583Y-26990000D01*
X73655300Y-26784066D01*
X73595232Y-26586046D01*
X73497685Y-26403550D01*
X73445702Y-26340209D01*
X73366410Y-26243589D01*
X73206452Y-26112317D01*
X73206453Y-26112317D01*
X73206450Y-26112315D01*
X73023954Y-26014768D01*
X72957447Y-25994593D01*
X72899009Y-25956296D01*
X72870553Y-25892484D01*
X72881113Y-25823417D01*
X72927337Y-25771023D01*
X72961350Y-25756158D01*
X73083483Y-25723433D01*
X73083492Y-25723429D01*
X73297578Y-25623600D01*
X73491082Y-25488105D01*
X73658105Y-25321082D01*
X73793600Y-25127578D01*
X73893429Y-24913492D01*
X73893432Y-24913486D01*
X73950636Y-24700000D01*
X73053686Y-24700000D01*
X73079493Y-24659844D01*
X73120000Y-24521889D01*
X73120000Y-24378111D01*
X73079493Y-24240156D01*
X73053686Y-24200000D01*
X73950636Y-24200000D01*
X73950635Y-24199999D01*
X73893432Y-23986513D01*
X73893429Y-23986507D01*
X73793600Y-23772422D01*
X73793599Y-23772420D01*
X73658113Y-23578926D01*
X73658108Y-23578920D01*
X73491082Y-23411894D01*
X73297578Y-23276399D01*
X73083492Y-23176570D01*
X73083486Y-23176567D01*
X72961349Y-23143841D01*
X72901689Y-23107476D01*
X72871160Y-23044629D01*
X72879455Y-22975253D01*
X72923940Y-22921375D01*
X72957444Y-22905407D01*
X73023954Y-22885232D01*
X73206450Y-22787685D01*
X73366410Y-22656410D01*
X73497685Y-22496450D01*
X73595232Y-22313954D01*
X73655300Y-22115934D01*
X73675583Y-21910000D01*
X73655300Y-21704066D01*
X73595232Y-21506046D01*
X73497685Y-21323550D01*
X73445702Y-21260209D01*
X73366410Y-21163589D01*
X73206452Y-21032317D01*
X73206453Y-21032317D01*
X73206450Y-21032315D01*
X73023954Y-20934768D01*
X72825934Y-20874700D01*
X72825932Y-20874699D01*
X72825934Y-20874699D01*
X72620000Y-20854417D01*
X72414067Y-20874699D01*
X72216043Y-20934769D01*
X72105898Y-20993643D01*
X72033550Y-21032315D01*
X72033548Y-21032316D01*
X72033547Y-21032317D01*
X71873589Y-21163589D01*
X71742317Y-21323547D01*
X71644769Y-21506043D01*
X71584699Y-21704067D01*
X71564417Y-21909999D01*
X71584699Y-22115932D01*
X71584700Y-22115934D01*
X71644768Y-22313954D01*
X71742315Y-22496450D01*
X71742317Y-22496452D01*
X71873589Y-22656410D01*
X71970209Y-22735702D01*
X72033550Y-22787685D01*
X72216046Y-22885232D01*
X72282551Y-22905405D01*
X72340989Y-22943702D01*
X72369446Y-23007514D01*
X72358887Y-23076581D01*
X72312663Y-23128975D01*
X72278650Y-23143841D01*
X72156514Y-23176567D01*
X72156507Y-23176570D01*
X71942422Y-23276399D01*
X71942420Y-23276400D01*
X71748926Y-23411886D01*
X71748920Y-23411891D01*
X71581891Y-23578920D01*
X71581886Y-23578926D01*
X71446400Y-23772420D01*
X71446399Y-23772422D01*
X71346570Y-23986507D01*
X71346567Y-23986513D01*
X71289364Y-24199999D01*
X71289364Y-24200000D01*
X72186314Y-24200000D01*
X72160507Y-24240156D01*
X72120000Y-24378111D01*
X72120000Y-24521889D01*
X72160507Y-24659844D01*
X72186314Y-24700000D01*
X71289364Y-24700000D01*
X55000499Y-24700000D01*
X55000499Y-22540001D01*
X61129437Y-22540001D01*
X61149650Y-22771044D01*
X61149651Y-22771051D01*
X61209678Y-22995074D01*
X61209679Y-22995076D01*
X61209680Y-22995079D01*
X61307699Y-23205282D01*
X61440730Y-23395269D01*
X61604731Y-23559270D01*
X61794718Y-23692301D01*
X62004921Y-23790320D01*
X62228950Y-23850349D01*
X62393985Y-23864787D01*
X62459998Y-23870563D01*
X62460000Y-23870563D01*
X62460002Y-23870563D01*
X62517762Y-23865509D01*
X62691050Y-23850349D01*
X62915079Y-23790320D01*
X63125282Y-23692301D01*
X63315269Y-23559270D01*
X63479270Y-23395269D01*
X63612301Y-23205282D01*
X63710320Y-22995079D01*
X63770349Y-22771050D01*
X63790563Y-22540001D01*
X66209437Y-22540001D01*
X66229650Y-22771044D01*
X66229651Y-22771051D01*
X66289678Y-22995074D01*
X66289679Y-22995076D01*
X66289680Y-22995079D01*
X66387699Y-23205282D01*
X66520730Y-23395269D01*
X66684731Y-23559270D01*
X66874718Y-23692301D01*
X67084921Y-23790320D01*
X67308950Y-23850349D01*
X67473985Y-23864787D01*
X67539998Y-23870563D01*
X67540000Y-23870563D01*
X67540002Y-23870563D01*
X67597762Y-23865509D01*
X67771050Y-23850349D01*
X67995079Y-23790320D01*
X68205282Y-23692301D01*
X68395269Y-23559270D01*
X68559270Y-23395269D01*
X68692301Y-23205282D01*
X68790320Y-22995079D01*
X68850349Y-22771050D01*
X68870563Y-22540000D01*
X68850349Y-22308950D01*
X68790320Y-22084921D01*
X68692301Y-21874719D01*
X68692299Y-21874716D01*
X68692298Y-21874714D01*
X68559273Y-21684735D01*
X68559268Y-21684729D01*
X68395269Y-21520730D01*
X68374294Y-21506043D01*
X68205282Y-21387699D01*
X67995079Y-21289680D01*
X67995076Y-21289679D01*
X67995074Y-21289678D01*
X67771051Y-21229651D01*
X67771044Y-21229650D01*
X67540002Y-21209437D01*
X67539998Y-21209437D01*
X67308955Y-21229650D01*
X67308948Y-21229651D01*
X67084917Y-21289681D01*
X66874718Y-21387699D01*
X66874714Y-21387701D01*
X66684735Y-21520726D01*
X66684729Y-21520731D01*
X66520731Y-21684729D01*
X66520726Y-21684735D01*
X66387701Y-21874714D01*
X66387699Y-21874718D01*
X66289681Y-22084917D01*
X66229651Y-22308948D01*
X66229650Y-22308955D01*
X66209437Y-22539998D01*
X66209437Y-22540001D01*
X63790563Y-22540001D01*
X63790563Y-22540000D01*
X63770349Y-22308950D01*
X63710320Y-22084921D01*
X63612301Y-21874719D01*
X63612299Y-21874716D01*
X63612298Y-21874714D01*
X63479273Y-21684735D01*
X63479268Y-21684729D01*
X63315269Y-21520730D01*
X63294294Y-21506043D01*
X63125282Y-21387699D01*
X62915079Y-21289680D01*
X62915076Y-21289679D01*
X62915074Y-21289678D01*
X62691051Y-21229651D01*
X62691044Y-21229650D01*
X62460002Y-21209437D01*
X62459998Y-21209437D01*
X62228955Y-21229650D01*
X62228948Y-21229651D01*
X62004917Y-21289681D01*
X61794718Y-21387699D01*
X61794714Y-21387701D01*
X61604735Y-21520726D01*
X61604729Y-21520731D01*
X61440731Y-21684729D01*
X61440726Y-21684735D01*
X61307701Y-21874714D01*
X61307699Y-21874718D01*
X61209681Y-22084917D01*
X61149651Y-22308948D01*
X61149650Y-22308955D01*
X61129437Y-22539998D01*
X61129437Y-22540001D01*
X55000499Y-22540001D01*
X55000499Y-20000001D01*
X63769819Y-20000001D01*
X63788507Y-20213613D01*
X63788509Y-20213624D01*
X63844005Y-20420739D01*
X63844007Y-20420743D01*
X63844008Y-20420747D01*
X63889320Y-20517918D01*
X63934631Y-20615090D01*
X63934632Y-20615091D01*
X64057627Y-20790745D01*
X64209255Y-20942373D01*
X64384909Y-21065368D01*
X64579253Y-21155992D01*
X64786381Y-21211492D01*
X64938966Y-21224841D01*
X64999998Y-21230181D01*
X65000000Y-21230181D01*
X65000002Y-21230181D01*
X65053404Y-21225508D01*
X65213619Y-21211492D01*
X65420747Y-21155992D01*
X65615091Y-21065368D01*
X65790745Y-20942373D01*
X65942373Y-20790745D01*
X66065368Y-20615091D01*
X66155992Y-20420747D01*
X66204490Y-20239752D01*
X71569500Y-20239752D01*
X71581131Y-20298229D01*
X71581132Y-20298230D01*
X71625447Y-20364552D01*
X71691769Y-20408867D01*
X71691770Y-20408868D01*
X71750247Y-20420499D01*
X71750250Y-20420500D01*
X71750252Y-20420500D01*
X73489750Y-20420500D01*
X73489751Y-20420499D01*
X73504568Y-20417552D01*
X73548229Y-20408868D01*
X73548229Y-20408867D01*
X73548231Y-20408867D01*
X73614552Y-20364552D01*
X73658867Y-20298231D01*
X73658867Y-20298229D01*
X73658868Y-20298229D01*
X73670499Y-20239752D01*
X73670500Y-20239750D01*
X73670500Y-18500249D01*
X73670499Y-18500247D01*
X73658868Y-18441770D01*
X73658867Y-18441769D01*
X73614552Y-18375447D01*
X73548230Y-18331132D01*
X73548229Y-18331131D01*
X73489752Y-18319500D01*
X73489748Y-18319500D01*
X71750252Y-18319500D01*
X71750247Y-18319500D01*
X71691770Y-18331131D01*
X71691769Y-18331132D01*
X71625447Y-18375447D01*
X71581132Y-18441769D01*
X71581131Y-18441770D01*
X71569500Y-18500247D01*
X71569500Y-20239752D01*
X66204490Y-20239752D01*
X66211492Y-20213619D01*
X66230181Y-20000000D01*
X66211492Y-19786381D01*
X66155992Y-19579253D01*
X66065368Y-19384910D01*
X65942373Y-19209255D01*
X65790745Y-19057627D01*
X65615091Y-18934632D01*
X65615092Y-18934632D01*
X65615090Y-18934631D01*
X65517919Y-18889320D01*
X65420747Y-18844008D01*
X65420743Y-18844007D01*
X65420739Y-18844005D01*
X65213624Y-18788509D01*
X65213620Y-18788508D01*
X65213619Y-18788508D01*
X65213618Y-18788507D01*
X65213613Y-18788507D01*
X65000002Y-18769819D01*
X64999998Y-18769819D01*
X64786386Y-18788507D01*
X64786375Y-18788509D01*
X64579260Y-18844005D01*
X64579251Y-18844009D01*
X64384910Y-18934631D01*
X64384908Y-18934632D01*
X64209259Y-19057623D01*
X64209253Y-19057628D01*
X64057628Y-19209253D01*
X64057623Y-19209259D01*
X63934632Y-19384908D01*
X63934631Y-19384910D01*
X63844009Y-19579251D01*
X63844005Y-19579260D01*
X63788509Y-19786375D01*
X63788507Y-19786386D01*
X63769819Y-19999998D01*
X63769819Y-20000001D01*
X55000499Y-20000001D01*
X55000499Y-17460001D01*
X61129437Y-17460001D01*
X61149650Y-17691044D01*
X61149651Y-17691051D01*
X61209678Y-17915074D01*
X61209679Y-17915076D01*
X61209680Y-17915079D01*
X61307699Y-18125282D01*
X61440730Y-18315269D01*
X61604731Y-18479270D01*
X61794718Y-18612301D01*
X62004921Y-18710320D01*
X62228950Y-18770349D01*
X62393985Y-18784787D01*
X62459998Y-18790563D01*
X62460000Y-18790563D01*
X62460002Y-18790563D01*
X62517762Y-18785509D01*
X62691050Y-18770349D01*
X62915079Y-18710320D01*
X63125282Y-18612301D01*
X63315269Y-18479270D01*
X63479270Y-18315269D01*
X63612301Y-18125282D01*
X63710320Y-17915079D01*
X63770349Y-17691050D01*
X63790563Y-17460001D01*
X66209437Y-17460001D01*
X66229650Y-17691044D01*
X66229651Y-17691051D01*
X66289678Y-17915074D01*
X66289679Y-17915076D01*
X66289680Y-17915079D01*
X66387699Y-18125282D01*
X66520730Y-18315269D01*
X66684731Y-18479270D01*
X66874718Y-18612301D01*
X67084921Y-18710320D01*
X67308950Y-18770349D01*
X67473985Y-18784787D01*
X67539998Y-18790563D01*
X67540000Y-18790563D01*
X67540002Y-18790563D01*
X67597762Y-18785509D01*
X67771050Y-18770349D01*
X67995079Y-18710320D01*
X68205282Y-18612301D01*
X68395269Y-18479270D01*
X68559270Y-18315269D01*
X68692301Y-18125282D01*
X68790320Y-17915079D01*
X68850349Y-17691050D01*
X68870563Y-17460000D01*
X68850349Y-17228950D01*
X68790320Y-17004921D01*
X68692301Y-16794719D01*
X68692299Y-16794716D01*
X68692298Y-16794714D01*
X68559273Y-16604735D01*
X68559268Y-16604729D01*
X68395269Y-16440730D01*
X68370381Y-16423303D01*
X68205282Y-16307699D01*
X67995079Y-16209680D01*
X67995076Y-16209679D01*
X67995074Y-16209678D01*
X67771051Y-16149651D01*
X67771044Y-16149650D01*
X67540002Y-16129437D01*
X67539998Y-16129437D01*
X67308955Y-16149650D01*
X67308948Y-16149651D01*
X67084917Y-16209681D01*
X66874718Y-16307699D01*
X66874714Y-16307701D01*
X66684735Y-16440726D01*
X66684729Y-16440731D01*
X66520731Y-16604729D01*
X66520726Y-16604735D01*
X66387701Y-16794714D01*
X66387699Y-16794718D01*
X66289681Y-17004917D01*
X66229651Y-17228948D01*
X66229650Y-17228955D01*
X66209437Y-17459998D01*
X66209437Y-17460001D01*
X63790563Y-17460001D01*
X63790563Y-17460000D01*
X63770349Y-17228950D01*
X63710320Y-17004921D01*
X63612301Y-16794719D01*
X63612299Y-16794716D01*
X63612298Y-16794714D01*
X63479273Y-16604735D01*
X63479268Y-16604729D01*
X63315269Y-16440730D01*
X63290381Y-16423303D01*
X63125282Y-16307699D01*
X62915079Y-16209680D01*
X62915076Y-16209679D01*
X62915074Y-16209678D01*
X62691051Y-16149651D01*
X62691044Y-16149650D01*
X62460002Y-16129437D01*
X62459998Y-16129437D01*
X62228955Y-16149650D01*
X62228948Y-16149651D01*
X62004917Y-16209681D01*
X61794718Y-16307699D01*
X61794714Y-16307701D01*
X61604735Y-16440726D01*
X61604729Y-16440731D01*
X61440731Y-16604729D01*
X61440726Y-16604735D01*
X61307701Y-16794714D01*
X61307699Y-16794718D01*
X61209681Y-17004917D01*
X61149651Y-17228948D01*
X61149650Y-17228955D01*
X61129437Y-17459998D01*
X61129437Y-17460001D01*
X55000499Y-17460001D01*
X55000499Y-17312023D01*
X55000632Y-17307981D01*
X55002463Y-17280034D01*
X55005990Y-17226226D01*
X55010715Y-17160169D01*
X55011798Y-17152250D01*
X55035219Y-17036880D01*
X55108157Y-16677592D01*
X55110194Y-16670050D01*
X55116530Y-16651385D01*
X55117123Y-16649719D01*
X55133904Y-16604729D01*
X55164736Y-16522061D01*
X55176970Y-16497790D01*
X55456059Y-16068744D01*
X55477205Y-16044052D01*
X55934491Y-15633910D01*
X55969200Y-15611923D01*
X56545807Y-15369381D01*
X56567512Y-15362520D01*
X56610457Y-15353177D01*
X56626483Y-15349989D01*
X56631595Y-15349195D01*
X56940034Y-15314495D01*
X56942834Y-15314246D01*
X56965993Y-15312728D01*
X56997981Y-15310633D01*
X57002035Y-15310500D01*
X72997964Y-15310500D01*
X73002019Y-15310633D01*
G37*
%TD.AperFunction*%
%TD*%
M02*
