M48
; DRILL file {KiCad 7.0.5} date Fri Jun 30 17:27:09 2023
; FORMAT={-:-/ absolute / metric / decimal}
; #@! TF.CreationDate,2023-06-30T17:27:09-05:00
; #@! TF.GenerationSoftware,Kicad,Pcbnew,7.0.5
; #@! TF.FileFunction,Plated,1,4,PTH
FMAT,2
METRIC
; #@! TA.AperFunction,Plated,PTH,ViaDrill
T1C0.400
; #@! TA.AperFunction,Plated,PTH,ComponentDrill
T2C1.000
; #@! TA.AperFunction,Plated,PTH,ComponentDrill
T3C1.500
; #@! TA.AperFunction,Plated,PTH,ComponentDrill
T4C1.700
%
G90
G05
T1
X56.347Y-46.185
X59.275Y-40.11
X68.555Y-50.545
X73.677Y-42.465
T2
X65.0Y-38.0
X65.0Y-40.54
X65.0Y-43.08
X65.0Y-45.62
X65.0Y-48.16
X65.0Y-50.7
X65.0Y-53.24
X65.0Y-55.78
X72.62Y-19.37
X72.62Y-21.91
X72.62Y-24.45
X72.62Y-26.99
T3
X65.0Y-20.0
X65.0Y-67.0
T4
X62.46Y-17.46
X62.46Y-22.54
X62.46Y-64.46
X62.46Y-69.54
X67.54Y-17.46
X67.54Y-22.54
X67.54Y-64.46
X67.54Y-69.54
T0
M30
