%TF.GenerationSoftware,KiCad,Pcbnew,7.0.5*%
%TF.CreationDate,2023-06-30T17:27:13-05:00*%
%TF.ProjectId,Single.Channel.Amp,53696e67-6c65-42e4-9368-616e6e656c2e,rev?*%
%TF.SameCoordinates,Original*%
%TF.FileFunction,Copper,L3,Inr*%
%TF.FilePolarity,Positive*%
%FSLAX46Y46*%
G04 Gerber Fmt 4.6, Leading zero omitted, Abs format (unit mm)*
G04 Created by KiCad (PCBNEW 7.0.5) date 2023-06-30 17:27:13*
%MOMM*%
%LPD*%
G01*
G04 APERTURE LIST*
%TA.AperFunction,ComponentPad*%
%ADD10R,1.700000X1.700000*%
%TD*%
%TA.AperFunction,ComponentPad*%
%ADD11O,1.700000X1.700000*%
%TD*%
%TA.AperFunction,ComponentPad*%
%ADD12C,2.050000*%
%TD*%
%TA.AperFunction,ComponentPad*%
%ADD13C,2.250000*%
%TD*%
%TA.AperFunction,ViaPad*%
%ADD14C,0.800000*%
%TD*%
G04 APERTURE END LIST*
D10*
%TO.N,Net-(D1-A)*%
%TO.C,J3*%
X72620000Y-19370000D03*
D11*
%TO.N,GND*%
X72620000Y-21910000D03*
%TO.N,GND1*%
X72620000Y-24450000D03*
%TO.N,Net-(D2-K)*%
X72620000Y-26990000D03*
%TD*%
D12*
%TO.N,Net-(J2-Input)*%
%TO.C,J4*%
X65000000Y-67000000D03*
D13*
%TO.N,GND1*%
X62460000Y-64460000D03*
X62460000Y-69540000D03*
X67540000Y-64460000D03*
X67540000Y-69540000D03*
%TD*%
D12*
%TO.N,Net-(J2-Output)*%
%TO.C,J5*%
X65000000Y-20000000D03*
D13*
%TO.N,GND1*%
X62460000Y-17460000D03*
X62460000Y-22540000D03*
X67540000Y-17460000D03*
X67540000Y-22540000D03*
%TD*%
D10*
%TO.N,Net-(J2-Output)*%
%TO.C,J2*%
X65000000Y-38000000D03*
D11*
%TO.N,GND1*%
X65000000Y-40540000D03*
%TO.N,Net-(J2-Pin_3)*%
X65000000Y-43080000D03*
%TO.N,Net-(J2-Pin_4)*%
X65000000Y-45620000D03*
%TO.N,GND1*%
X65000000Y-48160000D03*
X65000000Y-50700000D03*
X65000000Y-53240000D03*
%TO.N,Net-(J2-Input)*%
X65000000Y-55780000D03*
%TD*%
D14*
%TO.N,GND*%
X73677500Y-42465000D03*
X56347500Y-46185000D03*
%TD*%
%TA.AperFunction,Conductor*%
%TO.N,GND*%
G36*
X73002019Y-15310633D02*
G01*
X73040149Y-15313131D01*
X73083793Y-15315992D01*
X73265459Y-15328985D01*
X73273102Y-15330015D01*
X73367572Y-15348806D01*
X73372190Y-15349912D01*
X73543719Y-15398061D01*
X73697413Y-15441204D01*
X73702315Y-15442802D01*
X73791762Y-15476164D01*
X73797481Y-15478634D01*
X73862544Y-15510719D01*
X73868651Y-15514176D01*
X74033108Y-15620000D01*
X74054728Y-15633912D01*
X74272782Y-15774225D01*
X74287440Y-15785274D01*
X74307332Y-15802718D01*
X74359510Y-15848476D01*
X74362463Y-15851243D01*
X74458770Y-15947550D01*
X74461531Y-15950498D01*
X74475243Y-15966135D01*
X74477144Y-15968410D01*
X74638444Y-16171187D01*
X74641459Y-16175318D01*
X74655410Y-16196197D01*
X74704958Y-16270351D01*
X74707824Y-16275085D01*
X74773806Y-16395921D01*
X74774996Y-16398213D01*
X74831352Y-16512492D01*
X74833839Y-16518251D01*
X74882881Y-16649737D01*
X74883500Y-16651475D01*
X74923597Y-16769597D01*
X74925472Y-16776353D01*
X74956848Y-16920589D01*
X74979980Y-17036880D01*
X74981015Y-17044560D01*
X74994021Y-17226413D01*
X74999367Y-17307966D01*
X74999500Y-17312023D01*
X74999500Y-73307976D01*
X74999367Y-73312033D01*
X74994022Y-73393558D01*
X74986015Y-73505514D01*
X74985608Y-73509442D01*
X74966386Y-73650854D01*
X74965760Y-73654599D01*
X74956842Y-73699440D01*
X74925471Y-73843647D01*
X74923596Y-73850403D01*
X74883496Y-73968531D01*
X74882879Y-73970265D01*
X74872626Y-73997758D01*
X74871277Y-74001080D01*
X74771176Y-74228425D01*
X74768848Y-74233157D01*
X74707824Y-74344914D01*
X74704958Y-74349648D01*
X74633467Y-74456641D01*
X74631549Y-74459351D01*
X74549744Y-74568631D01*
X74546723Y-74572357D01*
X74461529Y-74669502D01*
X74458755Y-74672464D01*
X74362464Y-74768755D01*
X74359502Y-74771529D01*
X74262357Y-74856723D01*
X74258631Y-74859744D01*
X74149351Y-74941549D01*
X74146641Y-74943467D01*
X74039649Y-75014957D01*
X74034914Y-75017823D01*
X73914075Y-75083806D01*
X73911790Y-75084993D01*
X73904596Y-75088541D01*
X73902019Y-75089740D01*
X73702563Y-75177002D01*
X73699377Y-75178292D01*
X73660275Y-75192876D01*
X73658538Y-75193494D01*
X73540402Y-75233596D01*
X73533647Y-75235471D01*
X73462130Y-75251029D01*
X73455117Y-75252554D01*
X73451369Y-75253250D01*
X73156664Y-75298589D01*
X73151657Y-75299152D01*
X73083568Y-75304022D01*
X73077972Y-75304389D01*
X73070672Y-75304867D01*
X73066636Y-75305000D01*
X56947817Y-75305000D01*
X56942201Y-75304745D01*
X56685599Y-75281417D01*
X56679129Y-75280482D01*
X56638251Y-75272351D01*
X56610617Y-75266854D01*
X56466352Y-75235471D01*
X56459597Y-75233596D01*
X56341465Y-75193496D01*
X56339728Y-75192877D01*
X56210480Y-75144670D01*
X56205300Y-75142466D01*
X56184183Y-75132323D01*
X56088201Y-75084990D01*
X56085909Y-75083800D01*
X56035990Y-75056542D01*
X55965081Y-75017823D01*
X55960357Y-75014962D01*
X55853348Y-74943461D01*
X55850639Y-74941543D01*
X55810592Y-74911564D01*
X55741353Y-74859732D01*
X55737648Y-74856729D01*
X55640680Y-74771690D01*
X55636671Y-74767843D01*
X55487338Y-74611116D01*
X55485610Y-74609226D01*
X55453281Y-74572362D01*
X55450260Y-74568637D01*
X55368449Y-74459351D01*
X55366531Y-74456640D01*
X55295037Y-74349641D01*
X55292170Y-74344907D01*
X55226173Y-74224042D01*
X55225024Y-74221830D01*
X55168635Y-74107483D01*
X55166160Y-74101750D01*
X55117093Y-73970198D01*
X55116540Y-73968646D01*
X55076394Y-73850378D01*
X55074529Y-73843659D01*
X55067509Y-73811387D01*
X55067137Y-73809545D01*
X55016592Y-73536600D01*
X55015715Y-73529742D01*
X55005991Y-73393778D01*
X55000632Y-73312019D01*
X55000499Y-73307993D01*
X55000499Y-69540001D01*
X61129437Y-69540001D01*
X61149650Y-69771044D01*
X61149651Y-69771051D01*
X61209678Y-69995074D01*
X61209679Y-69995076D01*
X61209680Y-69995079D01*
X61307699Y-70205282D01*
X61440730Y-70395269D01*
X61604731Y-70559270D01*
X61794718Y-70692301D01*
X62004921Y-70790320D01*
X62228950Y-70850349D01*
X62393985Y-70864787D01*
X62459998Y-70870563D01*
X62460000Y-70870563D01*
X62460002Y-70870563D01*
X62517762Y-70865509D01*
X62691050Y-70850349D01*
X62915079Y-70790320D01*
X63125282Y-70692301D01*
X63315269Y-70559270D01*
X63479270Y-70395269D01*
X63612301Y-70205282D01*
X63710320Y-69995079D01*
X63770349Y-69771050D01*
X63790563Y-69540001D01*
X66209437Y-69540001D01*
X66229650Y-69771044D01*
X66229651Y-69771051D01*
X66289678Y-69995074D01*
X66289679Y-69995076D01*
X66289680Y-69995079D01*
X66387699Y-70205282D01*
X66520730Y-70395269D01*
X66684731Y-70559270D01*
X66874718Y-70692301D01*
X67084921Y-70790320D01*
X67308950Y-70850349D01*
X67473985Y-70864787D01*
X67539998Y-70870563D01*
X67540000Y-70870563D01*
X67540002Y-70870563D01*
X67597762Y-70865509D01*
X67771050Y-70850349D01*
X67995079Y-70790320D01*
X68205282Y-70692301D01*
X68395269Y-70559270D01*
X68559270Y-70395269D01*
X68692301Y-70205282D01*
X68790320Y-69995079D01*
X68850349Y-69771050D01*
X68870563Y-69540000D01*
X68850349Y-69308950D01*
X68790320Y-69084921D01*
X68692301Y-68874719D01*
X68692299Y-68874716D01*
X68692298Y-68874714D01*
X68559273Y-68684735D01*
X68559268Y-68684729D01*
X68395269Y-68520730D01*
X68395263Y-68520726D01*
X68205282Y-68387699D01*
X67995079Y-68289680D01*
X67995076Y-68289679D01*
X67995074Y-68289678D01*
X67771051Y-68229651D01*
X67771044Y-68229650D01*
X67540002Y-68209437D01*
X67539998Y-68209437D01*
X67308955Y-68229650D01*
X67308948Y-68229651D01*
X67084917Y-68289681D01*
X66874718Y-68387699D01*
X66874714Y-68387701D01*
X66684735Y-68520726D01*
X66684729Y-68520731D01*
X66520731Y-68684729D01*
X66520726Y-68684735D01*
X66387701Y-68874714D01*
X66387699Y-68874718D01*
X66289681Y-69084917D01*
X66229651Y-69308948D01*
X66229650Y-69308955D01*
X66209437Y-69539998D01*
X66209437Y-69540001D01*
X63790563Y-69540001D01*
X63790563Y-69540000D01*
X63770349Y-69308950D01*
X63710320Y-69084921D01*
X63612301Y-68874719D01*
X63612299Y-68874716D01*
X63612298Y-68874714D01*
X63479273Y-68684735D01*
X63479268Y-68684729D01*
X63315269Y-68520730D01*
X63315263Y-68520726D01*
X63125282Y-68387699D01*
X62915079Y-68289680D01*
X62915076Y-68289679D01*
X62915074Y-68289678D01*
X62691051Y-68229651D01*
X62691044Y-68229650D01*
X62460002Y-68209437D01*
X62459998Y-68209437D01*
X62228955Y-68229650D01*
X62228948Y-68229651D01*
X62004917Y-68289681D01*
X61794718Y-68387699D01*
X61794714Y-68387701D01*
X61604735Y-68520726D01*
X61604729Y-68520731D01*
X61440731Y-68684729D01*
X61440726Y-68684735D01*
X61307701Y-68874714D01*
X61307699Y-68874718D01*
X61209681Y-69084917D01*
X61149651Y-69308948D01*
X61149650Y-69308955D01*
X61129437Y-69539998D01*
X61129437Y-69540001D01*
X55000499Y-69540001D01*
X55000499Y-67000001D01*
X63769819Y-67000001D01*
X63788507Y-67213613D01*
X63788509Y-67213624D01*
X63844005Y-67420739D01*
X63844007Y-67420743D01*
X63844008Y-67420747D01*
X63889320Y-67517918D01*
X63934631Y-67615090D01*
X63934632Y-67615091D01*
X64057627Y-67790745D01*
X64209255Y-67942373D01*
X64384909Y-68065368D01*
X64579253Y-68155992D01*
X64786381Y-68211492D01*
X64938965Y-68224841D01*
X64999998Y-68230181D01*
X65000000Y-68230181D01*
X65000002Y-68230181D01*
X65053404Y-68225508D01*
X65213619Y-68211492D01*
X65420747Y-68155992D01*
X65615091Y-68065368D01*
X65790745Y-67942373D01*
X65942373Y-67790745D01*
X66065368Y-67615091D01*
X66155992Y-67420747D01*
X66211492Y-67213619D01*
X66230181Y-67000000D01*
X66211492Y-66786381D01*
X66155992Y-66579253D01*
X66065368Y-66384910D01*
X65942373Y-66209255D01*
X65790745Y-66057627D01*
X65615091Y-65934632D01*
X65615092Y-65934632D01*
X65615090Y-65934631D01*
X65517918Y-65889320D01*
X65420747Y-65844008D01*
X65420743Y-65844007D01*
X65420739Y-65844005D01*
X65213624Y-65788509D01*
X65213620Y-65788508D01*
X65213619Y-65788508D01*
X65213618Y-65788507D01*
X65213613Y-65788507D01*
X65000002Y-65769819D01*
X64999998Y-65769819D01*
X64786386Y-65788507D01*
X64786375Y-65788509D01*
X64579260Y-65844005D01*
X64579251Y-65844009D01*
X64384910Y-65934631D01*
X64384908Y-65934632D01*
X64209259Y-66057623D01*
X64209253Y-66057628D01*
X64057628Y-66209253D01*
X64057623Y-66209259D01*
X63934632Y-66384908D01*
X63934631Y-66384910D01*
X63844009Y-66579251D01*
X63844005Y-66579260D01*
X63788509Y-66786375D01*
X63788507Y-66786386D01*
X63769819Y-66999998D01*
X63769819Y-67000001D01*
X55000499Y-67000001D01*
X55000499Y-64460001D01*
X61129437Y-64460001D01*
X61149650Y-64691044D01*
X61149651Y-64691051D01*
X61209678Y-64915074D01*
X61209679Y-64915076D01*
X61209680Y-64915079D01*
X61307699Y-65125282D01*
X61440730Y-65315269D01*
X61604731Y-65479270D01*
X61794718Y-65612301D01*
X62004921Y-65710320D01*
X62228950Y-65770349D01*
X62393985Y-65784787D01*
X62459998Y-65790563D01*
X62460000Y-65790563D01*
X62460002Y-65790563D01*
X62517762Y-65785509D01*
X62691050Y-65770349D01*
X62915079Y-65710320D01*
X63125282Y-65612301D01*
X63315269Y-65479270D01*
X63479270Y-65315269D01*
X63612301Y-65125282D01*
X63710320Y-64915079D01*
X63770349Y-64691050D01*
X63790563Y-64460001D01*
X66209437Y-64460001D01*
X66229650Y-64691044D01*
X66229651Y-64691051D01*
X66289678Y-64915074D01*
X66289679Y-64915076D01*
X66289680Y-64915079D01*
X66387699Y-65125282D01*
X66520730Y-65315269D01*
X66684731Y-65479270D01*
X66874718Y-65612301D01*
X67084921Y-65710320D01*
X67308950Y-65770349D01*
X67473985Y-65784787D01*
X67539998Y-65790563D01*
X67540000Y-65790563D01*
X67540002Y-65790563D01*
X67597762Y-65785509D01*
X67771050Y-65770349D01*
X67995079Y-65710320D01*
X68205282Y-65612301D01*
X68395269Y-65479270D01*
X68559270Y-65315269D01*
X68692301Y-65125282D01*
X68790320Y-64915079D01*
X68850349Y-64691050D01*
X68870563Y-64460000D01*
X68850349Y-64228950D01*
X68790320Y-64004921D01*
X68692301Y-63794719D01*
X68692299Y-63794716D01*
X68692298Y-63794714D01*
X68559273Y-63604735D01*
X68559268Y-63604729D01*
X68395269Y-63440730D01*
X68395263Y-63440726D01*
X68205282Y-63307699D01*
X67995079Y-63209680D01*
X67995076Y-63209679D01*
X67995074Y-63209678D01*
X67771051Y-63149651D01*
X67771044Y-63149650D01*
X67540002Y-63129437D01*
X67539998Y-63129437D01*
X67308955Y-63149650D01*
X67308948Y-63149651D01*
X67084917Y-63209681D01*
X66874718Y-63307699D01*
X66874714Y-63307701D01*
X66684735Y-63440726D01*
X66684729Y-63440731D01*
X66520731Y-63604729D01*
X66520726Y-63604735D01*
X66387701Y-63794714D01*
X66387699Y-63794718D01*
X66289681Y-64004917D01*
X66229651Y-64228948D01*
X66229650Y-64228955D01*
X66209437Y-64459998D01*
X66209437Y-64460001D01*
X63790563Y-64460001D01*
X63790563Y-64460000D01*
X63770349Y-64228950D01*
X63710320Y-64004921D01*
X63612301Y-63794719D01*
X63612299Y-63794716D01*
X63612298Y-63794714D01*
X63479273Y-63604735D01*
X63479268Y-63604729D01*
X63315269Y-63440730D01*
X63315263Y-63440726D01*
X63125282Y-63307699D01*
X62915079Y-63209680D01*
X62915076Y-63209679D01*
X62915074Y-63209678D01*
X62691051Y-63149651D01*
X62691044Y-63149650D01*
X62460002Y-63129437D01*
X62459998Y-63129437D01*
X62228955Y-63149650D01*
X62228948Y-63149651D01*
X62004917Y-63209681D01*
X61794718Y-63307699D01*
X61794714Y-63307701D01*
X61604735Y-63440726D01*
X61604729Y-63440731D01*
X61440731Y-63604729D01*
X61440726Y-63604735D01*
X61307701Y-63794714D01*
X61307699Y-63794718D01*
X61209681Y-64004917D01*
X61149651Y-64228948D01*
X61149650Y-64228955D01*
X61129437Y-64459998D01*
X61129437Y-64460001D01*
X55000499Y-64460001D01*
X55000499Y-55779999D01*
X63944417Y-55779999D01*
X63964699Y-55985932D01*
X63964700Y-55985934D01*
X64024768Y-56183954D01*
X64122315Y-56366450D01*
X64122317Y-56366452D01*
X64253589Y-56526410D01*
X64350209Y-56605702D01*
X64413550Y-56657685D01*
X64596046Y-56755232D01*
X64794066Y-56815300D01*
X64794065Y-56815300D01*
X64812529Y-56817118D01*
X65000000Y-56835583D01*
X65205934Y-56815300D01*
X65403954Y-56755232D01*
X65586450Y-56657685D01*
X65746410Y-56526410D01*
X65877685Y-56366450D01*
X65975232Y-56183954D01*
X66035300Y-55985934D01*
X66055583Y-55780000D01*
X66035300Y-55574066D01*
X65975232Y-55376046D01*
X65877685Y-55193550D01*
X65825702Y-55130209D01*
X65746410Y-55033589D01*
X65586452Y-54902317D01*
X65586453Y-54902317D01*
X65586450Y-54902315D01*
X65403954Y-54804768D01*
X65205934Y-54744700D01*
X65205932Y-54744699D01*
X65205934Y-54744699D01*
X65018463Y-54726235D01*
X65000000Y-54724417D01*
X64999999Y-54724417D01*
X64794067Y-54744699D01*
X64596043Y-54804769D01*
X64485898Y-54863643D01*
X64413550Y-54902315D01*
X64413548Y-54902316D01*
X64413547Y-54902317D01*
X64253589Y-55033589D01*
X64122317Y-55193547D01*
X64024769Y-55376043D01*
X63964699Y-55574067D01*
X63944417Y-55779999D01*
X55000499Y-55779999D01*
X55000499Y-53240000D01*
X63944417Y-53240000D01*
X63964699Y-53445932D01*
X63964700Y-53445934D01*
X64024768Y-53643954D01*
X64122315Y-53826450D01*
X64122317Y-53826452D01*
X64253589Y-53986410D01*
X64350209Y-54065702D01*
X64413550Y-54117685D01*
X64596046Y-54215232D01*
X64794066Y-54275300D01*
X64794065Y-54275300D01*
X64814347Y-54277297D01*
X65000000Y-54295583D01*
X65205934Y-54275300D01*
X65403954Y-54215232D01*
X65586450Y-54117685D01*
X65746410Y-53986410D01*
X65877685Y-53826450D01*
X65975232Y-53643954D01*
X66035300Y-53445934D01*
X66055583Y-53240000D01*
X66035300Y-53034066D01*
X65975232Y-52836046D01*
X65877685Y-52653550D01*
X65825702Y-52590209D01*
X65746410Y-52493589D01*
X65586452Y-52362317D01*
X65586453Y-52362317D01*
X65586450Y-52362315D01*
X65403954Y-52264768D01*
X65205934Y-52204700D01*
X65205932Y-52204699D01*
X65205934Y-52204699D01*
X65018463Y-52186235D01*
X65000000Y-52184417D01*
X64999999Y-52184417D01*
X64794067Y-52204699D01*
X64596043Y-52264769D01*
X64485898Y-52323643D01*
X64413550Y-52362315D01*
X64413548Y-52362316D01*
X64413547Y-52362317D01*
X64253589Y-52493589D01*
X64122317Y-52653547D01*
X64024769Y-52836043D01*
X63964699Y-53034067D01*
X63944417Y-53240000D01*
X55000499Y-53240000D01*
X55000499Y-50699999D01*
X63944417Y-50699999D01*
X63964699Y-50905932D01*
X63964700Y-50905934D01*
X64024768Y-51103954D01*
X64122315Y-51286450D01*
X64122317Y-51286452D01*
X64253589Y-51446410D01*
X64350209Y-51525702D01*
X64413550Y-51577685D01*
X64596046Y-51675232D01*
X64794066Y-51735300D01*
X64794065Y-51735300D01*
X64814347Y-51737297D01*
X65000000Y-51755583D01*
X65205934Y-51735300D01*
X65403954Y-51675232D01*
X65586450Y-51577685D01*
X65746410Y-51446410D01*
X65877685Y-51286450D01*
X65975232Y-51103954D01*
X66035300Y-50905934D01*
X66055583Y-50700000D01*
X66040317Y-50545000D01*
X68099867Y-50545000D01*
X68118302Y-50673225D01*
X68130530Y-50699999D01*
X68172118Y-50791063D01*
X68256951Y-50888967D01*
X68365931Y-50959004D01*
X68490225Y-50995499D01*
X68490227Y-50995500D01*
X68490228Y-50995500D01*
X68619773Y-50995500D01*
X68619773Y-50995499D01*
X68744069Y-50959004D01*
X68853049Y-50888967D01*
X68937882Y-50791063D01*
X68991697Y-50673226D01*
X69010133Y-50545000D01*
X68991697Y-50416774D01*
X68937882Y-50298937D01*
X68853049Y-50201033D01*
X68744069Y-50130996D01*
X68744065Y-50130994D01*
X68744064Y-50130994D01*
X68619774Y-50094500D01*
X68619772Y-50094500D01*
X68490228Y-50094500D01*
X68490226Y-50094500D01*
X68365935Y-50130994D01*
X68365932Y-50130995D01*
X68365931Y-50130996D01*
X68314677Y-50163934D01*
X68256950Y-50201033D01*
X68172118Y-50298937D01*
X68172117Y-50298938D01*
X68118302Y-50416774D01*
X68099867Y-50545000D01*
X66040317Y-50545000D01*
X66035300Y-50494066D01*
X65975232Y-50296046D01*
X65877685Y-50113550D01*
X65825702Y-50050209D01*
X65746410Y-49953589D01*
X65586452Y-49822317D01*
X65586453Y-49822317D01*
X65586450Y-49822315D01*
X65403954Y-49724768D01*
X65205934Y-49664700D01*
X65205932Y-49664699D01*
X65205934Y-49664699D01*
X65000000Y-49644417D01*
X64794067Y-49664699D01*
X64596043Y-49724769D01*
X64485898Y-49783643D01*
X64413550Y-49822315D01*
X64413548Y-49822316D01*
X64413547Y-49822317D01*
X64253589Y-49953589D01*
X64122317Y-50113547D01*
X64024769Y-50296043D01*
X63964699Y-50494067D01*
X63944417Y-50699999D01*
X55000499Y-50699999D01*
X55000499Y-48160000D01*
X63944417Y-48160000D01*
X63964699Y-48365932D01*
X63964700Y-48365934D01*
X64024768Y-48563954D01*
X64122315Y-48746450D01*
X64122317Y-48746452D01*
X64253589Y-48906410D01*
X64350209Y-48985702D01*
X64413550Y-49037685D01*
X64596046Y-49135232D01*
X64794066Y-49195300D01*
X64794065Y-49195300D01*
X64812529Y-49197118D01*
X65000000Y-49215583D01*
X65205934Y-49195300D01*
X65403954Y-49135232D01*
X65586450Y-49037685D01*
X65746410Y-48906410D01*
X65877685Y-48746450D01*
X65975232Y-48563954D01*
X66035300Y-48365934D01*
X66055583Y-48160000D01*
X66035300Y-47954066D01*
X65975232Y-47756046D01*
X65877685Y-47573550D01*
X65825702Y-47510209D01*
X65746410Y-47413589D01*
X65586452Y-47282317D01*
X65586453Y-47282317D01*
X65586450Y-47282315D01*
X65403954Y-47184768D01*
X65205934Y-47124700D01*
X65205932Y-47124699D01*
X65205934Y-47124699D01*
X65018463Y-47106235D01*
X65000000Y-47104417D01*
X64999999Y-47104417D01*
X64794067Y-47124699D01*
X64596043Y-47184769D01*
X64485898Y-47243643D01*
X64413550Y-47282315D01*
X64413548Y-47282316D01*
X64413547Y-47282317D01*
X64253589Y-47413589D01*
X64122317Y-47573547D01*
X64024769Y-47756043D01*
X63964699Y-47954067D01*
X63944417Y-48160000D01*
X55000499Y-48160000D01*
X55000499Y-45620000D01*
X63944417Y-45620000D01*
X63964699Y-45825932D01*
X63964700Y-45825934D01*
X64024768Y-46023954D01*
X64122315Y-46206450D01*
X64122317Y-46206452D01*
X64253589Y-46366410D01*
X64350209Y-46445702D01*
X64413550Y-46497685D01*
X64596046Y-46595232D01*
X64794066Y-46655300D01*
X64794065Y-46655300D01*
X64814347Y-46657297D01*
X65000000Y-46675583D01*
X65205934Y-46655300D01*
X65403954Y-46595232D01*
X65586450Y-46497685D01*
X65746410Y-46366410D01*
X65877685Y-46206450D01*
X65975232Y-46023954D01*
X66035300Y-45825934D01*
X66055583Y-45620000D01*
X66035300Y-45414066D01*
X65975232Y-45216046D01*
X65877685Y-45033550D01*
X65825702Y-44970209D01*
X65746410Y-44873589D01*
X65586452Y-44742317D01*
X65586453Y-44742317D01*
X65586450Y-44742315D01*
X65403954Y-44644768D01*
X65205934Y-44584700D01*
X65205932Y-44584699D01*
X65205934Y-44584699D01*
X65000000Y-44564417D01*
X64794067Y-44584699D01*
X64596043Y-44644769D01*
X64485898Y-44703643D01*
X64413550Y-44742315D01*
X64413548Y-44742316D01*
X64413547Y-44742317D01*
X64253589Y-44873589D01*
X64122317Y-45033547D01*
X64024769Y-45216043D01*
X63964699Y-45414067D01*
X63944417Y-45620000D01*
X55000499Y-45620000D01*
X55000499Y-43079999D01*
X63944417Y-43079999D01*
X63964699Y-43285932D01*
X63964700Y-43285934D01*
X64024768Y-43483954D01*
X64122315Y-43666450D01*
X64122317Y-43666452D01*
X64253589Y-43826410D01*
X64350209Y-43905702D01*
X64413550Y-43957685D01*
X64596046Y-44055232D01*
X64794066Y-44115300D01*
X64794065Y-44115300D01*
X64812529Y-44117118D01*
X65000000Y-44135583D01*
X65205934Y-44115300D01*
X65403954Y-44055232D01*
X65586450Y-43957685D01*
X65746410Y-43826410D01*
X65877685Y-43666450D01*
X65975232Y-43483954D01*
X66035300Y-43285934D01*
X66055583Y-43080000D01*
X66035300Y-42874066D01*
X65975232Y-42676046D01*
X65877685Y-42493550D01*
X65825702Y-42430209D01*
X65746410Y-42333589D01*
X65586452Y-42202317D01*
X65586453Y-42202317D01*
X65586450Y-42202315D01*
X65403954Y-42104768D01*
X65205934Y-42044700D01*
X65205932Y-42044699D01*
X65205934Y-42044699D01*
X65000000Y-42024417D01*
X64794067Y-42044699D01*
X64596043Y-42104769D01*
X64485898Y-42163643D01*
X64413550Y-42202315D01*
X64413548Y-42202316D01*
X64413547Y-42202317D01*
X64253589Y-42333589D01*
X64122317Y-42493547D01*
X64024769Y-42676043D01*
X63964699Y-42874067D01*
X63944417Y-43079999D01*
X55000499Y-43079999D01*
X55000499Y-40110000D01*
X58819867Y-40110000D01*
X58838302Y-40238225D01*
X58892117Y-40356061D01*
X58892118Y-40356063D01*
X58976951Y-40453967D01*
X59085931Y-40524004D01*
X59140410Y-40540000D01*
X59210225Y-40560499D01*
X59210227Y-40560500D01*
X59210228Y-40560500D01*
X59339773Y-40560500D01*
X59339773Y-40560499D01*
X59409589Y-40540000D01*
X63944417Y-40540000D01*
X63964699Y-40745932D01*
X63964700Y-40745934D01*
X64024768Y-40943954D01*
X64122315Y-41126450D01*
X64122317Y-41126452D01*
X64253589Y-41286410D01*
X64350209Y-41365702D01*
X64413550Y-41417685D01*
X64596046Y-41515232D01*
X64794066Y-41575300D01*
X64794065Y-41575300D01*
X64812529Y-41577118D01*
X65000000Y-41595583D01*
X65205934Y-41575300D01*
X65403954Y-41515232D01*
X65586450Y-41417685D01*
X65746410Y-41286410D01*
X65877685Y-41126450D01*
X65975232Y-40943954D01*
X66035300Y-40745934D01*
X66055583Y-40540000D01*
X66035300Y-40334066D01*
X65975232Y-40136046D01*
X65877685Y-39953550D01*
X65804142Y-39863937D01*
X65746410Y-39793589D01*
X65586452Y-39662317D01*
X65586453Y-39662317D01*
X65586450Y-39662315D01*
X65403954Y-39564768D01*
X65205934Y-39504700D01*
X65205932Y-39504699D01*
X65205934Y-39504699D01*
X65000000Y-39484417D01*
X64794067Y-39504699D01*
X64596043Y-39564769D01*
X64485898Y-39623643D01*
X64413550Y-39662315D01*
X64413548Y-39662316D01*
X64413547Y-39662317D01*
X64253589Y-39793589D01*
X64122317Y-39953547D01*
X64024769Y-40136043D01*
X63964699Y-40334067D01*
X63944417Y-40540000D01*
X59409589Y-40540000D01*
X59464069Y-40524004D01*
X59573049Y-40453967D01*
X59657882Y-40356063D01*
X59711697Y-40238226D01*
X59730133Y-40110000D01*
X59711697Y-39981774D01*
X59657882Y-39863937D01*
X59573049Y-39766033D01*
X59464069Y-39695996D01*
X59464065Y-39695994D01*
X59464064Y-39695994D01*
X59339774Y-39659500D01*
X59339772Y-39659500D01*
X59210228Y-39659500D01*
X59210226Y-39659500D01*
X59085935Y-39695994D01*
X59085932Y-39695995D01*
X59085931Y-39695996D01*
X59034677Y-39728934D01*
X58976950Y-39766033D01*
X58892118Y-39863937D01*
X58892117Y-39863938D01*
X58838302Y-39981774D01*
X58819867Y-40110000D01*
X55000499Y-40110000D01*
X55000499Y-38869752D01*
X63949500Y-38869752D01*
X63961131Y-38928229D01*
X63961132Y-38928230D01*
X64005447Y-38994552D01*
X64071769Y-39038867D01*
X64071770Y-39038868D01*
X64130247Y-39050499D01*
X64130250Y-39050500D01*
X64130252Y-39050500D01*
X65869750Y-39050500D01*
X65869751Y-39050499D01*
X65884568Y-39047552D01*
X65928229Y-39038868D01*
X65928229Y-39038867D01*
X65928231Y-39038867D01*
X65994552Y-38994552D01*
X66038867Y-38928231D01*
X66038867Y-38928229D01*
X66038868Y-38928229D01*
X66050499Y-38869752D01*
X66050500Y-38869750D01*
X66050500Y-37130249D01*
X66050499Y-37130247D01*
X66038868Y-37071770D01*
X66038867Y-37071769D01*
X65994552Y-37005447D01*
X65928230Y-36961132D01*
X65928229Y-36961131D01*
X65869752Y-36949500D01*
X65869748Y-36949500D01*
X64130252Y-36949500D01*
X64130247Y-36949500D01*
X64071770Y-36961131D01*
X64071769Y-36961132D01*
X64005447Y-37005447D01*
X63961132Y-37071769D01*
X63961131Y-37071770D01*
X63949500Y-37130247D01*
X63949500Y-38869752D01*
X55000499Y-38869752D01*
X55000499Y-26990000D01*
X71564417Y-26990000D01*
X71584699Y-27195932D01*
X71584700Y-27195934D01*
X71644768Y-27393954D01*
X71742315Y-27576450D01*
X71742317Y-27576452D01*
X71873589Y-27736410D01*
X71970209Y-27815702D01*
X72033550Y-27867685D01*
X72216046Y-27965232D01*
X72414066Y-28025300D01*
X72414065Y-28025300D01*
X72432529Y-28027118D01*
X72620000Y-28045583D01*
X72825934Y-28025300D01*
X73023954Y-27965232D01*
X73206450Y-27867685D01*
X73366410Y-27736410D01*
X73497685Y-27576450D01*
X73595232Y-27393954D01*
X73655300Y-27195934D01*
X73675583Y-26990000D01*
X73655300Y-26784066D01*
X73595232Y-26586046D01*
X73497685Y-26403550D01*
X73445702Y-26340209D01*
X73366410Y-26243589D01*
X73206452Y-26112317D01*
X73206453Y-26112317D01*
X73206450Y-26112315D01*
X73023954Y-26014768D01*
X72825934Y-25954700D01*
X72825932Y-25954699D01*
X72825934Y-25954699D01*
X72620000Y-25934417D01*
X72414067Y-25954699D01*
X72216043Y-26014769D01*
X72105898Y-26073643D01*
X72033550Y-26112315D01*
X72033548Y-26112316D01*
X72033547Y-26112317D01*
X71873589Y-26243589D01*
X71742317Y-26403547D01*
X71644769Y-26586043D01*
X71584699Y-26784067D01*
X71564417Y-26990000D01*
X55000499Y-26990000D01*
X55000499Y-22540001D01*
X61129437Y-22540001D01*
X61149650Y-22771044D01*
X61149651Y-22771051D01*
X61209678Y-22995074D01*
X61209679Y-22995076D01*
X61209680Y-22995079D01*
X61307699Y-23205282D01*
X61440730Y-23395269D01*
X61604731Y-23559270D01*
X61794718Y-23692301D01*
X62004921Y-23790320D01*
X62228950Y-23850349D01*
X62379806Y-23863547D01*
X62459998Y-23870563D01*
X62460000Y-23870563D01*
X62460002Y-23870563D01*
X62517762Y-23865509D01*
X62691050Y-23850349D01*
X62915079Y-23790320D01*
X63125282Y-23692301D01*
X63315269Y-23559270D01*
X63479270Y-23395269D01*
X63612301Y-23205282D01*
X63710320Y-22995079D01*
X63770349Y-22771050D01*
X63790563Y-22540001D01*
X66209437Y-22540001D01*
X66229650Y-22771044D01*
X66229651Y-22771051D01*
X66289678Y-22995074D01*
X66289679Y-22995076D01*
X66289680Y-22995079D01*
X66387699Y-23205282D01*
X66520730Y-23395269D01*
X66684731Y-23559270D01*
X66874718Y-23692301D01*
X67084921Y-23790320D01*
X67308950Y-23850349D01*
X67459806Y-23863547D01*
X67539998Y-23870563D01*
X67540000Y-23870563D01*
X67540002Y-23870563D01*
X67597762Y-23865509D01*
X67771050Y-23850349D01*
X67995079Y-23790320D01*
X68205282Y-23692301D01*
X68395269Y-23559270D01*
X68559270Y-23395269D01*
X68692301Y-23205282D01*
X68790320Y-22995079D01*
X68850349Y-22771050D01*
X68870563Y-22540000D01*
X68850349Y-22308950D01*
X68810438Y-22160000D01*
X71289364Y-22160000D01*
X71346567Y-22373486D01*
X71346570Y-22373492D01*
X71446399Y-22587578D01*
X71581894Y-22781082D01*
X71748917Y-22948105D01*
X71942421Y-23083600D01*
X72156507Y-23183429D01*
X72156516Y-23183433D01*
X72278649Y-23216158D01*
X72338310Y-23252523D01*
X72368839Y-23315369D01*
X72360545Y-23384745D01*
X72316059Y-23438623D01*
X72282552Y-23454593D01*
X72216046Y-23474767D01*
X72085358Y-23544622D01*
X72033550Y-23572315D01*
X72033548Y-23572316D01*
X72033547Y-23572317D01*
X71873589Y-23703589D01*
X71742317Y-23863547D01*
X71742315Y-23863550D01*
X71703643Y-23935898D01*
X71644769Y-24046043D01*
X71584699Y-24244067D01*
X71564417Y-24450000D01*
X71584699Y-24655932D01*
X71584700Y-24655934D01*
X71644768Y-24853954D01*
X71742315Y-25036450D01*
X71742317Y-25036452D01*
X71873589Y-25196410D01*
X71970209Y-25275702D01*
X72033550Y-25327685D01*
X72216046Y-25425232D01*
X72414066Y-25485300D01*
X72414065Y-25485300D01*
X72432529Y-25487118D01*
X72620000Y-25505583D01*
X72825934Y-25485300D01*
X73023954Y-25425232D01*
X73206450Y-25327685D01*
X73366410Y-25196410D01*
X73497685Y-25036450D01*
X73595232Y-24853954D01*
X73655300Y-24655934D01*
X73675583Y-24450000D01*
X73655300Y-24244066D01*
X73595232Y-24046046D01*
X73497685Y-23863550D01*
X73437585Y-23790318D01*
X73366410Y-23703589D01*
X73206452Y-23572317D01*
X73206453Y-23572317D01*
X73206450Y-23572315D01*
X73023954Y-23474768D01*
X72957447Y-23454593D01*
X72899009Y-23416296D01*
X72870553Y-23352484D01*
X72881113Y-23283417D01*
X72927337Y-23231023D01*
X72961350Y-23216158D01*
X73083483Y-23183433D01*
X73083492Y-23183429D01*
X73297578Y-23083600D01*
X73491082Y-22948105D01*
X73658105Y-22781082D01*
X73793600Y-22587578D01*
X73893429Y-22373492D01*
X73893432Y-22373486D01*
X73950636Y-22160000D01*
X73053686Y-22160000D01*
X73079493Y-22119844D01*
X73120000Y-21981889D01*
X73120000Y-21838111D01*
X73079493Y-21700156D01*
X73053686Y-21660000D01*
X73950636Y-21660000D01*
X73950635Y-21659999D01*
X73893432Y-21446513D01*
X73893429Y-21446507D01*
X73793600Y-21232422D01*
X73793599Y-21232420D01*
X73658113Y-21038926D01*
X73658108Y-21038920D01*
X73491082Y-20871894D01*
X73297578Y-20736399D01*
X73127052Y-20656882D01*
X73074613Y-20610710D01*
X73055461Y-20543516D01*
X73075677Y-20476635D01*
X73128842Y-20431300D01*
X73179457Y-20420500D01*
X73489750Y-20420500D01*
X73489751Y-20420499D01*
X73504568Y-20417552D01*
X73548229Y-20408868D01*
X73548229Y-20408867D01*
X73548231Y-20408867D01*
X73614552Y-20364552D01*
X73658867Y-20298231D01*
X73658867Y-20298229D01*
X73658868Y-20298229D01*
X73670499Y-20239752D01*
X73670500Y-20239750D01*
X73670500Y-18500249D01*
X73670499Y-18500247D01*
X73658868Y-18441770D01*
X73658867Y-18441769D01*
X73614552Y-18375447D01*
X73548230Y-18331132D01*
X73548229Y-18331131D01*
X73489752Y-18319500D01*
X73489748Y-18319500D01*
X71750252Y-18319500D01*
X71750247Y-18319500D01*
X71691770Y-18331131D01*
X71691769Y-18331132D01*
X71625447Y-18375447D01*
X71581132Y-18441769D01*
X71581131Y-18441770D01*
X71569500Y-18500247D01*
X71569500Y-20239752D01*
X71581131Y-20298229D01*
X71581132Y-20298230D01*
X71625447Y-20364552D01*
X71691769Y-20408867D01*
X71691770Y-20408868D01*
X71750247Y-20420499D01*
X71750250Y-20420500D01*
X72060543Y-20420500D01*
X72127582Y-20440185D01*
X72173337Y-20492989D01*
X72183281Y-20562147D01*
X72154256Y-20625703D01*
X72112948Y-20656882D01*
X71942422Y-20736399D01*
X71942420Y-20736400D01*
X71748926Y-20871886D01*
X71748920Y-20871891D01*
X71581891Y-21038920D01*
X71581886Y-21038926D01*
X71446400Y-21232420D01*
X71446399Y-21232422D01*
X71346570Y-21446507D01*
X71346567Y-21446513D01*
X71289364Y-21659999D01*
X71289364Y-21660000D01*
X72186314Y-21660000D01*
X72160507Y-21700156D01*
X72120000Y-21838111D01*
X72120000Y-21981889D01*
X72160507Y-22119844D01*
X72186314Y-22160000D01*
X71289364Y-22160000D01*
X68810438Y-22160000D01*
X68790320Y-22084921D01*
X68692301Y-21874719D01*
X68692299Y-21874716D01*
X68692298Y-21874714D01*
X68559273Y-21684735D01*
X68559268Y-21684729D01*
X68395269Y-21520730D01*
X68344310Y-21485048D01*
X68205282Y-21387699D01*
X67995079Y-21289680D01*
X67995076Y-21289679D01*
X67995074Y-21289678D01*
X67771051Y-21229651D01*
X67771044Y-21229650D01*
X67540002Y-21209437D01*
X67539998Y-21209437D01*
X67308955Y-21229650D01*
X67308948Y-21229651D01*
X67084917Y-21289681D01*
X66874718Y-21387699D01*
X66874714Y-21387701D01*
X66684735Y-21520726D01*
X66684729Y-21520731D01*
X66520731Y-21684729D01*
X66520726Y-21684735D01*
X66387701Y-21874714D01*
X66387699Y-21874718D01*
X66289681Y-22084917D01*
X66229651Y-22308948D01*
X66229650Y-22308955D01*
X66209437Y-22539998D01*
X66209437Y-22540001D01*
X63790563Y-22540001D01*
X63790563Y-22540000D01*
X63770349Y-22308950D01*
X63710320Y-22084921D01*
X63612301Y-21874719D01*
X63612299Y-21874716D01*
X63612298Y-21874714D01*
X63479273Y-21684735D01*
X63479268Y-21684729D01*
X63315269Y-21520730D01*
X63264310Y-21485048D01*
X63125282Y-21387699D01*
X62915079Y-21289680D01*
X62915076Y-21289679D01*
X62915074Y-21289678D01*
X62691051Y-21229651D01*
X62691044Y-21229650D01*
X62460002Y-21209437D01*
X62459998Y-21209437D01*
X62228955Y-21229650D01*
X62228948Y-21229651D01*
X62004917Y-21289681D01*
X61794718Y-21387699D01*
X61794714Y-21387701D01*
X61604735Y-21520726D01*
X61604729Y-21520731D01*
X61440731Y-21684729D01*
X61440726Y-21684735D01*
X61307701Y-21874714D01*
X61307699Y-21874718D01*
X61209681Y-22084917D01*
X61149651Y-22308948D01*
X61149650Y-22308955D01*
X61129437Y-22539998D01*
X61129437Y-22540001D01*
X55000499Y-22540001D01*
X55000499Y-20000001D01*
X63769819Y-20000001D01*
X63788507Y-20213613D01*
X63788509Y-20213624D01*
X63844005Y-20420739D01*
X63844007Y-20420743D01*
X63844008Y-20420747D01*
X63870069Y-20476635D01*
X63934631Y-20615090D01*
X64019573Y-20736399D01*
X64057627Y-20790745D01*
X64209255Y-20942373D01*
X64384909Y-21065368D01*
X64579253Y-21155992D01*
X64786381Y-21211492D01*
X64938966Y-21224841D01*
X64999998Y-21230181D01*
X65000000Y-21230181D01*
X65000002Y-21230181D01*
X65053404Y-21225508D01*
X65213619Y-21211492D01*
X65420747Y-21155992D01*
X65615091Y-21065368D01*
X65790745Y-20942373D01*
X65942373Y-20790745D01*
X66065368Y-20615091D01*
X66155992Y-20420747D01*
X66211492Y-20213619D01*
X66230181Y-20000000D01*
X66211492Y-19786381D01*
X66155992Y-19579253D01*
X66065368Y-19384910D01*
X65942373Y-19209255D01*
X65790745Y-19057627D01*
X65615091Y-18934632D01*
X65615092Y-18934632D01*
X65615090Y-18934631D01*
X65517919Y-18889320D01*
X65420747Y-18844008D01*
X65420743Y-18844007D01*
X65420739Y-18844005D01*
X65213624Y-18788509D01*
X65213620Y-18788508D01*
X65213619Y-18788508D01*
X65213618Y-18788507D01*
X65213613Y-18788507D01*
X65000002Y-18769819D01*
X64999998Y-18769819D01*
X64786386Y-18788507D01*
X64786375Y-18788509D01*
X64579260Y-18844005D01*
X64579251Y-18844009D01*
X64384910Y-18934631D01*
X64384908Y-18934632D01*
X64209259Y-19057623D01*
X64209253Y-19057628D01*
X64057628Y-19209253D01*
X64057623Y-19209259D01*
X63934632Y-19384908D01*
X63934631Y-19384910D01*
X63844009Y-19579251D01*
X63844005Y-19579260D01*
X63788509Y-19786375D01*
X63788507Y-19786386D01*
X63769819Y-19999998D01*
X63769819Y-20000001D01*
X55000499Y-20000001D01*
X55000499Y-17460001D01*
X61129437Y-17460001D01*
X61149650Y-17691044D01*
X61149651Y-17691051D01*
X61209678Y-17915074D01*
X61209679Y-17915076D01*
X61209680Y-17915079D01*
X61307699Y-18125282D01*
X61440730Y-18315269D01*
X61604731Y-18479270D01*
X61794718Y-18612301D01*
X62004921Y-18710320D01*
X62228950Y-18770349D01*
X62393985Y-18784787D01*
X62459998Y-18790563D01*
X62460000Y-18790563D01*
X62460002Y-18790563D01*
X62517762Y-18785509D01*
X62691050Y-18770349D01*
X62915079Y-18710320D01*
X63125282Y-18612301D01*
X63315269Y-18479270D01*
X63479270Y-18315269D01*
X63612301Y-18125282D01*
X63710320Y-17915079D01*
X63770349Y-17691050D01*
X63790563Y-17460001D01*
X66209437Y-17460001D01*
X66229650Y-17691044D01*
X66229651Y-17691051D01*
X66289678Y-17915074D01*
X66289679Y-17915076D01*
X66289680Y-17915079D01*
X66387699Y-18125282D01*
X66520730Y-18315269D01*
X66684731Y-18479270D01*
X66874718Y-18612301D01*
X67084921Y-18710320D01*
X67308950Y-18770349D01*
X67473985Y-18784787D01*
X67539998Y-18790563D01*
X67540000Y-18790563D01*
X67540002Y-18790563D01*
X67597762Y-18785509D01*
X67771050Y-18770349D01*
X67995079Y-18710320D01*
X68205282Y-18612301D01*
X68395269Y-18479270D01*
X68559270Y-18315269D01*
X68692301Y-18125282D01*
X68790320Y-17915079D01*
X68850349Y-17691050D01*
X68870563Y-17460000D01*
X68850349Y-17228950D01*
X68790320Y-17004921D01*
X68692301Y-16794719D01*
X68692299Y-16794716D01*
X68692298Y-16794714D01*
X68559273Y-16604735D01*
X68559268Y-16604729D01*
X68395269Y-16440730D01*
X68370381Y-16423303D01*
X68205282Y-16307699D01*
X67995079Y-16209680D01*
X67995076Y-16209679D01*
X67995074Y-16209678D01*
X67771051Y-16149651D01*
X67771044Y-16149650D01*
X67540002Y-16129437D01*
X67539998Y-16129437D01*
X67308955Y-16149650D01*
X67308948Y-16149651D01*
X67084917Y-16209681D01*
X66874718Y-16307699D01*
X66874714Y-16307701D01*
X66684735Y-16440726D01*
X66684729Y-16440731D01*
X66520731Y-16604729D01*
X66520726Y-16604735D01*
X66387701Y-16794714D01*
X66387699Y-16794718D01*
X66289681Y-17004917D01*
X66229651Y-17228948D01*
X66229650Y-17228955D01*
X66209437Y-17459998D01*
X66209437Y-17460001D01*
X63790563Y-17460001D01*
X63790563Y-17460000D01*
X63770349Y-17228950D01*
X63710320Y-17004921D01*
X63612301Y-16794719D01*
X63612299Y-16794716D01*
X63612298Y-16794714D01*
X63479273Y-16604735D01*
X63479268Y-16604729D01*
X63315269Y-16440730D01*
X63290381Y-16423303D01*
X63125282Y-16307699D01*
X62915079Y-16209680D01*
X62915076Y-16209679D01*
X62915074Y-16209678D01*
X62691051Y-16149651D01*
X62691044Y-16149650D01*
X62460002Y-16129437D01*
X62459998Y-16129437D01*
X62228955Y-16149650D01*
X62228948Y-16149651D01*
X62004917Y-16209681D01*
X61794718Y-16307699D01*
X61794714Y-16307701D01*
X61604735Y-16440726D01*
X61604729Y-16440731D01*
X61440731Y-16604729D01*
X61440726Y-16604735D01*
X61307701Y-16794714D01*
X61307699Y-16794718D01*
X61209681Y-17004917D01*
X61149651Y-17228948D01*
X61149650Y-17228955D01*
X61129437Y-17459998D01*
X61129437Y-17460001D01*
X55000499Y-17460001D01*
X55000499Y-17312023D01*
X55000632Y-17307981D01*
X55002463Y-17280034D01*
X55005990Y-17226226D01*
X55010715Y-17160169D01*
X55011798Y-17152250D01*
X55035219Y-17036880D01*
X55108157Y-16677592D01*
X55110194Y-16670050D01*
X55116530Y-16651385D01*
X55117123Y-16649719D01*
X55133904Y-16604729D01*
X55164736Y-16522061D01*
X55176970Y-16497790D01*
X55456059Y-16068744D01*
X55477205Y-16044052D01*
X55934491Y-15633910D01*
X55969200Y-15611923D01*
X56545807Y-15369381D01*
X56567512Y-15362520D01*
X56610457Y-15353177D01*
X56626483Y-15349989D01*
X56631595Y-15349195D01*
X56940034Y-15314495D01*
X56942834Y-15314246D01*
X56965993Y-15312728D01*
X56997981Y-15310633D01*
X57002035Y-15310500D01*
X72997964Y-15310500D01*
X73002019Y-15310633D01*
G37*
%TD.AperFunction*%
%TD*%
M02*
