%TF.GenerationSoftware,KiCad,Pcbnew,7.0.5*%
%TF.CreationDate,2023-06-30T17:27:13-05:00*%
%TF.ProjectId,Single.Channel.Amp,53696e67-6c65-42e4-9368-616e6e656c2e,rev?*%
%TF.SameCoordinates,Original*%
%TF.FileFunction,Copper,L2,Inr*%
%TF.FilePolarity,Positive*%
%FSLAX46Y46*%
G04 Gerber Fmt 4.6, Leading zero omitted, Abs format (unit mm)*
G04 Created by KiCad (PCBNEW 7.0.5) date 2023-06-30 17:27:13*
%MOMM*%
%LPD*%
G01*
G04 APERTURE LIST*
%TA.AperFunction,ComponentPad*%
%ADD10R,1.700000X1.700000*%
%TD*%
%TA.AperFunction,ComponentPad*%
%ADD11O,1.700000X1.700000*%
%TD*%
%TA.AperFunction,ComponentPad*%
%ADD12C,2.050000*%
%TD*%
%TA.AperFunction,ComponentPad*%
%ADD13C,2.250000*%
%TD*%
G04 APERTURE END LIST*
D10*
%TO.N,Net-(D1-A)*%
%TO.C,J3*%
X72620000Y-19370000D03*
D11*
%TO.N,GND*%
X72620000Y-21910000D03*
%TO.N,GND1*%
X72620000Y-24450000D03*
%TO.N,Net-(D2-K)*%
X72620000Y-26990000D03*
%TD*%
D12*
%TO.N,Net-(J2-Input)*%
%TO.C,J4*%
X65000000Y-67000000D03*
D13*
%TO.N,GND1*%
X62460000Y-64460000D03*
X62460000Y-69540000D03*
X67540000Y-64460000D03*
X67540000Y-69540000D03*
%TD*%
D12*
%TO.N,Net-(J2-Output)*%
%TO.C,J5*%
X65000000Y-20000000D03*
D13*
%TO.N,GND1*%
X62460000Y-17460000D03*
X62460000Y-22540000D03*
X67540000Y-17460000D03*
X67540000Y-22540000D03*
%TD*%
D10*
%TO.N,Net-(J2-Output)*%
%TO.C,J2*%
X65000000Y-38000000D03*
D11*
%TO.N,GND1*%
X65000000Y-40540000D03*
%TO.N,Net-(J2-Pin_3)*%
X65000000Y-43080000D03*
%TO.N,Net-(J2-Pin_4)*%
X65000000Y-45620000D03*
%TO.N,GND1*%
X65000000Y-48160000D03*
X65000000Y-50700000D03*
X65000000Y-53240000D03*
%TO.N,Net-(J2-Input)*%
X65000000Y-55780000D03*
%TD*%
%TA.AperFunction,Conductor*%
%TO.N,GND1*%
G36*
X65250000Y-52804498D02*
G01*
X65142315Y-52755320D01*
X65035763Y-52740000D01*
X64964237Y-52740000D01*
X64857685Y-52755320D01*
X64749999Y-52804498D01*
X64749999Y-51135501D01*
X64857685Y-51184680D01*
X64964237Y-51200000D01*
X65035763Y-51200000D01*
X65142315Y-51184680D01*
X65250000Y-51135501D01*
X65250000Y-52804498D01*
G37*
%TD.AperFunction*%
%TA.AperFunction,Conductor*%
G36*
X65250000Y-50264498D02*
G01*
X65142315Y-50215320D01*
X65035763Y-50200000D01*
X64964237Y-50200000D01*
X64857685Y-50215320D01*
X64749999Y-50264498D01*
X64749999Y-48595501D01*
X64857685Y-48644680D01*
X64964237Y-48660000D01*
X65035763Y-48660000D01*
X65142315Y-48644680D01*
X65250000Y-48595501D01*
X65250000Y-50264498D01*
G37*
%TD.AperFunction*%
%TA.AperFunction,Conductor*%
G36*
X73002019Y-15310633D02*
G01*
X73040149Y-15313131D01*
X73083793Y-15315992D01*
X73265459Y-15328985D01*
X73273102Y-15330015D01*
X73367572Y-15348806D01*
X73372190Y-15349912D01*
X73543719Y-15398061D01*
X73697413Y-15441204D01*
X73702315Y-15442802D01*
X73791762Y-15476164D01*
X73797481Y-15478634D01*
X73862544Y-15510719D01*
X73868651Y-15514176D01*
X74033108Y-15620000D01*
X74054728Y-15633912D01*
X74272782Y-15774225D01*
X74287440Y-15785274D01*
X74307332Y-15802718D01*
X74359510Y-15848476D01*
X74362463Y-15851243D01*
X74458770Y-15947550D01*
X74461531Y-15950498D01*
X74475243Y-15966135D01*
X74477144Y-15968410D01*
X74638444Y-16171187D01*
X74641459Y-16175318D01*
X74655410Y-16196197D01*
X74704958Y-16270351D01*
X74707824Y-16275085D01*
X74773806Y-16395921D01*
X74774996Y-16398213D01*
X74831352Y-16512492D01*
X74833839Y-16518251D01*
X74882881Y-16649737D01*
X74883500Y-16651475D01*
X74923597Y-16769597D01*
X74925472Y-16776353D01*
X74956848Y-16920589D01*
X74979980Y-17036880D01*
X74981015Y-17044560D01*
X74994021Y-17226413D01*
X74999367Y-17307966D01*
X74999500Y-17312023D01*
X74999500Y-73307976D01*
X74999367Y-73312033D01*
X74994022Y-73393558D01*
X74986015Y-73505514D01*
X74985608Y-73509442D01*
X74966386Y-73650854D01*
X74965760Y-73654599D01*
X74956842Y-73699440D01*
X74925471Y-73843647D01*
X74923596Y-73850403D01*
X74883496Y-73968531D01*
X74882879Y-73970265D01*
X74872626Y-73997758D01*
X74871277Y-74001080D01*
X74771176Y-74228425D01*
X74768848Y-74233157D01*
X74707824Y-74344914D01*
X74704958Y-74349648D01*
X74633467Y-74456641D01*
X74631549Y-74459351D01*
X74549744Y-74568631D01*
X74546723Y-74572357D01*
X74461529Y-74669502D01*
X74458755Y-74672464D01*
X74362464Y-74768755D01*
X74359502Y-74771529D01*
X74262357Y-74856723D01*
X74258631Y-74859744D01*
X74149351Y-74941549D01*
X74146641Y-74943467D01*
X74039649Y-75014957D01*
X74034914Y-75017823D01*
X73914075Y-75083806D01*
X73911790Y-75084993D01*
X73904596Y-75088541D01*
X73902019Y-75089740D01*
X73702563Y-75177002D01*
X73699377Y-75178292D01*
X73660275Y-75192876D01*
X73658538Y-75193494D01*
X73540402Y-75233596D01*
X73533647Y-75235471D01*
X73462130Y-75251029D01*
X73455117Y-75252554D01*
X73451369Y-75253250D01*
X73156664Y-75298589D01*
X73151657Y-75299152D01*
X73083568Y-75304022D01*
X73077972Y-75304389D01*
X73070672Y-75304867D01*
X73066636Y-75305000D01*
X56947817Y-75305000D01*
X56942201Y-75304745D01*
X56685599Y-75281417D01*
X56679129Y-75280482D01*
X56638251Y-75272351D01*
X56610617Y-75266854D01*
X56466352Y-75235471D01*
X56459597Y-75233596D01*
X56341465Y-75193496D01*
X56339728Y-75192877D01*
X56210480Y-75144670D01*
X56205300Y-75142466D01*
X56184183Y-75132323D01*
X56088201Y-75084990D01*
X56085909Y-75083800D01*
X56035990Y-75056542D01*
X55965081Y-75017823D01*
X55960357Y-75014962D01*
X55853348Y-74943461D01*
X55850639Y-74941543D01*
X55810592Y-74911564D01*
X55741353Y-74859732D01*
X55737648Y-74856729D01*
X55640680Y-74771690D01*
X55636671Y-74767843D01*
X55487338Y-74611116D01*
X55485610Y-74609226D01*
X55453281Y-74572362D01*
X55450260Y-74568637D01*
X55368449Y-74459351D01*
X55366531Y-74456640D01*
X55295037Y-74349641D01*
X55292170Y-74344907D01*
X55226173Y-74224042D01*
X55225024Y-74221830D01*
X55168635Y-74107483D01*
X55166160Y-74101750D01*
X55117093Y-73970198D01*
X55116540Y-73968646D01*
X55076394Y-73850378D01*
X55074529Y-73843659D01*
X55067509Y-73811387D01*
X55067137Y-73809545D01*
X55016592Y-73536600D01*
X55015715Y-73529742D01*
X55005991Y-73393778D01*
X55000632Y-73312019D01*
X55000499Y-73307993D01*
X55000499Y-69540000D01*
X60829975Y-69540000D01*
X60850042Y-69794989D01*
X60909752Y-70043702D01*
X61007634Y-70280012D01*
X61007636Y-70280015D01*
X61141275Y-70498095D01*
X61141286Y-70498110D01*
X61144533Y-70501911D01*
X61144535Y-70501911D01*
X61708766Y-69937679D01*
X61752316Y-70019822D01*
X61872009Y-70160735D01*
X62019195Y-70272623D01*
X62061402Y-70292150D01*
X61498087Y-70855464D01*
X61498087Y-70855465D01*
X61501888Y-70858712D01*
X61501898Y-70858719D01*
X61719984Y-70992363D01*
X61719987Y-70992365D01*
X61956297Y-71090247D01*
X62205011Y-71149957D01*
X62205010Y-71149957D01*
X62460000Y-71170024D01*
X62714989Y-71149957D01*
X62963702Y-71090247D01*
X63200012Y-70992365D01*
X63200015Y-70992363D01*
X63418103Y-70858719D01*
X63421912Y-70855464D01*
X62858609Y-70292161D01*
X62977431Y-70220669D01*
X63111658Y-70093523D01*
X63214861Y-69941309D01*
X63775464Y-70501912D01*
X63778719Y-70498103D01*
X63912363Y-70280015D01*
X63912365Y-70280012D01*
X64010247Y-70043702D01*
X64069957Y-69794989D01*
X64090024Y-69540000D01*
X65909975Y-69540000D01*
X65930042Y-69794989D01*
X65989752Y-70043702D01*
X66087634Y-70280012D01*
X66087636Y-70280015D01*
X66221275Y-70498095D01*
X66221286Y-70498110D01*
X66224533Y-70501911D01*
X66224535Y-70501911D01*
X66788766Y-69937679D01*
X66832316Y-70019822D01*
X66952009Y-70160735D01*
X67099195Y-70272623D01*
X67141402Y-70292150D01*
X66578087Y-70855464D01*
X66578087Y-70855465D01*
X66581888Y-70858712D01*
X66581898Y-70858719D01*
X66799984Y-70992363D01*
X66799987Y-70992365D01*
X67036297Y-71090247D01*
X67285011Y-71149957D01*
X67285010Y-71149957D01*
X67540000Y-71170024D01*
X67794989Y-71149957D01*
X68043702Y-71090247D01*
X68280012Y-70992365D01*
X68280015Y-70992363D01*
X68498103Y-70858719D01*
X68501912Y-70855464D01*
X67938609Y-70292161D01*
X68057431Y-70220669D01*
X68191658Y-70093523D01*
X68294861Y-69941309D01*
X68855464Y-70501912D01*
X68858719Y-70498103D01*
X68992363Y-70280015D01*
X68992365Y-70280012D01*
X69090247Y-70043702D01*
X69149957Y-69794989D01*
X69170024Y-69540000D01*
X69149957Y-69285010D01*
X69090247Y-69036297D01*
X68992365Y-68799987D01*
X68992363Y-68799984D01*
X68858719Y-68581898D01*
X68858712Y-68581888D01*
X68855465Y-68578087D01*
X68855464Y-68578087D01*
X68291232Y-69142319D01*
X68247684Y-69060178D01*
X68127991Y-68919265D01*
X67980805Y-68807377D01*
X67938597Y-68787849D01*
X68501911Y-68224535D01*
X68501911Y-68224533D01*
X68498110Y-68221286D01*
X68498095Y-68221275D01*
X68280015Y-68087636D01*
X68280012Y-68087634D01*
X68043702Y-67989752D01*
X67794988Y-67930042D01*
X67794989Y-67930042D01*
X67540000Y-67909975D01*
X67285010Y-67930042D01*
X67036297Y-67989752D01*
X66799987Y-68087634D01*
X66799984Y-68087636D01*
X66581897Y-68221280D01*
X66578087Y-68224534D01*
X67141390Y-68787837D01*
X67022569Y-68859331D01*
X66888342Y-68986477D01*
X66785138Y-69138691D01*
X66224534Y-68578087D01*
X66221280Y-68581897D01*
X66087636Y-68799984D01*
X66087634Y-68799987D01*
X65989752Y-69036297D01*
X65930042Y-69285010D01*
X65909975Y-69540000D01*
X64090024Y-69540000D01*
X64069957Y-69285010D01*
X64010247Y-69036297D01*
X63912365Y-68799987D01*
X63912363Y-68799984D01*
X63778719Y-68581898D01*
X63778712Y-68581888D01*
X63775465Y-68578087D01*
X63775464Y-68578087D01*
X63211232Y-69142319D01*
X63167684Y-69060178D01*
X63047991Y-68919265D01*
X62900805Y-68807377D01*
X62858596Y-68787849D01*
X63421911Y-68224535D01*
X63421911Y-68224533D01*
X63418110Y-68221286D01*
X63418095Y-68221275D01*
X63200015Y-68087636D01*
X63200012Y-68087634D01*
X62963702Y-67989752D01*
X62714988Y-67930042D01*
X62714989Y-67930042D01*
X62460000Y-67909975D01*
X62205010Y-67930042D01*
X61956297Y-67989752D01*
X61719987Y-68087634D01*
X61719984Y-68087636D01*
X61501897Y-68221280D01*
X61498087Y-68224534D01*
X62061390Y-68787838D01*
X61942569Y-68859331D01*
X61808342Y-68986477D01*
X61705138Y-69138691D01*
X61144533Y-68578087D01*
X61141280Y-68581897D01*
X61007636Y-68799984D01*
X61007634Y-68799987D01*
X60909752Y-69036297D01*
X60850042Y-69285010D01*
X60829975Y-69540000D01*
X55000499Y-69540000D01*
X55000499Y-67000001D01*
X63769819Y-67000001D01*
X63788507Y-67213613D01*
X63788509Y-67213624D01*
X63844005Y-67420739D01*
X63844007Y-67420743D01*
X63844008Y-67420747D01*
X63889320Y-67517918D01*
X63934631Y-67615090D01*
X63934632Y-67615091D01*
X64057627Y-67790745D01*
X64209255Y-67942373D01*
X64384909Y-68065368D01*
X64579253Y-68155992D01*
X64786381Y-68211492D01*
X64935442Y-68224533D01*
X64999998Y-68230181D01*
X65000000Y-68230181D01*
X65000002Y-68230181D01*
X65053404Y-68225508D01*
X65213619Y-68211492D01*
X65420747Y-68155992D01*
X65615091Y-68065368D01*
X65790745Y-67942373D01*
X65942373Y-67790745D01*
X66065368Y-67615091D01*
X66155992Y-67420747D01*
X66211492Y-67213619D01*
X66230181Y-67000000D01*
X66211492Y-66786381D01*
X66155992Y-66579253D01*
X66065368Y-66384910D01*
X65942373Y-66209255D01*
X65790745Y-66057627D01*
X65615091Y-65934632D01*
X65615092Y-65934632D01*
X65615090Y-65934631D01*
X65517918Y-65889320D01*
X65420747Y-65844008D01*
X65420743Y-65844007D01*
X65420739Y-65844005D01*
X65213624Y-65788509D01*
X65213620Y-65788508D01*
X65213619Y-65788508D01*
X65213618Y-65788507D01*
X65213613Y-65788507D01*
X65000002Y-65769819D01*
X64999998Y-65769819D01*
X64786386Y-65788507D01*
X64786375Y-65788509D01*
X64579260Y-65844005D01*
X64579251Y-65844009D01*
X64384910Y-65934631D01*
X64384908Y-65934632D01*
X64209259Y-66057623D01*
X64209253Y-66057628D01*
X64057628Y-66209253D01*
X64057623Y-66209259D01*
X63934632Y-66384908D01*
X63934631Y-66384910D01*
X63844009Y-66579251D01*
X63844005Y-66579260D01*
X63788509Y-66786375D01*
X63788507Y-66786386D01*
X63769819Y-66999998D01*
X63769819Y-67000001D01*
X55000499Y-67000001D01*
X55000499Y-64460000D01*
X60829975Y-64460000D01*
X60850042Y-64714989D01*
X60909752Y-64963702D01*
X61007634Y-65200012D01*
X61007636Y-65200015D01*
X61141275Y-65418095D01*
X61141286Y-65418110D01*
X61144533Y-65421911D01*
X61144535Y-65421911D01*
X61708766Y-64857679D01*
X61752316Y-64939822D01*
X61872009Y-65080735D01*
X62019195Y-65192623D01*
X62061402Y-65212150D01*
X61498087Y-65775464D01*
X61498087Y-65775465D01*
X61501888Y-65778712D01*
X61501898Y-65778719D01*
X61719984Y-65912363D01*
X61719987Y-65912365D01*
X61956297Y-66010247D01*
X62205011Y-66069957D01*
X62205010Y-66069957D01*
X62459999Y-66090024D01*
X62714989Y-66069957D01*
X62963702Y-66010247D01*
X63200012Y-65912365D01*
X63200015Y-65912363D01*
X63418103Y-65778719D01*
X63421912Y-65775464D01*
X62858609Y-65212161D01*
X62977431Y-65140669D01*
X63111658Y-65013523D01*
X63214861Y-64861309D01*
X63775464Y-65421912D01*
X63778719Y-65418103D01*
X63912363Y-65200015D01*
X63912365Y-65200012D01*
X64010247Y-64963702D01*
X64069957Y-64714989D01*
X64090024Y-64460000D01*
X65909975Y-64460000D01*
X65930042Y-64714989D01*
X65989752Y-64963702D01*
X66087634Y-65200012D01*
X66087636Y-65200015D01*
X66221275Y-65418095D01*
X66221286Y-65418110D01*
X66224533Y-65421911D01*
X66224535Y-65421911D01*
X66788766Y-64857679D01*
X66832316Y-64939822D01*
X66952009Y-65080735D01*
X67099195Y-65192623D01*
X67141402Y-65212150D01*
X66578087Y-65775464D01*
X66578087Y-65775465D01*
X66581888Y-65778712D01*
X66581898Y-65778719D01*
X66799984Y-65912363D01*
X66799987Y-65912365D01*
X67036297Y-66010247D01*
X67285011Y-66069957D01*
X67285010Y-66069957D01*
X67539999Y-66090024D01*
X67794989Y-66069957D01*
X68043702Y-66010247D01*
X68280012Y-65912365D01*
X68280015Y-65912363D01*
X68498103Y-65778719D01*
X68501912Y-65775464D01*
X67938609Y-65212161D01*
X68057431Y-65140669D01*
X68191658Y-65013523D01*
X68294861Y-64861308D01*
X68855464Y-65421912D01*
X68858719Y-65418103D01*
X68992363Y-65200015D01*
X68992365Y-65200012D01*
X69090247Y-64963702D01*
X69149957Y-64714989D01*
X69170024Y-64460000D01*
X69149957Y-64205010D01*
X69090247Y-63956297D01*
X68992365Y-63719987D01*
X68992363Y-63719984D01*
X68858719Y-63501898D01*
X68858712Y-63501888D01*
X68855465Y-63498087D01*
X68855464Y-63498087D01*
X68291232Y-64062319D01*
X68247684Y-63980178D01*
X68127991Y-63839265D01*
X67980805Y-63727377D01*
X67938597Y-63707849D01*
X68501911Y-63144535D01*
X68501911Y-63144533D01*
X68498110Y-63141286D01*
X68498095Y-63141275D01*
X68280015Y-63007636D01*
X68280012Y-63007634D01*
X68043702Y-62909752D01*
X67794988Y-62850042D01*
X67794989Y-62850042D01*
X67539999Y-62829975D01*
X67285010Y-62850042D01*
X67036297Y-62909752D01*
X66799987Y-63007634D01*
X66799984Y-63007636D01*
X66581897Y-63141280D01*
X66578087Y-63144534D01*
X67141390Y-63707837D01*
X67022569Y-63779331D01*
X66888342Y-63906477D01*
X66785139Y-64058690D01*
X66224534Y-63498087D01*
X66221280Y-63501897D01*
X66087636Y-63719984D01*
X66087634Y-63719987D01*
X65989752Y-63956297D01*
X65930042Y-64205010D01*
X65909975Y-64460000D01*
X64090024Y-64460000D01*
X64069957Y-64205010D01*
X64010247Y-63956297D01*
X63912365Y-63719987D01*
X63912363Y-63719984D01*
X63778719Y-63501898D01*
X63778712Y-63501888D01*
X63775465Y-63498087D01*
X63775464Y-63498087D01*
X63211232Y-64062318D01*
X63167684Y-63980178D01*
X63047991Y-63839265D01*
X62900805Y-63727377D01*
X62858597Y-63707849D01*
X63421911Y-63144535D01*
X63421911Y-63144533D01*
X63418110Y-63141286D01*
X63418095Y-63141275D01*
X63200015Y-63007636D01*
X63200012Y-63007634D01*
X62963702Y-62909752D01*
X62714988Y-62850042D01*
X62714989Y-62850042D01*
X62459999Y-62829975D01*
X62205010Y-62850042D01*
X61956297Y-62909752D01*
X61719987Y-63007634D01*
X61719984Y-63007636D01*
X61501897Y-63141280D01*
X61498087Y-63144534D01*
X62061390Y-63707837D01*
X61942569Y-63779331D01*
X61808342Y-63906477D01*
X61705138Y-64058691D01*
X61144534Y-63498087D01*
X61141280Y-63501897D01*
X61007636Y-63719984D01*
X61007634Y-63719987D01*
X60909752Y-63956297D01*
X60850042Y-64205010D01*
X60829975Y-64460000D01*
X55000499Y-64460000D01*
X55000499Y-53490000D01*
X63669364Y-53490000D01*
X63726567Y-53703486D01*
X63726570Y-53703492D01*
X63826399Y-53917578D01*
X63961894Y-54111082D01*
X64128917Y-54278105D01*
X64322421Y-54413600D01*
X64536507Y-54513429D01*
X64536516Y-54513433D01*
X64658649Y-54546158D01*
X64718310Y-54582523D01*
X64748839Y-54645369D01*
X64740545Y-54714745D01*
X64696059Y-54768623D01*
X64662552Y-54784593D01*
X64596046Y-54804767D01*
X64465358Y-54874622D01*
X64413550Y-54902315D01*
X64413548Y-54902316D01*
X64413547Y-54902317D01*
X64253589Y-55033589D01*
X64122317Y-55193547D01*
X64024769Y-55376043D01*
X63964699Y-55574067D01*
X63944417Y-55779999D01*
X63964699Y-55985932D01*
X63964700Y-55985934D01*
X64024768Y-56183954D01*
X64122315Y-56366450D01*
X64122317Y-56366452D01*
X64253589Y-56526410D01*
X64350209Y-56605702D01*
X64413550Y-56657685D01*
X64596046Y-56755232D01*
X64794066Y-56815300D01*
X64794065Y-56815300D01*
X64812529Y-56817118D01*
X65000000Y-56835583D01*
X65205934Y-56815300D01*
X65403954Y-56755232D01*
X65586450Y-56657685D01*
X65746410Y-56526410D01*
X65877685Y-56366450D01*
X65975232Y-56183954D01*
X66035300Y-55985934D01*
X66055583Y-55780000D01*
X66035300Y-55574066D01*
X65975232Y-55376046D01*
X65877685Y-55193550D01*
X65825702Y-55130209D01*
X65746410Y-55033589D01*
X65586452Y-54902317D01*
X65586453Y-54902317D01*
X65586450Y-54902315D01*
X65403954Y-54804768D01*
X65337447Y-54784593D01*
X65279009Y-54746296D01*
X65250553Y-54682484D01*
X65261113Y-54613417D01*
X65307337Y-54561023D01*
X65341350Y-54546158D01*
X65463483Y-54513433D01*
X65463492Y-54513429D01*
X65677578Y-54413600D01*
X65871082Y-54278105D01*
X66038105Y-54111082D01*
X66173600Y-53917578D01*
X66273429Y-53703492D01*
X66273432Y-53703486D01*
X66330636Y-53490000D01*
X65433686Y-53490000D01*
X65459493Y-53449844D01*
X65500000Y-53311889D01*
X65500000Y-53168111D01*
X65459493Y-53030156D01*
X65433686Y-52990000D01*
X66330636Y-52990000D01*
X66330635Y-52989999D01*
X66273432Y-52776513D01*
X66273429Y-52776507D01*
X66173600Y-52562422D01*
X66173599Y-52562420D01*
X66038113Y-52368926D01*
X66038108Y-52368920D01*
X65871082Y-52201894D01*
X65684968Y-52071575D01*
X65641344Y-52016998D01*
X65634151Y-51947499D01*
X65665673Y-51885145D01*
X65684968Y-51868425D01*
X65871082Y-51738105D01*
X66038105Y-51571082D01*
X66173600Y-51377578D01*
X66273429Y-51163492D01*
X66273432Y-51163486D01*
X66330636Y-50950000D01*
X65433686Y-50950000D01*
X65459493Y-50909844D01*
X65500000Y-50771889D01*
X65500000Y-50628111D01*
X65475597Y-50545000D01*
X68099867Y-50545000D01*
X68118302Y-50673225D01*
X68163361Y-50771889D01*
X68172118Y-50791063D01*
X68256951Y-50888967D01*
X68365931Y-50959004D01*
X68490225Y-50995499D01*
X68490227Y-50995500D01*
X68490228Y-50995500D01*
X68619773Y-50995500D01*
X68619773Y-50995499D01*
X68744069Y-50959004D01*
X68853049Y-50888967D01*
X68937882Y-50791063D01*
X68991697Y-50673226D01*
X69010133Y-50545000D01*
X68991697Y-50416774D01*
X68937882Y-50298937D01*
X68853049Y-50201033D01*
X68744069Y-50130996D01*
X68744065Y-50130994D01*
X68744064Y-50130994D01*
X68619774Y-50094500D01*
X68619772Y-50094500D01*
X68490228Y-50094500D01*
X68490226Y-50094500D01*
X68365935Y-50130994D01*
X68365932Y-50130995D01*
X68365931Y-50130996D01*
X68314677Y-50163934D01*
X68256950Y-50201033D01*
X68172118Y-50298937D01*
X68172117Y-50298938D01*
X68118302Y-50416774D01*
X68099867Y-50545000D01*
X65475597Y-50545000D01*
X65459493Y-50490156D01*
X65433686Y-50450000D01*
X66330636Y-50450000D01*
X66330635Y-50449999D01*
X66273432Y-50236513D01*
X66273429Y-50236507D01*
X66173600Y-50022422D01*
X66173599Y-50022420D01*
X66038113Y-49828926D01*
X66038108Y-49828920D01*
X65871082Y-49661894D01*
X65684968Y-49531575D01*
X65641344Y-49476998D01*
X65634151Y-49407499D01*
X65665673Y-49345145D01*
X65684968Y-49328425D01*
X65871082Y-49198105D01*
X66038105Y-49031082D01*
X66173600Y-48837578D01*
X66273429Y-48623492D01*
X66273432Y-48623486D01*
X66330636Y-48410000D01*
X65433686Y-48410000D01*
X65459493Y-48369844D01*
X65500000Y-48231889D01*
X65500000Y-48088111D01*
X65459493Y-47950156D01*
X65433686Y-47910000D01*
X66330636Y-47910000D01*
X66330635Y-47909999D01*
X66273432Y-47696513D01*
X66273429Y-47696507D01*
X66173600Y-47482422D01*
X66173599Y-47482420D01*
X66038113Y-47288926D01*
X66038108Y-47288920D01*
X65871082Y-47121894D01*
X65677578Y-46986399D01*
X65463492Y-46886570D01*
X65463486Y-46886567D01*
X65341349Y-46853841D01*
X65281689Y-46817476D01*
X65251160Y-46754629D01*
X65259455Y-46685253D01*
X65303940Y-46631375D01*
X65337444Y-46615407D01*
X65403954Y-46595232D01*
X65586450Y-46497685D01*
X65746410Y-46366410D01*
X65877685Y-46206450D01*
X65975232Y-46023954D01*
X66035300Y-45825934D01*
X66055583Y-45620000D01*
X66035300Y-45414066D01*
X65975232Y-45216046D01*
X65877685Y-45033550D01*
X65825702Y-44970209D01*
X65746410Y-44873589D01*
X65586452Y-44742317D01*
X65586453Y-44742317D01*
X65586450Y-44742315D01*
X65403954Y-44644768D01*
X65205934Y-44584700D01*
X65205932Y-44584699D01*
X65205934Y-44584699D01*
X65000000Y-44564417D01*
X64794067Y-44584699D01*
X64596043Y-44644769D01*
X64485898Y-44703643D01*
X64413550Y-44742315D01*
X64413548Y-44742316D01*
X64413547Y-44742317D01*
X64253589Y-44873589D01*
X64122317Y-45033547D01*
X64024769Y-45216043D01*
X63964699Y-45414067D01*
X63944417Y-45620000D01*
X63964699Y-45825932D01*
X63964700Y-45825934D01*
X64024768Y-46023954D01*
X64122315Y-46206450D01*
X64122317Y-46206452D01*
X64253589Y-46366410D01*
X64332368Y-46431061D01*
X64413550Y-46497685D01*
X64596046Y-46595232D01*
X64662551Y-46615405D01*
X64720989Y-46653702D01*
X64749446Y-46717514D01*
X64738887Y-46786581D01*
X64692663Y-46838975D01*
X64658650Y-46853841D01*
X64536514Y-46886567D01*
X64536507Y-46886570D01*
X64322422Y-46986399D01*
X64322420Y-46986400D01*
X64128926Y-47121886D01*
X64128920Y-47121891D01*
X63961891Y-47288920D01*
X63961886Y-47288926D01*
X63826400Y-47482420D01*
X63826399Y-47482422D01*
X63726570Y-47696507D01*
X63726567Y-47696513D01*
X63669364Y-47909999D01*
X63669364Y-47910000D01*
X64566314Y-47910000D01*
X64540507Y-47950156D01*
X64500000Y-48088111D01*
X64500000Y-48231889D01*
X64540507Y-48369844D01*
X64566314Y-48410000D01*
X63669364Y-48410000D01*
X63726567Y-48623486D01*
X63726570Y-48623492D01*
X63826399Y-48837578D01*
X63961894Y-49031082D01*
X64128917Y-49198105D01*
X64315031Y-49328425D01*
X64358656Y-49383003D01*
X64365848Y-49452501D01*
X64334326Y-49514856D01*
X64315031Y-49531575D01*
X64128922Y-49661890D01*
X64128920Y-49661891D01*
X63961891Y-49828920D01*
X63961886Y-49828926D01*
X63826400Y-50022420D01*
X63826399Y-50022422D01*
X63726570Y-50236507D01*
X63726567Y-50236513D01*
X63669364Y-50449999D01*
X63669364Y-50450000D01*
X64566314Y-50450000D01*
X64540507Y-50490156D01*
X64500000Y-50628111D01*
X64500000Y-50771889D01*
X64540507Y-50909844D01*
X64566314Y-50950000D01*
X63669364Y-50950000D01*
X63726567Y-51163486D01*
X63726570Y-51163492D01*
X63826399Y-51377578D01*
X63961894Y-51571082D01*
X64128917Y-51738105D01*
X64315031Y-51868425D01*
X64358656Y-51923003D01*
X64365848Y-51992501D01*
X64334326Y-52054856D01*
X64315031Y-52071575D01*
X64128922Y-52201890D01*
X64128920Y-52201891D01*
X63961891Y-52368920D01*
X63961886Y-52368926D01*
X63826400Y-52562420D01*
X63826399Y-52562422D01*
X63726570Y-52776507D01*
X63726567Y-52776513D01*
X63669364Y-52989999D01*
X63669364Y-52990000D01*
X64566314Y-52990000D01*
X64540507Y-53030156D01*
X64500000Y-53168111D01*
X64500000Y-53311889D01*
X64540507Y-53449844D01*
X64566314Y-53490000D01*
X63669364Y-53490000D01*
X55000499Y-53490000D01*
X55000499Y-46184999D01*
X55892367Y-46184999D01*
X55910802Y-46313225D01*
X55964617Y-46431061D01*
X55964618Y-46431063D01*
X56049451Y-46528967D01*
X56158431Y-46599004D01*
X56282725Y-46635499D01*
X56282727Y-46635500D01*
X56282728Y-46635500D01*
X56412273Y-46635500D01*
X56412273Y-46635499D01*
X56536569Y-46599004D01*
X56645549Y-46528967D01*
X56730382Y-46431063D01*
X56784197Y-46313226D01*
X56802633Y-46185000D01*
X56784197Y-46056774D01*
X56730382Y-45938937D01*
X56645549Y-45841033D01*
X56536569Y-45770996D01*
X56536565Y-45770994D01*
X56536564Y-45770994D01*
X56412274Y-45734500D01*
X56412272Y-45734500D01*
X56282728Y-45734500D01*
X56282726Y-45734500D01*
X56158435Y-45770994D01*
X56158432Y-45770995D01*
X56158431Y-45770996D01*
X56107177Y-45803934D01*
X56049450Y-45841033D01*
X55964618Y-45938937D01*
X55964617Y-45938938D01*
X55910802Y-46056774D01*
X55892367Y-46184999D01*
X55000499Y-46184999D01*
X55000499Y-40790000D01*
X63669364Y-40790000D01*
X63726567Y-41003486D01*
X63726570Y-41003492D01*
X63826399Y-41217578D01*
X63961894Y-41411082D01*
X64128917Y-41578105D01*
X64322421Y-41713600D01*
X64536507Y-41813429D01*
X64536516Y-41813433D01*
X64658649Y-41846158D01*
X64718310Y-41882523D01*
X64748839Y-41945369D01*
X64740545Y-42014745D01*
X64696059Y-42068623D01*
X64662552Y-42084593D01*
X64596046Y-42104767D01*
X64465358Y-42174622D01*
X64413550Y-42202315D01*
X64413548Y-42202316D01*
X64413547Y-42202317D01*
X64253589Y-42333589D01*
X64122317Y-42493547D01*
X64024769Y-42676043D01*
X63964699Y-42874067D01*
X63944417Y-43079999D01*
X63964699Y-43285932D01*
X63964700Y-43285934D01*
X64024768Y-43483954D01*
X64122315Y-43666450D01*
X64122317Y-43666452D01*
X64253589Y-43826410D01*
X64350209Y-43905702D01*
X64413550Y-43957685D01*
X64596046Y-44055232D01*
X64794066Y-44115300D01*
X64794065Y-44115300D01*
X64812529Y-44117118D01*
X65000000Y-44135583D01*
X65205934Y-44115300D01*
X65403954Y-44055232D01*
X65586450Y-43957685D01*
X65746410Y-43826410D01*
X65877685Y-43666450D01*
X65975232Y-43483954D01*
X66035300Y-43285934D01*
X66055583Y-43080000D01*
X66035300Y-42874066D01*
X65975232Y-42676046D01*
X65877685Y-42493550D01*
X65854254Y-42465000D01*
X73222367Y-42465000D01*
X73240802Y-42593225D01*
X73278626Y-42676046D01*
X73294618Y-42711063D01*
X73379451Y-42808967D01*
X73488431Y-42879004D01*
X73612725Y-42915499D01*
X73612727Y-42915500D01*
X73612728Y-42915500D01*
X73742273Y-42915500D01*
X73742273Y-42915499D01*
X73866569Y-42879004D01*
X73975549Y-42808967D01*
X74060382Y-42711063D01*
X74114197Y-42593226D01*
X74132633Y-42465000D01*
X74114197Y-42336774D01*
X74060382Y-42218937D01*
X73975549Y-42121033D01*
X73866569Y-42050996D01*
X73866565Y-42050994D01*
X73866564Y-42050994D01*
X73742274Y-42014500D01*
X73742272Y-42014500D01*
X73612728Y-42014500D01*
X73612726Y-42014500D01*
X73488435Y-42050994D01*
X73488432Y-42050995D01*
X73488431Y-42050996D01*
X73461003Y-42068623D01*
X73379450Y-42121033D01*
X73294618Y-42218937D01*
X73294617Y-42218938D01*
X73240802Y-42336774D01*
X73222367Y-42465000D01*
X65854254Y-42465000D01*
X65825702Y-42430209D01*
X65746410Y-42333589D01*
X65586452Y-42202317D01*
X65586453Y-42202317D01*
X65586450Y-42202315D01*
X65403954Y-42104768D01*
X65337447Y-42084593D01*
X65279009Y-42046296D01*
X65250553Y-41982484D01*
X65261113Y-41913417D01*
X65307337Y-41861023D01*
X65341350Y-41846158D01*
X65463483Y-41813433D01*
X65463492Y-41813429D01*
X65677578Y-41713600D01*
X65871082Y-41578105D01*
X66038105Y-41411082D01*
X66173600Y-41217578D01*
X66273429Y-41003492D01*
X66273432Y-41003486D01*
X66330636Y-40790000D01*
X65433686Y-40790000D01*
X65459493Y-40749844D01*
X65500000Y-40611889D01*
X65500000Y-40468111D01*
X65459493Y-40330156D01*
X65433686Y-40290000D01*
X66330636Y-40290000D01*
X66330635Y-40289999D01*
X66273432Y-40076513D01*
X66273429Y-40076507D01*
X66173600Y-39862422D01*
X66173599Y-39862420D01*
X66038113Y-39668926D01*
X66038108Y-39668920D01*
X65871082Y-39501894D01*
X65677578Y-39366399D01*
X65507052Y-39286882D01*
X65454613Y-39240710D01*
X65435461Y-39173516D01*
X65455677Y-39106635D01*
X65508842Y-39061300D01*
X65559457Y-39050500D01*
X65869750Y-39050500D01*
X65869751Y-39050499D01*
X65884568Y-39047552D01*
X65928229Y-39038868D01*
X65928229Y-39038867D01*
X65928231Y-39038867D01*
X65994552Y-38994552D01*
X66038867Y-38928231D01*
X66038867Y-38928229D01*
X66038868Y-38928229D01*
X66050499Y-38869752D01*
X66050500Y-38869750D01*
X66050500Y-37130249D01*
X66050499Y-37130247D01*
X66038868Y-37071770D01*
X66038867Y-37071769D01*
X65994552Y-37005447D01*
X65928230Y-36961132D01*
X65928229Y-36961131D01*
X65869752Y-36949500D01*
X65869748Y-36949500D01*
X64130252Y-36949500D01*
X64130247Y-36949500D01*
X64071770Y-36961131D01*
X64071769Y-36961132D01*
X64005447Y-37005447D01*
X63961132Y-37071769D01*
X63961131Y-37071770D01*
X63949500Y-37130247D01*
X63949500Y-38869752D01*
X63961131Y-38928229D01*
X63961132Y-38928230D01*
X64005447Y-38994552D01*
X64071769Y-39038867D01*
X64071770Y-39038868D01*
X64130247Y-39050499D01*
X64130250Y-39050500D01*
X64440543Y-39050500D01*
X64507582Y-39070185D01*
X64553337Y-39122989D01*
X64563281Y-39192147D01*
X64534256Y-39255703D01*
X64492948Y-39286882D01*
X64322422Y-39366399D01*
X64322420Y-39366400D01*
X64128926Y-39501886D01*
X64128920Y-39501891D01*
X63961891Y-39668920D01*
X63961886Y-39668926D01*
X63826400Y-39862420D01*
X63826399Y-39862422D01*
X63726570Y-40076507D01*
X63726567Y-40076513D01*
X63669364Y-40289999D01*
X63669364Y-40290000D01*
X64566314Y-40290000D01*
X64540507Y-40330156D01*
X64500000Y-40468111D01*
X64500000Y-40611889D01*
X64540507Y-40749844D01*
X64566314Y-40790000D01*
X63669364Y-40790000D01*
X55000499Y-40790000D01*
X55000499Y-40110000D01*
X58819867Y-40110000D01*
X58838302Y-40238225D01*
X58892117Y-40356061D01*
X58892118Y-40356063D01*
X58976951Y-40453967D01*
X59085931Y-40524004D01*
X59210225Y-40560499D01*
X59210227Y-40560500D01*
X59210228Y-40560500D01*
X59339773Y-40560500D01*
X59339773Y-40560499D01*
X59464069Y-40524004D01*
X59573049Y-40453967D01*
X59657882Y-40356063D01*
X59711697Y-40238226D01*
X59730133Y-40110000D01*
X59711697Y-39981774D01*
X59657882Y-39863937D01*
X59573049Y-39766033D01*
X59464069Y-39695996D01*
X59464065Y-39695994D01*
X59464064Y-39695994D01*
X59339774Y-39659500D01*
X59339772Y-39659500D01*
X59210228Y-39659500D01*
X59210226Y-39659500D01*
X59085935Y-39695994D01*
X59085932Y-39695995D01*
X59085931Y-39695996D01*
X59034677Y-39728934D01*
X58976950Y-39766033D01*
X58892118Y-39863937D01*
X58892117Y-39863938D01*
X58838302Y-39981774D01*
X58819867Y-40110000D01*
X55000499Y-40110000D01*
X55000499Y-24700000D01*
X71289364Y-24700000D01*
X71346567Y-24913486D01*
X71346570Y-24913492D01*
X71446399Y-25127578D01*
X71581894Y-25321082D01*
X71748917Y-25488105D01*
X71942421Y-25623600D01*
X72156507Y-25723429D01*
X72156516Y-25723433D01*
X72278649Y-25756158D01*
X72338310Y-25792523D01*
X72368839Y-25855369D01*
X72360545Y-25924745D01*
X72316059Y-25978623D01*
X72282552Y-25994593D01*
X72216046Y-26014767D01*
X72085358Y-26084622D01*
X72033550Y-26112315D01*
X72033548Y-26112316D01*
X72033547Y-26112317D01*
X71873589Y-26243589D01*
X71742317Y-26403547D01*
X71644769Y-26586043D01*
X71584699Y-26784067D01*
X71564417Y-26990000D01*
X71584699Y-27195932D01*
X71584700Y-27195934D01*
X71644768Y-27393954D01*
X71742315Y-27576450D01*
X71742317Y-27576452D01*
X71873589Y-27736410D01*
X71970209Y-27815702D01*
X72033550Y-27867685D01*
X72216046Y-27965232D01*
X72414066Y-28025300D01*
X72414065Y-28025300D01*
X72432529Y-28027118D01*
X72620000Y-28045583D01*
X72825934Y-28025300D01*
X73023954Y-27965232D01*
X73206450Y-27867685D01*
X73366410Y-27736410D01*
X73497685Y-27576450D01*
X73595232Y-27393954D01*
X73655300Y-27195934D01*
X73675583Y-26990000D01*
X73655300Y-26784066D01*
X73595232Y-26586046D01*
X73497685Y-26403550D01*
X73445702Y-26340209D01*
X73366410Y-26243589D01*
X73206452Y-26112317D01*
X73206453Y-26112317D01*
X73206450Y-26112315D01*
X73023954Y-26014768D01*
X72957447Y-25994593D01*
X72899009Y-25956296D01*
X72870553Y-25892484D01*
X72881113Y-25823417D01*
X72927337Y-25771023D01*
X72961350Y-25756158D01*
X73083483Y-25723433D01*
X73083492Y-25723429D01*
X73297578Y-25623600D01*
X73491082Y-25488105D01*
X73658105Y-25321082D01*
X73793600Y-25127578D01*
X73893429Y-24913492D01*
X73893432Y-24913486D01*
X73950636Y-24700000D01*
X73053686Y-24700000D01*
X73079493Y-24659844D01*
X73120000Y-24521889D01*
X73120000Y-24378111D01*
X73079493Y-24240156D01*
X73053686Y-24200000D01*
X73950636Y-24200000D01*
X73950635Y-24199999D01*
X73893432Y-23986513D01*
X73893429Y-23986507D01*
X73793600Y-23772422D01*
X73793599Y-23772420D01*
X73658113Y-23578926D01*
X73658108Y-23578920D01*
X73491082Y-23411894D01*
X73297578Y-23276399D01*
X73083492Y-23176570D01*
X73083486Y-23176567D01*
X72961349Y-23143841D01*
X72901689Y-23107476D01*
X72871160Y-23044629D01*
X72879455Y-22975253D01*
X72923940Y-22921375D01*
X72957444Y-22905407D01*
X73023954Y-22885232D01*
X73206450Y-22787685D01*
X73366410Y-22656410D01*
X73497685Y-22496450D01*
X73595232Y-22313954D01*
X73655300Y-22115934D01*
X73675583Y-21910000D01*
X73655300Y-21704066D01*
X73595232Y-21506046D01*
X73497685Y-21323550D01*
X73445702Y-21260209D01*
X73366410Y-21163589D01*
X73206452Y-21032317D01*
X73206453Y-21032317D01*
X73206450Y-21032315D01*
X73023954Y-20934768D01*
X72825934Y-20874700D01*
X72825932Y-20874699D01*
X72825934Y-20874699D01*
X72620000Y-20854417D01*
X72414067Y-20874699D01*
X72216043Y-20934769D01*
X72113179Y-20989752D01*
X72033550Y-21032315D01*
X72033548Y-21032316D01*
X72033547Y-21032317D01*
X71873589Y-21163589D01*
X71742317Y-21323547D01*
X71644769Y-21506043D01*
X71584699Y-21704067D01*
X71564417Y-21909999D01*
X71584699Y-22115932D01*
X71584700Y-22115934D01*
X71644768Y-22313954D01*
X71742315Y-22496450D01*
X71742317Y-22496452D01*
X71873589Y-22656410D01*
X71970209Y-22735702D01*
X72033550Y-22787685D01*
X72216046Y-22885232D01*
X72282551Y-22905405D01*
X72340989Y-22943702D01*
X72369446Y-23007514D01*
X72358887Y-23076581D01*
X72312663Y-23128975D01*
X72278650Y-23143841D01*
X72156514Y-23176567D01*
X72156507Y-23176570D01*
X71942422Y-23276399D01*
X71942420Y-23276400D01*
X71748926Y-23411886D01*
X71748920Y-23411891D01*
X71581891Y-23578920D01*
X71581886Y-23578926D01*
X71446400Y-23772420D01*
X71446399Y-23772422D01*
X71346570Y-23986507D01*
X71346567Y-23986513D01*
X71289364Y-24199999D01*
X71289364Y-24200000D01*
X72186314Y-24200000D01*
X72160507Y-24240156D01*
X72120000Y-24378111D01*
X72120000Y-24521889D01*
X72160507Y-24659844D01*
X72186314Y-24700000D01*
X71289364Y-24700000D01*
X55000499Y-24700000D01*
X55000499Y-22540000D01*
X60829975Y-22540000D01*
X60850042Y-22794989D01*
X60909752Y-23043702D01*
X61007634Y-23280012D01*
X61007636Y-23280015D01*
X61141275Y-23498095D01*
X61141286Y-23498110D01*
X61144533Y-23501911D01*
X61144535Y-23501911D01*
X61708766Y-22937679D01*
X61752316Y-23019822D01*
X61872009Y-23160735D01*
X62019195Y-23272623D01*
X62061402Y-23292150D01*
X61498087Y-23855464D01*
X61498087Y-23855465D01*
X61501888Y-23858712D01*
X61501898Y-23858719D01*
X61719984Y-23992363D01*
X61719987Y-23992365D01*
X61956297Y-24090247D01*
X62205011Y-24149957D01*
X62205010Y-24149957D01*
X62460000Y-24170024D01*
X62714989Y-24149957D01*
X62963702Y-24090247D01*
X63200012Y-23992365D01*
X63200015Y-23992363D01*
X63418103Y-23858719D01*
X63421912Y-23855464D01*
X62858609Y-23292161D01*
X62977431Y-23220669D01*
X63111658Y-23093523D01*
X63214861Y-22941309D01*
X63775464Y-23501912D01*
X63778719Y-23498103D01*
X63912363Y-23280015D01*
X63912365Y-23280012D01*
X64010247Y-23043702D01*
X64069957Y-22794989D01*
X64090024Y-22540000D01*
X65909975Y-22540000D01*
X65930042Y-22794989D01*
X65989752Y-23043702D01*
X66087634Y-23280012D01*
X66087636Y-23280015D01*
X66221275Y-23498095D01*
X66221286Y-23498110D01*
X66224533Y-23501911D01*
X66224535Y-23501911D01*
X66788766Y-22937679D01*
X66832316Y-23019822D01*
X66952009Y-23160735D01*
X67099195Y-23272623D01*
X67141402Y-23292150D01*
X66578087Y-23855464D01*
X66578087Y-23855465D01*
X66581888Y-23858712D01*
X66581898Y-23858719D01*
X66799984Y-23992363D01*
X66799987Y-23992365D01*
X67036297Y-24090247D01*
X67285011Y-24149957D01*
X67285010Y-24149957D01*
X67540000Y-24170024D01*
X67794989Y-24149957D01*
X68043702Y-24090247D01*
X68280012Y-23992365D01*
X68280015Y-23992363D01*
X68498103Y-23858719D01*
X68501912Y-23855464D01*
X67938609Y-23292161D01*
X68057431Y-23220669D01*
X68191658Y-23093523D01*
X68294861Y-22941309D01*
X68855464Y-23501912D01*
X68858719Y-23498103D01*
X68992363Y-23280015D01*
X68992365Y-23280012D01*
X69090247Y-23043702D01*
X69149957Y-22794989D01*
X69170024Y-22540000D01*
X69149957Y-22285010D01*
X69090247Y-22036297D01*
X68992365Y-21799987D01*
X68992363Y-21799984D01*
X68858719Y-21581898D01*
X68858712Y-21581888D01*
X68855465Y-21578087D01*
X68855464Y-21578087D01*
X68291232Y-22142319D01*
X68247684Y-22060178D01*
X68127991Y-21919265D01*
X67980805Y-21807377D01*
X67938597Y-21787849D01*
X68501911Y-21224535D01*
X68501911Y-21224533D01*
X68498110Y-21221286D01*
X68498095Y-21221275D01*
X68280015Y-21087636D01*
X68280012Y-21087634D01*
X68043702Y-20989752D01*
X67794988Y-20930042D01*
X67794989Y-20930042D01*
X67540000Y-20909975D01*
X67285010Y-20930042D01*
X67036297Y-20989752D01*
X66799987Y-21087634D01*
X66799984Y-21087636D01*
X66581897Y-21221280D01*
X66578087Y-21224534D01*
X67141390Y-21787837D01*
X67022569Y-21859331D01*
X66888342Y-21986477D01*
X66785138Y-22138691D01*
X66224534Y-21578087D01*
X66221280Y-21581897D01*
X66087636Y-21799984D01*
X66087634Y-21799987D01*
X65989752Y-22036297D01*
X65930042Y-22285010D01*
X65909975Y-22540000D01*
X64090024Y-22540000D01*
X64069957Y-22285010D01*
X64010247Y-22036297D01*
X63912365Y-21799987D01*
X63912363Y-21799984D01*
X63778719Y-21581898D01*
X63778712Y-21581888D01*
X63775465Y-21578087D01*
X63775464Y-21578087D01*
X63211232Y-22142318D01*
X63167684Y-22060178D01*
X63047991Y-21919265D01*
X62900805Y-21807377D01*
X62858597Y-21787849D01*
X63421911Y-21224535D01*
X63421911Y-21224533D01*
X63418110Y-21221286D01*
X63418095Y-21221275D01*
X63200015Y-21087636D01*
X63200012Y-21087634D01*
X62963702Y-20989752D01*
X62714988Y-20930042D01*
X62714989Y-20930042D01*
X62460000Y-20909975D01*
X62205010Y-20930042D01*
X61956297Y-20989752D01*
X61719987Y-21087634D01*
X61719984Y-21087636D01*
X61501897Y-21221280D01*
X61498087Y-21224534D01*
X62061390Y-21787837D01*
X61942569Y-21859331D01*
X61808342Y-21986477D01*
X61705138Y-22138691D01*
X61144534Y-21578087D01*
X61141280Y-21581897D01*
X61007636Y-21799984D01*
X61007634Y-21799987D01*
X60909752Y-22036297D01*
X60850042Y-22285010D01*
X60829975Y-22540000D01*
X55000499Y-22540000D01*
X55000499Y-20000001D01*
X63769819Y-20000001D01*
X63788507Y-20213613D01*
X63788509Y-20213624D01*
X63844005Y-20420739D01*
X63844007Y-20420743D01*
X63844008Y-20420747D01*
X63889320Y-20517918D01*
X63934631Y-20615090D01*
X63934632Y-20615091D01*
X64057627Y-20790745D01*
X64209255Y-20942373D01*
X64384909Y-21065368D01*
X64579253Y-21155992D01*
X64786381Y-21211492D01*
X64935442Y-21224533D01*
X64999998Y-21230181D01*
X65000000Y-21230181D01*
X65000002Y-21230181D01*
X65053404Y-21225508D01*
X65213619Y-21211492D01*
X65420747Y-21155992D01*
X65615091Y-21065368D01*
X65790745Y-20942373D01*
X65942373Y-20790745D01*
X66065368Y-20615091D01*
X66155992Y-20420747D01*
X66204490Y-20239752D01*
X71569500Y-20239752D01*
X71581131Y-20298229D01*
X71581132Y-20298230D01*
X71625447Y-20364552D01*
X71691769Y-20408867D01*
X71691770Y-20408868D01*
X71750247Y-20420499D01*
X71750250Y-20420500D01*
X71750252Y-20420500D01*
X73489750Y-20420500D01*
X73489751Y-20420499D01*
X73504568Y-20417552D01*
X73548229Y-20408868D01*
X73548229Y-20408867D01*
X73548231Y-20408867D01*
X73614552Y-20364552D01*
X73658867Y-20298231D01*
X73658867Y-20298229D01*
X73658868Y-20298229D01*
X73670499Y-20239752D01*
X73670500Y-20239750D01*
X73670500Y-18500249D01*
X73670499Y-18500247D01*
X73658868Y-18441770D01*
X73658867Y-18441769D01*
X73614552Y-18375447D01*
X73548230Y-18331132D01*
X73548229Y-18331131D01*
X73489752Y-18319500D01*
X73489748Y-18319500D01*
X71750252Y-18319500D01*
X71750247Y-18319500D01*
X71691770Y-18331131D01*
X71691769Y-18331132D01*
X71625447Y-18375447D01*
X71581132Y-18441769D01*
X71581131Y-18441770D01*
X71569500Y-18500247D01*
X71569500Y-20239752D01*
X66204490Y-20239752D01*
X66211492Y-20213619D01*
X66230181Y-20000000D01*
X66211492Y-19786381D01*
X66155992Y-19579253D01*
X66065368Y-19384910D01*
X65942373Y-19209255D01*
X65790745Y-19057627D01*
X65615091Y-18934632D01*
X65615092Y-18934632D01*
X65615090Y-18934631D01*
X65517919Y-18889320D01*
X65420747Y-18844008D01*
X65420743Y-18844007D01*
X65420739Y-18844005D01*
X65213624Y-18788509D01*
X65213620Y-18788508D01*
X65213619Y-18788508D01*
X65213618Y-18788507D01*
X65213613Y-18788507D01*
X65000002Y-18769819D01*
X64999998Y-18769819D01*
X64786386Y-18788507D01*
X64786375Y-18788509D01*
X64579260Y-18844005D01*
X64579251Y-18844009D01*
X64384910Y-18934631D01*
X64384908Y-18934632D01*
X64209259Y-19057623D01*
X64209253Y-19057628D01*
X64057628Y-19209253D01*
X64057623Y-19209259D01*
X63934632Y-19384908D01*
X63934631Y-19384910D01*
X63844009Y-19579251D01*
X63844005Y-19579260D01*
X63788509Y-19786375D01*
X63788507Y-19786386D01*
X63769819Y-19999998D01*
X63769819Y-20000001D01*
X55000499Y-20000001D01*
X55000499Y-17460000D01*
X60829975Y-17460000D01*
X60850042Y-17714989D01*
X60909752Y-17963702D01*
X61007634Y-18200012D01*
X61007636Y-18200015D01*
X61141275Y-18418095D01*
X61141286Y-18418110D01*
X61144533Y-18421911D01*
X61144535Y-18421911D01*
X61708766Y-17857679D01*
X61752316Y-17939822D01*
X61872009Y-18080735D01*
X62019195Y-18192623D01*
X62061402Y-18212150D01*
X61498087Y-18775464D01*
X61498087Y-18775465D01*
X61501888Y-18778712D01*
X61501898Y-18778719D01*
X61719984Y-18912363D01*
X61719987Y-18912365D01*
X61956297Y-19010247D01*
X62205011Y-19069957D01*
X62205010Y-19069957D01*
X62460000Y-19090024D01*
X62714989Y-19069957D01*
X62963702Y-19010247D01*
X63200012Y-18912365D01*
X63200015Y-18912363D01*
X63418103Y-18778719D01*
X63421912Y-18775464D01*
X62858609Y-18212161D01*
X62977431Y-18140669D01*
X63111658Y-18013523D01*
X63214861Y-17861309D01*
X63775464Y-18421912D01*
X63778719Y-18418103D01*
X63912363Y-18200015D01*
X63912365Y-18200012D01*
X64010247Y-17963702D01*
X64069957Y-17714989D01*
X64090024Y-17460000D01*
X65909975Y-17460000D01*
X65930042Y-17714989D01*
X65989752Y-17963702D01*
X66087634Y-18200012D01*
X66087636Y-18200015D01*
X66221275Y-18418095D01*
X66221286Y-18418110D01*
X66224533Y-18421911D01*
X66224535Y-18421911D01*
X66788766Y-17857679D01*
X66832316Y-17939822D01*
X66952009Y-18080735D01*
X67099195Y-18192623D01*
X67141402Y-18212150D01*
X66578087Y-18775464D01*
X66578087Y-18775465D01*
X66581888Y-18778712D01*
X66581898Y-18778719D01*
X66799984Y-18912363D01*
X66799987Y-18912365D01*
X67036297Y-19010247D01*
X67285011Y-19069957D01*
X67285010Y-19069957D01*
X67540000Y-19090024D01*
X67794989Y-19069957D01*
X68043702Y-19010247D01*
X68280012Y-18912365D01*
X68280015Y-18912363D01*
X68498103Y-18778719D01*
X68501912Y-18775464D01*
X67938609Y-18212161D01*
X68057431Y-18140669D01*
X68191658Y-18013523D01*
X68294861Y-17861309D01*
X68855464Y-18421912D01*
X68858719Y-18418103D01*
X68992363Y-18200015D01*
X68992365Y-18200012D01*
X69090247Y-17963702D01*
X69149957Y-17714989D01*
X69170024Y-17460000D01*
X69149957Y-17205010D01*
X69090247Y-16956297D01*
X68992365Y-16719987D01*
X68992363Y-16719984D01*
X68858719Y-16501898D01*
X68858712Y-16501888D01*
X68855465Y-16498087D01*
X68855464Y-16498087D01*
X68291232Y-17062319D01*
X68247684Y-16980178D01*
X68127991Y-16839265D01*
X67980805Y-16727377D01*
X67938597Y-16707849D01*
X68501911Y-16144535D01*
X68501911Y-16144533D01*
X68498110Y-16141286D01*
X68498095Y-16141275D01*
X68280015Y-16007636D01*
X68280012Y-16007634D01*
X68043702Y-15909752D01*
X67794988Y-15850042D01*
X67794989Y-15850042D01*
X67540000Y-15829975D01*
X67285010Y-15850042D01*
X67036297Y-15909752D01*
X66799987Y-16007634D01*
X66799984Y-16007636D01*
X66581897Y-16141280D01*
X66578087Y-16144534D01*
X67141390Y-16707837D01*
X67022569Y-16779331D01*
X66888342Y-16906477D01*
X66785138Y-17058691D01*
X66224534Y-16498087D01*
X66221280Y-16501897D01*
X66087636Y-16719984D01*
X66087634Y-16719987D01*
X65989752Y-16956297D01*
X65930042Y-17205010D01*
X65909975Y-17460000D01*
X64090024Y-17460000D01*
X64069957Y-17205010D01*
X64010247Y-16956297D01*
X63912365Y-16719987D01*
X63912363Y-16719984D01*
X63778719Y-16501898D01*
X63778712Y-16501888D01*
X63775465Y-16498087D01*
X63775464Y-16498087D01*
X63211232Y-17062318D01*
X63167684Y-16980178D01*
X63047991Y-16839265D01*
X62900805Y-16727377D01*
X62858596Y-16707849D01*
X63421911Y-16144535D01*
X63421911Y-16144533D01*
X63418110Y-16141286D01*
X63418095Y-16141275D01*
X63200015Y-16007636D01*
X63200012Y-16007634D01*
X62963702Y-15909752D01*
X62714988Y-15850042D01*
X62714989Y-15850042D01*
X62460000Y-15829975D01*
X62205010Y-15850042D01*
X61956297Y-15909752D01*
X61719987Y-16007634D01*
X61719984Y-16007636D01*
X61501897Y-16141280D01*
X61498087Y-16144534D01*
X62061390Y-16707838D01*
X61942569Y-16779331D01*
X61808342Y-16906477D01*
X61705138Y-17058691D01*
X61144534Y-16498087D01*
X61141280Y-16501897D01*
X61007636Y-16719984D01*
X61007634Y-16719987D01*
X60909752Y-16956297D01*
X60850042Y-17205010D01*
X60829975Y-17460000D01*
X55000499Y-17460000D01*
X55000499Y-17312023D01*
X55000632Y-17307981D01*
X55002463Y-17280034D01*
X55005990Y-17226226D01*
X55010715Y-17160169D01*
X55011798Y-17152250D01*
X55108157Y-16677592D01*
X55110194Y-16670050D01*
X55116530Y-16651385D01*
X55117123Y-16649719D01*
X55164736Y-16522063D01*
X55176970Y-16497790D01*
X55456059Y-16068744D01*
X55477205Y-16044052D01*
X55934491Y-15633910D01*
X55969200Y-15611923D01*
X56545807Y-15369381D01*
X56567512Y-15362520D01*
X56610457Y-15353177D01*
X56626483Y-15349989D01*
X56631595Y-15349195D01*
X56940034Y-15314495D01*
X56942834Y-15314246D01*
X56965993Y-15312728D01*
X56997981Y-15310633D01*
X57002035Y-15310500D01*
X72997964Y-15310500D01*
X73002019Y-15310633D01*
G37*
%TD.AperFunction*%
%TD*%
M02*
