%TF.GenerationSoftware,KiCad,Pcbnew,7.0.5*%
%TF.CreationDate,2023-06-30T17:27:13-05:00*%
%TF.ProjectId,Single.Channel.Amp,53696e67-6c65-42e4-9368-616e6e656c2e,rev?*%
%TF.SameCoordinates,Original*%
%TF.FileFunction,Copper,L4,Bot*%
%TF.FilePolarity,Positive*%
%FSLAX46Y46*%
G04 Gerber Fmt 4.6, Leading zero omitted, Abs format (unit mm)*
G04 Created by KiCad (PCBNEW 7.0.5) date 2023-06-30 17:27:13*
%MOMM*%
%LPD*%
G01*
G04 APERTURE LIST*
G04 Aperture macros list*
%AMRoundRect*
0 Rectangle with rounded corners*
0 $1 Rounding radius*
0 $2 $3 $4 $5 $6 $7 $8 $9 X,Y pos of 4 corners*
0 Add a 4 corners polygon primitive as box body*
4,1,4,$2,$3,$4,$5,$6,$7,$8,$9,$2,$3,0*
0 Add four circle primitives for the rounded corners*
1,1,$1+$1,$2,$3*
1,1,$1+$1,$4,$5*
1,1,$1+$1,$6,$7*
1,1,$1+$1,$8,$9*
0 Add four rect primitives between the rounded corners*
20,1,$1+$1,$2,$3,$4,$5,0*
20,1,$1+$1,$4,$5,$6,$7,0*
20,1,$1+$1,$6,$7,$8,$9,0*
20,1,$1+$1,$8,$9,$2,$3,0*%
G04 Aperture macros list end*
%TA.AperFunction,ComponentPad*%
%ADD10R,1.700000X1.700000*%
%TD*%
%TA.AperFunction,ComponentPad*%
%ADD11O,1.700000X1.700000*%
%TD*%
%TA.AperFunction,ComponentPad*%
%ADD12C,2.050000*%
%TD*%
%TA.AperFunction,ComponentPad*%
%ADD13C,2.250000*%
%TD*%
%TA.AperFunction,SMDPad,CuDef*%
%ADD14RoundRect,0.150000X0.150000X-0.587500X0.150000X0.587500X-0.150000X0.587500X-0.150000X-0.587500X0*%
%TD*%
%TA.AperFunction,SMDPad,CuDef*%
%ADD15RoundRect,0.225000X-0.225000X-0.375000X0.225000X-0.375000X0.225000X0.375000X-0.225000X0.375000X0*%
%TD*%
%TA.AperFunction,SMDPad,CuDef*%
%ADD16RoundRect,0.250000X0.600000X-0.400000X0.600000X0.400000X-0.600000X0.400000X-0.600000X-0.400000X0*%
%TD*%
%TA.AperFunction,SMDPad,CuDef*%
%ADD17RoundRect,0.150000X0.587500X0.150000X-0.587500X0.150000X-0.587500X-0.150000X0.587500X-0.150000X0*%
%TD*%
%TA.AperFunction,SMDPad,CuDef*%
%ADD18RoundRect,0.250000X-0.400000X-0.625000X0.400000X-0.625000X0.400000X0.625000X-0.400000X0.625000X0*%
%TD*%
%TA.AperFunction,SMDPad,CuDef*%
%ADD19RoundRect,0.225000X0.225000X0.375000X-0.225000X0.375000X-0.225000X-0.375000X0.225000X-0.375000X0*%
%TD*%
%TA.AperFunction,SMDPad,CuDef*%
%ADD20RoundRect,0.250000X0.412500X0.650000X-0.412500X0.650000X-0.412500X-0.650000X0.412500X-0.650000X0*%
%TD*%
%TA.AperFunction,ViaPad*%
%ADD21C,0.800000*%
%TD*%
%TA.AperFunction,Conductor*%
%ADD22C,0.250000*%
%TD*%
%TA.AperFunction,Conductor*%
%ADD23C,0.200000*%
%TD*%
G04 APERTURE END LIST*
D10*
%TO.P,J3,1,Pin_1*%
%TO.N,Net-(D1-A)*%
X72620000Y-19370000D03*
D11*
%TO.P,J3,2,Pin_2*%
%TO.N,GND*%
X72620000Y-21910000D03*
%TO.P,J3,3,Pin_3*%
%TO.N,GND1*%
X72620000Y-24450000D03*
%TO.P,J3,4,Pin_4*%
%TO.N,Net-(D2-K)*%
X72620000Y-26990000D03*
%TD*%
D12*
%TO.P,J4,1,In*%
%TO.N,Net-(J2-Input)*%
X65000000Y-67000000D03*
D13*
%TO.P,J4,2,Ext*%
%TO.N,GND1*%
X62460000Y-64460000D03*
X62460000Y-69540000D03*
X67540000Y-64460000D03*
X67540000Y-69540000D03*
%TD*%
D12*
%TO.P,J5,1,In*%
%TO.N,Net-(J2-Output)*%
X65000000Y-20000000D03*
D13*
%TO.P,J5,2,Ext*%
%TO.N,GND1*%
X62460000Y-17460000D03*
X62460000Y-22540000D03*
X67540000Y-17460000D03*
X67540000Y-22540000D03*
%TD*%
D10*
%TO.P,J2,1,Output*%
%TO.N,Net-(J2-Output)*%
X65000000Y-38000000D03*
D11*
%TO.P,J2,2,GND*%
%TO.N,GND1*%
X65000000Y-40540000D03*
%TO.P,J2,3,Pin_3*%
%TO.N,Net-(J2-Pin_3)*%
X65000000Y-43080000D03*
%TO.P,J2,4,Pin_4*%
%TO.N,Net-(J2-Pin_4)*%
X65000000Y-45620000D03*
%TO.P,J2,5,Pin_5*%
%TO.N,GND1*%
X65000000Y-48160000D03*
%TO.P,J2,6,Pin_6*%
X65000000Y-50700000D03*
%TO.P,J2,7,Pin_7*%
X65000000Y-53240000D03*
%TO.P,J2,8,Input*%
%TO.N,Net-(J2-Input)*%
X65000000Y-55780000D03*
%TD*%
D14*
%TO.P,Q2,1,B*%
%TO.N,Net-(D4-A)*%
X70130000Y-42750000D03*
%TO.P,Q2,2,E*%
%TO.N,Net-(Q2-E)*%
X68230000Y-42750000D03*
%TO.P,Q2,3,C*%
%TO.N,-11*%
X69180000Y-40875000D03*
%TD*%
D15*
%TO.P,D1,1,K*%
%TO.N,+11*%
X59450000Y-27595000D03*
%TO.P,D1,2,A*%
%TO.N,Net-(D1-A)*%
X62750000Y-27595000D03*
%TD*%
D16*
%TO.P,D3,1,K*%
%TO.N,Net-(D3-K)*%
X65395000Y-33725000D03*
%TO.P,D3,2,A*%
%TO.N,GND*%
X65395000Y-30225000D03*
%TD*%
D17*
%TO.P,Q1,1,B*%
%TO.N,Net-(D3-K)*%
X61382500Y-35745000D03*
%TO.P,Q1,2,E*%
%TO.N,Net-(Q1-E)*%
X61382500Y-37645000D03*
%TO.P,Q1,3,C*%
%TO.N,+11*%
X59507500Y-36695000D03*
%TD*%
D18*
%TO.P,R2,1*%
%TO.N,-11*%
X69175000Y-37605000D03*
%TO.P,R2,2*%
%TO.N,Net-(D4-A)*%
X72275000Y-37605000D03*
%TD*%
%TO.P,R1,1*%
%TO.N,+11*%
X59480000Y-33470000D03*
%TO.P,R1,2*%
%TO.N,Net-(D3-K)*%
X62580000Y-33470000D03*
%TD*%
D16*
%TO.P,D4,1,K*%
%TO.N,GND*%
X71505000Y-48300000D03*
%TO.P,D4,2,A*%
%TO.N,Net-(D4-A)*%
X71505000Y-44800000D03*
%TD*%
D19*
%TO.P,D2,1,K*%
%TO.N,Net-(D2-K)*%
X71945000Y-32030000D03*
%TO.P,D2,2,A*%
%TO.N,-11*%
X68645000Y-32030000D03*
%TD*%
D20*
%TO.P,C1,1*%
%TO.N,Net-(D3-K)*%
X62610000Y-30675000D03*
%TO.P,C1,2*%
%TO.N,GND*%
X59485000Y-30675000D03*
%TD*%
%TO.P,C2,1*%
%TO.N,Net-(D4-A)*%
X72390000Y-34710000D03*
%TO.P,C2,2*%
%TO.N,GND*%
X69265000Y-34710000D03*
%TD*%
D21*
%TO.N,GND*%
X73677500Y-42465000D03*
X56347500Y-46185000D03*
%TO.N,Net-(Q1-E)*%
X59275000Y-40110000D03*
%TO.N,Net-(Q2-E)*%
X68555000Y-50545000D03*
%TD*%
D22*
%TO.N,Net-(D3-K)*%
X62580000Y-34547500D02*
X61382500Y-35745000D01*
X65320000Y-33720000D02*
X65070000Y-33470000D01*
X62580000Y-33470000D02*
X62580000Y-34547500D01*
X65140000Y-33470000D02*
X65395000Y-33725000D01*
X62580000Y-33470000D02*
X65140000Y-33470000D01*
X62610000Y-30675000D02*
X62610000Y-33440000D01*
X62610000Y-33440000D02*
X62580000Y-33470000D01*
%TO.N,Net-(D4-A)*%
X72275000Y-37605000D02*
X72275000Y-34825000D01*
X70130000Y-42750000D02*
X72275000Y-40605000D01*
X72390000Y-37115000D02*
X71920000Y-37585000D01*
X72275000Y-40605000D02*
X72275000Y-37605000D01*
X71505000Y-44800000D02*
X71505000Y-44125000D01*
X71505000Y-44125000D02*
X70130000Y-42750000D01*
X72275000Y-34825000D02*
X72390000Y-34710000D01*
D23*
%TO.N,+11*%
X59480000Y-33470000D02*
X58990000Y-33470000D01*
X57475000Y-29570000D02*
X59450000Y-27595000D01*
X59507500Y-33497500D02*
X59480000Y-33470000D01*
X57475000Y-31955000D02*
X57475000Y-29570000D01*
X59507500Y-36695000D02*
X59507500Y-33497500D01*
X58990000Y-33470000D02*
X57475000Y-31955000D01*
D22*
%TO.N,Net-(D1-A)*%
X69985000Y-20820000D02*
X71435000Y-19370000D01*
X69985000Y-24015000D02*
X69985000Y-20820000D01*
X62750000Y-27595000D02*
X66405000Y-27595000D01*
X66405000Y-27595000D02*
X69985000Y-24015000D01*
X71435000Y-19370000D02*
X72620000Y-19370000D01*
%TO.N,Net-(D2-K)*%
X72620000Y-26990000D02*
X72620000Y-31355000D01*
X72620000Y-31355000D02*
X71945000Y-32030000D01*
D23*
%TO.N,-11*%
X67285000Y-36050000D02*
X68840000Y-37605000D01*
X69180000Y-37610000D02*
X69175000Y-37605000D01*
X68840000Y-37605000D02*
X69175000Y-37605000D01*
X68645000Y-32030000D02*
X67285000Y-33390000D01*
X69180000Y-40875000D02*
X69180000Y-37610000D01*
X67285000Y-33390000D02*
X67285000Y-36050000D01*
D22*
%TO.N,Net-(Q1-E)*%
X61382500Y-38002500D02*
X61382500Y-37645000D01*
X59275000Y-40110000D02*
X61382500Y-38002500D01*
%TO.N,Net-(Q2-E)*%
X68230000Y-50220000D02*
X68230000Y-42750000D01*
X68555000Y-50545000D02*
X68230000Y-50220000D01*
%TD*%
%TA.AperFunction,Conductor*%
%TO.N,GND*%
G36*
X73002019Y-15310633D02*
G01*
X73040149Y-15313131D01*
X73083793Y-15315992D01*
X73265459Y-15328985D01*
X73273102Y-15330015D01*
X73367572Y-15348806D01*
X73372190Y-15349912D01*
X73543719Y-15398061D01*
X73697413Y-15441204D01*
X73702315Y-15442802D01*
X73791762Y-15476164D01*
X73797481Y-15478634D01*
X73862544Y-15510719D01*
X73868651Y-15514176D01*
X74033108Y-15620000D01*
X74054728Y-15633912D01*
X74272782Y-15774225D01*
X74287440Y-15785274D01*
X74307332Y-15802718D01*
X74359510Y-15848476D01*
X74362463Y-15851243D01*
X74458770Y-15947550D01*
X74461531Y-15950498D01*
X74475243Y-15966135D01*
X74477144Y-15968410D01*
X74638444Y-16171187D01*
X74641459Y-16175318D01*
X74655410Y-16196197D01*
X74704958Y-16270351D01*
X74707824Y-16275085D01*
X74773806Y-16395921D01*
X74774996Y-16398213D01*
X74831352Y-16512492D01*
X74833839Y-16518251D01*
X74882881Y-16649737D01*
X74883500Y-16651475D01*
X74923597Y-16769597D01*
X74925472Y-16776353D01*
X74956848Y-16920589D01*
X74979980Y-17036880D01*
X74981015Y-17044560D01*
X74994021Y-17226413D01*
X74999367Y-17307966D01*
X74999500Y-17312023D01*
X74999500Y-73307976D01*
X74999367Y-73312033D01*
X74994022Y-73393558D01*
X74986015Y-73505514D01*
X74985608Y-73509442D01*
X74966386Y-73650854D01*
X74965760Y-73654599D01*
X74956842Y-73699440D01*
X74925471Y-73843647D01*
X74923596Y-73850403D01*
X74883496Y-73968531D01*
X74882879Y-73970265D01*
X74872626Y-73997758D01*
X74871277Y-74001080D01*
X74771176Y-74228425D01*
X74768848Y-74233157D01*
X74707824Y-74344914D01*
X74704958Y-74349648D01*
X74633467Y-74456641D01*
X74631549Y-74459351D01*
X74549744Y-74568631D01*
X74546723Y-74572357D01*
X74461529Y-74669502D01*
X74458755Y-74672464D01*
X74362464Y-74768755D01*
X74359502Y-74771529D01*
X74262357Y-74856723D01*
X74258631Y-74859744D01*
X74149351Y-74941549D01*
X74146641Y-74943467D01*
X74039649Y-75014957D01*
X74034914Y-75017823D01*
X73914075Y-75083806D01*
X73911790Y-75084993D01*
X73904596Y-75088541D01*
X73902019Y-75089740D01*
X73702563Y-75177002D01*
X73699377Y-75178292D01*
X73660275Y-75192876D01*
X73658538Y-75193494D01*
X73540402Y-75233596D01*
X73533647Y-75235471D01*
X73462130Y-75251029D01*
X73455117Y-75252554D01*
X73451369Y-75253250D01*
X73156664Y-75298589D01*
X73151657Y-75299152D01*
X73083568Y-75304022D01*
X73077972Y-75304389D01*
X73070672Y-75304867D01*
X73066636Y-75305000D01*
X56947817Y-75305000D01*
X56942201Y-75304745D01*
X56685599Y-75281417D01*
X56679129Y-75280482D01*
X56638251Y-75272351D01*
X56610617Y-75266854D01*
X56466352Y-75235471D01*
X56459597Y-75233596D01*
X56341465Y-75193496D01*
X56339728Y-75192877D01*
X56210480Y-75144670D01*
X56205300Y-75142466D01*
X56184183Y-75132323D01*
X56088201Y-75084990D01*
X56085909Y-75083800D01*
X56035990Y-75056542D01*
X55965081Y-75017823D01*
X55960357Y-75014962D01*
X55853348Y-74943461D01*
X55850639Y-74941543D01*
X55810592Y-74911564D01*
X55741353Y-74859732D01*
X55737648Y-74856729D01*
X55640680Y-74771690D01*
X55636671Y-74767843D01*
X55487338Y-74611116D01*
X55485610Y-74609226D01*
X55453281Y-74572362D01*
X55450260Y-74568637D01*
X55368449Y-74459351D01*
X55366531Y-74456640D01*
X55295037Y-74349641D01*
X55292170Y-74344907D01*
X55226173Y-74224042D01*
X55225024Y-74221830D01*
X55168635Y-74107483D01*
X55166160Y-74101750D01*
X55117093Y-73970198D01*
X55116540Y-73968646D01*
X55076394Y-73850378D01*
X55074529Y-73843659D01*
X55067509Y-73811387D01*
X55067137Y-73809545D01*
X55016592Y-73536600D01*
X55015715Y-73529742D01*
X55005991Y-73393778D01*
X55000632Y-73312019D01*
X55000499Y-73307993D01*
X55000499Y-69540001D01*
X61129437Y-69540001D01*
X61149650Y-69771044D01*
X61149651Y-69771051D01*
X61209678Y-69995074D01*
X61209679Y-69995076D01*
X61209680Y-69995079D01*
X61307699Y-70205282D01*
X61440730Y-70395269D01*
X61604731Y-70559270D01*
X61794718Y-70692301D01*
X62004921Y-70790320D01*
X62228950Y-70850349D01*
X62393985Y-70864787D01*
X62459998Y-70870563D01*
X62460000Y-70870563D01*
X62460002Y-70870563D01*
X62517762Y-70865509D01*
X62691050Y-70850349D01*
X62915079Y-70790320D01*
X63125282Y-70692301D01*
X63315269Y-70559270D01*
X63479270Y-70395269D01*
X63612301Y-70205282D01*
X63710320Y-69995079D01*
X63770349Y-69771050D01*
X63790563Y-69540001D01*
X66209437Y-69540001D01*
X66229650Y-69771044D01*
X66229651Y-69771051D01*
X66289678Y-69995074D01*
X66289679Y-69995076D01*
X66289680Y-69995079D01*
X66387699Y-70205282D01*
X66520730Y-70395269D01*
X66684731Y-70559270D01*
X66874718Y-70692301D01*
X67084921Y-70790320D01*
X67308950Y-70850349D01*
X67473985Y-70864787D01*
X67539998Y-70870563D01*
X67540000Y-70870563D01*
X67540002Y-70870563D01*
X67597762Y-70865509D01*
X67771050Y-70850349D01*
X67995079Y-70790320D01*
X68205282Y-70692301D01*
X68395269Y-70559270D01*
X68559270Y-70395269D01*
X68692301Y-70205282D01*
X68790320Y-69995079D01*
X68850349Y-69771050D01*
X68870563Y-69540000D01*
X68850349Y-69308950D01*
X68790320Y-69084921D01*
X68692301Y-68874719D01*
X68692299Y-68874716D01*
X68692298Y-68874714D01*
X68559273Y-68684735D01*
X68559268Y-68684729D01*
X68395269Y-68520730D01*
X68395263Y-68520726D01*
X68205282Y-68387699D01*
X67995079Y-68289680D01*
X67995076Y-68289679D01*
X67995074Y-68289678D01*
X67771051Y-68229651D01*
X67771044Y-68229650D01*
X67540002Y-68209437D01*
X67539998Y-68209437D01*
X67308955Y-68229650D01*
X67308948Y-68229651D01*
X67084917Y-68289681D01*
X66874718Y-68387699D01*
X66874714Y-68387701D01*
X66684735Y-68520726D01*
X66684729Y-68520731D01*
X66520731Y-68684729D01*
X66520726Y-68684735D01*
X66387701Y-68874714D01*
X66387699Y-68874718D01*
X66289681Y-69084917D01*
X66229651Y-69308948D01*
X66229650Y-69308955D01*
X66209437Y-69539998D01*
X66209437Y-69540001D01*
X63790563Y-69540001D01*
X63790563Y-69540000D01*
X63770349Y-69308950D01*
X63710320Y-69084921D01*
X63612301Y-68874719D01*
X63612299Y-68874716D01*
X63612298Y-68874714D01*
X63479273Y-68684735D01*
X63479268Y-68684729D01*
X63315269Y-68520730D01*
X63315263Y-68520726D01*
X63125282Y-68387699D01*
X62915079Y-68289680D01*
X62915076Y-68289679D01*
X62915074Y-68289678D01*
X62691051Y-68229651D01*
X62691044Y-68229650D01*
X62460002Y-68209437D01*
X62459998Y-68209437D01*
X62228955Y-68229650D01*
X62228948Y-68229651D01*
X62004917Y-68289681D01*
X61794718Y-68387699D01*
X61794714Y-68387701D01*
X61604735Y-68520726D01*
X61604729Y-68520731D01*
X61440731Y-68684729D01*
X61440726Y-68684735D01*
X61307701Y-68874714D01*
X61307699Y-68874718D01*
X61209681Y-69084917D01*
X61149651Y-69308948D01*
X61149650Y-69308955D01*
X61129437Y-69539998D01*
X61129437Y-69540001D01*
X55000499Y-69540001D01*
X55000499Y-67000001D01*
X63769819Y-67000001D01*
X63788507Y-67213613D01*
X63788509Y-67213624D01*
X63844005Y-67420739D01*
X63844007Y-67420743D01*
X63844008Y-67420747D01*
X63889320Y-67517918D01*
X63934631Y-67615090D01*
X63934632Y-67615091D01*
X64057627Y-67790745D01*
X64209255Y-67942373D01*
X64384909Y-68065368D01*
X64579253Y-68155992D01*
X64786381Y-68211492D01*
X64938965Y-68224841D01*
X64999998Y-68230181D01*
X65000000Y-68230181D01*
X65000002Y-68230181D01*
X65053404Y-68225508D01*
X65213619Y-68211492D01*
X65420747Y-68155992D01*
X65615091Y-68065368D01*
X65790745Y-67942373D01*
X65942373Y-67790745D01*
X66065368Y-67615091D01*
X66155992Y-67420747D01*
X66211492Y-67213619D01*
X66230181Y-67000000D01*
X66211492Y-66786381D01*
X66155992Y-66579253D01*
X66065368Y-66384910D01*
X65942373Y-66209255D01*
X65790745Y-66057627D01*
X65615091Y-65934632D01*
X65615092Y-65934632D01*
X65615090Y-65934631D01*
X65517918Y-65889320D01*
X65420747Y-65844008D01*
X65420743Y-65844007D01*
X65420739Y-65844005D01*
X65213624Y-65788509D01*
X65213620Y-65788508D01*
X65213619Y-65788508D01*
X65213618Y-65788507D01*
X65213613Y-65788507D01*
X65000002Y-65769819D01*
X64999998Y-65769819D01*
X64786386Y-65788507D01*
X64786375Y-65788509D01*
X64579260Y-65844005D01*
X64579251Y-65844009D01*
X64384910Y-65934631D01*
X64384908Y-65934632D01*
X64209259Y-66057623D01*
X64209253Y-66057628D01*
X64057628Y-66209253D01*
X64057623Y-66209259D01*
X63934632Y-66384908D01*
X63934631Y-66384910D01*
X63844009Y-66579251D01*
X63844005Y-66579260D01*
X63788509Y-66786375D01*
X63788507Y-66786386D01*
X63769819Y-66999998D01*
X63769819Y-67000001D01*
X55000499Y-67000001D01*
X55000499Y-64460001D01*
X61129437Y-64460001D01*
X61149650Y-64691044D01*
X61149651Y-64691051D01*
X61209678Y-64915074D01*
X61209679Y-64915076D01*
X61209680Y-64915079D01*
X61307699Y-65125282D01*
X61440730Y-65315269D01*
X61604731Y-65479270D01*
X61794718Y-65612301D01*
X62004921Y-65710320D01*
X62228950Y-65770349D01*
X62393985Y-65784787D01*
X62459998Y-65790563D01*
X62460000Y-65790563D01*
X62460002Y-65790563D01*
X62517762Y-65785509D01*
X62691050Y-65770349D01*
X62915079Y-65710320D01*
X63125282Y-65612301D01*
X63315269Y-65479270D01*
X63479270Y-65315269D01*
X63612301Y-65125282D01*
X63710320Y-64915079D01*
X63770349Y-64691050D01*
X63790563Y-64460001D01*
X66209437Y-64460001D01*
X66229650Y-64691044D01*
X66229651Y-64691051D01*
X66289678Y-64915074D01*
X66289679Y-64915076D01*
X66289680Y-64915079D01*
X66387699Y-65125282D01*
X66520730Y-65315269D01*
X66684731Y-65479270D01*
X66874718Y-65612301D01*
X67084921Y-65710320D01*
X67308950Y-65770349D01*
X67473985Y-65784787D01*
X67539998Y-65790563D01*
X67540000Y-65790563D01*
X67540002Y-65790563D01*
X67597762Y-65785509D01*
X67771050Y-65770349D01*
X67995079Y-65710320D01*
X68205282Y-65612301D01*
X68395269Y-65479270D01*
X68559270Y-65315269D01*
X68692301Y-65125282D01*
X68790320Y-64915079D01*
X68850349Y-64691050D01*
X68870563Y-64460000D01*
X68850349Y-64228950D01*
X68790320Y-64004921D01*
X68692301Y-63794719D01*
X68692299Y-63794716D01*
X68692298Y-63794714D01*
X68559273Y-63604735D01*
X68559268Y-63604729D01*
X68395269Y-63440730D01*
X68395263Y-63440726D01*
X68205282Y-63307699D01*
X67995079Y-63209680D01*
X67995076Y-63209679D01*
X67995074Y-63209678D01*
X67771051Y-63149651D01*
X67771044Y-63149650D01*
X67540002Y-63129437D01*
X67539998Y-63129437D01*
X67308955Y-63149650D01*
X67308948Y-63149651D01*
X67084917Y-63209681D01*
X66874718Y-63307699D01*
X66874714Y-63307701D01*
X66684735Y-63440726D01*
X66684729Y-63440731D01*
X66520731Y-63604729D01*
X66520726Y-63604735D01*
X66387701Y-63794714D01*
X66387699Y-63794718D01*
X66289681Y-64004917D01*
X66229651Y-64228948D01*
X66229650Y-64228955D01*
X66209437Y-64459998D01*
X66209437Y-64460001D01*
X63790563Y-64460001D01*
X63790563Y-64460000D01*
X63770349Y-64228950D01*
X63710320Y-64004921D01*
X63612301Y-63794719D01*
X63612299Y-63794716D01*
X63612298Y-63794714D01*
X63479273Y-63604735D01*
X63479268Y-63604729D01*
X63315269Y-63440730D01*
X63315263Y-63440726D01*
X63125282Y-63307699D01*
X62915079Y-63209680D01*
X62915076Y-63209679D01*
X62915074Y-63209678D01*
X62691051Y-63149651D01*
X62691044Y-63149650D01*
X62460002Y-63129437D01*
X62459998Y-63129437D01*
X62228955Y-63149650D01*
X62228948Y-63149651D01*
X62004917Y-63209681D01*
X61794718Y-63307699D01*
X61794714Y-63307701D01*
X61604735Y-63440726D01*
X61604729Y-63440731D01*
X61440731Y-63604729D01*
X61440726Y-63604735D01*
X61307701Y-63794714D01*
X61307699Y-63794718D01*
X61209681Y-64004917D01*
X61149651Y-64228948D01*
X61149650Y-64228955D01*
X61129437Y-64459998D01*
X61129437Y-64460001D01*
X55000499Y-64460001D01*
X55000499Y-55779999D01*
X63944417Y-55779999D01*
X63964699Y-55985932D01*
X63964700Y-55985934D01*
X64024768Y-56183954D01*
X64122315Y-56366450D01*
X64122317Y-56366452D01*
X64253589Y-56526410D01*
X64350209Y-56605702D01*
X64413550Y-56657685D01*
X64596046Y-56755232D01*
X64794066Y-56815300D01*
X64794065Y-56815300D01*
X64812529Y-56817118D01*
X65000000Y-56835583D01*
X65205934Y-56815300D01*
X65403954Y-56755232D01*
X65586450Y-56657685D01*
X65746410Y-56526410D01*
X65877685Y-56366450D01*
X65975232Y-56183954D01*
X66035300Y-55985934D01*
X66055583Y-55780000D01*
X66035300Y-55574066D01*
X65975232Y-55376046D01*
X65877685Y-55193550D01*
X65825702Y-55130209D01*
X65746410Y-55033589D01*
X65586452Y-54902317D01*
X65586453Y-54902317D01*
X65586450Y-54902315D01*
X65403954Y-54804768D01*
X65205934Y-54744700D01*
X65205932Y-54744699D01*
X65205934Y-54744699D01*
X65018463Y-54726235D01*
X65000000Y-54724417D01*
X64999999Y-54724417D01*
X64794067Y-54744699D01*
X64596043Y-54804769D01*
X64485898Y-54863643D01*
X64413550Y-54902315D01*
X64413548Y-54902316D01*
X64413547Y-54902317D01*
X64253589Y-55033589D01*
X64122317Y-55193547D01*
X64024769Y-55376043D01*
X63964699Y-55574067D01*
X63944417Y-55779999D01*
X55000499Y-55779999D01*
X55000499Y-53240000D01*
X63944417Y-53240000D01*
X63964699Y-53445932D01*
X63964700Y-53445934D01*
X64024768Y-53643954D01*
X64122315Y-53826450D01*
X64122317Y-53826452D01*
X64253589Y-53986410D01*
X64350209Y-54065702D01*
X64413550Y-54117685D01*
X64596046Y-54215232D01*
X64794066Y-54275300D01*
X64794065Y-54275300D01*
X64814347Y-54277297D01*
X65000000Y-54295583D01*
X65205934Y-54275300D01*
X65403954Y-54215232D01*
X65586450Y-54117685D01*
X65746410Y-53986410D01*
X65877685Y-53826450D01*
X65975232Y-53643954D01*
X66035300Y-53445934D01*
X66055583Y-53240000D01*
X66035300Y-53034066D01*
X65975232Y-52836046D01*
X65877685Y-52653550D01*
X65825702Y-52590209D01*
X65746410Y-52493589D01*
X65586452Y-52362317D01*
X65586453Y-52362317D01*
X65586450Y-52362315D01*
X65403954Y-52264768D01*
X65205934Y-52204700D01*
X65205932Y-52204699D01*
X65205934Y-52204699D01*
X65018463Y-52186235D01*
X65000000Y-52184417D01*
X64999999Y-52184417D01*
X64794067Y-52204699D01*
X64596043Y-52264769D01*
X64485898Y-52323643D01*
X64413550Y-52362315D01*
X64413548Y-52362316D01*
X64413547Y-52362317D01*
X64253589Y-52493589D01*
X64122317Y-52653547D01*
X64024769Y-52836043D01*
X63964699Y-53034067D01*
X63944417Y-53240000D01*
X55000499Y-53240000D01*
X55000499Y-50699999D01*
X63944417Y-50699999D01*
X63964699Y-50905932D01*
X63994734Y-51004944D01*
X64024768Y-51103954D01*
X64122315Y-51286450D01*
X64122317Y-51286452D01*
X64253589Y-51446410D01*
X64350209Y-51525702D01*
X64413550Y-51577685D01*
X64596046Y-51675232D01*
X64794066Y-51735300D01*
X64794065Y-51735300D01*
X64814347Y-51737297D01*
X65000000Y-51755583D01*
X65205934Y-51735300D01*
X65403954Y-51675232D01*
X65586450Y-51577685D01*
X65746410Y-51446410D01*
X65877685Y-51286450D01*
X65975232Y-51103954D01*
X66035300Y-50905934D01*
X66055583Y-50700000D01*
X66035300Y-50494066D01*
X65975232Y-50296046D01*
X65877685Y-50113550D01*
X65801291Y-50020463D01*
X65746410Y-49953589D01*
X65628677Y-49856969D01*
X65586450Y-49822315D01*
X65403954Y-49724768D01*
X65205934Y-49664700D01*
X65205932Y-49664699D01*
X65205934Y-49664699D01*
X65000000Y-49644417D01*
X64794067Y-49664699D01*
X64596043Y-49724769D01*
X64485898Y-49783643D01*
X64413550Y-49822315D01*
X64413548Y-49822316D01*
X64413547Y-49822317D01*
X64253589Y-49953589D01*
X64122317Y-50113547D01*
X64024769Y-50296043D01*
X63964699Y-50494067D01*
X63944417Y-50699999D01*
X55000499Y-50699999D01*
X55000499Y-48160000D01*
X63944417Y-48160000D01*
X63964699Y-48365932D01*
X63964700Y-48365934D01*
X64024768Y-48563954D01*
X64122315Y-48746450D01*
X64125217Y-48749986D01*
X64253589Y-48906410D01*
X64350209Y-48985702D01*
X64413550Y-49037685D01*
X64596046Y-49135232D01*
X64794066Y-49195300D01*
X64794065Y-49195300D01*
X64812529Y-49197118D01*
X65000000Y-49215583D01*
X65205934Y-49195300D01*
X65403954Y-49135232D01*
X65586450Y-49037685D01*
X65746410Y-48906410D01*
X65877685Y-48746450D01*
X65975232Y-48563954D01*
X66035300Y-48365934D01*
X66055583Y-48160000D01*
X66035300Y-47954066D01*
X65975232Y-47756046D01*
X65877685Y-47573550D01*
X65761235Y-47431654D01*
X65746410Y-47413589D01*
X65586452Y-47282317D01*
X65586453Y-47282317D01*
X65586450Y-47282315D01*
X65403954Y-47184768D01*
X65205934Y-47124700D01*
X65205932Y-47124699D01*
X65205934Y-47124699D01*
X65018463Y-47106235D01*
X65000000Y-47104417D01*
X64999999Y-47104417D01*
X64794067Y-47124699D01*
X64596043Y-47184769D01*
X64538287Y-47215641D01*
X64413550Y-47282315D01*
X64413548Y-47282316D01*
X64413547Y-47282317D01*
X64253589Y-47413589D01*
X64122317Y-47573547D01*
X64024769Y-47756043D01*
X63964699Y-47954067D01*
X63944417Y-48160000D01*
X55000499Y-48160000D01*
X55000499Y-45620000D01*
X63944417Y-45620000D01*
X63964699Y-45825932D01*
X63964700Y-45825934D01*
X64024768Y-46023954D01*
X64122315Y-46206450D01*
X64122317Y-46206452D01*
X64253589Y-46366410D01*
X64350209Y-46445702D01*
X64413550Y-46497685D01*
X64596046Y-46595232D01*
X64794066Y-46655300D01*
X64794065Y-46655300D01*
X64814347Y-46657297D01*
X65000000Y-46675583D01*
X65205934Y-46655300D01*
X65403954Y-46595232D01*
X65586450Y-46497685D01*
X65746410Y-46366410D01*
X65877685Y-46206450D01*
X65975232Y-46023954D01*
X66035300Y-45825934D01*
X66055583Y-45620000D01*
X66035300Y-45414066D01*
X65975232Y-45216046D01*
X65877685Y-45033550D01*
X65825702Y-44970209D01*
X65746410Y-44873589D01*
X65586452Y-44742317D01*
X65586453Y-44742317D01*
X65586450Y-44742315D01*
X65403954Y-44644768D01*
X65205934Y-44584700D01*
X65205932Y-44584699D01*
X65205934Y-44584699D01*
X65000000Y-44564417D01*
X64794067Y-44584699D01*
X64596043Y-44644769D01*
X64485898Y-44703643D01*
X64413550Y-44742315D01*
X64413548Y-44742316D01*
X64413547Y-44742317D01*
X64253589Y-44873589D01*
X64122317Y-45033547D01*
X64024769Y-45216043D01*
X63964699Y-45414067D01*
X63944417Y-45620000D01*
X55000499Y-45620000D01*
X55000499Y-43079999D01*
X63944417Y-43079999D01*
X63964699Y-43285932D01*
X63964700Y-43285934D01*
X64024768Y-43483954D01*
X64122315Y-43666450D01*
X64122317Y-43666452D01*
X64253589Y-43826410D01*
X64322383Y-43882867D01*
X64413550Y-43957685D01*
X64596046Y-44055232D01*
X64794066Y-44115300D01*
X64794065Y-44115300D01*
X64812529Y-44117118D01*
X65000000Y-44135583D01*
X65205934Y-44115300D01*
X65403954Y-44055232D01*
X65586450Y-43957685D01*
X65746410Y-43826410D01*
X65877685Y-43666450D01*
X65975232Y-43483954D01*
X66009569Y-43370760D01*
X67729500Y-43370760D01*
X67739426Y-43438891D01*
X67739427Y-43438893D01*
X67790802Y-43543983D01*
X67868182Y-43621363D01*
X67901666Y-43682684D01*
X67904500Y-43709043D01*
X67904500Y-50203078D01*
X67904264Y-50208485D01*
X67900735Y-50248808D01*
X67911212Y-50287910D01*
X67912383Y-50293190D01*
X67919411Y-50333043D01*
X67921235Y-50338055D01*
X67928197Y-50354861D01*
X67930445Y-50359683D01*
X67939210Y-50372201D01*
X67961536Y-50438408D01*
X67960572Y-50459504D01*
X67949318Y-50544996D01*
X67949318Y-50545001D01*
X67969955Y-50701760D01*
X67969956Y-50701762D01*
X68030464Y-50847841D01*
X68126718Y-50973282D01*
X68252159Y-51069536D01*
X68398238Y-51130044D01*
X68476618Y-51140363D01*
X68554999Y-51150682D01*
X68555000Y-51150682D01*
X68555001Y-51150682D01*
X68607254Y-51143802D01*
X68711762Y-51130044D01*
X68857841Y-51069536D01*
X68983282Y-50973282D01*
X69079536Y-50847841D01*
X69140044Y-50701762D01*
X69160682Y-50545000D01*
X69160681Y-50544996D01*
X69140044Y-50388239D01*
X69140044Y-50388238D01*
X69079536Y-50242159D01*
X68983282Y-50116718D01*
X68857841Y-50020464D01*
X68711762Y-49959956D01*
X68698399Y-49958196D01*
X68663313Y-49953577D01*
X68599417Y-49925309D01*
X68560946Y-49866984D01*
X68555500Y-49830638D01*
X68555500Y-48550000D01*
X70155001Y-48550000D01*
X70155001Y-48749986D01*
X70165494Y-48852697D01*
X70220641Y-49019119D01*
X70220643Y-49019124D01*
X70312684Y-49168345D01*
X70436654Y-49292315D01*
X70585875Y-49384356D01*
X70585880Y-49384358D01*
X70752302Y-49439505D01*
X70752309Y-49439506D01*
X70855019Y-49449999D01*
X71254999Y-49449999D01*
X71255000Y-49449998D01*
X71255000Y-48550000D01*
X71755000Y-48550000D01*
X71755000Y-49449999D01*
X72154972Y-49449999D01*
X72154986Y-49449998D01*
X72257697Y-49439505D01*
X72424119Y-49384358D01*
X72424124Y-49384356D01*
X72573345Y-49292315D01*
X72697315Y-49168345D01*
X72789356Y-49019124D01*
X72789358Y-49019119D01*
X72844505Y-48852697D01*
X72844506Y-48852690D01*
X72854999Y-48749986D01*
X72855000Y-48749973D01*
X72855000Y-48550000D01*
X71755000Y-48550000D01*
X71255000Y-48550000D01*
X70155001Y-48550000D01*
X68555500Y-48550000D01*
X68555500Y-48050000D01*
X70155000Y-48050000D01*
X71255000Y-48050000D01*
X71255000Y-47150000D01*
X71755000Y-47150000D01*
X71755000Y-48050000D01*
X72854999Y-48050000D01*
X72854999Y-47850028D01*
X72854998Y-47850013D01*
X72844505Y-47747302D01*
X72789358Y-47580880D01*
X72789356Y-47580875D01*
X72697315Y-47431654D01*
X72573345Y-47307684D01*
X72424124Y-47215643D01*
X72424119Y-47215641D01*
X72257697Y-47160494D01*
X72257690Y-47160493D01*
X72154986Y-47150000D01*
X71755000Y-47150000D01*
X71255000Y-47150000D01*
X70855028Y-47150000D01*
X70855012Y-47150001D01*
X70752302Y-47160494D01*
X70585880Y-47215641D01*
X70585875Y-47215643D01*
X70436654Y-47307684D01*
X70312684Y-47431654D01*
X70220643Y-47580875D01*
X70220641Y-47580880D01*
X70165494Y-47747302D01*
X70165493Y-47747309D01*
X70155000Y-47850013D01*
X70155000Y-48050000D01*
X68555500Y-48050000D01*
X68555500Y-43709043D01*
X68575185Y-43642004D01*
X68591814Y-43621366D01*
X68669198Y-43543983D01*
X68720573Y-43438893D01*
X68730500Y-43370760D01*
X69629500Y-43370760D01*
X69639426Y-43438891D01*
X69690803Y-43543985D01*
X69773514Y-43626696D01*
X69773515Y-43626696D01*
X69773517Y-43626698D01*
X69878607Y-43678073D01*
X69910254Y-43682684D01*
X69946739Y-43688000D01*
X69946740Y-43688000D01*
X70313261Y-43688000D01*
X70349746Y-43682684D01*
X70381393Y-43678073D01*
X70447170Y-43645916D01*
X70516041Y-43634157D01*
X70580338Y-43661500D01*
X70589310Y-43669636D01*
X70720361Y-43800687D01*
X70753846Y-43862010D01*
X70748862Y-43931702D01*
X70706990Y-43987635D01*
X70693611Y-43996105D01*
X70582850Y-44077850D01*
X70502207Y-44187117D01*
X70502206Y-44187119D01*
X70457353Y-44315298D01*
X70457353Y-44315300D01*
X70454500Y-44345730D01*
X70454500Y-45254269D01*
X70457353Y-45284699D01*
X70457353Y-45284701D01*
X70502206Y-45412880D01*
X70502207Y-45412882D01*
X70582850Y-45522150D01*
X70692118Y-45602793D01*
X70734845Y-45617744D01*
X70820299Y-45647646D01*
X70850730Y-45650500D01*
X70850734Y-45650500D01*
X72159270Y-45650500D01*
X72189699Y-45647646D01*
X72189701Y-45647646D01*
X72268707Y-45620000D01*
X72317882Y-45602793D01*
X72427150Y-45522150D01*
X72507793Y-45412882D01*
X72530219Y-45348790D01*
X72552646Y-45284701D01*
X72552646Y-45284699D01*
X72555500Y-45254269D01*
X72555500Y-44345730D01*
X72552646Y-44315300D01*
X72552646Y-44315298D01*
X72507793Y-44187119D01*
X72507792Y-44187117D01*
X72427150Y-44077850D01*
X72317882Y-43997207D01*
X72317880Y-43997206D01*
X72189700Y-43952353D01*
X72159270Y-43949500D01*
X72159266Y-43949500D01*
X71847025Y-43949500D01*
X71779986Y-43929815D01*
X71767262Y-43918613D01*
X71766504Y-43919518D01*
X71727182Y-43886523D01*
X71723193Y-43882867D01*
X70678006Y-42837680D01*
X70644521Y-42776357D01*
X70649505Y-42706665D01*
X70678002Y-42662323D01*
X72493204Y-40847120D01*
X72497166Y-40843489D01*
X72528194Y-40817455D01*
X72548438Y-40782390D01*
X72551335Y-40777841D01*
X72574554Y-40744684D01*
X72574554Y-40744681D01*
X72576819Y-40739824D01*
X72583747Y-40723099D01*
X72585584Y-40718050D01*
X72585588Y-40718045D01*
X72592619Y-40678162D01*
X72593777Y-40672940D01*
X72604264Y-40633807D01*
X72600735Y-40593481D01*
X72600500Y-40588078D01*
X72600500Y-38804500D01*
X72620185Y-38737461D01*
X72672989Y-38691706D01*
X72724500Y-38680500D01*
X72729270Y-38680500D01*
X72759699Y-38677646D01*
X72759701Y-38677646D01*
X72823790Y-38655219D01*
X72887882Y-38632793D01*
X72997150Y-38552150D01*
X73077793Y-38442882D01*
X73100219Y-38378790D01*
X73122646Y-38314701D01*
X73122646Y-38314699D01*
X73125500Y-38284269D01*
X73125500Y-36925730D01*
X73122646Y-36895300D01*
X73122646Y-36895298D01*
X73077793Y-36767119D01*
X73077792Y-36767117D01*
X72997150Y-36657850D01*
X72887882Y-36577207D01*
X72887880Y-36577206D01*
X72759700Y-36532353D01*
X72729270Y-36529500D01*
X72729266Y-36529500D01*
X72724500Y-36529500D01*
X72657461Y-36509815D01*
X72611706Y-36457011D01*
X72600500Y-36405500D01*
X72600500Y-35934500D01*
X72620185Y-35867461D01*
X72672989Y-35821706D01*
X72724500Y-35810500D01*
X72856770Y-35810500D01*
X72887199Y-35807646D01*
X72887201Y-35807646D01*
X72951290Y-35785219D01*
X73015382Y-35762793D01*
X73124650Y-35682150D01*
X73205293Y-35572882D01*
X73233032Y-35493608D01*
X73250146Y-35444701D01*
X73250146Y-35444699D01*
X73253000Y-35414269D01*
X73253000Y-34005730D01*
X73250146Y-33975300D01*
X73250146Y-33975298D01*
X73212596Y-33867989D01*
X73205293Y-33847118D01*
X73124650Y-33737850D01*
X73015382Y-33657207D01*
X73015380Y-33657206D01*
X72887200Y-33612353D01*
X72856770Y-33609500D01*
X72856766Y-33609500D01*
X71923234Y-33609500D01*
X71923230Y-33609500D01*
X71892800Y-33612353D01*
X71892798Y-33612353D01*
X71764619Y-33657206D01*
X71764617Y-33657207D01*
X71655350Y-33737850D01*
X71574707Y-33847117D01*
X71574706Y-33847119D01*
X71529853Y-33975298D01*
X71529853Y-33975300D01*
X71527000Y-34005730D01*
X71527000Y-35414269D01*
X71529853Y-35444699D01*
X71529853Y-35444701D01*
X71570808Y-35561740D01*
X71574707Y-35572882D01*
X71655350Y-35682150D01*
X71764618Y-35762793D01*
X71866458Y-35798428D01*
X71923231Y-35839148D01*
X71948978Y-35904101D01*
X71949500Y-35915468D01*
X71949500Y-36405500D01*
X71929815Y-36472539D01*
X71877011Y-36518294D01*
X71825500Y-36529500D01*
X71820730Y-36529500D01*
X71790300Y-36532353D01*
X71790298Y-36532353D01*
X71662119Y-36577206D01*
X71662117Y-36577207D01*
X71552850Y-36657850D01*
X71472207Y-36767117D01*
X71472206Y-36767119D01*
X71427353Y-36895298D01*
X71427353Y-36895300D01*
X71424500Y-36925730D01*
X71424500Y-38284269D01*
X71427353Y-38314699D01*
X71427353Y-38314701D01*
X71472206Y-38442880D01*
X71472207Y-38442882D01*
X71552850Y-38552150D01*
X71662118Y-38632793D01*
X71704845Y-38647744D01*
X71790299Y-38677646D01*
X71820730Y-38680500D01*
X71820734Y-38680500D01*
X71825500Y-38680500D01*
X71892539Y-38700185D01*
X71938294Y-38752989D01*
X71949500Y-38804500D01*
X71949500Y-40418811D01*
X71929815Y-40485850D01*
X71913181Y-40506492D01*
X70589310Y-41830362D01*
X70527987Y-41863847D01*
X70458295Y-41858863D01*
X70447170Y-41854082D01*
X70381393Y-41821926D01*
X70313261Y-41812000D01*
X70313260Y-41812000D01*
X69946740Y-41812000D01*
X69946739Y-41812000D01*
X69878608Y-41821926D01*
X69773514Y-41873303D01*
X69690803Y-41956014D01*
X69639426Y-42061108D01*
X69629500Y-42129239D01*
X69629500Y-43370760D01*
X68730500Y-43370760D01*
X68730500Y-42129240D01*
X68720573Y-42061107D01*
X68669198Y-41956017D01*
X68669196Y-41956015D01*
X68669196Y-41956014D01*
X68586485Y-41873303D01*
X68481391Y-41821926D01*
X68413261Y-41812000D01*
X68413260Y-41812000D01*
X68046740Y-41812000D01*
X68046739Y-41812000D01*
X67978608Y-41821926D01*
X67873514Y-41873303D01*
X67790803Y-41956014D01*
X67739426Y-42061108D01*
X67729500Y-42129239D01*
X67729500Y-43370760D01*
X66009569Y-43370760D01*
X66035300Y-43285934D01*
X66055583Y-43080000D01*
X66035300Y-42874066D01*
X65975232Y-42676046D01*
X65877685Y-42493550D01*
X65825702Y-42430209D01*
X65746410Y-42333589D01*
X65586452Y-42202317D01*
X65586453Y-42202317D01*
X65586450Y-42202315D01*
X65403954Y-42104768D01*
X65205934Y-42044700D01*
X65205932Y-42044699D01*
X65205934Y-42044699D01*
X65000000Y-42024417D01*
X64794067Y-42044699D01*
X64596043Y-42104769D01*
X64485898Y-42163643D01*
X64413550Y-42202315D01*
X64413548Y-42202316D01*
X64413547Y-42202317D01*
X64253589Y-42333589D01*
X64122317Y-42493547D01*
X64024769Y-42676043D01*
X63964699Y-42874067D01*
X63944417Y-43079999D01*
X55000499Y-43079999D01*
X55000499Y-40110001D01*
X58669318Y-40110001D01*
X58689955Y-40266760D01*
X58689956Y-40266762D01*
X58750464Y-40412841D01*
X58846718Y-40538282D01*
X58972159Y-40634536D01*
X59118238Y-40695044D01*
X59196618Y-40705363D01*
X59274999Y-40715682D01*
X59275000Y-40715682D01*
X59275001Y-40715682D01*
X59327254Y-40708802D01*
X59431762Y-40695044D01*
X59577841Y-40634536D01*
X59701043Y-40540000D01*
X63944417Y-40540000D01*
X63964699Y-40745932D01*
X63986395Y-40817453D01*
X64024768Y-40943954D01*
X64122315Y-41126450D01*
X64122317Y-41126452D01*
X64253589Y-41286410D01*
X64350209Y-41365702D01*
X64413550Y-41417685D01*
X64596046Y-41515232D01*
X64794066Y-41575300D01*
X64794065Y-41575300D01*
X64812529Y-41577118D01*
X65000000Y-41595583D01*
X65205934Y-41575300D01*
X65403954Y-41515232D01*
X65586450Y-41417685D01*
X65746410Y-41286410D01*
X65877685Y-41126450D01*
X65975232Y-40943954D01*
X66035300Y-40745934D01*
X66055583Y-40540000D01*
X66035300Y-40334066D01*
X65975232Y-40136046D01*
X65877685Y-39953550D01*
X65757546Y-39807159D01*
X65746410Y-39793589D01*
X65586452Y-39662317D01*
X65586453Y-39662317D01*
X65586450Y-39662315D01*
X65403954Y-39564768D01*
X65205934Y-39504700D01*
X65205932Y-39504699D01*
X65205934Y-39504699D01*
X65000000Y-39484417D01*
X64794067Y-39504699D01*
X64596043Y-39564769D01*
X64485898Y-39623643D01*
X64413550Y-39662315D01*
X64413548Y-39662316D01*
X64413547Y-39662317D01*
X64253589Y-39793589D01*
X64122571Y-39953238D01*
X64122315Y-39953550D01*
X64099936Y-39995418D01*
X64024769Y-40136043D01*
X63964699Y-40334067D01*
X63944417Y-40540000D01*
X59701043Y-40540000D01*
X59703282Y-40538282D01*
X59799536Y-40412841D01*
X59860044Y-40266762D01*
X59880682Y-40110000D01*
X59871752Y-40042180D01*
X59882518Y-39973145D01*
X59907008Y-39938316D01*
X60975572Y-38869752D01*
X63949500Y-38869752D01*
X63961131Y-38928229D01*
X63961132Y-38928230D01*
X64005447Y-38994552D01*
X64071769Y-39038867D01*
X64071770Y-39038868D01*
X64130247Y-39050499D01*
X64130250Y-39050500D01*
X64130252Y-39050500D01*
X65869750Y-39050500D01*
X65869751Y-39050499D01*
X65884568Y-39047552D01*
X65928229Y-39038868D01*
X65928229Y-39038867D01*
X65928231Y-39038867D01*
X65994552Y-38994552D01*
X66038867Y-38928231D01*
X66038867Y-38928229D01*
X66038868Y-38928229D01*
X66050499Y-38869752D01*
X66050500Y-38869750D01*
X66050500Y-37130249D01*
X66050499Y-37130247D01*
X66038868Y-37071770D01*
X66038867Y-37071769D01*
X65994552Y-37005447D01*
X65928230Y-36961132D01*
X65928229Y-36961131D01*
X65869752Y-36949500D01*
X65869748Y-36949500D01*
X64130252Y-36949500D01*
X64130247Y-36949500D01*
X64071770Y-36961131D01*
X64071769Y-36961132D01*
X64005447Y-37005447D01*
X63961132Y-37071769D01*
X63961131Y-37071770D01*
X63949500Y-37130247D01*
X63949500Y-38869752D01*
X60975572Y-38869752D01*
X61600704Y-38244620D01*
X61604666Y-38240989D01*
X61635694Y-38214955D01*
X61639996Y-38207502D01*
X61690563Y-38159285D01*
X61747385Y-38145500D01*
X62003261Y-38145500D01*
X62025970Y-38142191D01*
X62071393Y-38135573D01*
X62176483Y-38084198D01*
X62259198Y-38001483D01*
X62310573Y-37896393D01*
X62320500Y-37828260D01*
X62320500Y-37461740D01*
X62310573Y-37393607D01*
X62259198Y-37288517D01*
X62259196Y-37288515D01*
X62259196Y-37288514D01*
X62176485Y-37205803D01*
X62071391Y-37154426D01*
X62003261Y-37144500D01*
X62003260Y-37144500D01*
X60761740Y-37144500D01*
X60761739Y-37144500D01*
X60693608Y-37154426D01*
X60588514Y-37205803D01*
X60505803Y-37288514D01*
X60454426Y-37393608D01*
X60444500Y-37461739D01*
X60444500Y-37828260D01*
X60454426Y-37896391D01*
X60505803Y-38001485D01*
X60588514Y-38084196D01*
X60588515Y-38084196D01*
X60588517Y-38084198D01*
X60601717Y-38090651D01*
X60653300Y-38137776D01*
X60671216Y-38205310D01*
X60649777Y-38271809D01*
X60634940Y-38289733D01*
X59446684Y-39477988D01*
X59385361Y-39511473D01*
X59342818Y-39513246D01*
X59275001Y-39504318D01*
X59274999Y-39504318D01*
X59118239Y-39524955D01*
X59118237Y-39524956D01*
X58972160Y-39585463D01*
X58846718Y-39681718D01*
X58750463Y-39807160D01*
X58689956Y-39953237D01*
X58689955Y-39953239D01*
X58669318Y-40109998D01*
X58669318Y-40110001D01*
X55000499Y-40110001D01*
X55000499Y-29555885D01*
X57169621Y-29555885D01*
X57173904Y-29586591D01*
X57174499Y-29595166D01*
X57174499Y-31892163D01*
X57173904Y-31900734D01*
X57172227Y-31912762D01*
X57174434Y-31960509D01*
X57174500Y-31963372D01*
X57174500Y-31982845D01*
X57174993Y-31985482D01*
X57175982Y-31994015D01*
X57177415Y-32024991D01*
X57177416Y-32024997D01*
X57180214Y-32031334D01*
X57188664Y-32058620D01*
X57189937Y-32065429D01*
X57189937Y-32065430D01*
X57206260Y-32091793D01*
X57210263Y-32099386D01*
X57222794Y-32127765D01*
X57222795Y-32127766D01*
X57222796Y-32127768D01*
X57227689Y-32132661D01*
X57245435Y-32155065D01*
X57249077Y-32160948D01*
X57249080Y-32160951D01*
X57273826Y-32179639D01*
X57280311Y-32185282D01*
X58593181Y-33498152D01*
X58626666Y-33559475D01*
X58629500Y-33585833D01*
X58629500Y-34149269D01*
X58632353Y-34179699D01*
X58632353Y-34179701D01*
X58677206Y-34307880D01*
X58677207Y-34307882D01*
X58757850Y-34417150D01*
X58867118Y-34497793D01*
X58909845Y-34512743D01*
X58995299Y-34542646D01*
X59025730Y-34545500D01*
X59025734Y-34545500D01*
X59083000Y-34545500D01*
X59150039Y-34565185D01*
X59195794Y-34617989D01*
X59207000Y-34669500D01*
X59207000Y-36070500D01*
X59187315Y-36137539D01*
X59134511Y-36183294D01*
X59083000Y-36194500D01*
X58886739Y-36194500D01*
X58818608Y-36204426D01*
X58713514Y-36255803D01*
X58630803Y-36338514D01*
X58579426Y-36443608D01*
X58569500Y-36511739D01*
X58569500Y-36878260D01*
X58579426Y-36946391D01*
X58630803Y-37051485D01*
X58713514Y-37134196D01*
X58713515Y-37134196D01*
X58713517Y-37134198D01*
X58818607Y-37185573D01*
X58852673Y-37190536D01*
X58886739Y-37195500D01*
X58886740Y-37195500D01*
X60128261Y-37195500D01*
X60150970Y-37192191D01*
X60196393Y-37185573D01*
X60301483Y-37134198D01*
X60384198Y-37051483D01*
X60435573Y-36946393D01*
X60445500Y-36878260D01*
X60445500Y-36511740D01*
X60435573Y-36443607D01*
X60384198Y-36338517D01*
X60384196Y-36338515D01*
X60384196Y-36338514D01*
X60301485Y-36255803D01*
X60196391Y-36204426D01*
X60128261Y-36194500D01*
X60128260Y-36194500D01*
X59932000Y-36194500D01*
X59864961Y-36174815D01*
X59819206Y-36122011D01*
X59808000Y-36070500D01*
X59808000Y-35928260D01*
X60444500Y-35928260D01*
X60454426Y-35996391D01*
X60505803Y-36101485D01*
X60588514Y-36184196D01*
X60588515Y-36184196D01*
X60588517Y-36184198D01*
X60693607Y-36235573D01*
X60727673Y-36240536D01*
X60761739Y-36245500D01*
X60761740Y-36245500D01*
X62003261Y-36245500D01*
X62025970Y-36242191D01*
X62071393Y-36235573D01*
X62176483Y-36184198D01*
X62259198Y-36101483D01*
X62310573Y-35996393D01*
X62320500Y-35928260D01*
X62320500Y-35561740D01*
X62310573Y-35493607D01*
X62278415Y-35427827D01*
X62266657Y-35358956D01*
X62294001Y-35294659D01*
X62302126Y-35285698D01*
X62798204Y-34789620D01*
X62802166Y-34785989D01*
X62833194Y-34759955D01*
X62853438Y-34724890D01*
X62856335Y-34720341D01*
X62879554Y-34687184D01*
X62879554Y-34687181D01*
X62881819Y-34682324D01*
X62888747Y-34665599D01*
X62890584Y-34660550D01*
X62890588Y-34660545D01*
X62892805Y-34647967D01*
X62923829Y-34585368D01*
X62983775Y-34549475D01*
X63014921Y-34545500D01*
X63034270Y-34545500D01*
X63064699Y-34542646D01*
X63064701Y-34542646D01*
X63128790Y-34520219D01*
X63192882Y-34497793D01*
X63302150Y-34417150D01*
X63382793Y-34307882D01*
X63417149Y-34209699D01*
X63427646Y-34179701D01*
X63427646Y-34179699D01*
X63427687Y-34179266D01*
X63430500Y-34149266D01*
X63430500Y-33919500D01*
X63450185Y-33852461D01*
X63502989Y-33806706D01*
X63554500Y-33795500D01*
X64220500Y-33795500D01*
X64287539Y-33815185D01*
X64333294Y-33867989D01*
X64344500Y-33919500D01*
X64344499Y-34179269D01*
X64347353Y-34209699D01*
X64347353Y-34209701D01*
X64392206Y-34337880D01*
X64392207Y-34337882D01*
X64472850Y-34447150D01*
X64582118Y-34527793D01*
X64624566Y-34542646D01*
X64710299Y-34572646D01*
X64740730Y-34575500D01*
X64740734Y-34575500D01*
X66049270Y-34575500D01*
X66079699Y-34572646D01*
X66079701Y-34572646D01*
X66145918Y-34549475D01*
X66207882Y-34527793D01*
X66317150Y-34447150D01*
X66397793Y-34337882D01*
X66420219Y-34273790D01*
X66442646Y-34209701D01*
X66442646Y-34209699D01*
X66445500Y-34179269D01*
X66445500Y-33375885D01*
X66979621Y-33375885D01*
X66983904Y-33406591D01*
X66984499Y-33415166D01*
X66984499Y-35987163D01*
X66983904Y-35995734D01*
X66982227Y-36007762D01*
X66984434Y-36055509D01*
X66984500Y-36058372D01*
X66984500Y-36077845D01*
X66984993Y-36080482D01*
X66985982Y-36089015D01*
X66987415Y-36119991D01*
X66987416Y-36119997D01*
X66990214Y-36126334D01*
X66998664Y-36153620D01*
X66999937Y-36160429D01*
X66999937Y-36160430D01*
X66999939Y-36160433D01*
X67014093Y-36183294D01*
X67016260Y-36186793D01*
X67020263Y-36194386D01*
X67032794Y-36222765D01*
X67032795Y-36222766D01*
X67032796Y-36222768D01*
X67037689Y-36227661D01*
X67055435Y-36250065D01*
X67059077Y-36255948D01*
X67059080Y-36255951D01*
X67083826Y-36274639D01*
X67090311Y-36280282D01*
X68288181Y-37478152D01*
X68321666Y-37539475D01*
X68324500Y-37565833D01*
X68324500Y-38284269D01*
X68327353Y-38314699D01*
X68327353Y-38314701D01*
X68372206Y-38442880D01*
X68372207Y-38442882D01*
X68452850Y-38552150D01*
X68562118Y-38632793D01*
X68604845Y-38647744D01*
X68690299Y-38677646D01*
X68720730Y-38680500D01*
X68720734Y-38680500D01*
X68755500Y-38680500D01*
X68822539Y-38700185D01*
X68868294Y-38752989D01*
X68879500Y-38804500D01*
X68879500Y-39894502D01*
X68859815Y-39961541D01*
X68827555Y-39995418D01*
X68823516Y-39998301D01*
X68740803Y-40081014D01*
X68689426Y-40186108D01*
X68679500Y-40254239D01*
X68679500Y-41495760D01*
X68689426Y-41563891D01*
X68740803Y-41668985D01*
X68823514Y-41751696D01*
X68823515Y-41751696D01*
X68823517Y-41751698D01*
X68928607Y-41803073D01*
X68962673Y-41808036D01*
X68996739Y-41813000D01*
X68996740Y-41813000D01*
X69363261Y-41813000D01*
X69385970Y-41809691D01*
X69431393Y-41803073D01*
X69536483Y-41751698D01*
X69619198Y-41668983D01*
X69670573Y-41563893D01*
X69680500Y-41495760D01*
X69680500Y-40254240D01*
X69670573Y-40186107D01*
X69619198Y-40081017D01*
X69619196Y-40081015D01*
X69619196Y-40081014D01*
X69536483Y-39998301D01*
X69532445Y-39995418D01*
X69489324Y-39940442D01*
X69480500Y-39894502D01*
X69480500Y-38804500D01*
X69500185Y-38737461D01*
X69552989Y-38691706D01*
X69604500Y-38680500D01*
X69629270Y-38680500D01*
X69659699Y-38677646D01*
X69659701Y-38677646D01*
X69723790Y-38655219D01*
X69787882Y-38632793D01*
X69897150Y-38552150D01*
X69977793Y-38442882D01*
X70000219Y-38378790D01*
X70022646Y-38314701D01*
X70022646Y-38314699D01*
X70025500Y-38284269D01*
X70025500Y-36925730D01*
X70022646Y-36895300D01*
X70022646Y-36895298D01*
X69977793Y-36767119D01*
X69977792Y-36767117D01*
X69897150Y-36657850D01*
X69787882Y-36577207D01*
X69787880Y-36577206D01*
X69659700Y-36532353D01*
X69629270Y-36529500D01*
X69629266Y-36529500D01*
X68720734Y-36529500D01*
X68720730Y-36529500D01*
X68690300Y-36532353D01*
X68690298Y-36532353D01*
X68562119Y-36577206D01*
X68562118Y-36577207D01*
X68461017Y-36651822D01*
X68395388Y-36675792D01*
X68327217Y-36660476D01*
X68299703Y-36639732D01*
X67621819Y-35961847D01*
X67588334Y-35900524D01*
X67585500Y-35874166D01*
X67585500Y-34960000D01*
X68102501Y-34960000D01*
X68102501Y-35409986D01*
X68112994Y-35512697D01*
X68168141Y-35679119D01*
X68168143Y-35679124D01*
X68260184Y-35828345D01*
X68384154Y-35952315D01*
X68533375Y-36044356D01*
X68533380Y-36044358D01*
X68699802Y-36099505D01*
X68699809Y-36099506D01*
X68802519Y-36109999D01*
X69014999Y-36109999D01*
X69015000Y-36109998D01*
X69015000Y-34960000D01*
X69515000Y-34960000D01*
X69515000Y-36109999D01*
X69727472Y-36109999D01*
X69727486Y-36109998D01*
X69830197Y-36099505D01*
X69996619Y-36044358D01*
X69996624Y-36044356D01*
X70145845Y-35952315D01*
X70269815Y-35828345D01*
X70361856Y-35679124D01*
X70361858Y-35679119D01*
X70417005Y-35512697D01*
X70417006Y-35512690D01*
X70427499Y-35409986D01*
X70427500Y-35409973D01*
X70427500Y-34960000D01*
X69515000Y-34960000D01*
X69015000Y-34960000D01*
X68102501Y-34960000D01*
X67585500Y-34960000D01*
X67585500Y-34460000D01*
X68102500Y-34460000D01*
X69015000Y-34460000D01*
X69015000Y-33310000D01*
X69515000Y-33310000D01*
X69515000Y-34460000D01*
X70427499Y-34460000D01*
X70427499Y-34010028D01*
X70427498Y-34010013D01*
X70417005Y-33907302D01*
X70361858Y-33740880D01*
X70361856Y-33740875D01*
X70269815Y-33591654D01*
X70145845Y-33467684D01*
X69996624Y-33375643D01*
X69996619Y-33375641D01*
X69830197Y-33320494D01*
X69830190Y-33320493D01*
X69727486Y-33310000D01*
X69515000Y-33310000D01*
X69015000Y-33310000D01*
X68802529Y-33310000D01*
X68802512Y-33310001D01*
X68699802Y-33320494D01*
X68533380Y-33375641D01*
X68533375Y-33375643D01*
X68384154Y-33467684D01*
X68260184Y-33591654D01*
X68168143Y-33740875D01*
X68168141Y-33740880D01*
X68112994Y-33907302D01*
X68112993Y-33907309D01*
X68102500Y-34010013D01*
X68102500Y-34460000D01*
X67585500Y-34460000D01*
X67585500Y-33565832D01*
X67605185Y-33498793D01*
X67621819Y-33478151D01*
X67918596Y-33181374D01*
X68240798Y-32859171D01*
X68302119Y-32825688D01*
X68347876Y-32824381D01*
X68386508Y-32830500D01*
X68386512Y-32830500D01*
X68903493Y-32830500D01*
X69003121Y-32814720D01*
X69003121Y-32814719D01*
X69003126Y-32814719D01*
X69123220Y-32753528D01*
X69218528Y-32658220D01*
X69279719Y-32538126D01*
X69279720Y-32538121D01*
X69295500Y-32438493D01*
X71294500Y-32438493D01*
X71310279Y-32538121D01*
X71310280Y-32538124D01*
X71310281Y-32538126D01*
X71358173Y-32632119D01*
X71371473Y-32658221D01*
X71371476Y-32658225D01*
X71466774Y-32753523D01*
X71466778Y-32753526D01*
X71466780Y-32753528D01*
X71586874Y-32814719D01*
X71586876Y-32814719D01*
X71586878Y-32814720D01*
X71686507Y-32830500D01*
X71686512Y-32830500D01*
X72203493Y-32830500D01*
X72303121Y-32814720D01*
X72303121Y-32814719D01*
X72303126Y-32814719D01*
X72423220Y-32753528D01*
X72518528Y-32658220D01*
X72579719Y-32538126D01*
X72579720Y-32538121D01*
X72595500Y-32438493D01*
X72595500Y-31891187D01*
X72615185Y-31824148D01*
X72631814Y-31803511D01*
X72838210Y-31597115D01*
X72842172Y-31593484D01*
X72873194Y-31567455D01*
X72893444Y-31532379D01*
X72896328Y-31527852D01*
X72919554Y-31494684D01*
X72919554Y-31494681D01*
X72921819Y-31489824D01*
X72928747Y-31473099D01*
X72930587Y-31468046D01*
X72930588Y-31468045D01*
X72937621Y-31428150D01*
X72938777Y-31422937D01*
X72949263Y-31383807D01*
X72945735Y-31343489D01*
X72945500Y-31338086D01*
X72945500Y-28080583D01*
X72965185Y-28013544D01*
X73017989Y-27967789D01*
X73022049Y-27966021D01*
X73023945Y-27965234D01*
X73023954Y-27965232D01*
X73206450Y-27867685D01*
X73366410Y-27736410D01*
X73497685Y-27576450D01*
X73595232Y-27393954D01*
X73655300Y-27195934D01*
X73675583Y-26990000D01*
X73655300Y-26784066D01*
X73595232Y-26586046D01*
X73497685Y-26403550D01*
X73445702Y-26340209D01*
X73366410Y-26243589D01*
X73206452Y-26112317D01*
X73206453Y-26112317D01*
X73206450Y-26112315D01*
X73023954Y-26014768D01*
X72825934Y-25954700D01*
X72825932Y-25954699D01*
X72825934Y-25954699D01*
X72620000Y-25934417D01*
X72414067Y-25954699D01*
X72216043Y-26014769D01*
X72105898Y-26073643D01*
X72033550Y-26112315D01*
X72033548Y-26112316D01*
X72033547Y-26112317D01*
X71873589Y-26243589D01*
X71742317Y-26403547D01*
X71644769Y-26586043D01*
X71584699Y-26784067D01*
X71564417Y-26990000D01*
X71584699Y-27195932D01*
X71601044Y-27249815D01*
X71644768Y-27393954D01*
X71742315Y-27576450D01*
X71742317Y-27576452D01*
X71873589Y-27736410D01*
X71967148Y-27813191D01*
X72033550Y-27867685D01*
X72216046Y-27965232D01*
X72216051Y-27965233D01*
X72217951Y-27966021D01*
X72218796Y-27966701D01*
X72221419Y-27968104D01*
X72221153Y-27968601D01*
X72272355Y-28009862D01*
X72294421Y-28076156D01*
X72294500Y-28080583D01*
X72294500Y-31105500D01*
X72274815Y-31172539D01*
X72222011Y-31218294D01*
X72170500Y-31229500D01*
X71686507Y-31229500D01*
X71586878Y-31245279D01*
X71466778Y-31306473D01*
X71466774Y-31306476D01*
X71371476Y-31401774D01*
X71371473Y-31401778D01*
X71310279Y-31521878D01*
X71294500Y-31621506D01*
X71294500Y-32438493D01*
X69295500Y-32438493D01*
X69295500Y-31621506D01*
X69279720Y-31521878D01*
X69279719Y-31521876D01*
X69279719Y-31521874D01*
X69218528Y-31401780D01*
X69218526Y-31401778D01*
X69218523Y-31401774D01*
X69123225Y-31306476D01*
X69123221Y-31306473D01*
X69123220Y-31306472D01*
X69003126Y-31245281D01*
X69003124Y-31245280D01*
X69003121Y-31245279D01*
X68903493Y-31229500D01*
X68903488Y-31229500D01*
X68386512Y-31229500D01*
X68386507Y-31229500D01*
X68286878Y-31245279D01*
X68166778Y-31306473D01*
X68166774Y-31306476D01*
X68071476Y-31401774D01*
X68071473Y-31401778D01*
X68010279Y-31521878D01*
X67994500Y-31621506D01*
X67994500Y-32204165D01*
X67974815Y-32271204D01*
X67958181Y-32291846D01*
X67116948Y-33133080D01*
X67110464Y-33138722D01*
X67100768Y-33146044D01*
X67068559Y-33181374D01*
X67066585Y-33183442D01*
X67052827Y-33197200D01*
X67052822Y-33197206D01*
X67051306Y-33199420D01*
X67045976Y-33206148D01*
X67025083Y-33229066D01*
X67025083Y-33229067D01*
X67022578Y-33235533D01*
X67009259Y-33260802D01*
X67005345Y-33266515D01*
X67005343Y-33266521D01*
X66998244Y-33296699D01*
X66995702Y-33304907D01*
X66984500Y-33333826D01*
X66984500Y-33340751D01*
X66981206Y-33369141D01*
X66979621Y-33375877D01*
X66979621Y-33375885D01*
X66445500Y-33375885D01*
X66445500Y-33270730D01*
X66442646Y-33240300D01*
X66442646Y-33240298D01*
X66397793Y-33112119D01*
X66397792Y-33112117D01*
X66384520Y-33094134D01*
X66317150Y-33002850D01*
X66207882Y-32922207D01*
X66207880Y-32922206D01*
X66079700Y-32877353D01*
X66049270Y-32874500D01*
X66049266Y-32874500D01*
X64740734Y-32874500D01*
X64740730Y-32874500D01*
X64710300Y-32877353D01*
X64710298Y-32877353D01*
X64582119Y-32922206D01*
X64582117Y-32922207D01*
X64472850Y-33002850D01*
X64405480Y-33094134D01*
X64349833Y-33136384D01*
X64305710Y-33144500D01*
X63554500Y-33144500D01*
X63487461Y-33124815D01*
X63441706Y-33072011D01*
X63430500Y-33020500D01*
X63430500Y-32922206D01*
X63430500Y-32790734D01*
X63427646Y-32760301D01*
X63427646Y-32760300D01*
X63427646Y-32760298D01*
X63382793Y-32632119D01*
X63382792Y-32632117D01*
X63370925Y-32616038D01*
X63302150Y-32522850D01*
X63192882Y-32442207D01*
X63192880Y-32442206D01*
X63064700Y-32397353D01*
X63047921Y-32395780D01*
X62983013Y-32369922D01*
X62942388Y-32313076D01*
X62935500Y-32272322D01*
X62935500Y-31899500D01*
X62955185Y-31832461D01*
X63007989Y-31786706D01*
X63059500Y-31775500D01*
X63076770Y-31775500D01*
X63107199Y-31772646D01*
X63107201Y-31772646D01*
X63171290Y-31750219D01*
X63235382Y-31727793D01*
X63344650Y-31647150D01*
X63425293Y-31537882D01*
X63449730Y-31468045D01*
X63470146Y-31409701D01*
X63470146Y-31409699D01*
X63473000Y-31379269D01*
X63473000Y-30475000D01*
X64045001Y-30475000D01*
X64045001Y-30674986D01*
X64055494Y-30777697D01*
X64110641Y-30944119D01*
X64110643Y-30944124D01*
X64202684Y-31093345D01*
X64326654Y-31217315D01*
X64475875Y-31309356D01*
X64475880Y-31309358D01*
X64642302Y-31364505D01*
X64642309Y-31364506D01*
X64745019Y-31374999D01*
X65144999Y-31374999D01*
X65145000Y-31374998D01*
X65644999Y-31374998D01*
X65645000Y-31374999D01*
X66044972Y-31374999D01*
X66044986Y-31374998D01*
X66147697Y-31364505D01*
X66314119Y-31309358D01*
X66314124Y-31309356D01*
X66463345Y-31217315D01*
X66587315Y-31093345D01*
X66679356Y-30944124D01*
X66679358Y-30944119D01*
X66734505Y-30777697D01*
X66734506Y-30777690D01*
X66744999Y-30674986D01*
X66745000Y-30674973D01*
X66745000Y-30475000D01*
X65645000Y-30475000D01*
X65644999Y-31374998D01*
X65145000Y-31374998D01*
X65145000Y-30475000D01*
X64045001Y-30475000D01*
X63473000Y-30475000D01*
X63473000Y-29975000D01*
X64045000Y-29975000D01*
X65144999Y-29975000D01*
X65144999Y-29075000D01*
X65645000Y-29075000D01*
X65645000Y-29975000D01*
X66744999Y-29975000D01*
X66744999Y-29775028D01*
X66744998Y-29775013D01*
X66734505Y-29672302D01*
X66679358Y-29505880D01*
X66679356Y-29505875D01*
X66587315Y-29356654D01*
X66463345Y-29232684D01*
X66314124Y-29140643D01*
X66314119Y-29140641D01*
X66147697Y-29085494D01*
X66147690Y-29085493D01*
X66044986Y-29075000D01*
X65645000Y-29075000D01*
X65144999Y-29075000D01*
X64745028Y-29075000D01*
X64745012Y-29075001D01*
X64642302Y-29085494D01*
X64475880Y-29140641D01*
X64475875Y-29140643D01*
X64326654Y-29232684D01*
X64202684Y-29356654D01*
X64110643Y-29505875D01*
X64110641Y-29505880D01*
X64055494Y-29672302D01*
X64055493Y-29672309D01*
X64045000Y-29775013D01*
X64045000Y-29975000D01*
X63473000Y-29975000D01*
X63473000Y-29970730D01*
X63470146Y-29940300D01*
X63470146Y-29940298D01*
X63425293Y-29812119D01*
X63425292Y-29812117D01*
X63397908Y-29775013D01*
X63344650Y-29702850D01*
X63235382Y-29622207D01*
X63235380Y-29622206D01*
X63107200Y-29577353D01*
X63076770Y-29574500D01*
X63076766Y-29574500D01*
X62143234Y-29574500D01*
X62143230Y-29574500D01*
X62112800Y-29577353D01*
X62112798Y-29577353D01*
X61984619Y-29622206D01*
X61984617Y-29622207D01*
X61875350Y-29702850D01*
X61794707Y-29812117D01*
X61794706Y-29812119D01*
X61749853Y-29940298D01*
X61749853Y-29940300D01*
X61747000Y-29970730D01*
X61747000Y-31379269D01*
X61749853Y-31409699D01*
X61749853Y-31409701D01*
X61794706Y-31537880D01*
X61794707Y-31537882D01*
X61875350Y-31647150D01*
X61984618Y-31727793D01*
X62027345Y-31742744D01*
X62112799Y-31772646D01*
X62143230Y-31775500D01*
X62143234Y-31775500D01*
X62160500Y-31775500D01*
X62227539Y-31795185D01*
X62273294Y-31847989D01*
X62284500Y-31899500D01*
X62284500Y-32270500D01*
X62264815Y-32337539D01*
X62212011Y-32383294D01*
X62160500Y-32394500D01*
X62125730Y-32394500D01*
X62095300Y-32397353D01*
X62095298Y-32397353D01*
X61967119Y-32442206D01*
X61967117Y-32442207D01*
X61857850Y-32522850D01*
X61777207Y-32632117D01*
X61777206Y-32632119D01*
X61732353Y-32760298D01*
X61732353Y-32760300D01*
X61729500Y-32790730D01*
X61729500Y-34149269D01*
X61732353Y-34179699D01*
X61732353Y-34179701D01*
X61777206Y-34307880D01*
X61777207Y-34307882D01*
X61857850Y-34417150D01*
X61967002Y-34497707D01*
X61967557Y-34498117D01*
X62009807Y-34553764D01*
X62015266Y-34623421D01*
X61982198Y-34684970D01*
X61981604Y-34685568D01*
X61458993Y-35208181D01*
X61397670Y-35241666D01*
X61371312Y-35244500D01*
X60761739Y-35244500D01*
X60693608Y-35254426D01*
X60588514Y-35305803D01*
X60505803Y-35388514D01*
X60454426Y-35493608D01*
X60444500Y-35561739D01*
X60444500Y-35928260D01*
X59808000Y-35928260D01*
X59808000Y-34669500D01*
X59827685Y-34602461D01*
X59880489Y-34556706D01*
X59931370Y-34545637D01*
X59931370Y-34545636D01*
X59931376Y-34545635D01*
X59932000Y-34545500D01*
X59934270Y-34545500D01*
X59964699Y-34542646D01*
X59964701Y-34542646D01*
X60028790Y-34520219D01*
X60092882Y-34497793D01*
X60202150Y-34417150D01*
X60282793Y-34307882D01*
X60317149Y-34209699D01*
X60327646Y-34179701D01*
X60327646Y-34179699D01*
X60330500Y-34149269D01*
X60330500Y-32790730D01*
X60327646Y-32760300D01*
X60327646Y-32760298D01*
X60282793Y-32632119D01*
X60282792Y-32632117D01*
X60270925Y-32616038D01*
X60202150Y-32522850D01*
X60092882Y-32442207D01*
X60092880Y-32442206D01*
X59964700Y-32397353D01*
X59934270Y-32394500D01*
X59934266Y-32394500D01*
X59025734Y-32394500D01*
X59025730Y-32394500D01*
X58995300Y-32397353D01*
X58995298Y-32397353D01*
X58867119Y-32442206D01*
X58867117Y-32442207D01*
X58757849Y-32522850D01*
X58720255Y-32573788D01*
X58664607Y-32616038D01*
X58594951Y-32621495D01*
X58533402Y-32588427D01*
X58532805Y-32587834D01*
X57811819Y-31866848D01*
X57778334Y-31805525D01*
X57775500Y-31779167D01*
X57775500Y-30925000D01*
X58322501Y-30925000D01*
X58322501Y-31374986D01*
X58332994Y-31477697D01*
X58388141Y-31644119D01*
X58388143Y-31644124D01*
X58480184Y-31793345D01*
X58604154Y-31917315D01*
X58753375Y-32009356D01*
X58753380Y-32009358D01*
X58919802Y-32064505D01*
X58919809Y-32064506D01*
X59022519Y-32074999D01*
X59234999Y-32074999D01*
X59235000Y-32074998D01*
X59734999Y-32074998D01*
X59735000Y-32074999D01*
X59947472Y-32074999D01*
X59947486Y-32074998D01*
X60050197Y-32064505D01*
X60216619Y-32009358D01*
X60216624Y-32009356D01*
X60365845Y-31917315D01*
X60489815Y-31793345D01*
X60581856Y-31644124D01*
X60581858Y-31644119D01*
X60637005Y-31477697D01*
X60637006Y-31477690D01*
X60647499Y-31374986D01*
X60647500Y-31374973D01*
X60647500Y-30925000D01*
X59735000Y-30925000D01*
X59734999Y-32074998D01*
X59235000Y-32074998D01*
X59235000Y-30925000D01*
X58322501Y-30925000D01*
X57775500Y-30925000D01*
X57775500Y-30425000D01*
X58322500Y-30425000D01*
X59234999Y-30425000D01*
X59234999Y-29275000D01*
X59735000Y-29275000D01*
X59735000Y-30425000D01*
X60647499Y-30425000D01*
X60647499Y-29975028D01*
X60647498Y-29975013D01*
X60637005Y-29872302D01*
X60581858Y-29705880D01*
X60581856Y-29705875D01*
X60489815Y-29556654D01*
X60365845Y-29432684D01*
X60216624Y-29340643D01*
X60216619Y-29340641D01*
X60050197Y-29285494D01*
X60050190Y-29285493D01*
X59947486Y-29275000D01*
X59735000Y-29275000D01*
X59234999Y-29275000D01*
X59022529Y-29275000D01*
X59022512Y-29275001D01*
X58919802Y-29285494D01*
X58753380Y-29340641D01*
X58753375Y-29340643D01*
X58604154Y-29432684D01*
X58480184Y-29556654D01*
X58388143Y-29705875D01*
X58388141Y-29705880D01*
X58332994Y-29872302D01*
X58332993Y-29872309D01*
X58322500Y-29975013D01*
X58322500Y-30425000D01*
X57775500Y-30425000D01*
X57775500Y-29745832D01*
X57795185Y-29678793D01*
X57811819Y-29658151D01*
X58394970Y-29075000D01*
X59045798Y-28424171D01*
X59107119Y-28390688D01*
X59152876Y-28389381D01*
X59191508Y-28395500D01*
X59191512Y-28395500D01*
X59708493Y-28395500D01*
X59808121Y-28379720D01*
X59808121Y-28379719D01*
X59808126Y-28379719D01*
X59928220Y-28318528D01*
X60023528Y-28223220D01*
X60084719Y-28103126D01*
X60084720Y-28103121D01*
X60100500Y-28003493D01*
X62099500Y-28003493D01*
X62115279Y-28103121D01*
X62115280Y-28103122D01*
X62115281Y-28103126D01*
X62176472Y-28223220D01*
X62176473Y-28223221D01*
X62176476Y-28223225D01*
X62271774Y-28318523D01*
X62271778Y-28318526D01*
X62271780Y-28318528D01*
X62391874Y-28379719D01*
X62391876Y-28379719D01*
X62391878Y-28379720D01*
X62491507Y-28395500D01*
X62491512Y-28395500D01*
X63008493Y-28395500D01*
X63108121Y-28379720D01*
X63108121Y-28379719D01*
X63108126Y-28379719D01*
X63228220Y-28318528D01*
X63323528Y-28223220D01*
X63384719Y-28103126D01*
X63384720Y-28103121D01*
X63397078Y-28025101D01*
X63427008Y-27961967D01*
X63486319Y-27925036D01*
X63519551Y-27920500D01*
X66388078Y-27920500D01*
X66393481Y-27920735D01*
X66433807Y-27924264D01*
X66472940Y-27913777D01*
X66478162Y-27912619D01*
X66518045Y-27905588D01*
X66518050Y-27905584D01*
X66523099Y-27903747D01*
X66539824Y-27896819D01*
X66544681Y-27894554D01*
X66544684Y-27894554D01*
X66577841Y-27871335D01*
X66582390Y-27868438D01*
X66617455Y-27848194D01*
X66643481Y-27817176D01*
X66647122Y-27813202D01*
X70203204Y-24257120D01*
X70207166Y-24253489D01*
X70238194Y-24227455D01*
X70258438Y-24192390D01*
X70261335Y-24187841D01*
X70284554Y-24154684D01*
X70284554Y-24154681D01*
X70286819Y-24149824D01*
X70293747Y-24133099D01*
X70295584Y-24128050D01*
X70295588Y-24128045D01*
X70302619Y-24088162D01*
X70303777Y-24082940D01*
X70314264Y-24043807D01*
X70310735Y-24003478D01*
X70310500Y-23998075D01*
X70310500Y-21006188D01*
X70330185Y-20939149D01*
X70346819Y-20918507D01*
X71357819Y-19907507D01*
X71419142Y-19874022D01*
X71488834Y-19879006D01*
X71544767Y-19920878D01*
X71569184Y-19986342D01*
X71569500Y-19995188D01*
X71569500Y-20239752D01*
X71581131Y-20298229D01*
X71581132Y-20298230D01*
X71625447Y-20364552D01*
X71691769Y-20408867D01*
X71691770Y-20408868D01*
X71750247Y-20420499D01*
X71750250Y-20420500D01*
X72060543Y-20420500D01*
X72127582Y-20440185D01*
X72173337Y-20492989D01*
X72183281Y-20562147D01*
X72154256Y-20625703D01*
X72112948Y-20656882D01*
X71942422Y-20736399D01*
X71942420Y-20736400D01*
X71748926Y-20871886D01*
X71748920Y-20871891D01*
X71581891Y-21038920D01*
X71581886Y-21038926D01*
X71446400Y-21232420D01*
X71446399Y-21232422D01*
X71346570Y-21446507D01*
X71346567Y-21446513D01*
X71289364Y-21659999D01*
X71289364Y-21660000D01*
X72186314Y-21660000D01*
X72160507Y-21700156D01*
X72120000Y-21838111D01*
X72120000Y-21981889D01*
X72160507Y-22119844D01*
X72186314Y-22160000D01*
X71289364Y-22160000D01*
X71346567Y-22373486D01*
X71346570Y-22373492D01*
X71446399Y-22587578D01*
X71581894Y-22781082D01*
X71748917Y-22948105D01*
X71942421Y-23083600D01*
X72156507Y-23183429D01*
X72156516Y-23183433D01*
X72278649Y-23216158D01*
X72338310Y-23252523D01*
X72368839Y-23315369D01*
X72360545Y-23384745D01*
X72316059Y-23438623D01*
X72282552Y-23454593D01*
X72216046Y-23474767D01*
X72085358Y-23544622D01*
X72033550Y-23572315D01*
X72033548Y-23572316D01*
X72033547Y-23572317D01*
X71873589Y-23703589D01*
X71742317Y-23863547D01*
X71742315Y-23863550D01*
X71725050Y-23895851D01*
X71644769Y-24046043D01*
X71584699Y-24244067D01*
X71564417Y-24450000D01*
X71584699Y-24655932D01*
X71584700Y-24655934D01*
X71644768Y-24853954D01*
X71742315Y-25036450D01*
X71742317Y-25036452D01*
X71873589Y-25196410D01*
X71970209Y-25275702D01*
X72033550Y-25327685D01*
X72216046Y-25425232D01*
X72414066Y-25485300D01*
X72414065Y-25485300D01*
X72432529Y-25487118D01*
X72620000Y-25505583D01*
X72825934Y-25485300D01*
X73023954Y-25425232D01*
X73206450Y-25327685D01*
X73366410Y-25196410D01*
X73497685Y-25036450D01*
X73595232Y-24853954D01*
X73655300Y-24655934D01*
X73675583Y-24450000D01*
X73655300Y-24244066D01*
X73595232Y-24046046D01*
X73497685Y-23863550D01*
X73437585Y-23790318D01*
X73366410Y-23703589D01*
X73206452Y-23572317D01*
X73206453Y-23572317D01*
X73206450Y-23572315D01*
X73023954Y-23474768D01*
X72957447Y-23454593D01*
X72899009Y-23416296D01*
X72870553Y-23352484D01*
X72881113Y-23283417D01*
X72927337Y-23231023D01*
X72961350Y-23216158D01*
X73083483Y-23183433D01*
X73083492Y-23183429D01*
X73297578Y-23083600D01*
X73491082Y-22948105D01*
X73658105Y-22781082D01*
X73793600Y-22587578D01*
X73893429Y-22373492D01*
X73893432Y-22373486D01*
X73950636Y-22160000D01*
X73053686Y-22160000D01*
X73079493Y-22119844D01*
X73120000Y-21981889D01*
X73120000Y-21838111D01*
X73079493Y-21700156D01*
X73053686Y-21660000D01*
X73950636Y-21660000D01*
X73950635Y-21659999D01*
X73893432Y-21446513D01*
X73893429Y-21446507D01*
X73793600Y-21232422D01*
X73793599Y-21232420D01*
X73658113Y-21038926D01*
X73658108Y-21038920D01*
X73491082Y-20871894D01*
X73297578Y-20736399D01*
X73127052Y-20656882D01*
X73074613Y-20610710D01*
X73055461Y-20543516D01*
X73075677Y-20476635D01*
X73128842Y-20431300D01*
X73179457Y-20420500D01*
X73489750Y-20420500D01*
X73489751Y-20420499D01*
X73504568Y-20417552D01*
X73548229Y-20408868D01*
X73548229Y-20408867D01*
X73548231Y-20408867D01*
X73614552Y-20364552D01*
X73658867Y-20298231D01*
X73658867Y-20298229D01*
X73658868Y-20298229D01*
X73670499Y-20239752D01*
X73670500Y-20239750D01*
X73670500Y-18500249D01*
X73670499Y-18500247D01*
X73658868Y-18441770D01*
X73658867Y-18441769D01*
X73614552Y-18375447D01*
X73548230Y-18331132D01*
X73548229Y-18331131D01*
X73489752Y-18319500D01*
X73489748Y-18319500D01*
X71750252Y-18319500D01*
X71750247Y-18319500D01*
X71691770Y-18331131D01*
X71691769Y-18331132D01*
X71625447Y-18375447D01*
X71581132Y-18441769D01*
X71581131Y-18441770D01*
X71569500Y-18500247D01*
X71569500Y-18919701D01*
X71549815Y-18986740D01*
X71497011Y-19032495D01*
X71434692Y-19043229D01*
X71406193Y-19040735D01*
X71406191Y-19040735D01*
X71367091Y-19051212D01*
X71361811Y-19052383D01*
X71321959Y-19059410D01*
X71316961Y-19061229D01*
X71300117Y-19068206D01*
X71295313Y-19070446D01*
X71262166Y-19093656D01*
X71257606Y-19096562D01*
X71222548Y-19116804D01*
X71222540Y-19116810D01*
X71196523Y-19147815D01*
X71192869Y-19151804D01*
X69766803Y-20577870D01*
X69762814Y-20581525D01*
X69731805Y-20607545D01*
X69711562Y-20642606D01*
X69708656Y-20647166D01*
X69685446Y-20680313D01*
X69683206Y-20685117D01*
X69676229Y-20701961D01*
X69674410Y-20706959D01*
X69667383Y-20746811D01*
X69666212Y-20752091D01*
X69655735Y-20791191D01*
X69659264Y-20831513D01*
X69659500Y-20836920D01*
X69659500Y-23828812D01*
X69639815Y-23895851D01*
X69623181Y-23916493D01*
X66306493Y-27233181D01*
X66245170Y-27266666D01*
X66218812Y-27269500D01*
X63519551Y-27269500D01*
X63452512Y-27249815D01*
X63406757Y-27197011D01*
X63397078Y-27164899D01*
X63384720Y-27086877D01*
X63384719Y-27086875D01*
X63384719Y-27086874D01*
X63323528Y-26966780D01*
X63323526Y-26966778D01*
X63323523Y-26966774D01*
X63228225Y-26871476D01*
X63228221Y-26871473D01*
X63228220Y-26871473D01*
X63228220Y-26871472D01*
X63108126Y-26810281D01*
X63108124Y-26810280D01*
X63108121Y-26810279D01*
X63008493Y-26794500D01*
X63008488Y-26794500D01*
X62491512Y-26794500D01*
X62491507Y-26794500D01*
X62391878Y-26810279D01*
X62271778Y-26871473D01*
X62271774Y-26871476D01*
X62176476Y-26966774D01*
X62176473Y-26966778D01*
X62115279Y-27086878D01*
X62099500Y-27186506D01*
X62099500Y-28003493D01*
X60100500Y-28003493D01*
X60100500Y-27186506D01*
X60084720Y-27086878D01*
X60084719Y-27086876D01*
X60084719Y-27086874D01*
X60023528Y-26966780D01*
X60023526Y-26966778D01*
X60023523Y-26966774D01*
X59928225Y-26871476D01*
X59928221Y-26871473D01*
X59928220Y-26871473D01*
X59928220Y-26871472D01*
X59808126Y-26810281D01*
X59808124Y-26810280D01*
X59808121Y-26810279D01*
X59708493Y-26794500D01*
X59708488Y-26794500D01*
X59191512Y-26794500D01*
X59191507Y-26794500D01*
X59091878Y-26810279D01*
X58971778Y-26871473D01*
X58971774Y-26871476D01*
X58876476Y-26966774D01*
X58876473Y-26966778D01*
X58815279Y-27086878D01*
X58799499Y-27186506D01*
X58799500Y-27769166D01*
X58779815Y-27836205D01*
X58763181Y-27856847D01*
X57306948Y-29313080D01*
X57300464Y-29318722D01*
X57290768Y-29326044D01*
X57258559Y-29361374D01*
X57256585Y-29363442D01*
X57242827Y-29377200D01*
X57242822Y-29377206D01*
X57241306Y-29379420D01*
X57235976Y-29386148D01*
X57215083Y-29409066D01*
X57215083Y-29409067D01*
X57212578Y-29415533D01*
X57199259Y-29440802D01*
X57195345Y-29446515D01*
X57195343Y-29446521D01*
X57188244Y-29476699D01*
X57185702Y-29484907D01*
X57174500Y-29513826D01*
X57174500Y-29520751D01*
X57171206Y-29549141D01*
X57169621Y-29555877D01*
X57169621Y-29555885D01*
X55000499Y-29555885D01*
X55000499Y-22540001D01*
X61129437Y-22540001D01*
X61149650Y-22771044D01*
X61149651Y-22771051D01*
X61209678Y-22995074D01*
X61209679Y-22995076D01*
X61209680Y-22995079D01*
X61307699Y-23205282D01*
X61440730Y-23395269D01*
X61604731Y-23559270D01*
X61794718Y-23692301D01*
X62004921Y-23790320D01*
X62228950Y-23850349D01*
X62379806Y-23863547D01*
X62459998Y-23870563D01*
X62460000Y-23870563D01*
X62460002Y-23870563D01*
X62517762Y-23865509D01*
X62691050Y-23850349D01*
X62915079Y-23790320D01*
X63125282Y-23692301D01*
X63315269Y-23559270D01*
X63479270Y-23395269D01*
X63612301Y-23205282D01*
X63710320Y-22995079D01*
X63770349Y-22771050D01*
X63790563Y-22540001D01*
X66209437Y-22540001D01*
X66229650Y-22771044D01*
X66229651Y-22771051D01*
X66289678Y-22995074D01*
X66289679Y-22995076D01*
X66289680Y-22995079D01*
X66387699Y-23205282D01*
X66520730Y-23395269D01*
X66684731Y-23559270D01*
X66874718Y-23692301D01*
X67084921Y-23790320D01*
X67308950Y-23850349D01*
X67459806Y-23863547D01*
X67539998Y-23870563D01*
X67540000Y-23870563D01*
X67540002Y-23870563D01*
X67597762Y-23865509D01*
X67771050Y-23850349D01*
X67995079Y-23790320D01*
X68205282Y-23692301D01*
X68395269Y-23559270D01*
X68559270Y-23395269D01*
X68692301Y-23205282D01*
X68790320Y-22995079D01*
X68850349Y-22771050D01*
X68870563Y-22540000D01*
X68850349Y-22308950D01*
X68790320Y-22084921D01*
X68692301Y-21874719D01*
X68692299Y-21874716D01*
X68692298Y-21874714D01*
X68559273Y-21684735D01*
X68559268Y-21684729D01*
X68395269Y-21520730D01*
X68344310Y-21485048D01*
X68205282Y-21387699D01*
X67995079Y-21289680D01*
X67995076Y-21289679D01*
X67995074Y-21289678D01*
X67771051Y-21229651D01*
X67771044Y-21229650D01*
X67540002Y-21209437D01*
X67539998Y-21209437D01*
X67308955Y-21229650D01*
X67308948Y-21229651D01*
X67084917Y-21289681D01*
X66874718Y-21387699D01*
X66874714Y-21387701D01*
X66684735Y-21520726D01*
X66684729Y-21520731D01*
X66520731Y-21684729D01*
X66520726Y-21684735D01*
X66387701Y-21874714D01*
X66387699Y-21874718D01*
X66289681Y-22084917D01*
X66229651Y-22308948D01*
X66229650Y-22308955D01*
X66209437Y-22539998D01*
X66209437Y-22540001D01*
X63790563Y-22540001D01*
X63790563Y-22540000D01*
X63770349Y-22308950D01*
X63710320Y-22084921D01*
X63612301Y-21874719D01*
X63612299Y-21874716D01*
X63612298Y-21874714D01*
X63479273Y-21684735D01*
X63479268Y-21684729D01*
X63315269Y-21520730D01*
X63264310Y-21485048D01*
X63125282Y-21387699D01*
X62915079Y-21289680D01*
X62915076Y-21289679D01*
X62915074Y-21289678D01*
X62691051Y-21229651D01*
X62691044Y-21229650D01*
X62460002Y-21209437D01*
X62459998Y-21209437D01*
X62228955Y-21229650D01*
X62228948Y-21229651D01*
X62004917Y-21289681D01*
X61794718Y-21387699D01*
X61794714Y-21387701D01*
X61604735Y-21520726D01*
X61604729Y-21520731D01*
X61440731Y-21684729D01*
X61440726Y-21684735D01*
X61307701Y-21874714D01*
X61307699Y-21874718D01*
X61209681Y-22084917D01*
X61149651Y-22308948D01*
X61149650Y-22308955D01*
X61129437Y-22539998D01*
X61129437Y-22540001D01*
X55000499Y-22540001D01*
X55000499Y-20000001D01*
X63769819Y-20000001D01*
X63788507Y-20213613D01*
X63788509Y-20213624D01*
X63844005Y-20420739D01*
X63844007Y-20420743D01*
X63844008Y-20420747D01*
X63870069Y-20476635D01*
X63934631Y-20615090D01*
X64030561Y-20752091D01*
X64057627Y-20790745D01*
X64209255Y-20942373D01*
X64384909Y-21065368D01*
X64579253Y-21155992D01*
X64786381Y-21211492D01*
X64938966Y-21224841D01*
X64999998Y-21230181D01*
X65000000Y-21230181D01*
X65000002Y-21230181D01*
X65053404Y-21225508D01*
X65213619Y-21211492D01*
X65420747Y-21155992D01*
X65615091Y-21065368D01*
X65790745Y-20942373D01*
X65942373Y-20790745D01*
X66065368Y-20615091D01*
X66155992Y-20420747D01*
X66211492Y-20213619D01*
X66230181Y-20000000D01*
X66211492Y-19786381D01*
X66155992Y-19579253D01*
X66065368Y-19384910D01*
X65942373Y-19209255D01*
X65790745Y-19057627D01*
X65782586Y-19051914D01*
X65615090Y-18934631D01*
X65517919Y-18889320D01*
X65420747Y-18844008D01*
X65420743Y-18844007D01*
X65420739Y-18844005D01*
X65213624Y-18788509D01*
X65213620Y-18788508D01*
X65213619Y-18788508D01*
X65213618Y-18788507D01*
X65213613Y-18788507D01*
X65000002Y-18769819D01*
X64999998Y-18769819D01*
X64786386Y-18788507D01*
X64786375Y-18788509D01*
X64579260Y-18844005D01*
X64579251Y-18844009D01*
X64384910Y-18934631D01*
X64384908Y-18934632D01*
X64209259Y-19057623D01*
X64209253Y-19057628D01*
X64057628Y-19209253D01*
X64057623Y-19209259D01*
X63934632Y-19384908D01*
X63934631Y-19384910D01*
X63844009Y-19579251D01*
X63844005Y-19579260D01*
X63788509Y-19786375D01*
X63788507Y-19786386D01*
X63769819Y-19999998D01*
X63769819Y-20000001D01*
X55000499Y-20000001D01*
X55000499Y-17460001D01*
X61129437Y-17460001D01*
X61149650Y-17691044D01*
X61149651Y-17691051D01*
X61209678Y-17915074D01*
X61209679Y-17915076D01*
X61209680Y-17915079D01*
X61307699Y-18125282D01*
X61440730Y-18315269D01*
X61604731Y-18479270D01*
X61794718Y-18612301D01*
X62004921Y-18710320D01*
X62228950Y-18770349D01*
X62393985Y-18784787D01*
X62459998Y-18790563D01*
X62460000Y-18790563D01*
X62460002Y-18790563D01*
X62517762Y-18785509D01*
X62691050Y-18770349D01*
X62915079Y-18710320D01*
X63125282Y-18612301D01*
X63315269Y-18479270D01*
X63479270Y-18315269D01*
X63612301Y-18125282D01*
X63710320Y-17915079D01*
X63770349Y-17691050D01*
X63790563Y-17460001D01*
X66209437Y-17460001D01*
X66229650Y-17691044D01*
X66229651Y-17691051D01*
X66289678Y-17915074D01*
X66289679Y-17915076D01*
X66289680Y-17915079D01*
X66387699Y-18125282D01*
X66520730Y-18315269D01*
X66684731Y-18479270D01*
X66874718Y-18612301D01*
X67084921Y-18710320D01*
X67308950Y-18770349D01*
X67473985Y-18784787D01*
X67539998Y-18790563D01*
X67540000Y-18790563D01*
X67540002Y-18790563D01*
X67597762Y-18785509D01*
X67771050Y-18770349D01*
X67995079Y-18710320D01*
X68205282Y-18612301D01*
X68395269Y-18479270D01*
X68559270Y-18315269D01*
X68692301Y-18125282D01*
X68790320Y-17915079D01*
X68850349Y-17691050D01*
X68870563Y-17460000D01*
X68850349Y-17228950D01*
X68790320Y-17004921D01*
X68692301Y-16794719D01*
X68692299Y-16794716D01*
X68692298Y-16794714D01*
X68559273Y-16604735D01*
X68559268Y-16604729D01*
X68395269Y-16440730D01*
X68370381Y-16423303D01*
X68205282Y-16307699D01*
X67995079Y-16209680D01*
X67995076Y-16209679D01*
X67995074Y-16209678D01*
X67771051Y-16149651D01*
X67771044Y-16149650D01*
X67540002Y-16129437D01*
X67539998Y-16129437D01*
X67308955Y-16149650D01*
X67308948Y-16149651D01*
X67084917Y-16209681D01*
X66874718Y-16307699D01*
X66874714Y-16307701D01*
X66684735Y-16440726D01*
X66684729Y-16440731D01*
X66520731Y-16604729D01*
X66520726Y-16604735D01*
X66387701Y-16794714D01*
X66387699Y-16794718D01*
X66289681Y-17004917D01*
X66229651Y-17228948D01*
X66229650Y-17228955D01*
X66209437Y-17459998D01*
X66209437Y-17460001D01*
X63790563Y-17460001D01*
X63790563Y-17460000D01*
X63770349Y-17228950D01*
X63710320Y-17004921D01*
X63612301Y-16794719D01*
X63612299Y-16794716D01*
X63612298Y-16794714D01*
X63479273Y-16604735D01*
X63479268Y-16604729D01*
X63315269Y-16440730D01*
X63290381Y-16423303D01*
X63125282Y-16307699D01*
X62915079Y-16209680D01*
X62915076Y-16209679D01*
X62915074Y-16209678D01*
X62691051Y-16149651D01*
X62691044Y-16149650D01*
X62460002Y-16129437D01*
X62459998Y-16129437D01*
X62228955Y-16149650D01*
X62228948Y-16149651D01*
X62004917Y-16209681D01*
X61794718Y-16307699D01*
X61794714Y-16307701D01*
X61604735Y-16440726D01*
X61604729Y-16440731D01*
X61440731Y-16604729D01*
X61440726Y-16604735D01*
X61307701Y-16794714D01*
X61307699Y-16794718D01*
X61209681Y-17004917D01*
X61149651Y-17228948D01*
X61149650Y-17228955D01*
X61129437Y-17459998D01*
X61129437Y-17460001D01*
X55000499Y-17460001D01*
X55000499Y-17312023D01*
X55000632Y-17307981D01*
X55002463Y-17280034D01*
X55005990Y-17226226D01*
X55010715Y-17160169D01*
X55011798Y-17152250D01*
X55035219Y-17036880D01*
X55108157Y-16677592D01*
X55110194Y-16670050D01*
X55116530Y-16651385D01*
X55117123Y-16649719D01*
X55133904Y-16604729D01*
X55164736Y-16522061D01*
X55176970Y-16497790D01*
X55456059Y-16068744D01*
X55477205Y-16044052D01*
X55934491Y-15633910D01*
X55969200Y-15611923D01*
X56545807Y-15369381D01*
X56567512Y-15362520D01*
X56610457Y-15353177D01*
X56626483Y-15349989D01*
X56631595Y-15349195D01*
X56940034Y-15314495D01*
X56942834Y-15314246D01*
X56965993Y-15312728D01*
X56997981Y-15310633D01*
X57002035Y-15310500D01*
X72997964Y-15310500D01*
X73002019Y-15310633D01*
G37*
%TD.AperFunction*%
%TD*%
M02*
